STARTFONT 2.1
COMMENT
COMMENT Converted from OpenType font "Catrinity-Regular.otf" by "otf2bdf 3.0".
COMMENT
FONT -FreeType-Catrinity-Medium-R-Normal--7-50-100-100-P-38-ISO10646-1
SIZE 5 100 100
FONTBOUNDINGBOX 16 9 -4 -3
STARTPROPERTIES 19
FOUNDRY "FreeType"
FAMILY_NAME "Catrinity"
WEIGHT_NAME "Medium"
SLANT "R"
SETWIDTH_NAME "Normal"
ADD_STYLE_NAME ""
PIXEL_SIZE 7
POINT_SIZE 50
RESOLUTION_X 100
RESOLUTION_Y 100
SPACING "P"
AVERAGE_WIDTH 38
CHARSET_REGISTRY "ISO10646"
CHARSET_ENCODING "1"
FONT_ASCENT 5
FONT_DESCENT 2
COPYRIGHT "Typeface © Alexander Lange. 2023. All Rights Reserved"
_OTF_FONTFILE "Catrinity-Regular.otf"
_OTF_PSNAME "Catrinity"
ENDPROPERTIES
CHARS 9984
STARTCHAR 0000
ENCODING 0
SWIDTH 0 0
DWIDTH 0 0
BBX 0 0 0 0
BITMAP
ENDCHAR
STARTCHAR 0008
ENCODING 8
SWIDTH 0 0
DWIDTH 0 0
BBX 0 0 0 0
BITMAP
ENDCHAR
STARTCHAR 0009
ENCODING 9
SWIDTH 144 0
DWIDTH 1 0
BBX 0 0 0 0
BITMAP
ENDCHAR
STARTCHAR 000D
ENCODING 13
SWIDTH 144 0
DWIDTH 1 0
BBX 0 0 0 0
BITMAP
ENDCHAR
STARTCHAR 001D
ENCODING 29
SWIDTH 0 0
DWIDTH 0 0
BBX 0 0 0 0
BITMAP
ENDCHAR
STARTCHAR 0020
ENCODING 32
SWIDTH 144 0
DWIDTH 1 0
BBX 0 0 0 0
BITMAP
ENDCHAR
STARTCHAR 0021
ENCODING 33
SWIDTH 144 0
DWIDTH 1 0
BBX 1 4 0 0
BITMAP
80
80
80
80
ENDCHAR
STARTCHAR 0022
ENCODING 34
SWIDTH 288 0
DWIDTH 2 0
BBX 2 1 0 3
BITMAP
C0
ENDCHAR
STARTCHAR 0023
ENCODING 35
SWIDTH 576 0
DWIDTH 4 0
BBX 4 4 0 0
BITMAP
50
70
F0
60
ENDCHAR
STARTCHAR 0024
ENCODING 36
SWIDTH 432 0
DWIDTH 3 0
BBX 2 6 1 -1
BITMAP
80
C0
80
C0
C0
80
ENDCHAR
STARTCHAR 0025
ENCODING 37
SWIDTH 576 0
DWIDTH 4 0
BBX 4 5 0 0
BITMAP
40
F0
20
70
B0
ENDCHAR
STARTCHAR 0026
ENCODING 38
SWIDTH 432 0
DWIDTH 3 0
BBX 4 5 0 0
BITMAP
40
80
70
A0
E0
ENDCHAR
STARTCHAR 0027
ENCODING 39
SWIDTH 144 0
DWIDTH 1 0
BBX 1 1 0 3
BITMAP
80
ENDCHAR
STARTCHAR 0028
ENCODING 40
SWIDTH 288 0
DWIDTH 2 0
BBX 1 5 0 -1
BITMAP
80
80
80
80
80
ENDCHAR
STARTCHAR 0029
ENCODING 41
SWIDTH 288 0
DWIDTH 2 0
BBX 2 5 0 -1
BITMAP
80
40
40
40
80
ENDCHAR
STARTCHAR 002A
ENCODING 42
SWIDTH 432 0
DWIDTH 3 0
BBX 1 3 1 2
BITMAP
80
80
80
ENDCHAR
STARTCHAR 002B
ENCODING 43
SWIDTH 432 0
DWIDTH 3 0
BBX 2 2 1 2
BITMAP
80
C0
ENDCHAR
STARTCHAR 002C
ENCODING 44
SWIDTH 144 0
DWIDTH 1 0
BBX 1 1 0 -1
BITMAP
80
ENDCHAR
STARTCHAR 002D
ENCODING 45
SWIDTH 288 0
DWIDTH 2 0
BBX 2 1 0 1
BITMAP
C0
ENDCHAR
STARTCHAR 002E
ENCODING 46
SWIDTH 144 0
DWIDTH 1 0
BBX 1 1 0 0
BITMAP
80
ENDCHAR
STARTCHAR 002F
ENCODING 47
SWIDTH 288 0
DWIDTH 2 0
BBX 2 4 0 0
BITMAP
40
40
80
80
ENDCHAR
STARTCHAR 0030
ENCODING 48
SWIDTH 432 0
DWIDTH 3 0
BBX 3 5 0 0
BITMAP
40
A0
A0
A0
E0
ENDCHAR
STARTCHAR 0031
ENCODING 49
SWIDTH 288 0
DWIDTH 2 0
BBX 3 4 0 0
BITMAP
C0
40
40
E0
ENDCHAR
STARTCHAR 0032
ENCODING 50
SWIDTH 432 0
DWIDTH 3 0
BBX 3 5 0 0
BITMAP
40
A0
40
80
E0
ENDCHAR
STARTCHAR 0033
ENCODING 51
SWIDTH 432 0
DWIDTH 3 0
BBX 3 5 0 0
BITMAP
40
A0
40
20
E0
ENDCHAR
STARTCHAR 0034
ENCODING 52
SWIDTH 432 0
DWIDTH 3 0
BBX 4 4 0 0
BITMAP
20
E0
F0
20
ENDCHAR
STARTCHAR 0035
ENCODING 53
SWIDTH 432 0
DWIDTH 3 0
BBX 3 4 0 0
BITMAP
40
E0
20
E0
ENDCHAR
STARTCHAR 0036
ENCODING 54
SWIDTH 432 0
DWIDTH 3 0
BBX 3 4 0 1
BITMAP
C0
C0
A0
E0
ENDCHAR
STARTCHAR 0037
ENCODING 55
SWIDTH 432 0
DWIDTH 3 0
BBX 2 4 1 0
BITMAP
C0
80
80
80
ENDCHAR
STARTCHAR 0038
ENCODING 56
SWIDTH 432 0
DWIDTH 3 0
BBX 3 5 0 0
BITMAP
40
A0
60
A0
E0
ENDCHAR
STARTCHAR 0039
ENCODING 57
SWIDTH 432 0
DWIDTH 3 0
BBX 3 5 0 0
BITMAP
40
A0
A0
60
40
ENDCHAR
STARTCHAR 003A
ENCODING 58
SWIDTH 144 0
DWIDTH 1 0
BBX 1 1 0 2
BITMAP
80
ENDCHAR
STARTCHAR 003B
ENCODING 59
SWIDTH 144 0
DWIDTH 1 0
BBX 1 1 0 1
BITMAP
80
ENDCHAR
STARTCHAR 003C
ENCODING 60
SWIDTH 432 0
DWIDTH 3 0
BBX 3 2 0 2
BITMAP
E0
20
ENDCHAR
STARTCHAR 003D
ENCODING 61
SWIDTH 432 0
DWIDTH 3 0
BBX 3 2 0 1
BITMAP
60
E0
ENDCHAR
STARTCHAR 003E
ENCODING 62
SWIDTH 432 0
DWIDTH 3 0
BBX 3 3 0 1
BITMAP
80
60
40
ENDCHAR
STARTCHAR 003F
ENCODING 63
SWIDTH 432 0
DWIDTH 3 0
BBX 3 5 0 0
BITMAP
40
A0
40
40
40
ENDCHAR
STARTCHAR 0040
ENCODING 64
SWIDTH 864 0
DWIDTH 6 0
BBX 5 5 1 0
BITMAP
F8
F8
98
E8
D0
ENDCHAR
STARTCHAR 0041
ENCODING 65
SWIDTH 576 0
DWIDTH 4 0
BBX 4 4 0 0
BITMAP
20
60
90
90
ENDCHAR
STARTCHAR 0042
ENCODING 66
SWIDTH 432 0
DWIDTH 3 0
BBX 3 4 0 0
BITMAP
E0
E0
A0
E0
ENDCHAR
STARTCHAR 0043
ENCODING 67
SWIDTH 576 0
DWIDTH 4 0
BBX 4 5 0 0
BITMAP
20
D0
80
80
60
ENDCHAR
STARTCHAR 0044
ENCODING 68
SWIDTH 576 0
DWIDTH 4 0
BBX 4 4 0 0
BITMAP
F0
90
90
E0
ENDCHAR
STARTCHAR 0045
ENCODING 69
SWIDTH 432 0
DWIDTH 3 0
BBX 3 4 0 0
BITMAP
E0
80
C0
E0
ENDCHAR
STARTCHAR 0046
ENCODING 70
SWIDTH 432 0
DWIDTH 3 0
BBX 3 4 0 0
BITMAP
E0
80
C0
80
ENDCHAR
STARTCHAR 0047
ENCODING 71
SWIDTH 576 0
DWIDTH 4 0
BBX 4 5 0 0
BITMAP
20
D0
80
90
60
ENDCHAR
STARTCHAR 0048
ENCODING 72
SWIDTH 432 0
DWIDTH 3 0
BBX 3 4 0 0
BITMAP
A0
A0
E0
A0
ENDCHAR
STARTCHAR 0049
ENCODING 73
SWIDTH 288 0
DWIDTH 2 0
BBX 2 4 0 0
BITMAP
80
80
80
C0
ENDCHAR
STARTCHAR 004A
ENCODING 74
SWIDTH 288 0
DWIDTH 2 0
BBX 2 4 0 0
BITMAP
40
40
40
C0
ENDCHAR
STARTCHAR 004B
ENCODING 75
SWIDTH 432 0
DWIDTH 3 0
BBX 3 4 0 0
BITMAP
E0
C0
C0
A0
ENDCHAR
STARTCHAR 004C
ENCODING 76
SWIDTH 432 0
DWIDTH 3 0
BBX 3 4 0 0
BITMAP
80
80
80
E0
ENDCHAR
STARTCHAR 004D
ENCODING 77
SWIDTH 576 0
DWIDTH 4 0
BBX 4 4 0 0
BITMAP
90
F0
F0
B0
ENDCHAR
STARTCHAR 004E
ENCODING 78
SWIDTH 576 0
DWIDTH 4 0
BBX 4 4 0 0
BITMAP
D0
D0
B0
90
ENDCHAR
STARTCHAR 004F
ENCODING 79
SWIDTH 576 0
DWIDTH 4 0
BBX 4 5 0 0
BITMAP
20
D0
90
90
60
ENDCHAR
STARTCHAR 0050
ENCODING 80
SWIDTH 432 0
DWIDTH 3 0
BBX 3 4 0 0
BITMAP
E0
A0
C0
80
ENDCHAR
STARTCHAR 0051
ENCODING 81
SWIDTH 576 0
DWIDTH 4 0
BBX 4 5 0 0
BITMAP
20
D0
90
B0
70
ENDCHAR
STARTCHAR 0052
ENCODING 82
SWIDTH 432 0
DWIDTH 3 0
BBX 3 4 0 0
BITMAP
E0
A0
E0
A0
ENDCHAR
STARTCHAR 0053
ENCODING 83
SWIDTH 432 0
DWIDTH 3 0
BBX 3 5 0 0
BITMAP
40
A0
40
20
E0
ENDCHAR
STARTCHAR 0054
ENCODING 84
SWIDTH 432 0
DWIDTH 3 0
BBX 2 4 1 0
BITMAP
C0
80
80
80
ENDCHAR
STARTCHAR 0055
ENCODING 85
SWIDTH 576 0
DWIDTH 4 0
BBX 4 4 0 0
BITMAP
90
90
90
60
ENDCHAR
STARTCHAR 0056
ENCODING 86
SWIDTH 576 0
DWIDTH 4 0
BBX 4 4 0 0
BITMAP
90
60
60
20
ENDCHAR
STARTCHAR 0057
ENCODING 87
SWIDTH 864 0
DWIDTH 6 0
BBX 5 4 0 0
BITMAP
B8
B8
48
48
ENDCHAR
STARTCHAR 0058
ENCODING 88
SWIDTH 576 0
DWIDTH 4 0
BBX 4 4 0 0
BITMAP
70
20
60
90
ENDCHAR
STARTCHAR 0059
ENCODING 89
SWIDTH 576 0
DWIDTH 4 0
BBX 3 4 1 0
BITMAP
E0
40
80
80
ENDCHAR
STARTCHAR 005A
ENCODING 90
SWIDTH 432 0
DWIDTH 3 0
BBX 3 4 0 0
BITMAP
60
40
40
E0
ENDCHAR
STARTCHAR 005B
ENCODING 91
SWIDTH 288 0
DWIDTH 2 0
BBX 1 5 0 -1
BITMAP
80
80
80
80
80
ENDCHAR
STARTCHAR 005C
ENCODING 92
SWIDTH 288 0
DWIDTH 2 0
BBX 2 4 0 0
BITMAP
80
40
40
40
ENDCHAR
STARTCHAR 005D
ENCODING 93
SWIDTH 288 0
DWIDTH 2 0
BBX 1 5 1 -1
BITMAP
80
80
80
80
80
ENDCHAR
STARTCHAR 005E
ENCODING 94
SWIDTH 288 0
DWIDTH 2 0
BBX 2 1 0 3
BITMAP
C0
ENDCHAR
STARTCHAR 005F
ENCODING 95
SWIDTH 432 0
DWIDTH 3 0
BBX 3 1 0 -1
BITMAP
E0
ENDCHAR
STARTCHAR 0060
ENCODING 96
SWIDTH 144 0
DWIDTH 1 0
BBX 1 1 1 3
BITMAP
80
ENDCHAR
STARTCHAR 0061
ENCODING 97
SWIDTH 288 0
DWIDTH 2 0
BBX 2 3 0 0
BITMAP
40
40
C0
ENDCHAR
STARTCHAR 0062
ENCODING 98
SWIDTH 432 0
DWIDTH 3 0
BBX 3 4 0 0
BITMAP
80
E0
A0
E0
ENDCHAR
STARTCHAR 0063
ENCODING 99
SWIDTH 432 0
DWIDTH 3 0
BBX 3 3 0 0
BITMAP
E0
80
E0
ENDCHAR
STARTCHAR 0064
ENCODING 100
SWIDTH 432 0
DWIDTH 3 0
BBX 3 4 0 0
BITMAP
20
E0
A0
E0
ENDCHAR
STARTCHAR 0065
ENCODING 101
SWIDTH 432 0
DWIDTH 3 0
BBX 3 3 0 0
BITMAP
E0
E0
E0
ENDCHAR
STARTCHAR 0066
ENCODING 102
SWIDTH 288 0
DWIDTH 2 0
BBX 2 4 0 1
BITMAP
C0
C0
80
80
ENDCHAR
STARTCHAR 0067
ENCODING 103
SWIDTH 432 0
DWIDTH 3 0
BBX 3 4 0 -1
BITMAP
E0
A0
C0
E0
ENDCHAR
STARTCHAR 0068
ENCODING 104
SWIDTH 432 0
DWIDTH 3 0
BBX 3 4 0 0
BITMAP
80
E0
A0
A0
ENDCHAR
STARTCHAR 0069
ENCODING 105
SWIDTH 144 0
DWIDTH 1 0
BBX 1 3 0 1
BITMAP
80
80
80
ENDCHAR
STARTCHAR 006A
ENCODING 106
SWIDTH 144 0
DWIDTH 1 0
BBX 1 4 0 0
BITMAP
80
80
80
80
ENDCHAR
STARTCHAR 006B
ENCODING 107
SWIDTH 432 0
DWIDTH 3 0
BBX 2 4 0 0
BITMAP
80
C0
C0
C0
ENDCHAR
STARTCHAR 006C
ENCODING 108
SWIDTH 144 0
DWIDTH 1 0
BBX 1 4 0 0
BITMAP
80
80
80
80
ENDCHAR
STARTCHAR 006D
ENCODING 109
SWIDTH 576 0
DWIDTH 4 0
BBX 4 3 0 0
BITMAP
F0
D0
D0
ENDCHAR
STARTCHAR 006E
ENCODING 110
SWIDTH 432 0
DWIDTH 3 0
BBX 3 3 0 0
BITMAP
E0
A0
A0
ENDCHAR
STARTCHAR 006F
ENCODING 111
SWIDTH 432 0
DWIDTH 3 0
BBX 3 3 0 0
BITMAP
E0
A0
E0
ENDCHAR
STARTCHAR 0070
ENCODING 112
SWIDTH 432 0
DWIDTH 3 0
BBX 3 4 0 -2
BITMAP
E0
A0
A0
C0
ENDCHAR
STARTCHAR 0071
ENCODING 113
SWIDTH 432 0
DWIDTH 3 0
BBX 3 4 0 -2
BITMAP
E0
A0
A0
60
ENDCHAR
STARTCHAR 0072
ENCODING 114
SWIDTH 288 0
DWIDTH 2 0
BBX 2 3 0 0
BITMAP
C0
80
80
ENDCHAR
STARTCHAR 0073
ENCODING 115
SWIDTH 288 0
DWIDTH 2 0
BBX 2 3 0 0
BITMAP
C0
40
C0
ENDCHAR
STARTCHAR 0074
ENCODING 116
SWIDTH 288 0
DWIDTH 2 0
BBX 2 3 0 1
BITMAP
C0
80
40
ENDCHAR
STARTCHAR 0075
ENCODING 117
SWIDTH 432 0
DWIDTH 3 0
BBX 3 3 0 0
BITMAP
A0
A0
E0
ENDCHAR
STARTCHAR 0076
ENCODING 118
SWIDTH 432 0
DWIDTH 3 0
BBX 3 3 0 0
BITMAP
A0
A0
40
ENDCHAR
STARTCHAR 0077
ENCODING 119
SWIDTH 576 0
DWIDTH 4 0
BBX 4 3 0 0
BITMAP
B0
B0
50
ENDCHAR
STARTCHAR 0078
ENCODING 120
SWIDTH 432 0
DWIDTH 3 0
BBX 3 3 0 0
BITMAP
A0
40
A0
ENDCHAR
STARTCHAR 0079
ENCODING 121
SWIDTH 432 0
DWIDTH 3 0
BBX 3 4 0 -1
BITMAP
A0
A0
40
40
ENDCHAR
STARTCHAR 007A
ENCODING 122
SWIDTH 288 0
DWIDTH 2 0
BBX 2 3 0 0
BITMAP
40
40
C0
ENDCHAR
STARTCHAR 007B
ENCODING 123
SWIDTH 288 0
DWIDTH 2 0
BBX 2 6 0 -1
BITMAP
40
80
80
80
80
80
ENDCHAR
STARTCHAR 007C
ENCODING 124
SWIDTH 144 0
DWIDTH 1 0
BBX 1 5 0 -1
BITMAP
80
80
80
80
80
ENDCHAR
STARTCHAR 007D
ENCODING 125
SWIDTH 288 0
DWIDTH 2 0
BBX 2 6 0 -1
BITMAP
80
80
80
40
80
80
ENDCHAR
STARTCHAR 007E
ENCODING 126
SWIDTH 576 0
DWIDTH 4 0
BBX 3 1 1 2
BITMAP
E0
ENDCHAR
STARTCHAR 00A0
ENCODING 160
SWIDTH 144 0
DWIDTH 1 0
BBX 0 0 0 0
BITMAP
ENDCHAR
STARTCHAR 00A1
ENCODING 161
SWIDTH 144 0
DWIDTH 1 0
BBX 1 4 0 -1
BITMAP
80
80
80
80
ENDCHAR
STARTCHAR 00A2
ENCODING 162
SWIDTH 432 0
DWIDTH 3 0
BBX 3 5 0 -1
BITMAP
20
E0
C0
A0
40
ENDCHAR
STARTCHAR 00A3
ENCODING 163
SWIDTH 432 0
DWIDTH 3 0
BBX 3 4 0 1
BITMAP
E0
80
40
E0
ENDCHAR
STARTCHAR 00A4
ENCODING 164
SWIDTH 432 0
DWIDTH 3 0
BBX 3 3 0 1
BITMAP
80
E0
60
ENDCHAR
STARTCHAR 00A5
ENCODING 165
SWIDTH 576 0
DWIDTH 4 0
BBX 3 4 1 0
BITMAP
E0
40
E0
80
ENDCHAR
STARTCHAR 00A6
ENCODING 166
SWIDTH 144 0
DWIDTH 1 0
BBX 1 5 0 -1
BITMAP
80
80
00
80
80
ENDCHAR
STARTCHAR 00A7
ENCODING 167
SWIDTH 432 0
DWIDTH 3 0
BBX 3 6 0 -1
BITMAP
40
A0
C0
A0
60
60
ENDCHAR
STARTCHAR 00A8
ENCODING 168
SWIDTH 288 0
DWIDTH 2 0
BBX 0 0 0 3
BITMAP
ENDCHAR
STARTCHAR 00A9
ENCODING 169
SWIDTH 720 0
DWIDTH 5 0
BBX 5 5 0 0
BITMAP
20
D8
E8
A8
70
ENDCHAR
STARTCHAR 00AA
ENCODING 170
SWIDTH 288 0
DWIDTH 2 0
BBX 2 3 0 2
BITMAP
40
C0
C0
ENDCHAR
STARTCHAR 00AB
ENCODING 171
SWIDTH 288 0
DWIDTH 2 0
BBX 2 3 0 0
BITMAP
40
C0
40
ENDCHAR
STARTCHAR 00AC
ENCODING 172
SWIDTH 432 0
DWIDTH 3 0
BBX 2 1 1 1
BITMAP
C0
ENDCHAR
STARTCHAR 00AD
ENCODING 173
SWIDTH 288 0
DWIDTH 2 0
BBX 2 1 0 1
BITMAP
C0
ENDCHAR
STARTCHAR 00AE
ENCODING 174
SWIDTH 720 0
DWIDTH 5 0
BBX 5 5 0 0
BITMAP
20
D8
E8
88
70
ENDCHAR
STARTCHAR 00AF
ENCODING 175
SWIDTH 288 0
DWIDTH 2 0
BBX 1 1 1 3
BITMAP
80
ENDCHAR
STARTCHAR 00B0
ENCODING 176
SWIDTH 288 0
DWIDTH 2 0
BBX 2 2 0 3
BITMAP
40
C0
ENDCHAR
STARTCHAR 00B1
ENCODING 177
SWIDTH 432 0
DWIDTH 3 0
BBX 3 4 0 0
BITMAP
40
E0
00
E0
ENDCHAR
STARTCHAR 00B2
ENCODING 178
SWIDTH 144 0
DWIDTH 1 0
BBX 2 2 0 3
BITMAP
40
80
ENDCHAR
STARTCHAR 00B3
ENCODING 179
SWIDTH 288 0
DWIDTH 2 0
BBX 2 2 0 3
BITMAP
40
C0
ENDCHAR
STARTCHAR 00B4
ENCODING 180
SWIDTH 144 0
DWIDTH 1 0
BBX 1 1 0 3
BITMAP
80
ENDCHAR
STARTCHAR 00B5
ENCODING 181
SWIDTH 432 0
DWIDTH 3 0
BBX 3 4 0 -2
BITMAP
A0
A0
A0
C0
ENDCHAR
STARTCHAR 00B6
ENCODING 182
SWIDTH 432 0
DWIDTH 3 0
BBX 3 5 0 -1
BITMAP
E0
60
20
20
20
ENDCHAR
STARTCHAR 00B7
ENCODING 183
SWIDTH 144 0
DWIDTH 1 0
BBX 1 1 0 2
BITMAP
80
ENDCHAR
STARTCHAR 00B8
ENCODING 184
SWIDTH 288 0
DWIDTH 2 0
BBX 1 1 1 -1
BITMAP
80
ENDCHAR
STARTCHAR 00B9
ENCODING 185
SWIDTH 144 0
DWIDTH 1 0
BBX 0 0 0 3
BITMAP
ENDCHAR
STARTCHAR 00BA
ENCODING 186
SWIDTH 288 0
DWIDTH 2 0
BBX 2 3 0 2
BITMAP
40
40
C0
ENDCHAR
STARTCHAR 00BB
ENCODING 187
SWIDTH 288 0
DWIDTH 2 0
BBX 2 3 0 0
BITMAP
40
40
80
ENDCHAR
STARTCHAR 00BC
ENCODING 188
SWIDTH 432 0
DWIDTH 3 0
BBX 2 5 0 -1
BITMAP
40
00
00
40
C0
ENDCHAR
STARTCHAR 00BD
ENCODING 189
SWIDTH 432 0
DWIDTH 3 0
BBX 1 6 1 -1
BITMAP
80
00
00
80
80
80
ENDCHAR
STARTCHAR 00BE
ENCODING 190
SWIDTH 432 0
DWIDTH 3 0
BBX 2 5 0 -1
BITMAP
40
00
00
40
C0
ENDCHAR
STARTCHAR 00BF
ENCODING 191
SWIDTH 432 0
DWIDTH 3 0
BBX 3 4 0 -1
BITMAP
40
40
80
E0
ENDCHAR
STARTCHAR 00C0
ENCODING 192
SWIDTH 576 0
DWIDTH 4 0
BBX 4 4 0 2
BITMAP
20
60
90
90
ENDCHAR
STARTCHAR 00C1
ENCODING 193
SWIDTH 576 0
DWIDTH 4 0
BBX 4 6 0 0
BITMAP
20
00
20
60
90
90
ENDCHAR
STARTCHAR 00C2
ENCODING 194
SWIDTH 576 0
DWIDTH 4 0
BBX 4 6 0 0
BITMAP
20
00
20
60
90
90
ENDCHAR
STARTCHAR 00C3
ENCODING 195
SWIDTH 576 0
DWIDTH 4 0
BBX 4 6 0 0
BITMAP
40
20
20
60
90
90
ENDCHAR
STARTCHAR 00C4
ENCODING 196
SWIDTH 576 0
DWIDTH 4 0
BBX 4 6 0 0
BITMAP
60
00
20
60
90
90
ENDCHAR
STARTCHAR 00C5
ENCODING 197
SWIDTH 576 0
DWIDTH 4 0
BBX 4 6 0 0
BITMAP
20
00
20
60
90
90
ENDCHAR
STARTCHAR 00C6
ENCODING 198
SWIDTH 720 0
DWIDTH 5 0
BBX 5 4 0 0
BITMAP
70
60
B0
98
ENDCHAR
STARTCHAR 00C7
ENCODING 199
SWIDTH 576 0
DWIDTH 4 0
BBX 4 6 0 -1
BITMAP
20
D0
80
80
60
20
ENDCHAR
STARTCHAR 00C8
ENCODING 200
SWIDTH 432 0
DWIDTH 3 0
BBX 3 6 0 0
BITMAP
40
00
E0
80
C0
E0
ENDCHAR
STARTCHAR 00C9
ENCODING 201
SWIDTH 432 0
DWIDTH 3 0
BBX 3 4 0 2
BITMAP
E0
80
C0
E0
ENDCHAR
STARTCHAR 00CA
ENCODING 202
SWIDTH 432 0
DWIDTH 3 0
BBX 3 6 0 0
BITMAP
40
00
E0
80
C0
E0
ENDCHAR
STARTCHAR 00CB
ENCODING 203
SWIDTH 432 0
DWIDTH 3 0
BBX 3 6 0 0
BITMAP
60
00
E0
80
C0
E0
ENDCHAR
STARTCHAR 00CC
ENCODING 204
SWIDTH 288 0
DWIDTH 2 0
BBX 2 4 0 2
BITMAP
80
80
80
C0
ENDCHAR
STARTCHAR 00CD
ENCODING 205
SWIDTH 288 0
DWIDTH 2 0
BBX 2 6 0 0
BITMAP
40
00
80
80
80
C0
ENDCHAR
STARTCHAR 00CE
ENCODING 206
SWIDTH 288 0
DWIDTH 2 0
BBX 2 6 0 0
BITMAP
40
00
80
80
80
C0
ENDCHAR
STARTCHAR 00CF
ENCODING 207
SWIDTH 288 0
DWIDTH 2 0
BBX 2 6 0 0
BITMAP
C0
00
80
80
80
C0
ENDCHAR
STARTCHAR 00D0
ENCODING 208
SWIDTH 576 0
DWIDTH 4 0
BBX 4 4 0 0
BITMAP
F0
90
D0
E0
ENDCHAR
STARTCHAR 00D1
ENCODING 209
SWIDTH 576 0
DWIDTH 4 0
BBX 4 6 0 0
BITMAP
40
20
D0
D0
B0
90
ENDCHAR
STARTCHAR 00D2
ENCODING 210
SWIDTH 576 0
DWIDTH 4 0
BBX 4 5 0 1
BITMAP
20
D0
90
90
60
ENDCHAR
STARTCHAR 00D3
ENCODING 211
SWIDTH 576 0
DWIDTH 4 0
BBX 4 6 0 0
BITMAP
20
20
D0
90
90
60
ENDCHAR
STARTCHAR 00D4
ENCODING 212
SWIDTH 576 0
DWIDTH 4 0
BBX 4 6 0 0
BITMAP
20
20
D0
90
90
60
ENDCHAR
STARTCHAR 00D5
ENCODING 213
SWIDTH 576 0
DWIDTH 4 0
BBX 4 6 0 0
BITMAP
40
20
D0
90
90
60
ENDCHAR
STARTCHAR 00D6
ENCODING 214
SWIDTH 576 0
DWIDTH 4 0
BBX 4 6 0 0
BITMAP
60
20
D0
90
90
60
ENDCHAR
STARTCHAR 00D7
ENCODING 215
SWIDTH 432 0
DWIDTH 3 0
BBX 2 2 1 2
BITMAP
C0
C0
ENDCHAR
STARTCHAR 00D8
ENCODING 216
SWIDTH 576 0
DWIDTH 4 0
BBX 4 5 0 0
BITMAP
30
D0
B0
D0
60
ENDCHAR
STARTCHAR 00D9
ENCODING 217
SWIDTH 576 0
DWIDTH 4 0
BBX 4 4 0 2
BITMAP
90
90
90
60
ENDCHAR
STARTCHAR 00DA
ENCODING 218
SWIDTH 576 0
DWIDTH 4 0
BBX 4 4 0 2
BITMAP
90
90
90
60
ENDCHAR
STARTCHAR 00DB
ENCODING 219
SWIDTH 576 0
DWIDTH 4 0
BBX 4 6 0 0
BITMAP
20
00
90
90
90
60
ENDCHAR
STARTCHAR 00DC
ENCODING 220
SWIDTH 576 0
DWIDTH 4 0
BBX 4 6 0 0
BITMAP
60
00
90
90
90
60
ENDCHAR
STARTCHAR 00DD
ENCODING 221
SWIDTH 576 0
DWIDTH 4 0
BBX 3 6 1 0
BITMAP
40
00
E0
40
80
80
ENDCHAR
STARTCHAR 00DE
ENCODING 222
SWIDTH 432 0
DWIDTH 3 0
BBX 3 4 0 0
BITMAP
80
E0
E0
80
ENDCHAR
STARTCHAR 00DF
ENCODING 223
SWIDTH 432 0
DWIDTH 3 0
BBX 3 6 0 -2
BITMAP
40
A0
A0
A0
A0
80
ENDCHAR
STARTCHAR 00E0
ENCODING 224
SWIDTH 288 0
DWIDTH 2 0
BBX 2 3 0 1
BITMAP
40
40
C0
ENDCHAR
STARTCHAR 00E1
ENCODING 225
SWIDTH 288 0
DWIDTH 2 0
BBX 2 3 0 1
BITMAP
40
40
C0
ENDCHAR
STARTCHAR 00E2
ENCODING 226
SWIDTH 288 0
DWIDTH 2 0
BBX 2 3 0 1
BITMAP
40
40
C0
ENDCHAR
STARTCHAR 00E3
ENCODING 227
SWIDTH 288 0
DWIDTH 2 0
BBX 2 4 0 0
BITMAP
40
40
40
C0
ENDCHAR
STARTCHAR 00E4
ENCODING 228
SWIDTH 288 0
DWIDTH 2 0
BBX 2 3 0 1
BITMAP
40
40
C0
ENDCHAR
STARTCHAR 00E5
ENCODING 229
SWIDTH 288 0
DWIDTH 2 0
BBX 2 5 0 0
BITMAP
40
40
40
40
C0
ENDCHAR
STARTCHAR 00E6
ENCODING 230
SWIDTH 720 0
DWIDTH 5 0
BBX 5 3 0 0
BITMAP
70
78
F0
ENDCHAR
STARTCHAR 00E7
ENCODING 231
SWIDTH 432 0
DWIDTH 3 0
BBX 3 4 0 -1
BITMAP
E0
80
A0
40
ENDCHAR
STARTCHAR 00E8
ENCODING 232
SWIDTH 432 0
DWIDTH 3 0
BBX 3 4 0 0
BITMAP
40
E0
E0
E0
ENDCHAR
STARTCHAR 00E9
ENCODING 233
SWIDTH 432 0
DWIDTH 3 0
BBX 3 3 0 1
BITMAP
E0
E0
E0
ENDCHAR
STARTCHAR 00EA
ENCODING 234
SWIDTH 432 0
DWIDTH 3 0
BBX 3 4 0 0
BITMAP
60
E0
E0
E0
ENDCHAR
STARTCHAR 00EB
ENCODING 235
SWIDTH 432 0
DWIDTH 3 0
BBX 3 3 0 1
BITMAP
E0
E0
E0
ENDCHAR
STARTCHAR 00EC
ENCODING 236
SWIDTH 144 0
DWIDTH 1 0
BBX 1 4 0 0
BITMAP
80
80
80
80
ENDCHAR
STARTCHAR 00ED
ENCODING 237
SWIDTH 144 0
DWIDTH 1 0
BBX 1 3 0 1
BITMAP
80
80
80
ENDCHAR
STARTCHAR 00EE
ENCODING 238
SWIDTH 144 0
DWIDTH 1 0
BBX 1 3 0 1
BITMAP
80
80
80
ENDCHAR
STARTCHAR 00EF
ENCODING 239
SWIDTH 144 0
DWIDTH 1 0
BBX 1 3 0 1
BITMAP
80
80
80
ENDCHAR
STARTCHAR 00F0
ENCODING 240
SWIDTH 432 0
DWIDTH 3 0
BBX 3 5 0 0
BITMAP
40
20
E0
A0
E0
ENDCHAR
STARTCHAR 00F1
ENCODING 241
SWIDTH 432 0
DWIDTH 3 0
BBX 3 3 0 1
BITMAP
E0
A0
A0
ENDCHAR
STARTCHAR 00F2
ENCODING 242
SWIDTH 432 0
DWIDTH 3 0
BBX 3 4 0 0
BITMAP
40
E0
A0
E0
ENDCHAR
STARTCHAR 00F3
ENCODING 243
SWIDTH 432 0
DWIDTH 3 0
BBX 3 3 0 1
BITMAP
E0
A0
E0
ENDCHAR
STARTCHAR 00F4
ENCODING 244
SWIDTH 432 0
DWIDTH 3 0
BBX 3 4 0 0
BITMAP
60
E0
A0
E0
ENDCHAR
STARTCHAR 00F5
ENCODING 245
SWIDTH 432 0
DWIDTH 3 0
BBX 3 3 0 1
BITMAP
E0
A0
E0
ENDCHAR
STARTCHAR 00F6
ENCODING 246
SWIDTH 432 0
DWIDTH 3 0
BBX 3 3 0 1
BITMAP
E0
A0
E0
ENDCHAR
STARTCHAR 00F7
ENCODING 247
SWIDTH 432 0
DWIDTH 3 0
BBX 2 1 1 3
BITMAP
C0
ENDCHAR
STARTCHAR 00F8
ENCODING 248
SWIDTH 432 0
DWIDTH 3 0
BBX 3 3 0 1
BITMAP
E0
E0
E0
ENDCHAR
STARTCHAR 00F9
ENCODING 249
SWIDTH 432 0
DWIDTH 3 0
BBX 3 4 0 0
BITMAP
40
A0
A0
E0
ENDCHAR
STARTCHAR 00FA
ENCODING 250
SWIDTH 432 0
DWIDTH 3 0
BBX 3 3 0 1
BITMAP
A0
A0
E0
ENDCHAR
STARTCHAR 00FB
ENCODING 251
SWIDTH 432 0
DWIDTH 3 0
BBX 3 4 0 0
BITMAP
60
A0
A0
E0
ENDCHAR
STARTCHAR 00FC
ENCODING 252
SWIDTH 432 0
DWIDTH 3 0
BBX 3 3 0 1
BITMAP
A0
A0
E0
ENDCHAR
STARTCHAR 00FD
ENCODING 253
SWIDTH 432 0
DWIDTH 3 0
BBX 3 5 0 -1
BITMAP
40
A0
A0
40
40
ENDCHAR
STARTCHAR 00FE
ENCODING 254
SWIDTH 432 0
DWIDTH 3 0
BBX 3 5 0 -2
BITMAP
80
E0
A0
A0
C0
ENDCHAR
STARTCHAR 00FF
ENCODING 255
SWIDTH 432 0
DWIDTH 3 0
BBX 3 4 0 0
BITMAP
A0
A0
40
40
ENDCHAR
STARTCHAR 0100
ENCODING 256
SWIDTH 576 0
DWIDTH 4 0
BBX 4 5 0 0
BITMAP
20
20
60
90
90
ENDCHAR
STARTCHAR 0101
ENCODING 257
SWIDTH 288 0
DWIDTH 2 0
BBX 2 4 0 0
BITMAP
40
40
40
C0
ENDCHAR
STARTCHAR 0102
ENCODING 258
SWIDTH 576 0
DWIDTH 4 0
BBX 4 6 0 0
BITMAP
40
00
20
60
90
90
ENDCHAR
STARTCHAR 0103
ENCODING 259
SWIDTH 288 0
DWIDTH 2 0
BBX 2 3 0 1
BITMAP
40
40
C0
ENDCHAR
STARTCHAR 0104
ENCODING 260
SWIDTH 576 0
DWIDTH 4 0
BBX 4 5 0 -1
BITMAP
20
60
90
90
10
ENDCHAR
STARTCHAR 0105
ENCODING 261
SWIDTH 288 0
DWIDTH 2 0
BBX 3 4 0 -1
BITMAP
40
40
C0
60
ENDCHAR
STARTCHAR 0106
ENCODING 262
SWIDTH 576 0
DWIDTH 4 0
BBX 4 6 0 0
BITMAP
20
20
D0
80
80
60
ENDCHAR
STARTCHAR 0107
ENCODING 263
SWIDTH 432 0
DWIDTH 3 0
BBX 3 3 0 1
BITMAP
E0
80
E0
ENDCHAR
STARTCHAR 0108
ENCODING 264
SWIDTH 576 0
DWIDTH 4 0
BBX 4 6 0 0
BITMAP
20
20
D0
80
80
60
ENDCHAR
STARTCHAR 0109
ENCODING 265
SWIDTH 432 0
DWIDTH 3 0
BBX 3 3 0 1
BITMAP
E0
80
E0
ENDCHAR
STARTCHAR 010A
ENCODING 266
SWIDTH 576 0
DWIDTH 4 0
BBX 4 5 0 1
BITMAP
20
D0
80
80
60
ENDCHAR
STARTCHAR 010B
ENCODING 267
SWIDTH 432 0
DWIDTH 3 0
BBX 3 3 0 1
BITMAP
E0
80
E0
ENDCHAR
STARTCHAR 010C
ENCODING 268
SWIDTH 576 0
DWIDTH 4 0
BBX 4 6 0 0
BITMAP
60
20
D0
80
80
60
ENDCHAR
STARTCHAR 010D
ENCODING 269
SWIDTH 432 0
DWIDTH 3 0
BBX 3 4 0 0
BITMAP
40
A0
80
E0
ENDCHAR
STARTCHAR 010E
ENCODING 270
SWIDTH 576 0
DWIDTH 4 0
BBX 4 5 0 1
BITMAP
20
F0
90
90
E0
ENDCHAR
STARTCHAR 010F
ENCODING 271
SWIDTH 576 0
DWIDTH 4 0
BBX 3 4 0 1
BITMAP
20
E0
A0
E0
ENDCHAR
STARTCHAR 0110
ENCODING 272
SWIDTH 576 0
DWIDTH 4 0
BBX 4 4 0 0
BITMAP
F0
90
D0
E0
ENDCHAR
STARTCHAR 0111
ENCODING 273
SWIDTH 432 0
DWIDTH 3 0
BBX 4 4 0 0
BITMAP
30
E0
A0
E0
ENDCHAR
STARTCHAR 0112
ENCODING 274
SWIDTH 432 0
DWIDTH 3 0
BBX 3 5 0 0
BITMAP
40
E0
80
C0
E0
ENDCHAR
STARTCHAR 0113
ENCODING 275
SWIDTH 432 0
DWIDTH 3 0
BBX 3 4 0 0
BITMAP
40
E0
E0
E0
ENDCHAR
STARTCHAR 0114
ENCODING 276
SWIDTH 432 0
DWIDTH 3 0
BBX 3 6 0 0
BITMAP
20
00
E0
80
C0
E0
ENDCHAR
STARTCHAR 0115
ENCODING 277
SWIDTH 432 0
DWIDTH 3 0
BBX 3 3 0 1
BITMAP
E0
E0
E0
ENDCHAR
STARTCHAR 0116
ENCODING 278
SWIDTH 432 0
DWIDTH 3 0
BBX 3 6 0 0
BITMAP
40
00
E0
80
C0
E0
ENDCHAR
STARTCHAR 0117
ENCODING 279
SWIDTH 432 0
DWIDTH 3 0
BBX 3 3 0 1
BITMAP
E0
E0
E0
ENDCHAR
STARTCHAR 0118
ENCODING 280
SWIDTH 432 0
DWIDTH 3 0
BBX 3 5 0 -1
BITMAP
E0
80
C0
E0
60
ENDCHAR
STARTCHAR 0119
ENCODING 281
SWIDTH 432 0
DWIDTH 3 0
BBX 3 4 0 -1
BITMAP
E0
E0
A0
40
ENDCHAR
STARTCHAR 011A
ENCODING 282
SWIDTH 432 0
DWIDTH 3 0
BBX 3 5 0 1
BITMAP
40
E0
80
C0
E0
ENDCHAR
STARTCHAR 011B
ENCODING 283
SWIDTH 432 0
DWIDTH 3 0
BBX 3 4 0 0
BITMAP
40
A0
E0
E0
ENDCHAR
STARTCHAR 011C
ENCODING 284
SWIDTH 576 0
DWIDTH 4 0
BBX 4 6 0 0
BITMAP
20
20
D0
80
90
60
ENDCHAR
STARTCHAR 011D
ENCODING 285
SWIDTH 432 0
DWIDTH 3 0
BBX 3 5 0 -1
BITMAP
20
E0
A0
C0
E0
ENDCHAR
STARTCHAR 011E
ENCODING 286
SWIDTH 576 0
DWIDTH 4 0
BBX 4 6 0 0
BITMAP
40
20
D0
80
90
60
ENDCHAR
STARTCHAR 011F
ENCODING 287
SWIDTH 432 0
DWIDTH 3 0
BBX 3 4 0 0
BITMAP
E0
A0
C0
E0
ENDCHAR
STARTCHAR 0120
ENCODING 288
SWIDTH 576 0
DWIDTH 4 0
BBX 4 5 0 1
BITMAP
20
D0
80
90
60
ENDCHAR
STARTCHAR 0121
ENCODING 289
SWIDTH 432 0
DWIDTH 3 0
BBX 3 4 0 0
BITMAP
E0
A0
C0
E0
ENDCHAR
STARTCHAR 0122
ENCODING 290
SWIDTH 576 0
DWIDTH 4 0
BBX 4 6 0 -1
BITMAP
20
D0
80
90
60
20
ENDCHAR
STARTCHAR 0123
ENCODING 291
SWIDTH 432 0
DWIDTH 3 0
BBX 3 6 0 -1
BITMAP
40
00
E0
A0
C0
E0
ENDCHAR
STARTCHAR 0124
ENCODING 292
SWIDTH 432 0
DWIDTH 3 0
BBX 3 6 0 0
BITMAP
40
00
A0
A0
E0
A0
ENDCHAR
STARTCHAR 0125
ENCODING 293
SWIDTH 432 0
DWIDTH 3 0
BBX 3 6 0 0
BITMAP
40
00
80
E0
A0
A0
ENDCHAR
STARTCHAR 0126
ENCODING 294
SWIDTH 576 0
DWIDTH 4 0
BBX 4 4 0 0
BITMAP
F0
90
F0
90
ENDCHAR
STARTCHAR 0127
ENCODING 295
SWIDTH 432 0
DWIDTH 3 0
BBX 4 4 0 0
BITMAP
E0
60
90
90
ENDCHAR
STARTCHAR 0128
ENCODING 296
SWIDTH 288 0
DWIDTH 2 0
BBX 2 6 0 0
BITMAP
80
40
80
80
80
C0
ENDCHAR
STARTCHAR 0129
ENCODING 297
SWIDTH 144 0
DWIDTH 1 0
BBX 1 4 0 0
BITMAP
80
80
80
80
ENDCHAR
STARTCHAR 012A
ENCODING 298
SWIDTH 288 0
DWIDTH 2 0
BBX 2 4 0 1
BITMAP
80
80
80
C0
ENDCHAR
STARTCHAR 012B
ENCODING 299
SWIDTH 144 0
DWIDTH 1 0
BBX 1 4 0 0
BITMAP
80
80
80
80
ENDCHAR
STARTCHAR 012C
ENCODING 300
SWIDTH 288 0
DWIDTH 2 0
BBX 2 6 0 0
BITMAP
80
00
80
80
80
C0
ENDCHAR
STARTCHAR 012D
ENCODING 301
SWIDTH 144 0
DWIDTH 1 0
BBX 1 3 0 1
BITMAP
80
80
80
ENDCHAR
STARTCHAR 012E
ENCODING 302
SWIDTH 288 0
DWIDTH 2 0
BBX 2 5 0 -1
BITMAP
80
80
80
C0
C0
ENDCHAR
STARTCHAR 012F
ENCODING 303
SWIDTH 144 0
DWIDTH 1 0
BBX 1 4 0 0
BITMAP
80
80
80
80
ENDCHAR
STARTCHAR 0130
ENCODING 304
SWIDTH 288 0
DWIDTH 2 0
BBX 2 4 0 2
BITMAP
80
80
80
C0
ENDCHAR
STARTCHAR 0131
ENCODING 305
SWIDTH 144 0
DWIDTH 1 0
BBX 1 3 0 0
BITMAP
80
80
80
ENDCHAR
STARTCHAR 0132
ENCODING 306
SWIDTH 576 0
DWIDTH 4 0
BBX 4 4 0 0
BITMAP
90
90
90
F0
ENDCHAR
STARTCHAR 0133
ENCODING 307
SWIDTH 288 0
DWIDTH 2 0
BBX 2 4 0 0
BITMAP
C0
C0
C0
40
ENDCHAR
STARTCHAR 0134
ENCODING 308
SWIDTH 288 0
DWIDTH 2 0
BBX 2 6 0 0
BITMAP
40
00
40
40
40
C0
ENDCHAR
STARTCHAR 0135
ENCODING 309
SWIDTH 144 0
DWIDTH 1 0
BBX 1 4 0 0
BITMAP
80
80
80
80
ENDCHAR
STARTCHAR 0136
ENCODING 310
SWIDTH 432 0
DWIDTH 3 0
BBX 3 5 0 -1
BITMAP
E0
C0
C0
A0
40
ENDCHAR
STARTCHAR 0137
ENCODING 311
SWIDTH 432 0
DWIDTH 3 0
BBX 2 5 0 -1
BITMAP
80
C0
C0
C0
40
ENDCHAR
STARTCHAR 0138
ENCODING 312
SWIDTH 432 0
DWIDTH 3 0
BBX 2 3 0 0
BITMAP
C0
C0
C0
ENDCHAR
STARTCHAR 0139
ENCODING 313
SWIDTH 432 0
DWIDTH 3 0
BBX 3 4 0 2
BITMAP
80
80
80
E0
ENDCHAR
STARTCHAR 013A
ENCODING 314
SWIDTH 144 0
DWIDTH 1 0
BBX 1 4 0 2
BITMAP
80
80
80
80
ENDCHAR
STARTCHAR 013B
ENCODING 315
SWIDTH 432 0
DWIDTH 3 0
BBX 3 5 0 -1
BITMAP
80
80
80
E0
40
ENDCHAR
STARTCHAR 013C
ENCODING 316
SWIDTH 144 0
DWIDTH 1 0
BBX 1 5 0 -1
BITMAP
80
80
80
80
80
ENDCHAR
STARTCHAR 013D
ENCODING 317
SWIDTH 432 0
DWIDTH 3 0
BBX 3 4 0 1
BITMAP
80
80
80
E0
ENDCHAR
STARTCHAR 013E
ENCODING 318
SWIDTH 144 0
DWIDTH 1 0
BBX 2 5 0 0
BITMAP
40
80
80
80
80
ENDCHAR
STARTCHAR 013F
ENCODING 319
SWIDTH 432 0
DWIDTH 3 0
BBX 3 4 0 0
BITMAP
80
80
80
E0
ENDCHAR
STARTCHAR 0140
ENCODING 320
SWIDTH 288 0
DWIDTH 2 0
BBX 2 4 0 0
BITMAP
80
C0
80
80
ENDCHAR
STARTCHAR 0141
ENCODING 321
SWIDTH 576 0
DWIDTH 4 0
BBX 3 4 1 0
BITMAP
80
80
80
E0
ENDCHAR
STARTCHAR 0142
ENCODING 322
SWIDTH 288 0
DWIDTH 2 0
BBX 1 4 1 0
BITMAP
80
80
80
80
ENDCHAR
STARTCHAR 0143
ENCODING 323
SWIDTH 576 0
DWIDTH 4 0
BBX 4 6 0 0
BITMAP
20
00
D0
D0
B0
90
ENDCHAR
STARTCHAR 0144
ENCODING 324
SWIDTH 432 0
DWIDTH 3 0
BBX 3 3 0 1
BITMAP
E0
A0
A0
ENDCHAR
STARTCHAR 0145
ENCODING 325
SWIDTH 576 0
DWIDTH 4 0
BBX 4 5 0 -1
BITMAP
D0
D0
B0
90
20
ENDCHAR
STARTCHAR 0146
ENCODING 326
SWIDTH 432 0
DWIDTH 3 0
BBX 3 4 0 -1
BITMAP
E0
A0
A0
40
ENDCHAR
STARTCHAR 0147
ENCODING 327
SWIDTH 576 0
DWIDTH 4 0
BBX 4 6 0 0
BITMAP
60
00
D0
D0
B0
90
ENDCHAR
STARTCHAR 0148
ENCODING 328
SWIDTH 432 0
DWIDTH 3 0
BBX 3 4 0 0
BITMAP
40
A0
A0
A0
ENDCHAR
STARTCHAR 0149
ENCODING 329
SWIDTH 576 0
DWIDTH 4 0
BBX 3 3 1 2
BITMAP
E0
A0
A0
ENDCHAR
STARTCHAR 014A
ENCODING 330
SWIDTH 432 0
DWIDTH 3 0
BBX 4 4 0 1
BITMAP
E0
90
90
A0
ENDCHAR
STARTCHAR 014B
ENCODING 331
SWIDTH 432 0
DWIDTH 3 0
BBX 3 4 0 -1
BITMAP
E0
A0
A0
20
ENDCHAR
STARTCHAR 014C
ENCODING 332
SWIDTH 576 0
DWIDTH 4 0
BBX 4 5 0 0
BITMAP
20
D0
90
90
60
ENDCHAR
STARTCHAR 014D
ENCODING 333
SWIDTH 432 0
DWIDTH 3 0
BBX 3 4 0 0
BITMAP
40
E0
A0
E0
ENDCHAR
STARTCHAR 014E
ENCODING 334
SWIDTH 576 0
DWIDTH 4 0
BBX 4 6 0 0
BITMAP
40
20
D0
90
90
60
ENDCHAR
STARTCHAR 014F
ENCODING 335
SWIDTH 432 0
DWIDTH 3 0
BBX 3 3 0 1
BITMAP
E0
A0
E0
ENDCHAR
STARTCHAR 0150
ENCODING 336
SWIDTH 576 0
DWIDTH 4 0
BBX 4 5 0 1
BITMAP
20
D0
90
90
60
ENDCHAR
STARTCHAR 0151
ENCODING 337
SWIDTH 432 0
DWIDTH 3 0
BBX 3 4 0 0
BITMAP
60
E0
A0
E0
ENDCHAR
STARTCHAR 0152
ENCODING 338
SWIDTH 864 0
DWIDTH 6 0
BBX 6 5 0 0
BITMAP
20
DC
90
9C
6C
ENDCHAR
STARTCHAR 0153
ENCODING 339
SWIDTH 720 0
DWIDTH 5 0
BBX 5 3 0 0
BITMAP
F8
98
F8
ENDCHAR
STARTCHAR 0154
ENCODING 340
SWIDTH 432 0
DWIDTH 3 0
BBX 3 4 0 2
BITMAP
E0
A0
E0
A0
ENDCHAR
STARTCHAR 0155
ENCODING 341
SWIDTH 288 0
DWIDTH 2 0
BBX 2 3 0 1
BITMAP
C0
80
80
ENDCHAR
STARTCHAR 0156
ENCODING 342
SWIDTH 432 0
DWIDTH 3 0
BBX 3 5 0 -1
BITMAP
E0
A0
E0
A0
40
ENDCHAR
STARTCHAR 0157
ENCODING 343
SWIDTH 288 0
DWIDTH 2 0
BBX 2 4 0 -1
BITMAP
C0
80
80
80
ENDCHAR
STARTCHAR 0158
ENCODING 344
SWIDTH 432 0
DWIDTH 3 0
BBX 3 5 0 1
BITMAP
40
E0
A0
E0
A0
ENDCHAR
STARTCHAR 0159
ENCODING 345
SWIDTH 288 0
DWIDTH 2 0
BBX 2 4 0 0
BITMAP
40
80
80
80
ENDCHAR
STARTCHAR 015A
ENCODING 346
SWIDTH 432 0
DWIDTH 3 0
BBX 3 5 0 1
BITMAP
40
A0
40
20
E0
ENDCHAR
STARTCHAR 015B
ENCODING 347
SWIDTH 288 0
DWIDTH 2 0
BBX 2 4 0 0
BITMAP
40
C0
40
C0
ENDCHAR
STARTCHAR 015C
ENCODING 348
SWIDTH 432 0
DWIDTH 3 0
BBX 3 6 0 0
BITMAP
40
40
A0
40
20
E0
ENDCHAR
STARTCHAR 015D
ENCODING 349
SWIDTH 288 0
DWIDTH 2 0
BBX 2 3 0 1
BITMAP
C0
40
C0
ENDCHAR
STARTCHAR 015E
ENCODING 350
SWIDTH 432 0
DWIDTH 3 0
BBX 3 6 0 -1
BITMAP
40
A0
40
20
A0
40
ENDCHAR
STARTCHAR 015F
ENCODING 351
SWIDTH 288 0
DWIDTH 2 0
BBX 2 4 0 -1
BITMAP
C0
40
C0
40
ENDCHAR
STARTCHAR 0160
ENCODING 352
SWIDTH 432 0
DWIDTH 3 0
BBX 3 5 0 1
BITMAP
40
A0
40
20
E0
ENDCHAR
STARTCHAR 0161
ENCODING 353
SWIDTH 288 0
DWIDTH 2 0
BBX 2 4 0 0
BITMAP
40
80
40
C0
ENDCHAR
STARTCHAR 0162
ENCODING 354
SWIDTH 432 0
DWIDTH 3 0
BBX 2 5 1 -1
BITMAP
C0
80
80
80
80
ENDCHAR
STARTCHAR 0163
ENCODING 355
SWIDTH 288 0
DWIDTH 2 0
BBX 2 4 0 0
BITMAP
C0
80
40
40
ENDCHAR
STARTCHAR 0164
ENCODING 356
SWIDTH 432 0
DWIDTH 3 0
BBX 2 5 1 1
BITMAP
80
C0
80
80
80
ENDCHAR
STARTCHAR 0165
ENCODING 357
SWIDTH 432 0
DWIDTH 3 0
BBX 3 5 0 0
BITMAP
20
00
C0
80
40
ENDCHAR
STARTCHAR 0166
ENCODING 358
SWIDTH 432 0
DWIDTH 3 0
BBX 2 4 1 0
BITMAP
C0
80
80
80
ENDCHAR
STARTCHAR 0167
ENCODING 359
SWIDTH 288 0
DWIDTH 2 0
BBX 2 3 0 1
BITMAP
C0
C0
40
ENDCHAR
STARTCHAR 0168
ENCODING 360
SWIDTH 576 0
DWIDTH 4 0
BBX 4 6 0 0
BITMAP
40
20
90
90
90
60
ENDCHAR
STARTCHAR 0169
ENCODING 361
SWIDTH 432 0
DWIDTH 3 0
BBX 3 3 0 1
BITMAP
A0
A0
E0
ENDCHAR
STARTCHAR 016A
ENCODING 362
SWIDTH 576 0
DWIDTH 4 0
BBX 4 4 0 1
BITMAP
90
90
90
60
ENDCHAR
STARTCHAR 016B
ENCODING 363
SWIDTH 432 0
DWIDTH 3 0
BBX 3 4 0 0
BITMAP
40
A0
A0
E0
ENDCHAR
STARTCHAR 016C
ENCODING 364
SWIDTH 576 0
DWIDTH 4 0
BBX 4 6 0 0
BITMAP
60
00
90
90
90
60
ENDCHAR
STARTCHAR 016D
ENCODING 365
SWIDTH 432 0
DWIDTH 3 0
BBX 3 3 0 1
BITMAP
A0
A0
E0
ENDCHAR
STARTCHAR 016E
ENCODING 366
SWIDTH 576 0
DWIDTH 4 0
BBX 4 6 0 0
BITMAP
60
00
90
90
90
60
ENDCHAR
STARTCHAR 016F
ENCODING 367
SWIDTH 432 0
DWIDTH 3 0
BBX 3 5 0 0
BITMAP
40
40
A0
A0
E0
ENDCHAR
STARTCHAR 0170
ENCODING 368
SWIDTH 576 0
DWIDTH 4 0
BBX 4 4 0 2
BITMAP
90
90
90
60
ENDCHAR
STARTCHAR 0171
ENCODING 369
SWIDTH 432 0
DWIDTH 3 0
BBX 3 4 0 0
BITMAP
60
A0
A0
E0
ENDCHAR
STARTCHAR 0172
ENCODING 370
SWIDTH 576 0
DWIDTH 4 0
BBX 4 5 0 -1
BITMAP
90
90
90
60
60
ENDCHAR
STARTCHAR 0173
ENCODING 371
SWIDTH 432 0
DWIDTH 3 0
BBX 3 4 0 -1
BITMAP
A0
A0
A0
60
ENDCHAR
STARTCHAR 0174
ENCODING 372
SWIDTH 864 0
DWIDTH 6 0
BBX 5 6 0 0
BITMAP
10
00
B8
B8
48
48
ENDCHAR
STARTCHAR 0175
ENCODING 373
SWIDTH 576 0
DWIDTH 4 0
BBX 4 4 0 0
BITMAP
60
B0
B0
50
ENDCHAR
STARTCHAR 0176
ENCODING 374
SWIDTH 576 0
DWIDTH 4 0
BBX 3 6 1 0
BITMAP
40
00
E0
40
80
80
ENDCHAR
STARTCHAR 0177
ENCODING 375
SWIDTH 432 0
DWIDTH 3 0
BBX 3 5 0 -1
BITMAP
60
A0
A0
40
40
ENDCHAR
STARTCHAR 0178
ENCODING 376
SWIDTH 576 0
DWIDTH 4 0
BBX 3 6 1 0
BITMAP
C0
00
E0
40
80
80
ENDCHAR
STARTCHAR 0179
ENCODING 377
SWIDTH 432 0
DWIDTH 3 0
BBX 3 4 0 2
BITMAP
60
40
40
E0
ENDCHAR
STARTCHAR 017A
ENCODING 378
SWIDTH 288 0
DWIDTH 2 0
BBX 2 4 0 0
BITMAP
40
40
40
C0
ENDCHAR
STARTCHAR 017B
ENCODING 379
SWIDTH 432 0
DWIDTH 3 0
BBX 3 4 0 2
BITMAP
60
40
40
E0
ENDCHAR
STARTCHAR 017C
ENCODING 380
SWIDTH 288 0
DWIDTH 2 0
BBX 2 3 0 1
BITMAP
40
40
C0
ENDCHAR
STARTCHAR 017D
ENCODING 381
SWIDTH 432 0
DWIDTH 3 0
BBX 3 6 0 0
BITMAP
20
00
60
40
40
E0
ENDCHAR
STARTCHAR 017E
ENCODING 382
SWIDTH 288 0
DWIDTH 2 0
BBX 2 4 0 0
BITMAP
40
40
40
C0
ENDCHAR
STARTCHAR 017F
ENCODING 383
SWIDTH 144 0
DWIDTH 1 0
BBX 2 6 0 -2
BITMAP
40
80
80
80
80
80
ENDCHAR
STARTCHAR 0180
ENCODING 384
SWIDTH 432 0
DWIDTH 3 0
BBX 3 4 0 0
BITMAP
C0
A0
A0
E0
ENDCHAR
STARTCHAR 0181
ENCODING 385
SWIDTH 576 0
DWIDTH 4 0
BBX 5 4 0 0
BITMAP
F0
30
48
30
ENDCHAR
STARTCHAR 0182
ENCODING 386
SWIDTH 432 0
DWIDTH 3 0
BBX 3 4 0 0
BITMAP
C0
C0
A0
E0
ENDCHAR
STARTCHAR 0183
ENCODING 387
SWIDTH 432 0
DWIDTH 3 0
BBX 3 4 0 0
BITMAP
C0
E0
A0
E0
ENDCHAR
STARTCHAR 0184
ENCODING 388
SWIDTH 576 0
DWIDTH 4 0
BBX 4 4 0 0
BITMAP
C0
30
50
30
ENDCHAR
STARTCHAR 0185
ENCODING 389
SWIDTH 432 0
DWIDTH 3 0
BBX 2 3 1 0
BITMAP
80
C0
C0
ENDCHAR
STARTCHAR 0186
ENCODING 390
SWIDTH 576 0
DWIDTH 4 0
BBX 4 4 0 1
BITMAP
E0
10
10
60
ENDCHAR
STARTCHAR 0187
ENCODING 391
SWIDTH 576 0
DWIDTH 4 0
BBX 5 6 0 0
BITMAP
08
30
D0
80
80
60
ENDCHAR
STARTCHAR 0188
ENCODING 392
SWIDTH 432 0
DWIDTH 3 0
BBX 3 4 0 0
BITMAP
20
E0
80
E0
ENDCHAR
STARTCHAR 0189
ENCODING 393
SWIDTH 576 0
DWIDTH 4 0
BBX 4 4 0 0
BITMAP
F0
90
D0
E0
ENDCHAR
STARTCHAR 018A
ENCODING 394
SWIDTH 720 0
DWIDTH 5 0
BBX 5 4 0 0
BITMAP
F8
48
48
70
ENDCHAR
STARTCHAR 018B
ENCODING 395
SWIDTH 432 0
DWIDTH 3 0
BBX 3 4 0 0
BITMAP
60
60
A0
60
ENDCHAR
STARTCHAR 018C
ENCODING 396
SWIDTH 432 0
DWIDTH 3 0
BBX 3 4 0 0
BITMAP
60
E0
A0
E0
ENDCHAR
STARTCHAR 018D
ENCODING 397
SWIDTH 432 0
DWIDTH 3 0
BBX 3 4 0 -1
BITMAP
E0
A0
60
40
ENDCHAR
STARTCHAR 018E
ENCODING 398
SWIDTH 432 0
DWIDTH 3 0
BBX 3 4 0 0
BITMAP
60
20
60
E0
ENDCHAR
STARTCHAR 018F
ENCODING 399
SWIDTH 576 0
DWIDTH 4 0
BBX 4 5 0 0
BITMAP
20
50
10
F0
60
ENDCHAR
STARTCHAR 0190
ENCODING 400
SWIDTH 432 0
DWIDTH 3 0
BBX 3 5 0 0
BITMAP
40
A0
40
80
E0
ENDCHAR
STARTCHAR 0191
ENCODING 401
SWIDTH 432 0
DWIDTH 3 0
BBX 3 5 0 -1
BITMAP
E0
80
C0
80
80
ENDCHAR
STARTCHAR 0192
ENCODING 402
SWIDTH 288 0
DWIDTH 2 0
BBX 2 5 0 0
BITMAP
C0
C0
80
80
80
ENDCHAR
STARTCHAR 0193
ENCODING 403
SWIDTH 576 0
DWIDTH 4 0
BBX 5 6 0 0
BITMAP
08
30
D0
80
90
60
ENDCHAR
STARTCHAR 0194
ENCODING 404
SWIDTH 576 0
DWIDTH 4 0
BBX 4 5 0 -1
BITMAP
90
60
60
20
20
ENDCHAR
STARTCHAR 0195
ENCODING 405
SWIDTH 576 0
DWIDTH 4 0
BBX 5 4 0 0
BITMAP
80
E8
A8
B0
ENDCHAR
STARTCHAR 0196
ENCODING 406
SWIDTH 288 0
DWIDTH 2 0
BBX 2 4 0 0
BITMAP
80
80
80
C0
ENDCHAR
STARTCHAR 0197
ENCODING 407
SWIDTH 288 0
DWIDTH 2 0
BBX 2 4 0 0
BITMAP
80
80
80
C0
ENDCHAR
STARTCHAR 0198
ENCODING 408
SWIDTH 432 0
DWIDTH 3 0
BBX 3 6 0 0
BITMAP
40
80
E0
C0
C0
A0
ENDCHAR
STARTCHAR 0199
ENCODING 409
SWIDTH 432 0
DWIDTH 3 0
BBX 2 6 0 0
BITMAP
40
80
80
C0
C0
C0
ENDCHAR
STARTCHAR 019A
ENCODING 410
SWIDTH 288 0
DWIDTH 2 0
BBX 2 4 0 0
BITMAP
80
80
80
40
ENDCHAR
STARTCHAR 019B
ENCODING 411
SWIDTH 432 0
DWIDTH 3 0
BBX 3 4 0 1
BITMAP
C0
40
A0
A0
ENDCHAR
STARTCHAR 019C
ENCODING 412
SWIDTH 576 0
DWIDTH 4 0
BBX 4 4 0 0
BITMAP
D0
D0
D0
70
ENDCHAR
STARTCHAR 019D
ENCODING 413
SWIDTH 576 0
DWIDTH 4 0
BBX 4 5 0 -1
BITMAP
D0
D0
B0
90
80
ENDCHAR
STARTCHAR 019E
ENCODING 414
SWIDTH 432 0
DWIDTH 3 0
BBX 3 4 0 -2
BITMAP
E0
A0
A0
20
ENDCHAR
STARTCHAR 019F
ENCODING 415
SWIDTH 576 0
DWIDTH 4 0
BBX 4 5 0 0
BITMAP
20
D0
90
F0
60
ENDCHAR
STARTCHAR 01A0
ENCODING 416
SWIDTH 576 0
DWIDTH 4 0
BBX 5 5 0 0
BITMAP
28
D8
90
90
60
ENDCHAR
STARTCHAR 01A1
ENCODING 417
SWIDTH 432 0
DWIDTH 3 0
BBX 4 4 0 0
BITMAP
10
E0
A0
E0
ENDCHAR
STARTCHAR 01A2
ENCODING 418
SWIDTH 576 0
DWIDTH 4 0
BBX 5 6 0 -1
BITMAP
20
D8
98
98
68
08
ENDCHAR
STARTCHAR 01A3
ENCODING 419
SWIDTH 432 0
DWIDTH 3 0
BBX 4 4 0 -2
BITMAP
F0
B0
B0
50
ENDCHAR
STARTCHAR 01A4
ENCODING 420
SWIDTH 576 0
DWIDTH 4 0
BBX 4 4 0 0
BITMAP
F0
50
60
40
ENDCHAR
STARTCHAR 01A5
ENCODING 421
SWIDTH 432 0
DWIDTH 3 0
BBX 3 6 0 -2
BITMAP
40
80
E0
A0
A0
C0
ENDCHAR
STARTCHAR 01A6
ENCODING 422
SWIDTH 432 0
DWIDTH 3 0
BBX 3 5 0 -1
BITMAP
80
E0
E0
A0
20
ENDCHAR
STARTCHAR 01A7
ENCODING 423
SWIDTH 432 0
DWIDTH 3 0
BBX 3 5 0 0
BITMAP
40
20
40
80
E0
ENDCHAR
STARTCHAR 01A8
ENCODING 424
SWIDTH 288 0
DWIDTH 2 0
BBX 2 3 0 0
BITMAP
C0
80
C0
ENDCHAR
STARTCHAR 01A9
ENCODING 425
SWIDTH 432 0
DWIDTH 3 0
BBX 3 4 0 0
BITMAP
E0
40
40
E0
ENDCHAR
STARTCHAR 01AA
ENCODING 426
SWIDTH 288 0
DWIDTH 2 0
BBX 3 6 0 -1
BITMAP
40
C0
40
40
40
60
ENDCHAR
STARTCHAR 01AB
ENCODING 427
SWIDTH 288 0
DWIDTH 2 0
BBX 2 4 0 0
BITMAP
C0
80
40
40
ENDCHAR
STARTCHAR 01AC
ENCODING 428
SWIDTH 576 0
DWIDTH 4 0
BBX 3 4 0 0
BITMAP
E0
20
20
20
ENDCHAR
STARTCHAR 01AD
ENCODING 429
SWIDTH 288 0
DWIDTH 2 0
BBX 2 4 0 1
BITMAP
C0
C0
80
40
ENDCHAR
STARTCHAR 01AE
ENCODING 430
SWIDTH 432 0
DWIDTH 3 0
BBX 2 5 1 -1
BITMAP
C0
80
80
80
C0
ENDCHAR
STARTCHAR 01AF
ENCODING 431
SWIDTH 576 0
DWIDTH 4 0
BBX 5 4 0 1
BITMAP
98
90
90
60
ENDCHAR
STARTCHAR 01B0
ENCODING 432
SWIDTH 576 0
DWIDTH 4 0
BBX 4 4 0 0
BITMAP
10
B0
A0
E0
ENDCHAR
STARTCHAR 01B1
ENCODING 433
SWIDTH 576 0
DWIDTH 4 0
BBX 4 4 0 0
BITMAP
90
90
90
60
ENDCHAR
STARTCHAR 01B2
ENCODING 434
SWIDTH 576 0
DWIDTH 4 0
BBX 4 4 0 1
BITMAP
90
60
60
20
ENDCHAR
STARTCHAR 01B3
ENCODING 435
SWIDTH 576 0
DWIDTH 4 0
BBX 3 4 1 1
BITMAP
E0
40
80
80
ENDCHAR
STARTCHAR 01B4
ENCODING 436
SWIDTH 576 0
DWIDTH 4 0
BBX 4 4 0 -1
BITMAP
B0
A0
40
40
ENDCHAR
STARTCHAR 01B5
ENCODING 437
SWIDTH 432 0
DWIDTH 3 0
BBX 3 4 0 0
BITMAP
60
40
60
E0
ENDCHAR
STARTCHAR 01B6
ENCODING 438
SWIDTH 288 0
DWIDTH 2 0
BBX 2 3 0 0
BITMAP
40
40
C0
ENDCHAR
STARTCHAR 01B7
ENCODING 439
SWIDTH 432 0
DWIDTH 3 0
BBX 3 4 0 0
BITMAP
60
20
20
E0
ENDCHAR
STARTCHAR 01B8
ENCODING 440
SWIDTH 432 0
DWIDTH 3 0
BBX 3 4 0 0
BITMAP
E0
40
80
E0
ENDCHAR
STARTCHAR 01B9
ENCODING 441
SWIDTH 432 0
DWIDTH 3 0
BBX 2 4 0 -1
BITMAP
C0
40
80
C0
ENDCHAR
STARTCHAR 01BA
ENCODING 442
SWIDTH 288 0
DWIDTH 2 0
BBX 2 4 0 -1
BITMAP
40
40
40
C0
ENDCHAR
STARTCHAR 01BB
ENCODING 443
SWIDTH 432 0
DWIDTH 3 0
BBX 3 5 0 0
BITMAP
40
A0
40
80
E0
ENDCHAR
STARTCHAR 01BC
ENCODING 444
SWIDTH 432 0
DWIDTH 3 0
BBX 3 4 0 0
BITMAP
C0
E0
20
E0
ENDCHAR
STARTCHAR 01BD
ENCODING 445
SWIDTH 288 0
DWIDTH 2 0
BBX 2 3 0 0
BITMAP
C0
40
C0
ENDCHAR
STARTCHAR 01BE
ENCODING 446
SWIDTH 432 0
DWIDTH 3 0
BBX 3 3 0 1
BITMAP
C0
60
60
ENDCHAR
STARTCHAR 01BF
ENCODING 447
SWIDTH 432 0
DWIDTH 3 0
BBX 3 4 0 -2
BITMAP
E0
A0
C0
80
ENDCHAR
STARTCHAR 01C0
ENCODING 448
SWIDTH 144 0
DWIDTH 1 0
BBX 1 5 0 -2
BITMAP
80
80
80
80
80
ENDCHAR
STARTCHAR 01C1
ENCODING 449
SWIDTH 288 0
DWIDTH 2 0
BBX 2 5 0 -2
BITMAP
C0
C0
C0
C0
C0
ENDCHAR
STARTCHAR 01C2
ENCODING 450
SWIDTH 432 0
DWIDTH 3 0
BBX 3 4 0 0
BITMAP
40
40
E0
40
ENDCHAR
STARTCHAR 01C3
ENCODING 451
SWIDTH 144 0
DWIDTH 1 0
BBX 1 4 0 0
BITMAP
80
80
80
80
ENDCHAR
STARTCHAR 01C4
ENCODING 452
SWIDTH 1152 0
DWIDTH 8 0
BBX 8 5 0 1
BITMAP
02
F6
92
94
E7
ENDCHAR
STARTCHAR 01C5
ENCODING 453
SWIDTH 1008 0
DWIDTH 7 0
BBX 7 4 0 0
BITMAP
F4
92
94
E6
ENDCHAR
STARTCHAR 01C6
ENCODING 454
SWIDTH 864 0
DWIDTH 6 0
BBX 6 4 0 0
BITMAP
28
E4
A8
EC
ENDCHAR
STARTCHAR 01C7
ENCODING 455
SWIDTH 864 0
DWIDTH 6 0
BBX 6 4 0 0
BITMAP
84
84
84
EC
ENDCHAR
STARTCHAR 01C8
ENCODING 456
SWIDTH 576 0
DWIDTH 4 0
BBX 4 5 0 -1
BITMAP
80
90
90
F0
10
ENDCHAR
STARTCHAR 01C9
ENCODING 457
SWIDTH 432 0
DWIDTH 3 0
BBX 3 5 0 -1
BITMAP
80
A0
A0
A0
60
ENDCHAR
STARTCHAR 01CA
ENCODING 458
SWIDTH 864 0
DWIDTH 6 0
BBX 6 4 0 0
BITMAP
D4
D4
B4
94
ENDCHAR
STARTCHAR 01CB
ENCODING 459
SWIDTH 720 0
DWIDTH 5 0
BBX 5 5 0 -1
BITMAP
D0
D8
B8
98
08
ENDCHAR
STARTCHAR 01CC
ENCODING 460
SWIDTH 576 0
DWIDTH 4 0
BBX 4 4 0 0
BITMAP
F0
B0
B0
10
ENDCHAR
STARTCHAR 01CD
ENCODING 461
SWIDTH 576 0
DWIDTH 4 0
BBX 4 5 0 1
BITMAP
20
20
60
90
90
ENDCHAR
STARTCHAR 01CE
ENCODING 462
SWIDTH 288 0
DWIDTH 2 0
BBX 2 4 0 0
BITMAP
40
40
40
C0
ENDCHAR
STARTCHAR 01CF
ENCODING 463
SWIDTH 288 0
DWIDTH 2 0
BBX 2 6 0 0
BITMAP
C0
00
80
80
80
C0
ENDCHAR
STARTCHAR 01D0
ENCODING 464
SWIDTH 144 0
DWIDTH 1 0
BBX 1 4 0 0
BITMAP
80
80
80
80
ENDCHAR
STARTCHAR 01D1
ENCODING 465
SWIDTH 576 0
DWIDTH 4 0
BBX 4 5 0 1
BITMAP
20
D0
90
90
60
ENDCHAR
STARTCHAR 01D2
ENCODING 466
SWIDTH 432 0
DWIDTH 3 0
BBX 3 4 0 0
BITMAP
40
A0
A0
E0
ENDCHAR
STARTCHAR 01D3
ENCODING 467
SWIDTH 576 0
DWIDTH 4 0
BBX 4 6 0 0
BITMAP
60
00
90
90
90
60
ENDCHAR
STARTCHAR 01D4
ENCODING 468
SWIDTH 432 0
DWIDTH 3 0
BBX 3 4 0 0
BITMAP
40
A0
A0
E0
ENDCHAR
STARTCHAR 01D5
ENCODING 469
SWIDTH 576 0
DWIDTH 4 0
BBX 4 6 0 0
BITMAP
60
00
90
90
90
60
ENDCHAR
STARTCHAR 01D6
ENCODING 470
SWIDTH 432 0
DWIDTH 3 0
BBX 3 5 0 0
BITMAP
40
00
A0
A0
E0
ENDCHAR
STARTCHAR 01D7
ENCODING 471
SWIDTH 576 0
DWIDTH 4 0
BBX 4 6 0 0
BITMAP
20
00
90
90
90
60
ENDCHAR
STARTCHAR 01D8
ENCODING 472
SWIDTH 432 0
DWIDTH 3 0
BBX 3 3 0 3
BITMAP
A0
A0
E0
ENDCHAR
STARTCHAR 01D9
ENCODING 473
SWIDTH 576 0
DWIDTH 4 0
BBX 4 6 0 0
BITMAP
20
00
90
90
90
60
ENDCHAR
STARTCHAR 01DA
ENCODING 474
SWIDTH 432 0
DWIDTH 3 0
BBX 3 5 0 1
BITMAP
40
00
A0
A0
E0
ENDCHAR
STARTCHAR 01DB
ENCODING 475
SWIDTH 576 0
DWIDTH 4 0
BBX 4 4 0 2
BITMAP
90
90
90
60
ENDCHAR
STARTCHAR 01DC
ENCODING 476
SWIDTH 432 0
DWIDTH 3 0
BBX 3 6 0 0
BITMAP
40
00
00
A0
A0
E0
ENDCHAR
STARTCHAR 01DD
ENCODING 477
SWIDTH 432 0
DWIDTH 3 0
BBX 3 3 0 0
BITMAP
60
E0
E0
ENDCHAR
STARTCHAR 01DE
ENCODING 478
SWIDTH 576 0
DWIDTH 4 0
BBX 4 6 0 0
BITMAP
60
00
20
60
90
90
ENDCHAR
STARTCHAR 01DF
ENCODING 479
SWIDTH 288 0
DWIDTH 2 0
BBX 2 5 0 0
BITMAP
40
00
40
40
C0
ENDCHAR
STARTCHAR 01E0
ENCODING 480
SWIDTH 576 0
DWIDTH 4 0
BBX 4 6 0 0
BITMAP
60
00
20
60
90
90
ENDCHAR
STARTCHAR 01E1
ENCODING 481
SWIDTH 288 0
DWIDTH 2 0
BBX 2 5 0 0
BITMAP
40
00
40
40
C0
ENDCHAR
STARTCHAR 01E2
ENCODING 482
SWIDTH 720 0
DWIDTH 5 0
BBX 5 5 0 0
BITMAP
10
70
60
B0
98
ENDCHAR
STARTCHAR 01E3
ENCODING 483
SWIDTH 720 0
DWIDTH 5 0
BBX 5 4 0 0
BITMAP
20
70
78
F0
ENDCHAR
STARTCHAR 01E4
ENCODING 484
SWIDTH 576 0
DWIDTH 4 0
BBX 4 5 0 0
BITMAP
20
D0
80
90
60
ENDCHAR
STARTCHAR 01E5
ENCODING 485
SWIDTH 432 0
DWIDTH 3 0
BBX 4 4 0 -1
BITMAP
E0
A0
C0
F0
ENDCHAR
STARTCHAR 01E6
ENCODING 486
SWIDTH 576 0
DWIDTH 4 0
BBX 4 6 0 0
BITMAP
60
20
D0
80
90
60
ENDCHAR
STARTCHAR 01E7
ENCODING 487
SWIDTH 432 0
DWIDTH 3 0
BBX 3 5 0 -1
BITMAP
40
A0
A0
C0
E0
ENDCHAR
STARTCHAR 01E8
ENCODING 488
SWIDTH 432 0
DWIDTH 3 0
BBX 3 6 0 0
BITMAP
60
00
E0
C0
C0
A0
ENDCHAR
STARTCHAR 01E9
ENCODING 489
SWIDTH 432 0
DWIDTH 3 0
BBX 2 4 0 2
BITMAP
80
C0
C0
C0
ENDCHAR
STARTCHAR 01EA
ENCODING 490
SWIDTH 576 0
DWIDTH 4 0
BBX 4 6 0 -1
BITMAP
20
D0
90
90
60
60
ENDCHAR
STARTCHAR 01EB
ENCODING 491
SWIDTH 432 0
DWIDTH 3 0
BBX 3 4 0 -1
BITMAP
E0
A0
A0
40
ENDCHAR
STARTCHAR 01EC
ENCODING 492
SWIDTH 576 0
DWIDTH 4 0
BBX 4 6 0 -1
BITMAP
20
D0
90
90
60
60
ENDCHAR
STARTCHAR 01ED
ENCODING 493
SWIDTH 432 0
DWIDTH 3 0
BBX 3 5 0 -1
BITMAP
40
E0
A0
A0
40
ENDCHAR
STARTCHAR 01EE
ENCODING 494
SWIDTH 432 0
DWIDTH 3 0
BBX 3 6 0 0
BITMAP
20
00
60
20
20
E0
ENDCHAR
STARTCHAR 01EF
ENCODING 495
SWIDTH 432 0
DWIDTH 3 0
BBX 2 5 1 -1
BITMAP
80
40
80
40
C0
ENDCHAR
STARTCHAR 01F0
ENCODING 496
SWIDTH 144 0
DWIDTH 1 0
BBX 1 5 0 -1
BITMAP
80
80
80
80
80
ENDCHAR
STARTCHAR 01F1
ENCODING 497
SWIDTH 1152 0
DWIDTH 8 0
BBX 8 4 0 0
BITMAP
F6
92
94
E7
ENDCHAR
STARTCHAR 01F2
ENCODING 498
SWIDTH 1008 0
DWIDTH 7 0
BBX 7 4 0 0
BITMAP
F0
96
94
E6
ENDCHAR
STARTCHAR 01F3
ENCODING 499
SWIDTH 864 0
DWIDTH 6 0
BBX 6 4 0 0
BITMAP
20
EC
A8
EC
ENDCHAR
STARTCHAR 01F4
ENCODING 500
SWIDTH 576 0
DWIDTH 4 0
BBX 4 6 0 0
BITMAP
20
20
D0
80
90
60
ENDCHAR
STARTCHAR 01F5
ENCODING 501
SWIDTH 432 0
DWIDTH 3 0
BBX 3 4 0 0
BITMAP
E0
A0
C0
E0
ENDCHAR
STARTCHAR 01F6
ENCODING 502
SWIDTH 720 0
DWIDTH 5 0
BBX 5 4 0 0
BITMAP
A0
A8
E8
98
ENDCHAR
STARTCHAR 01F7
ENCODING 503
SWIDTH 432 0
DWIDTH 3 0
BBX 3 6 0 -1
BITMAP
40
A0
C0
80
80
80
ENDCHAR
STARTCHAR 01F8
ENCODING 504
SWIDTH 576 0
DWIDTH 4 0
BBX 4 4 0 2
BITMAP
D0
D0
B0
90
ENDCHAR
STARTCHAR 01F9
ENCODING 505
SWIDTH 432 0
DWIDTH 3 0
BBX 3 4 0 0
BITMAP
40
E0
A0
A0
ENDCHAR
STARTCHAR 01FA
ENCODING 506
SWIDTH 576 0
DWIDTH 4 0
BBX 4 6 0 0
BITMAP
20
20
20
60
90
90
ENDCHAR
STARTCHAR 01FB
ENCODING 507
SWIDTH 288 0
DWIDTH 2 0
BBX 2 5 0 1
BITMAP
40
40
40
40
C0
ENDCHAR
STARTCHAR 01FC
ENCODING 508
SWIDTH 720 0
DWIDTH 5 0
BBX 5 4 0 2
BITMAP
70
60
B0
98
ENDCHAR
STARTCHAR 01FD
ENCODING 509
SWIDTH 720 0
DWIDTH 5 0
BBX 5 3 0 1
BITMAP
70
78
F0
ENDCHAR
STARTCHAR 01FE
ENCODING 510
SWIDTH 576 0
DWIDTH 4 0
BBX 4 6 0 0
BITMAP
20
30
D0
B0
D0
60
ENDCHAR
STARTCHAR 01FF
ENCODING 511
SWIDTH 432 0
DWIDTH 3 0
BBX 3 3 0 1
BITMAP
E0
E0
E0
ENDCHAR
STARTCHAR 0200
ENCODING 512
SWIDTH 576 0
DWIDTH 4 0
BBX 4 6 0 0
BITMAP
60
00
20
60
90
90
ENDCHAR
STARTCHAR 0201
ENCODING 513
SWIDTH 288 0
DWIDTH 2 0
BBX 2 3 0 1
BITMAP
40
40
C0
ENDCHAR
STARTCHAR 0202
ENCODING 514
SWIDTH 576 0
DWIDTH 4 0
BBX 4 6 0 0
BITMAP
20
00
20
60
90
90
ENDCHAR
STARTCHAR 0203
ENCODING 515
SWIDTH 288 0
DWIDTH 2 0
BBX 2 3 0 1
BITMAP
40
40
C0
ENDCHAR
STARTCHAR 0204
ENCODING 516
SWIDTH 432 0
DWIDTH 3 0
BBX 3 4 0 2
BITMAP
E0
80
C0
E0
ENDCHAR
STARTCHAR 0205
ENCODING 517
SWIDTH 432 0
DWIDTH 3 0
BBX 3 3 0 1
BITMAP
E0
E0
E0
ENDCHAR
STARTCHAR 0206
ENCODING 518
SWIDTH 432 0
DWIDTH 3 0
BBX 3 6 0 0
BITMAP
40
00
E0
80
C0
E0
ENDCHAR
STARTCHAR 0207
ENCODING 519
SWIDTH 432 0
DWIDTH 3 0
BBX 3 3 0 1
BITMAP
E0
E0
E0
ENDCHAR
STARTCHAR 0208
ENCODING 520
SWIDTH 288 0
DWIDTH 2 0
BBX 2 6 0 0
BITMAP
C0
00
80
80
80
C0
ENDCHAR
STARTCHAR 0209
ENCODING 521
SWIDTH 144 0
DWIDTH 1 0
BBX 1 3 0 1
BITMAP
80
80
80
ENDCHAR
STARTCHAR 020A
ENCODING 522
SWIDTH 288 0
DWIDTH 2 0
BBX 2 6 0 0
BITMAP
C0
00
80
80
80
C0
ENDCHAR
STARTCHAR 020B
ENCODING 523
SWIDTH 144 0
DWIDTH 1 0
BBX 1 3 0 1
BITMAP
80
80
80
ENDCHAR
STARTCHAR 020C
ENCODING 524
SWIDTH 576 0
DWIDTH 4 0
BBX 4 6 0 0
BITMAP
60
20
D0
90
90
60
ENDCHAR
STARTCHAR 020D
ENCODING 525
SWIDTH 432 0
DWIDTH 3 0
BBX 3 4 0 0
BITMAP
20
E0
A0
E0
ENDCHAR
STARTCHAR 020E
ENCODING 526
SWIDTH 576 0
DWIDTH 4 0
BBX 4 6 0 0
BITMAP
60
20
D0
90
90
60
ENDCHAR
STARTCHAR 020F
ENCODING 527
SWIDTH 432 0
DWIDTH 3 0
BBX 3 3 0 1
BITMAP
E0
A0
E0
ENDCHAR
STARTCHAR 0210
ENCODING 528
SWIDTH 432 0
DWIDTH 3 0
BBX 3 6 0 0
BITMAP
80
00
E0
A0
E0
A0
ENDCHAR
STARTCHAR 0211
ENCODING 529
SWIDTH 288 0
DWIDTH 2 0
BBX 2 3 0 1
BITMAP
C0
80
80
ENDCHAR
STARTCHAR 0212
ENCODING 530
SWIDTH 432 0
DWIDTH 3 0
BBX 3 6 0 0
BITMAP
40
00
E0
A0
E0
A0
ENDCHAR
STARTCHAR 0213
ENCODING 531
SWIDTH 288 0
DWIDTH 2 0
BBX 2 3 0 1
BITMAP
C0
80
80
ENDCHAR
STARTCHAR 0214
ENCODING 532
SWIDTH 576 0
DWIDTH 4 0
BBX 4 4 0 2
BITMAP
90
90
90
60
ENDCHAR
STARTCHAR 0215
ENCODING 533
SWIDTH 432 0
DWIDTH 3 0
BBX 3 4 0 0
BITMAP
20
A0
A0
E0
ENDCHAR
STARTCHAR 0216
ENCODING 534
SWIDTH 576 0
DWIDTH 4 0
BBX 4 6 0 0
BITMAP
60
00
90
90
90
60
ENDCHAR
STARTCHAR 0217
ENCODING 535
SWIDTH 432 0
DWIDTH 3 0
BBX 3 3 0 1
BITMAP
A0
A0
E0
ENDCHAR
STARTCHAR 0218
ENCODING 536
SWIDTH 432 0
DWIDTH 3 0
BBX 3 6 0 -2
BITMAP
40
A0
40
20
A0
40
ENDCHAR
STARTCHAR 0219
ENCODING 537
SWIDTH 288 0
DWIDTH 2 0
BBX 2 4 0 -2
BITMAP
C0
40
C0
40
ENDCHAR
STARTCHAR 021A
ENCODING 538
SWIDTH 432 0
DWIDTH 3 0
BBX 2 5 1 -2
BITMAP
C0
80
80
80
80
ENDCHAR
STARTCHAR 021B
ENCODING 539
SWIDTH 288 0
DWIDTH 2 0
BBX 2 5 0 -1
BITMAP
C0
80
40
00
40
ENDCHAR
STARTCHAR 021C
ENCODING 540
SWIDTH 432 0
DWIDTH 3 0
BBX 2 5 1 0
BITMAP
80
40
40
C0
80
ENDCHAR
STARTCHAR 021D
ENCODING 541
SWIDTH 432 0
DWIDTH 3 0
BBX 3 4 0 -1
BITMAP
E0
20
60
60
ENDCHAR
STARTCHAR 021E
ENCODING 542
SWIDTH 432 0
DWIDTH 3 0
BBX 3 5 0 1
BITMAP
40
A0
A0
E0
A0
ENDCHAR
STARTCHAR 021F
ENCODING 543
SWIDTH 432 0
DWIDTH 3 0
BBX 3 5 0 1
BITMAP
40
80
E0
A0
A0
ENDCHAR
STARTCHAR 0220
ENCODING 544
SWIDTH 576 0
DWIDTH 4 0
BBX 4 5 0 0
BITMAP
F0
90
90
90
10
ENDCHAR
STARTCHAR 0221
ENCODING 545
SWIDTH 576 0
DWIDTH 4 0
BBX 4 5 0 -1
BITMAP
20
E0
A0
B0
50
ENDCHAR
STARTCHAR 0222
ENCODING 546
SWIDTH 432 0
DWIDTH 3 0
BBX 3 4 0 0
BITMAP
A0
E0
A0
E0
ENDCHAR
STARTCHAR 0223
ENCODING 547
SWIDTH 432 0
DWIDTH 3 0
BBX 3 4 0 0
BITMAP
A0
40
A0
C0
ENDCHAR
STARTCHAR 0224
ENCODING 548
SWIDTH 432 0
DWIDTH 3 0
BBX 3 5 0 -1
BITMAP
60
40
40
E0
20
ENDCHAR
STARTCHAR 0225
ENCODING 549
SWIDTH 288 0
DWIDTH 2 0
BBX 2 4 0 -1
BITMAP
40
40
C0
40
ENDCHAR
STARTCHAR 0226
ENCODING 550
SWIDTH 576 0
DWIDTH 4 0
BBX 4 6 0 0
BITMAP
20
00
20
60
90
90
ENDCHAR
STARTCHAR 0227
ENCODING 551
SWIDTH 288 0
DWIDTH 2 0
BBX 2 3 0 1
BITMAP
40
40
C0
ENDCHAR
STARTCHAR 0228
ENCODING 552
SWIDTH 432 0
DWIDTH 3 0
BBX 3 5 0 -1
BITMAP
E0
80
C0
E0
40
ENDCHAR
STARTCHAR 0229
ENCODING 553
SWIDTH 432 0
DWIDTH 3 0
BBX 3 4 0 -1
BITMAP
E0
E0
A0
40
ENDCHAR
STARTCHAR 022A
ENCODING 554
SWIDTH 576 0
DWIDTH 4 0
BBX 4 6 0 0
BITMAP
60
20
D0
90
90
60
ENDCHAR
STARTCHAR 022B
ENCODING 555
SWIDTH 432 0
DWIDTH 3 0
BBX 3 5 0 0
BITMAP
40
00
E0
A0
E0
ENDCHAR
STARTCHAR 022C
ENCODING 556
SWIDTH 576 0
DWIDTH 4 0
BBX 4 6 0 0
BITMAP
60
20
D0
90
90
60
ENDCHAR
STARTCHAR 022D
ENCODING 557
SWIDTH 432 0
DWIDTH 3 0
BBX 3 5 0 0
BITMAP
40
00
E0
A0
E0
ENDCHAR
STARTCHAR 022E
ENCODING 558
SWIDTH 576 0
DWIDTH 4 0
BBX 4 6 0 0
BITMAP
20
20
D0
90
90
60
ENDCHAR
STARTCHAR 022F
ENCODING 559
SWIDTH 432 0
DWIDTH 3 0
BBX 3 3 0 1
BITMAP
E0
A0
E0
ENDCHAR
STARTCHAR 0230
ENCODING 560
SWIDTH 576 0
DWIDTH 4 0
BBX 4 6 0 0
BITMAP
60
20
D0
90
90
60
ENDCHAR
STARTCHAR 0231
ENCODING 561
SWIDTH 432 0
DWIDTH 3 0
BBX 3 5 0 0
BITMAP
40
00
E0
A0
E0
ENDCHAR
STARTCHAR 0232
ENCODING 562
SWIDTH 576 0
DWIDTH 4 0
BBX 3 5 1 0
BITMAP
40
E0
40
80
80
ENDCHAR
STARTCHAR 0233
ENCODING 563
SWIDTH 432 0
DWIDTH 3 0
BBX 3 5 0 -1
BITMAP
40
A0
A0
40
40
ENDCHAR
STARTCHAR 0234
ENCODING 564
SWIDTH 288 0
DWIDTH 2 0
BBX 2 5 0 -1
BITMAP
80
80
80
C0
40
ENDCHAR
STARTCHAR 0235
ENCODING 565
SWIDTH 576 0
DWIDTH 4 0
BBX 4 4 0 -1
BITMAP
E0
A0
B0
10
ENDCHAR
STARTCHAR 0236
ENCODING 566
SWIDTH 432 0
DWIDTH 3 0
BBX 3 4 0 0
BITMAP
C0
80
A0
40
ENDCHAR
STARTCHAR 0237
ENCODING 567
SWIDTH 144 0
DWIDTH 1 0
BBX 1 4 0 -1
BITMAP
80
80
80
80
ENDCHAR
STARTCHAR 0238
ENCODING 568
SWIDTH 720 0
DWIDTH 5 0
BBX 5 4 0 0
BITMAP
20
F8
A8
F8
ENDCHAR
STARTCHAR 0239
ENCODING 569
SWIDTH 720 0
DWIDTH 5 0
BBX 5 4 0 -2
BITMAP
F8
A8
B8
60
ENDCHAR
STARTCHAR 023A
ENCODING 570
SWIDTH 576 0
DWIDTH 4 0
BBX 4 4 0 1
BITMAP
30
60
50
90
ENDCHAR
STARTCHAR 023B
ENCODING 571
SWIDTH 576 0
DWIDTH 4 0
BBX 4 5 0 0
BITMAP
30
D0
A0
C0
60
ENDCHAR
STARTCHAR 023C
ENCODING 572
SWIDTH 432 0
DWIDTH 3 0
BBX 3 3 0 1
BITMAP
E0
C0
E0
ENDCHAR
STARTCHAR 023D
ENCODING 573
SWIDTH 576 0
DWIDTH 4 0
BBX 4 4 0 0
BITMAP
80
80
C0
70
ENDCHAR
STARTCHAR 023E
ENCODING 574
SWIDTH 432 0
DWIDTH 3 0
BBX 4 5 0 0
BITMAP
10
60
40
40
C0
ENDCHAR
STARTCHAR 023F
ENCODING 575
SWIDTH 288 0
DWIDTH 2 0
BBX 3 5 0 -2
BITMAP
C0
40
C0
40
20
ENDCHAR
STARTCHAR 0240
ENCODING 576
SWIDTH 288 0
DWIDTH 2 0
BBX 3 5 0 -2
BITMAP
40
40
80
40
20
ENDCHAR
STARTCHAR 0241
ENCODING 577
SWIDTH 432 0
DWIDTH 3 0
BBX 3 5 0 0
BITMAP
40
A0
20
40
40
ENDCHAR
STARTCHAR 0242
ENCODING 578
SWIDTH 288 0
DWIDTH 2 0
BBX 2 3 0 0
BITMAP
C0
40
40
ENDCHAR
STARTCHAR 0243
ENCODING 579
SWIDTH 576 0
DWIDTH 4 0
BBX 4 4 0 0
BITMAP
E0
60
D0
60
ENDCHAR
STARTCHAR 0244
ENCODING 580
SWIDTH 576 0
DWIDTH 4 0
BBX 4 4 0 0
BITMAP
90
90
F0
70
ENDCHAR
STARTCHAR 0245
ENCODING 581
SWIDTH 576 0
DWIDTH 4 0
BBX 4 4 0 0
BITMAP
20
60
90
90
ENDCHAR
STARTCHAR 0246
ENCODING 582
SWIDTH 432 0
DWIDTH 3 0
BBX 4 5 0 0
BITMAP
10
E0
C0
C0
E0
ENDCHAR
STARTCHAR 0247
ENCODING 583
SWIDTH 432 0
DWIDTH 3 0
BBX 3 3 0 1
BITMAP
E0
E0
E0
ENDCHAR
STARTCHAR 0248
ENCODING 584
SWIDTH 432 0
DWIDTH 3 0
BBX 2 4 0 0
BITMAP
40
40
40
C0
ENDCHAR
STARTCHAR 0249
ENCODING 585
SWIDTH 288 0
DWIDTH 2 0
BBX 2 4 0 0
BITMAP
40
C0
40
C0
ENDCHAR
STARTCHAR 024A
ENCODING 586
SWIDTH 576 0
DWIDTH 4 0
BBX 5 6 0 -1
BITMAP
20
D0
90
90
70
18
ENDCHAR
STARTCHAR 024B
ENCODING 587
SWIDTH 432 0
DWIDTH 3 0
BBX 4 4 0 -1
BITMAP
E0
A0
A0
70
ENDCHAR
STARTCHAR 024C
ENCODING 588
SWIDTH 576 0
DWIDTH 4 0
BBX 4 4 0 0
BITMAP
E0
A0
E0
90
ENDCHAR
STARTCHAR 024D
ENCODING 589
SWIDTH 288 0
DWIDTH 2 0
BBX 2 3 0 0
BITMAP
40
C0
80
ENDCHAR
STARTCHAR 024E
ENCODING 590
SWIDTH 576 0
DWIDTH 4 0
BBX 4 4 0 0
BITMAP
F0
20
40
40
ENDCHAR
STARTCHAR 024F
ENCODING 591
SWIDTH 432 0
DWIDTH 3 0
BBX 3 4 0 -1
BITMAP
A0
E0
40
40
ENDCHAR
STARTCHAR 0250
ENCODING 592
SWIDTH 288 0
DWIDTH 2 0
BBX 2 3 0 0
BITMAP
C0
C0
C0
ENDCHAR
STARTCHAR 0251
ENCODING 593
SWIDTH 432 0
DWIDTH 3 0
BBX 3 3 0 0
BITMAP
E0
A0
E0
ENDCHAR
STARTCHAR 0252
ENCODING 594
SWIDTH 432 0
DWIDTH 3 0
BBX 3 3 0 0
BITMAP
E0
A0
E0
ENDCHAR
STARTCHAR 0253
ENCODING 595
SWIDTH 432 0
DWIDTH 3 0
BBX 3 5 0 0
BITMAP
40
80
E0
A0
E0
ENDCHAR
STARTCHAR 0254
ENCODING 596
SWIDTH 432 0
DWIDTH 3 0
BBX 3 3 0 0
BITMAP
E0
20
E0
ENDCHAR
STARTCHAR 0255
ENCODING 597
SWIDTH 432 0
DWIDTH 3 0
BBX 3 4 0 -1
BITMAP
E0
80
A0
40
ENDCHAR
STARTCHAR 0256
ENCODING 598
SWIDTH 432 0
DWIDTH 3 0
BBX 4 5 0 -1
BITMAP
20
E0
A0
A0
70
ENDCHAR
STARTCHAR 0257
ENCODING 599
SWIDTH 432 0
DWIDTH 3 0
BBX 4 5 0 0
BITMAP
10
20
E0
A0
E0
ENDCHAR
STARTCHAR 0258
ENCODING 600
SWIDTH 432 0
DWIDTH 3 0
BBX 3 3 0 0
BITMAP
E0
E0
E0
ENDCHAR
STARTCHAR 0259
ENCODING 601
SWIDTH 432 0
DWIDTH 3 0
BBX 3 3 0 0
BITMAP
60
E0
E0
ENDCHAR
STARTCHAR 025A
ENCODING 602
SWIDTH 576 0
DWIDTH 4 0
BBX 4 3 0 0
BITMAP
60
F0
E0
ENDCHAR
STARTCHAR 025B
ENCODING 603
SWIDTH 288 0
DWIDTH 2 0
BBX 2 3 0 0
BITMAP
C0
40
C0
ENDCHAR
STARTCHAR 025C
ENCODING 604
SWIDTH 288 0
DWIDTH 2 0
BBX 2 3 0 0
BITMAP
40
40
C0
ENDCHAR
STARTCHAR 025D
ENCODING 605
SWIDTH 432 0
DWIDTH 3 0
BBX 4 3 0 0
BITMAP
70
40
C0
ENDCHAR
STARTCHAR 025E
ENCODING 606
SWIDTH 432 0
DWIDTH 3 0
BBX 3 3 0 0
BITMAP
E0
E0
E0
ENDCHAR
STARTCHAR 025F
ENCODING 607
SWIDTH 288 0
DWIDTH 2 0
BBX 2 4 0 -1
BITMAP
80
80
C0
80
ENDCHAR
STARTCHAR 0260
ENCODING 608
SWIDTH 432 0
DWIDTH 3 0
BBX 4 5 0 -1
BITMAP
30
E0
A0
A0
60
ENDCHAR
STARTCHAR 0261
ENCODING 609
SWIDTH 432 0
DWIDTH 3 0
BBX 3 4 0 -1
BITMAP
E0
A0
A0
60
ENDCHAR
STARTCHAR 0262
ENCODING 610
SWIDTH 432 0
DWIDTH 3 0
BBX 3 3 0 0
BITMAP
E0
A0
E0
ENDCHAR
STARTCHAR 0263
ENCODING 611
SWIDTH 432 0
DWIDTH 3 0
BBX 3 4 0 -1
BITMAP
A0
A0
40
40
ENDCHAR
STARTCHAR 0264
ENCODING 612
SWIDTH 576 0
DWIDTH 4 0
BBX 3 3 1 0
BITMAP
E0
40
40
ENDCHAR
STARTCHAR 0265
ENCODING 613
SWIDTH 432 0
DWIDTH 3 0
BBX 3 4 0 -2
BITMAP
A0
A0
A0
60
ENDCHAR
STARTCHAR 0266
ENCODING 614
SWIDTH 432 0
DWIDTH 3 0
BBX 3 5 0 0
BITMAP
40
80
E0
A0
A0
ENDCHAR
STARTCHAR 0267
ENCODING 615
SWIDTH 432 0
DWIDTH 3 0
BBX 3 6 0 -1
BITMAP
40
80
E0
A0
A0
20
ENDCHAR
STARTCHAR 0268
ENCODING 616
SWIDTH 288 0
DWIDTH 2 0
BBX 2 3 0 1
BITMAP
80
C0
80
ENDCHAR
STARTCHAR 0269
ENCODING 617
SWIDTH 144 0
DWIDTH 1 0
BBX 1 3 0 0
BITMAP
80
80
80
ENDCHAR
STARTCHAR 026A
ENCODING 618
SWIDTH 288 0
DWIDTH 2 0
BBX 2 3 0 0
BITMAP
80
80
C0
ENDCHAR
STARTCHAR 026B
ENCODING 619
SWIDTH 432 0
DWIDTH 3 0
BBX 2 4 1 0
BITMAP
80
C0
80
80
ENDCHAR
STARTCHAR 026C
ENCODING 620
SWIDTH 432 0
DWIDTH 3 0
BBX 3 4 0 0
BITMAP
40
E0
40
40
ENDCHAR
STARTCHAR 026D
ENCODING 621
SWIDTH 144 0
DWIDTH 1 0
BBX 1 5 0 -1
BITMAP
80
80
80
80
80
ENDCHAR
STARTCHAR 026E
ENCODING 622
SWIDTH 432 0
DWIDTH 3 0
BBX 3 5 0 -1
BITMAP
80
E0
C0
A0
60
ENDCHAR
STARTCHAR 026F
ENCODING 623
SWIDTH 576 0
DWIDTH 4 0
BBX 4 3 0 0
BITMAP
D0
D0
70
ENDCHAR
STARTCHAR 0270
ENCODING 624
SWIDTH 576 0
DWIDTH 4 0
BBX 4 4 0 -2
BITMAP
D0
D0
70
10
ENDCHAR
STARTCHAR 0271
ENCODING 625
SWIDTH 576 0
DWIDTH 4 0
BBX 4 4 0 -1
BITMAP
F0
D0
D0
10
ENDCHAR
STARTCHAR 0272
ENCODING 626
SWIDTH 432 0
DWIDTH 3 0
BBX 3 4 0 -1
BITMAP
E0
A0
A0
80
ENDCHAR
STARTCHAR 0273
ENCODING 627
SWIDTH 432 0
DWIDTH 3 0
BBX 4 4 0 -1
BITMAP
E0
A0
A0
30
ENDCHAR
STARTCHAR 0274
ENCODING 628
SWIDTH 432 0
DWIDTH 3 0
BBX 3 3 0 0
BITMAP
A0
E0
A0
ENDCHAR
STARTCHAR 0275
ENCODING 629
SWIDTH 432 0
DWIDTH 3 0
BBX 3 3 0 0
BITMAP
E0
E0
E0
ENDCHAR
STARTCHAR 0276
ENCODING 630
SWIDTH 720 0
DWIDTH 5 0
BBX 5 3 0 0
BITMAP
F0
90
F8
ENDCHAR
STARTCHAR 0277
ENCODING 631
SWIDTH 576 0
DWIDTH 4 0
BBX 4 3 0 0
BITMAP
F0
90
F0
ENDCHAR
STARTCHAR 0278
ENCODING 632
SWIDTH 432 0
DWIDTH 3 0
BBX 3 5 0 -2
BITMAP
40
60
E0
60
40
ENDCHAR
STARTCHAR 0279
ENCODING 633
SWIDTH 288 0
DWIDTH 2 0
BBX 1 3 1 0
BITMAP
80
80
80
ENDCHAR
STARTCHAR 027A
ENCODING 634
SWIDTH 288 0
DWIDTH 2 0
BBX 1 4 1 0
BITMAP
80
80
80
80
ENDCHAR
STARTCHAR 027B
ENCODING 635
SWIDTH 288 0
DWIDTH 2 0
BBX 2 4 1 -1
BITMAP
80
80
80
C0
ENDCHAR
STARTCHAR 027C
ENCODING 636
SWIDTH 288 0
DWIDTH 2 0
BBX 2 4 0 -2
BITMAP
C0
80
80
80
ENDCHAR
STARTCHAR 027D
ENCODING 637
SWIDTH 288 0
DWIDTH 2 0
BBX 2 4 0 -1
BITMAP
C0
80
80
80
ENDCHAR
STARTCHAR 027E
ENCODING 638
SWIDTH 288 0
DWIDTH 2 0
BBX 1 3 0 0
BITMAP
80
80
80
ENDCHAR
STARTCHAR 027F
ENCODING 639
SWIDTH 288 0
DWIDTH 2 0
BBX 1 4 1 -2
BITMAP
80
80
80
80
ENDCHAR
STARTCHAR 0280
ENCODING 640
SWIDTH 288 0
DWIDTH 2 0
BBX 2 3 0 0
BITMAP
C0
C0
C0
ENDCHAR
STARTCHAR 0281
ENCODING 641
SWIDTH 288 0
DWIDTH 2 0
BBX 2 3 0 0
BITMAP
C0
C0
C0
ENDCHAR
STARTCHAR 0282
ENCODING 642
SWIDTH 288 0
DWIDTH 2 0
BBX 2 4 0 -1
BITMAP
C0
40
C0
80
ENDCHAR
STARTCHAR 0283
ENCODING 643
SWIDTH 144 0
DWIDTH 1 0
BBX 2 6 0 -1
BITMAP
40
80
80
80
80
80
ENDCHAR
STARTCHAR 0284
ENCODING 644
SWIDTH 144 0
DWIDTH 1 0
BBX 2 6 0 -1
BITMAP
40
80
80
80
C0
80
ENDCHAR
STARTCHAR 0285
ENCODING 645
SWIDTH 288 0
DWIDTH 2 0
BBX 1 4 1 -1
BITMAP
80
80
80
80
ENDCHAR
STARTCHAR 0286
ENCODING 646
SWIDTH 432 0
DWIDTH 3 0
BBX 3 5 0 0
BITMAP
40
40
40
40
E0
ENDCHAR
STARTCHAR 0287
ENCODING 647
SWIDTH 288 0
DWIDTH 2 0
BBX 2 3 0 -1
BITMAP
80
80
C0
ENDCHAR
STARTCHAR 0288
ENCODING 648
SWIDTH 288 0
DWIDTH 2 0
BBX 2 4 0 0
BITMAP
C0
80
80
C0
ENDCHAR
STARTCHAR 0289
ENCODING 649
SWIDTH 576 0
DWIDTH 4 0
BBX 4 3 0 0
BITMAP
90
F0
70
ENDCHAR
STARTCHAR 028A
ENCODING 650
SWIDTH 432 0
DWIDTH 3 0
BBX 3 3 0 0
BITMAP
A0
A0
E0
ENDCHAR
STARTCHAR 028B
ENCODING 651
SWIDTH 432 0
DWIDTH 3 0
BBX 3 3 0 0
BITMAP
A0
A0
40
ENDCHAR
STARTCHAR 028C
ENCODING 652
SWIDTH 432 0
DWIDTH 3 0
BBX 3 3 0 0
BITMAP
40
A0
A0
ENDCHAR
STARTCHAR 028D
ENCODING 653
SWIDTH 576 0
DWIDTH 4 0
BBX 4 3 0 0
BITMAP
50
B0
B0
ENDCHAR
STARTCHAR 028E
ENCODING 654
SWIDTH 432 0
DWIDTH 3 0
BBX 3 5 0 0
BITMAP
20
40
40
A0
A0
ENDCHAR
STARTCHAR 028F
ENCODING 655
SWIDTH 432 0
DWIDTH 3 0
BBX 3 3 0 0
BITMAP
A0
40
40
ENDCHAR
STARTCHAR 0290
ENCODING 656
SWIDTH 288 0
DWIDTH 2 0
BBX 3 4 0 -1
BITMAP
40
40
C0
60
ENDCHAR
STARTCHAR 0291
ENCODING 657
SWIDTH 432 0
DWIDTH 3 0
BBX 3 3 0 -1
BITMAP
40
40
E0
ENDCHAR
STARTCHAR 0292
ENCODING 658
SWIDTH 432 0
DWIDTH 3 0
BBX 2 4 1 -1
BITMAP
C0
80
40
C0
ENDCHAR
STARTCHAR 0293
ENCODING 659
SWIDTH 432 0
DWIDTH 3 0
BBX 3 6 0 -3
BITMAP
60
40
20
A0
C0
C0
ENDCHAR
STARTCHAR 0294
ENCODING 660
SWIDTH 432 0
DWIDTH 3 0
BBX 3 5 0 0
BITMAP
40
A0
20
40
40
ENDCHAR
STARTCHAR 0295
ENCODING 661
SWIDTH 432 0
DWIDTH 3 0
BBX 3 5 0 0
BITMAP
40
A0
80
40
40
ENDCHAR
STARTCHAR 0296
ENCODING 662
SWIDTH 432 0
DWIDTH 3 0
BBX 3 4 0 0
BITMAP
40
40
20
E0
ENDCHAR
STARTCHAR 0297
ENCODING 663
SWIDTH 432 0
DWIDTH 3 0
BBX 3 4 0 -1
BITMAP
E0
80
80
E0
ENDCHAR
STARTCHAR 0298
ENCODING 664
SWIDTH 432 0
DWIDTH 3 0
BBX 3 5 0 0
BITMAP
40
A0
E0
A0
E0
ENDCHAR
STARTCHAR 0299
ENCODING 665
SWIDTH 288 0
DWIDTH 2 0
BBX 2 3 0 0
BITMAP
C0
C0
C0
ENDCHAR
STARTCHAR 029A
ENCODING 666
SWIDTH 432 0
DWIDTH 3 0
BBX 3 3 0 0
BITMAP
C0
60
C0
ENDCHAR
STARTCHAR 029B
ENCODING 667
SWIDTH 432 0
DWIDTH 3 0
BBX 4 5 0 0
BITMAP
10
20
E0
A0
E0
ENDCHAR
STARTCHAR 029C
ENCODING 668
SWIDTH 432 0
DWIDTH 3 0
BBX 3 3 0 0
BITMAP
A0
E0
A0
ENDCHAR
STARTCHAR 029D
ENCODING 669
SWIDTH 432 0
DWIDTH 3 0
BBX 3 4 0 0
BITMAP
40
40
40
E0
ENDCHAR
STARTCHAR 029E
ENCODING 670
SWIDTH 432 0
DWIDTH 3 0
BBX 3 4 0 -1
BITMAP
A0
60
60
20
ENDCHAR
STARTCHAR 029F
ENCODING 671
SWIDTH 288 0
DWIDTH 2 0
BBX 2 3 0 0
BITMAP
80
80
C0
ENDCHAR
STARTCHAR 02A0
ENCODING 672
SWIDTH 432 0
DWIDTH 3 0
BBX 4 5 0 -2
BITMAP
30
E0
A0
A0
60
ENDCHAR
STARTCHAR 02A1
ENCODING 673
SWIDTH 432 0
DWIDTH 3 0
BBX 3 5 0 0
BITMAP
40
A0
20
40
40
ENDCHAR
STARTCHAR 02A2
ENCODING 674
SWIDTH 432 0
DWIDTH 3 0
BBX 3 5 0 0
BITMAP
40
A0
80
40
40
ENDCHAR
STARTCHAR 02A3
ENCODING 675
SWIDTH 720 0
DWIDTH 5 0
BBX 5 4 0 0
BITMAP
20
F8
B0
F8
ENDCHAR
STARTCHAR 02A4
ENCODING 676
SWIDTH 720 0
DWIDTH 5 0
BBX 5 5 0 -1
BITMAP
20
F8
B0
A8
58
ENDCHAR
STARTCHAR 02A5
ENCODING 677
SWIDTH 720 0
DWIDTH 5 0
BBX 5 5 0 -1
BITMAP
20
F8
B0
B8
48
ENDCHAR
STARTCHAR 02A6
ENCODING 678
SWIDTH 576 0
DWIDTH 4 0
BBX 4 3 0 1
BITMAP
F0
90
70
ENDCHAR
STARTCHAR 02A7
ENCODING 679
SWIDTH 432 0
DWIDTH 3 0
BBX 4 6 0 -1
BITMAP
10
20
E0
A0
60
20
ENDCHAR
STARTCHAR 02A8
ENCODING 680
SWIDTH 576 0
DWIDTH 4 0
BBX 5 4 0 0
BITMAP
F0
A0
78
10
ENDCHAR
STARTCHAR 02A9
ENCODING 681
SWIDTH 720 0
DWIDTH 5 0
BBX 5 5 0 0
BITMAP
C0
F8
A8
A8
08
ENDCHAR
STARTCHAR 02AA
ENCODING 682
SWIDTH 432 0
DWIDTH 3 0
BBX 3 4 0 0
BITMAP
80
E0
A0
E0
ENDCHAR
STARTCHAR 02AB
ENCODING 683
SWIDTH 432 0
DWIDTH 3 0
BBX 3 4 0 0
BITMAP
80
A0
A0
E0
ENDCHAR
STARTCHAR 02AC
ENCODING 684
SWIDTH 288 0
DWIDTH 2 0
BBX 2 3 0 0
BITMAP
40
C0
40
ENDCHAR
STARTCHAR 02AD
ENCODING 685
SWIDTH 432 0
DWIDTH 3 0
BBX 3 3 0 0
BITMAP
E0
00
E0
ENDCHAR
STARTCHAR 02AE
ENCODING 686
SWIDTH 576 0
DWIDTH 4 0
BBX 3 4 1 -2
BITMAP
A0
A0
A0
60
ENDCHAR
STARTCHAR 02AF
ENCODING 687
SWIDTH 576 0
DWIDTH 4 0
BBX 4 4 1 -1
BITMAP
A0
A0
A0
70
ENDCHAR
STARTCHAR 02B0
ENCODING 688
SWIDTH 288 0
DWIDTH 2 0
BBX 2 2 0 3
BITMAP
C0
C0
ENDCHAR
STARTCHAR 02B1
ENCODING 689
SWIDTH 288 0
DWIDTH 2 0
BBX 2 2 0 3
BITMAP
C0
C0
ENDCHAR
STARTCHAR 02B2
ENCODING 690
SWIDTH 144 0
DWIDTH 1 0
BBX 1 2 0 3
BITMAP
80
80
ENDCHAR
STARTCHAR 02B3
ENCODING 691
SWIDTH 144 0
DWIDTH 1 0
BBX 1 2 0 3
BITMAP
80
80
ENDCHAR
STARTCHAR 02B4
ENCODING 692
SWIDTH 144 0
DWIDTH 1 0
BBX 1 1 0 4
BITMAP
80
ENDCHAR
STARTCHAR 02B5
ENCODING 693
SWIDTH 288 0
DWIDTH 2 0
BBX 2 2 0 3
BITMAP
80
40
ENDCHAR
STARTCHAR 02B6
ENCODING 694
SWIDTH 144 0
DWIDTH 1 0
BBX 1 2 0 3
BITMAP
80
80
ENDCHAR
STARTCHAR 02B7
ENCODING 695
SWIDTH 288 0
DWIDTH 2 0
BBX 2 1 0 3
BITMAP
C0
ENDCHAR
STARTCHAR 02B8
ENCODING 696
SWIDTH 288 0
DWIDTH 2 0
BBX 2 3 0 2
BITMAP
C0
80
80
ENDCHAR
STARTCHAR 02B9
ENCODING 697
SWIDTH 144 0
DWIDTH 1 0
BBX 1 1 0 4
BITMAP
80
ENDCHAR
STARTCHAR 02BA
ENCODING 698
SWIDTH 288 0
DWIDTH 2 0
BBX 2 1 0 4
BITMAP
C0
ENDCHAR
STARTCHAR 02BB
ENCODING 699
SWIDTH 144 0
DWIDTH 1 0
BBX 1 1 0 4
BITMAP
80
ENDCHAR
STARTCHAR 02BC
ENCODING 700
SWIDTH 144 0
DWIDTH 1 0
BBX 0 0 0 3
BITMAP
ENDCHAR
STARTCHAR 02BD
ENCODING 701
SWIDTH 144 0
DWIDTH 1 0
BBX 1 1 0 4
BITMAP
80
ENDCHAR
STARTCHAR 02BE
ENCODING 702
SWIDTH 144 0
DWIDTH 1 0
BBX 1 2 0 3
BITMAP
80
80
ENDCHAR
STARTCHAR 02BF
ENCODING 703
SWIDTH 144 0
DWIDTH 1 0
BBX 0 0 0 3
BITMAP
ENDCHAR
STARTCHAR 02C0
ENCODING 704
SWIDTH 144 0
DWIDTH 1 0
BBX 1 1 1 3
BITMAP
80
ENDCHAR
STARTCHAR 02C1
ENCODING 705
SWIDTH 144 0
DWIDTH 1 0
BBX 1 1 0 3
BITMAP
80
ENDCHAR
STARTCHAR 02C2
ENCODING 706
SWIDTH 288 0
DWIDTH 2 0
BBX 1 2 1 2
BITMAP
80
80
ENDCHAR
STARTCHAR 02C3
ENCODING 707
SWIDTH 288 0
DWIDTH 2 0
BBX 2 2 0 2
BITMAP
40
80
ENDCHAR
STARTCHAR 02C4
ENCODING 708
SWIDTH 432 0
DWIDTH 3 0
BBX 2 2 1 1
BITMAP
80
40
ENDCHAR
STARTCHAR 02C5
ENCODING 709
SWIDTH 432 0
DWIDTH 3 0
BBX 2 1 1 1
BITMAP
C0
ENDCHAR
STARTCHAR 02C6
ENCODING 710
SWIDTH 288 0
DWIDTH 2 0
BBX 2 1 0 3
BITMAP
C0
ENDCHAR
STARTCHAR 02C7
ENCODING 711
SWIDTH 288 0
DWIDTH 2 0
BBX 1 1 1 3
BITMAP
80
ENDCHAR
STARTCHAR 02C8
ENCODING 712
SWIDTH 144 0
DWIDTH 1 0
BBX 1 2 0 3
BITMAP
80
80
ENDCHAR
STARTCHAR 02C9
ENCODING 713
SWIDTH 288 0
DWIDTH 2 0
BBX 1 1 1 3
BITMAP
80
ENDCHAR
STARTCHAR 02CA
ENCODING 714
SWIDTH 144 0
DWIDTH 1 0
BBX 1 1 0 3
BITMAP
80
ENDCHAR
STARTCHAR 02CB
ENCODING 715
SWIDTH 144 0
DWIDTH 1 0
BBX 1 1 1 3
BITMAP
80
ENDCHAR
STARTCHAR 02CC
ENCODING 716
SWIDTH 144 0
DWIDTH 1 0
BBX 1 2 0 -2
BITMAP
80
80
ENDCHAR
STARTCHAR 02CD
ENCODING 717
SWIDTH 288 0
DWIDTH 2 0
BBX 1 1 1 -1
BITMAP
80
ENDCHAR
STARTCHAR 02CE
ENCODING 718
SWIDTH 144 0
DWIDTH 1 0
BBX 0 0 0 -1
BITMAP
ENDCHAR
STARTCHAR 02CF
ENCODING 719
SWIDTH 144 0
DWIDTH 1 0
BBX 0 0 0 -1
BITMAP
ENDCHAR
STARTCHAR 02D0
ENCODING 720
SWIDTH 144 0
DWIDTH 1 0
BBX 1 1 0 2
BITMAP
80
ENDCHAR
STARTCHAR 02D1
ENCODING 721
SWIDTH 144 0
DWIDTH 1 0
BBX 0 0 0 2
BITMAP
ENDCHAR
STARTCHAR 02D2
ENCODING 722
SWIDTH 144 0
DWIDTH 1 0
BBX 1 1 0 2
BITMAP
80
ENDCHAR
STARTCHAR 02D3
ENCODING 723
SWIDTH 144 0
DWIDTH 1 0
BBX 1 1 0 2
BITMAP
80
ENDCHAR
STARTCHAR 02D4
ENCODING 724
SWIDTH 432 0
DWIDTH 3 0
BBX 1 1 1 2
BITMAP
80
ENDCHAR
STARTCHAR 02D5
ENCODING 725
SWIDTH 432 0
DWIDTH 3 0
BBX 1 1 1 1
BITMAP
80
ENDCHAR
STARTCHAR 02D6
ENCODING 726
SWIDTH 432 0
DWIDTH 3 0
BBX 1 2 1 1
BITMAP
80
80
ENDCHAR
STARTCHAR 02D7
ENCODING 727
SWIDTH 432 0
DWIDTH 3 0
BBX 1 1 1 2
BITMAP
80
ENDCHAR
STARTCHAR 02D8
ENCODING 728
SWIDTH 288 0
DWIDTH 2 0
BBX 0 0 0 3
BITMAP
ENDCHAR
STARTCHAR 02D9
ENCODING 729
SWIDTH 144 0
DWIDTH 1 0
BBX 0 0 0 3
BITMAP
ENDCHAR
STARTCHAR 02DA
ENCODING 730
SWIDTH 144 0
DWIDTH 1 0
BBX 0 0 0 3
BITMAP
ENDCHAR
STARTCHAR 02DB
ENCODING 731
SWIDTH 288 0
DWIDTH 2 0
BBX 1 1 0 -1
BITMAP
80
ENDCHAR
STARTCHAR 02DC
ENCODING 732
SWIDTH 432 0
DWIDTH 3 0
BBX 1 1 1 3
BITMAP
80
ENDCHAR
STARTCHAR 02DD
ENCODING 733
SWIDTH 288 0
DWIDTH 2 0
BBX 2 1 0 3
BITMAP
C0
ENDCHAR
STARTCHAR 02DE
ENCODING 734
SWIDTH 144 0
DWIDTH 1 0
BBX 1 1 0 1
BITMAP
80
ENDCHAR
STARTCHAR 02DF
ENCODING 735
SWIDTH 288 0
DWIDTH 2 0
BBX 2 2 0 3
BITMAP
40
C0
ENDCHAR
STARTCHAR 02E0
ENCODING 736
SWIDTH 288 0
DWIDTH 2 0
BBX 2 2 0 2
BITMAP
C0
80
ENDCHAR
STARTCHAR 02E1
ENCODING 737
SWIDTH 144 0
DWIDTH 1 0
BBX 1 2 0 3
BITMAP
80
80
ENDCHAR
STARTCHAR 02E2
ENCODING 738
SWIDTH 144 0
DWIDTH 1 0
BBX 1 2 0 3
BITMAP
80
80
ENDCHAR
STARTCHAR 02E3
ENCODING 739
SWIDTH 288 0
DWIDTH 2 0
BBX 2 2 0 3
BITMAP
C0
40
ENDCHAR
STARTCHAR 02E4
ENCODING 740
SWIDTH 144 0
DWIDTH 1 0
BBX 1 1 0 3
BITMAP
80
ENDCHAR
STARTCHAR 02E5
ENCODING 741
SWIDTH 288 0
DWIDTH 2 0
BBX 1 4 1 0
BITMAP
80
80
80
80
ENDCHAR
STARTCHAR 02E6
ENCODING 742
SWIDTH 288 0
DWIDTH 2 0
BBX 1 4 1 0
BITMAP
80
80
80
80
ENDCHAR
STARTCHAR 02E7
ENCODING 743
SWIDTH 288 0
DWIDTH 2 0
BBX 1 4 1 0
BITMAP
80
80
80
80
ENDCHAR
STARTCHAR 02E8
ENCODING 744
SWIDTH 288 0
DWIDTH 2 0
BBX 1 4 1 0
BITMAP
80
80
80
80
ENDCHAR
STARTCHAR 02E9
ENCODING 745
SWIDTH 288 0
DWIDTH 2 0
BBX 1 4 1 0
BITMAP
80
80
80
80
ENDCHAR
STARTCHAR 02EA
ENCODING 746
SWIDTH 288 0
DWIDTH 2 0
BBX 2 3 0 0
BITMAP
80
80
C0
ENDCHAR
STARTCHAR 02EB
ENCODING 747
SWIDTH 288 0
DWIDTH 2 0
BBX 2 3 0 0
BITMAP
80
C0
80
ENDCHAR
STARTCHAR 02EC
ENCODING 748
SWIDTH 288 0
DWIDTH 2 0
BBX 2 1 0 -1
BITMAP
C0
ENDCHAR
STARTCHAR 02ED
ENCODING 749
SWIDTH 288 0
DWIDTH 2 0
BBX 2 1 0 4
BITMAP
C0
ENDCHAR
STARTCHAR 02EE
ENCODING 750
SWIDTH 288 0
DWIDTH 2 0
BBX 0 0 0 3
BITMAP
ENDCHAR
STARTCHAR 02EF
ENCODING 751
SWIDTH 288 0
DWIDTH 2 0
BBX 2 1 0 -1
BITMAP
C0
ENDCHAR
STARTCHAR 02F0
ENCODING 752
SWIDTH 288 0
DWIDTH 2 0
BBX 0 0 0 -1
BITMAP
ENDCHAR
STARTCHAR 02F1
ENCODING 753
SWIDTH 144 0
DWIDTH 1 0
BBX 0 0 0 -2
BITMAP
ENDCHAR
STARTCHAR 02F2
ENCODING 754
SWIDTH 144 0
DWIDTH 1 0
BBX 1 2 0 -2
BITMAP
80
80
ENDCHAR
STARTCHAR 02F3
ENCODING 755
SWIDTH 144 0
DWIDTH 1 0
BBX 1 1 0 -1
BITMAP
80
ENDCHAR
STARTCHAR 02F4
ENCODING 756
SWIDTH 144 0
DWIDTH 1 0
BBX 0 0 0 2
BITMAP
ENDCHAR
STARTCHAR 02F5
ENCODING 757
SWIDTH 288 0
DWIDTH 2 0
BBX 0 0 0 2
BITMAP
ENDCHAR
STARTCHAR 02F6
ENCODING 758
SWIDTH 288 0
DWIDTH 2 0
BBX 0 0 0 2
BITMAP
ENDCHAR
STARTCHAR 02F7
ENCODING 759
SWIDTH 432 0
DWIDTH 3 0
BBX 2 1 1 -1
BITMAP
C0
ENDCHAR
STARTCHAR 02F8
ENCODING 760
SWIDTH 144 0
DWIDTH 1 0
BBX 1 1 0 4
BITMAP
80
ENDCHAR
STARTCHAR 02F9
ENCODING 761
SWIDTH 288 0
DWIDTH 2 0
BBX 1 2 0 2
BITMAP
80
80
ENDCHAR
STARTCHAR 02FA
ENCODING 762
SWIDTH 288 0
DWIDTH 2 0
BBX 1 2 1 2
BITMAP
80
80
ENDCHAR
STARTCHAR 02FB
ENCODING 763
SWIDTH 288 0
DWIDTH 2 0
BBX 2 2 0 0
BITMAP
80
C0
ENDCHAR
STARTCHAR 02FC
ENCODING 764
SWIDTH 288 0
DWIDTH 2 0
BBX 2 2 0 0
BITMAP
40
C0
ENDCHAR
STARTCHAR 02FD
ENCODING 765
SWIDTH 288 0
DWIDTH 2 0
BBX 1 1 0 -1
BITMAP
80
ENDCHAR
STARTCHAR 02FE
ENCODING 766
SWIDTH 288 0
DWIDTH 2 0
BBX 1 1 0 -1
BITMAP
80
ENDCHAR
STARTCHAR 02FF
ENCODING 767
SWIDTH 432 0
DWIDTH 3 0
BBX 1 1 1 -1
BITMAP
80
ENDCHAR
STARTCHAR 0300
ENCODING 768
SWIDTH 0 0
DWIDTH 0 0
BBX 0 0 -1 3
BITMAP
ENDCHAR
STARTCHAR 0301
ENCODING 769
SWIDTH 0 0
DWIDTH 0 0
BBX 0 0 0 3
BITMAP
ENDCHAR
STARTCHAR 0302
ENCODING 770
SWIDTH 0 0
DWIDTH 0 0
BBX 0 0 -1 3
BITMAP
ENDCHAR
STARTCHAR 0303
ENCODING 771
SWIDTH 0 0
DWIDTH 0 0
BBX 1 1 0 3
BITMAP
80
ENDCHAR
STARTCHAR 0304
ENCODING 772
SWIDTH 0 0
DWIDTH 0 0
BBX 0 0 -1 3
BITMAP
ENDCHAR
STARTCHAR 0306
ENCODING 774
SWIDTH 0 0
DWIDTH 0 0
BBX 0 0 -1 3
BITMAP
ENDCHAR
STARTCHAR 0307
ENCODING 775
SWIDTH 0 0
DWIDTH 0 0
BBX 0 0 0 3
BITMAP
ENDCHAR
STARTCHAR 0308
ENCODING 776
SWIDTH 0 0
DWIDTH 0 0
BBX 0 0 -1 3
BITMAP
ENDCHAR
STARTCHAR 0309
ENCODING 777
SWIDTH 0 0
DWIDTH 0 0
BBX 2 1 -1 3
BITMAP
C0
ENDCHAR
STARTCHAR 030A
ENCODING 778
SWIDTH 0 0
DWIDTH 0 0
BBX 0 0 -1 3
BITMAP
ENDCHAR
STARTCHAR 030B
ENCODING 779
SWIDTH 0 0
DWIDTH 0 0
BBX 0 0 -1 3
BITMAP
ENDCHAR
STARTCHAR 030C
ENCODING 780
SWIDTH 0 0
DWIDTH 0 0
BBX 0 0 -1 3
BITMAP
ENDCHAR
STARTCHAR 030D
ENCODING 781
SWIDTH 0 0
DWIDTH 0 0
BBX 0 0 0 3
BITMAP
ENDCHAR
STARTCHAR 030E
ENCODING 782
SWIDTH 0 0
DWIDTH 0 0
BBX 2 2 -1 3
BITMAP
C0
C0
ENDCHAR
STARTCHAR 030F
ENCODING 783
SWIDTH 0 0
DWIDTH 0 0
BBX 0 0 -1 3
BITMAP
ENDCHAR
STARTCHAR 0310
ENCODING 784
SWIDTH 0 0
DWIDTH 0 0
BBX 0 0 -1 4
BITMAP
ENDCHAR
STARTCHAR 0311
ENCODING 785
SWIDTH 0 0
DWIDTH 0 0
BBX 0 0 -1 3
BITMAP
ENDCHAR
STARTCHAR 0312
ENCODING 786
SWIDTH 0 0
DWIDTH 0 0
BBX 0 0 -1 3
BITMAP
ENDCHAR
STARTCHAR 0313
ENCODING 787
SWIDTH 0 0
DWIDTH 0 0
BBX 0 0 0 3
BITMAP
ENDCHAR
STARTCHAR 0314
ENCODING 788
SWIDTH 0 0
DWIDTH 0 0
BBX 0 0 -1 3
BITMAP
ENDCHAR
STARTCHAR 0315
ENCODING 789
SWIDTH 0 0
DWIDTH 0 0
BBX 1 1 1 4
BITMAP
80
ENDCHAR
STARTCHAR 0316
ENCODING 790
SWIDTH 0 0
DWIDTH 0 0
BBX 1 1 -1 -1
BITMAP
80
ENDCHAR
STARTCHAR 0317
ENCODING 791
SWIDTH 0 0
DWIDTH 0 0
BBX 1 1 0 -1
BITMAP
80
ENDCHAR
STARTCHAR 0318
ENCODING 792
SWIDTH 0 0
DWIDTH 0 0
BBX 0 0 -1 -2
BITMAP
ENDCHAR
STARTCHAR 0319
ENCODING 793
SWIDTH 0 0
DWIDTH 0 0
BBX 0 0 0 -2
BITMAP
ENDCHAR
STARTCHAR 031A
ENCODING 794
SWIDTH 0 0
DWIDTH 0 0
BBX 2 1 -1 3
BITMAP
C0
ENDCHAR
STARTCHAR 031B
ENCODING 795
SWIDTH 0 0
DWIDTH 0 0
BBX 1 1 0 3
BITMAP
80
ENDCHAR
STARTCHAR 031C
ENCODING 796
SWIDTH 0 0
DWIDTH 0 0
BBX 0 0 0 -1
BITMAP
ENDCHAR
STARTCHAR 031D
ENCODING 797
SWIDTH 0 0
DWIDTH 0 0
BBX 0 0 -1 -1
BITMAP
ENDCHAR
STARTCHAR 031E
ENCODING 798
SWIDTH 0 0
DWIDTH 0 0
BBX 0 0 -1 -2
BITMAP
ENDCHAR
STARTCHAR 031F
ENCODING 799
SWIDTH 0 0
DWIDTH 0 0
BBX 0 0 -1 -2
BITMAP
ENDCHAR
STARTCHAR 0320
ENCODING 800
SWIDTH 0 0
DWIDTH 0 0
BBX 0 0 -1 -2
BITMAP
ENDCHAR
STARTCHAR 0321
ENCODING 801
SWIDTH 0 0
DWIDTH 0 0
BBX 1 2 -1 -1
BITMAP
80
80
ENDCHAR
STARTCHAR 0322
ENCODING 802
SWIDTH 0 0
DWIDTH 0 0
BBX 1 2 -1 -1
BITMAP
80
80
ENDCHAR
STARTCHAR 0323
ENCODING 803
SWIDTH 0 0
DWIDTH 0 0
BBX 0 0 0 -1
BITMAP
ENDCHAR
STARTCHAR 0324
ENCODING 804
SWIDTH 0 0
DWIDTH 0 0
BBX 2 1 -1 -1
BITMAP
C0
ENDCHAR
STARTCHAR 0325
ENCODING 805
SWIDTH 0 0
DWIDTH 0 0
BBX 0 0 -1 -1
BITMAP
ENDCHAR
STARTCHAR 0326
ENCODING 806
SWIDTH 0 0
DWIDTH 0 0
BBX 0 0 -1 -2
BITMAP
ENDCHAR
STARTCHAR 0327
ENCODING 807
SWIDTH 0 0
DWIDTH 0 0
BBX 1 1 0 -1
BITMAP
80
ENDCHAR
STARTCHAR 0328
ENCODING 808
SWIDTH 0 0
DWIDTH 0 0
BBX 0 0 0 -1
BITMAP
ENDCHAR
STARTCHAR 0329
ENCODING 809
SWIDTH 0 0
DWIDTH 0 0
BBX 0 0 0 -2
BITMAP
ENDCHAR
STARTCHAR 032A
ENCODING 810
SWIDTH 0 0
DWIDTH 0 0
BBX 2 1 -1 -1
BITMAP
C0
ENDCHAR
STARTCHAR 032B
ENCODING 811
SWIDTH 0 0
DWIDTH 0 0
BBX 0 0 -1 -1
BITMAP
ENDCHAR
STARTCHAR 032C
ENCODING 812
SWIDTH 0 0
DWIDTH 0 0
BBX 0 0 -1 -1
BITMAP
ENDCHAR
STARTCHAR 032D
ENCODING 813
SWIDTH 0 0
DWIDTH 0 0
BBX 0 0 -1 -1
BITMAP
ENDCHAR
STARTCHAR 032E
ENCODING 814
SWIDTH 0 0
DWIDTH 0 0
BBX 0 0 -1 -1
BITMAP
ENDCHAR
STARTCHAR 032F
ENCODING 815
SWIDTH 0 0
DWIDTH 0 0
BBX 2 1 -1 -1
BITMAP
C0
ENDCHAR
STARTCHAR 0330
ENCODING 816
SWIDTH 0 0
DWIDTH 0 0
BBX 2 1 -1 -1
BITMAP
C0
ENDCHAR
STARTCHAR 0331
ENCODING 817
SWIDTH 0 0
DWIDTH 0 0
BBX 0 0 -1 -1
BITMAP
ENDCHAR
STARTCHAR 0334
ENCODING 820
SWIDTH 0 0
DWIDTH 0 0
BBX 1 1 0 1
BITMAP
80
ENDCHAR
STARTCHAR 0335
ENCODING 821
SWIDTH 0 0
DWIDTH 0 0
BBX 2 1 -1 1
BITMAP
C0
ENDCHAR
STARTCHAR 0336
ENCODING 822
SWIDTH 0 0
DWIDTH 0 0
BBX 4 1 -2 1
BITMAP
F0
ENDCHAR
STARTCHAR 0337
ENCODING 823
SWIDTH 0 0
DWIDTH 0 0
BBX 2 3 -1 1
BITMAP
40
80
80
ENDCHAR
STARTCHAR 0338
ENCODING 824
SWIDTH 0 0
DWIDTH 0 0
BBX 4 5 -2 -1
BITMAP
10
20
40
40
80
ENDCHAR
STARTCHAR 0339
ENCODING 825
SWIDTH 0 0
DWIDTH 0 0
BBX 0 0 0 -1
BITMAP
ENDCHAR
STARTCHAR 033A
ENCODING 826
SWIDTH 0 0
DWIDTH 0 0
BBX 0 0 -1 -1
BITMAP
ENDCHAR
STARTCHAR 033B
ENCODING 827
SWIDTH 0 0
DWIDTH 0 0
BBX 2 2 -1 -2
BITMAP
C0
C0
ENDCHAR
STARTCHAR 033C
ENCODING 828
SWIDTH 0 0
DWIDTH 0 0
BBX 2 1 -1 -1
BITMAP
C0
ENDCHAR
STARTCHAR 033D
ENCODING 829
SWIDTH 0 0
DWIDTH 0 0
BBX 2 2 -1 3
BITMAP
C0
C0
ENDCHAR
STARTCHAR 033E
ENCODING 830
SWIDTH 0 0
DWIDTH 0 0
BBX 1 1 0 4
BITMAP
80
ENDCHAR
STARTCHAR 0340
ENCODING 832
SWIDTH 0 0
DWIDTH 0 0
BBX 0 0 -1 3
BITMAP
ENDCHAR
STARTCHAR 0341
ENCODING 833
SWIDTH 0 0
DWIDTH 0 0
BBX 0 0 0 3
BITMAP
ENDCHAR
STARTCHAR 0342
ENCODING 834
SWIDTH 0 0
DWIDTH 0 0
BBX 1 1 0 3
BITMAP
80
ENDCHAR
STARTCHAR 0343
ENCODING 835
SWIDTH 0 0
DWIDTH 0 0
BBX 0 0 0 3
BITMAP
ENDCHAR
STARTCHAR 0344
ENCODING 836
SWIDTH 0 0
DWIDTH 0 0
BBX 0 0 -1 4
BITMAP
ENDCHAR
STARTCHAR 0345
ENCODING 837
SWIDTH 0 0
DWIDTH 0 0
BBX 1 1 0 -1
BITMAP
80
ENDCHAR
STARTCHAR 0346
ENCODING 838
SWIDTH 0 0
DWIDTH 0 0
BBX 0 0 -1 3
BITMAP
ENDCHAR
STARTCHAR 0347
ENCODING 839
SWIDTH 0 0
DWIDTH 0 0
BBX 2 1 -1 -2
BITMAP
C0
ENDCHAR
STARTCHAR 0348
ENCODING 840
SWIDTH 0 0
DWIDTH 0 0
BBX 2 2 -1 -2
BITMAP
C0
C0
ENDCHAR
STARTCHAR 0349
ENCODING 841
SWIDTH 0 0
DWIDTH 0 0
BBX 2 1 -1 -2
BITMAP
C0
ENDCHAR
STARTCHAR 034A
ENCODING 842
SWIDTH 0 0
DWIDTH 0 0
BBX 1 1 -1 3
BITMAP
80
ENDCHAR
STARTCHAR 034B
ENCODING 843
SWIDTH 0 0
DWIDTH 0 0
BBX 2 2 -1 3
BITMAP
80
40
ENDCHAR
STARTCHAR 034C
ENCODING 844
SWIDTH 0 0
DWIDTH 0 0
BBX 1 2 0 3
BITMAP
80
80
ENDCHAR
STARTCHAR 034D
ENCODING 845
SWIDTH 0 0
DWIDTH 0 0
BBX 2 2 -1 -2
BITMAP
C0
C0
ENDCHAR
STARTCHAR 034E
ENCODING 846
SWIDTH 0 0
DWIDTH 0 0
BBX 0 0 -1 -2
BITMAP
ENDCHAR
STARTCHAR 034F
ENCODING 847
SWIDTH 0 0
DWIDTH 0 0
BBX 0 0 0 0
BITMAP
ENDCHAR
STARTCHAR 0350
ENCODING 848
SWIDTH 0 0
DWIDTH 0 0
BBX 0 0 -1 3
BITMAP
ENDCHAR
STARTCHAR 0351
ENCODING 849
SWIDTH 0 0
DWIDTH 0 0
BBX 0 0 0 3
BITMAP
ENDCHAR
STARTCHAR 0352
ENCODING 850
SWIDTH 0 0
DWIDTH 0 0
BBX 2 1 -1 4
BITMAP
C0
ENDCHAR
STARTCHAR 0353
ENCODING 851
SWIDTH 0 0
DWIDTH 0 0
BBX 2 2 -1 -2
BITMAP
C0
C0
ENDCHAR
STARTCHAR 0354
ENCODING 852
SWIDTH 0 0
DWIDTH 0 0
BBX 0 0 -1 -2
BITMAP
ENDCHAR
STARTCHAR 0355
ENCODING 853
SWIDTH 0 0
DWIDTH 0 0
BBX 0 0 -1 -2
BITMAP
ENDCHAR
STARTCHAR 0356
ENCODING 854
SWIDTH 0 0
DWIDTH 0 0
BBX 1 1 -1 -1
BITMAP
80
ENDCHAR
STARTCHAR 0357
ENCODING 855
SWIDTH 0 0
DWIDTH 0 0
BBX 0 0 0 3
BITMAP
ENDCHAR
STARTCHAR 0358
ENCODING 856
SWIDTH 0 0
DWIDTH 0 0
BBX 0 0 0 3
BITMAP
ENDCHAR
STARTCHAR 0359
ENCODING 857
SWIDTH 0 0
DWIDTH 0 0
BBX 2 1 -1 -1
BITMAP
C0
ENDCHAR
STARTCHAR 035A
ENCODING 858
SWIDTH 0 0
DWIDTH 0 0
BBX 2 1 -1 -1
BITMAP
C0
ENDCHAR
STARTCHAR 035B
ENCODING 859
SWIDTH 0 0
DWIDTH 0 0
BBX 0 0 -1 3
BITMAP
ENDCHAR
STARTCHAR 035C
ENCODING 860
SWIDTH 0 0
DWIDTH 0 0
BBX 4 1 -2 -2
BITMAP
F0
ENDCHAR
STARTCHAR 035D
ENCODING 861
SWIDTH 0 0
DWIDTH 0 0
BBX 4 1 -2 5
BITMAP
F0
ENDCHAR
STARTCHAR 035E
ENCODING 862
SWIDTH 0 0
DWIDTH 0 0
BBX 4 1 -2 5
BITMAP
F0
ENDCHAR
STARTCHAR 035F
ENCODING 863
SWIDTH 0 0
DWIDTH 0 0
BBX 4 1 -2 -2
BITMAP
F0
ENDCHAR
STARTCHAR 0360
ENCODING 864
SWIDTH 0 0
DWIDTH 0 0
BBX 5 2 -3 4
BITMAP
E0
18
ENDCHAR
STARTCHAR 0361
ENCODING 865
SWIDTH 0 0
DWIDTH 0 0
BBX 4 1 -2 5
BITMAP
F0
ENDCHAR
STARTCHAR 0362
ENCODING 866
SWIDTH 0 0
DWIDTH 0 0
BBX 4 1 -2 -2
BITMAP
F0
ENDCHAR
STARTCHAR 0363
ENCODING 867
SWIDTH 0 0
DWIDTH 0 0
BBX 1 2 0 3
BITMAP
80
80
ENDCHAR
STARTCHAR 0364
ENCODING 868
SWIDTH 0 0
DWIDTH 0 0
BBX 2 1 -1 3
BITMAP
C0
ENDCHAR
STARTCHAR 0365
ENCODING 869
SWIDTH 0 0
DWIDTH 0 0
BBX 0 0 0 3
BITMAP
ENDCHAR
STARTCHAR 0366
ENCODING 870
SWIDTH 0 0
DWIDTH 0 0
BBX 2 1 -1 3
BITMAP
C0
ENDCHAR
STARTCHAR 0367
ENCODING 871
SWIDTH 0 0
DWIDTH 0 0
BBX 2 2 -1 3
BITMAP
C0
40
ENDCHAR
STARTCHAR 0368
ENCODING 872
SWIDTH 0 0
DWIDTH 0 0
BBX 2 1 -1 3
BITMAP
C0
ENDCHAR
STARTCHAR 0369
ENCODING 873
SWIDTH 0 0
DWIDTH 0 0
BBX 2 3 -1 3
BITMAP
40
C0
40
ENDCHAR
STARTCHAR 036A
ENCODING 874
SWIDTH 0 0
DWIDTH 0 0
BBX 2 3 -1 3
BITMAP
80
C0
C0
ENDCHAR
STARTCHAR 036B
ENCODING 875
SWIDTH 0 0
DWIDTH 0 0
BBX 2 1 -1 3
BITMAP
C0
ENDCHAR
STARTCHAR 036C
ENCODING 876
SWIDTH 0 0
DWIDTH 0 0
BBX 0 0 0 3
BITMAP
ENDCHAR
STARTCHAR 036D
ENCODING 877
SWIDTH 0 0
DWIDTH 0 0
BBX 1 1 0 4
BITMAP
80
ENDCHAR
STARTCHAR 036E
ENCODING 878
SWIDTH 0 0
DWIDTH 0 0
BBX 2 1 -1 3
BITMAP
C0
ENDCHAR
STARTCHAR 036F
ENCODING 879
SWIDTH 0 0
DWIDTH 0 0
BBX 2 2 -1 3
BITMAP
80
C0
ENDCHAR
STARTCHAR 0370
ENCODING 880
SWIDTH 432 0
DWIDTH 3 0
BBX 2 4 0 0
BITMAP
80
80
C0
80
ENDCHAR
STARTCHAR 0371
ENCODING 881
SWIDTH 288 0
DWIDTH 2 0
BBX 3 3 0 0
BITMAP
80
60
80
ENDCHAR
STARTCHAR 0372
ENCODING 882
SWIDTH 576 0
DWIDTH 4 0
BBX 4 4 0 0
BITMAP
F0
A0
20
20
ENDCHAR
STARTCHAR 0373
ENCODING 883
SWIDTH 432 0
DWIDTH 3 0
BBX 3 3 0 0
BITMAP
E0
C0
20
ENDCHAR
STARTCHAR 0374
ENCODING 884
SWIDTH 144 0
DWIDTH 1 0
BBX 1 1 0 4
BITMAP
80
ENDCHAR
STARTCHAR 0375
ENCODING 885
SWIDTH 144 0
DWIDTH 1 0
BBX 0 0 0 0
BITMAP
ENDCHAR
STARTCHAR 0376
ENCODING 886
SWIDTH 576 0
DWIDTH 4 0
BBX 4 4 0 0
BITMAP
90
B0
D0
90
ENDCHAR
STARTCHAR 0377
ENCODING 887
SWIDTH 432 0
DWIDTH 3 0
BBX 3 3 0 0
BITMAP
A0
E0
A0
ENDCHAR
STARTCHAR 037A
ENCODING 890
SWIDTH 144 0
DWIDTH 1 0
BBX 1 2 0 -2
BITMAP
80
80
ENDCHAR
STARTCHAR 037B
ENCODING 891
SWIDTH 432 0
DWIDTH 3 0
BBX 3 3 0 0
BITMAP
E0
20
E0
ENDCHAR
STARTCHAR 037C
ENCODING 892
SWIDTH 432 0
DWIDTH 3 0
BBX 3 3 0 0
BITMAP
E0
C0
E0
ENDCHAR
STARTCHAR 037D
ENCODING 893
SWIDTH 432 0
DWIDTH 3 0
BBX 3 3 0 0
BITMAP
E0
60
E0
ENDCHAR
STARTCHAR 037E
ENCODING 894
SWIDTH 144 0
DWIDTH 1 0
BBX 1 1 0 1
BITMAP
80
ENDCHAR
STARTCHAR 037F
ENCODING 895
SWIDTH 288 0
DWIDTH 2 0
BBX 2 4 0 0
BITMAP
40
40
40
C0
ENDCHAR
STARTCHAR 0384
ENCODING 900
SWIDTH 144 0
DWIDTH 1 0
BBX 1 1 0 3
BITMAP
80
ENDCHAR
STARTCHAR 0385
ENCODING 901
SWIDTH 288 0
DWIDTH 2 0
BBX 1 1 1 4
BITMAP
80
ENDCHAR
STARTCHAR 0386
ENCODING 902
SWIDTH 576 0
DWIDTH 4 0
BBX 4 4 0 0
BITMAP
A0
60
90
90
ENDCHAR
STARTCHAR 0387
ENCODING 903
SWIDTH 144 0
DWIDTH 1 0
BBX 1 1 0 2
BITMAP
80
ENDCHAR
STARTCHAR 0388
ENCODING 904
SWIDTH 720 0
DWIDTH 5 0
BBX 5 4 0 0
BITMAP
F0
40
70
38
ENDCHAR
STARTCHAR 0389
ENCODING 905
SWIDTH 720 0
DWIDTH 5 0
BBX 5 4 0 0
BITMAP
C8
48
78
48
ENDCHAR
STARTCHAR 038A
ENCODING 906
SWIDTH 432 0
DWIDTH 3 0
BBX 3 4 0 0
BITMAP
A0
20
20
20
ENDCHAR
STARTCHAR 038C
ENCODING 908
SWIDTH 720 0
DWIDTH 5 0
BBX 5 5 0 0
BITMAP
20
D0
48
48
30
ENDCHAR
STARTCHAR 038E
ENCODING 910
SWIDTH 720 0
DWIDTH 5 0
BBX 5 4 0 0
BITMAP
A8
10
10
10
ENDCHAR
STARTCHAR 038F
ENCODING 911
SWIDTH 720 0
DWIDTH 5 0
BBX 5 4 0 1
BITMAP
F8
48
48
78
ENDCHAR
STARTCHAR 0390
ENCODING 912
SWIDTH 144 0
DWIDTH 1 0
BBX 1 3 0 2
BITMAP
80
80
80
ENDCHAR
STARTCHAR 0391
ENCODING 913
SWIDTH 576 0
DWIDTH 4 0
BBX 4 4 0 0
BITMAP
20
60
90
90
ENDCHAR
STARTCHAR 0392
ENCODING 914
SWIDTH 432 0
DWIDTH 3 0
BBX 3 4 0 0
BITMAP
E0
E0
A0
E0
ENDCHAR
STARTCHAR 0393
ENCODING 915
SWIDTH 432 0
DWIDTH 3 0
BBX 3 4 0 0
BITMAP
E0
80
80
80
ENDCHAR
STARTCHAR 0394
ENCODING 916
SWIDTH 576 0
DWIDTH 4 0
BBX 4 4 0 0
BITMAP
20
60
90
70
ENDCHAR
STARTCHAR 0395
ENCODING 917
SWIDTH 432 0
DWIDTH 3 0
BBX 3 4 0 0
BITMAP
E0
80
C0
E0
ENDCHAR
STARTCHAR 0396
ENCODING 918
SWIDTH 432 0
DWIDTH 3 0
BBX 3 4 0 0
BITMAP
60
40
40
E0
ENDCHAR
STARTCHAR 0397
ENCODING 919
SWIDTH 432 0
DWIDTH 3 0
BBX 3 4 0 0
BITMAP
A0
A0
E0
A0
ENDCHAR
STARTCHAR 0398
ENCODING 920
SWIDTH 576 0
DWIDTH 4 0
BBX 4 5 0 0
BITMAP
20
D0
90
B0
60
ENDCHAR
STARTCHAR 0399
ENCODING 921
SWIDTH 288 0
DWIDTH 2 0
BBX 2 4 0 0
BITMAP
80
80
80
C0
ENDCHAR
STARTCHAR 039A
ENCODING 922
SWIDTH 432 0
DWIDTH 3 0
BBX 3 4 0 0
BITMAP
E0
C0
C0
A0
ENDCHAR
STARTCHAR 039B
ENCODING 923
SWIDTH 576 0
DWIDTH 4 0
BBX 4 4 0 0
BITMAP
20
60
90
90
ENDCHAR
STARTCHAR 039C
ENCODING 924
SWIDTH 576 0
DWIDTH 4 0
BBX 4 4 0 0
BITMAP
90
F0
F0
B0
ENDCHAR
STARTCHAR 039D
ENCODING 925
SWIDTH 576 0
DWIDTH 4 0
BBX 4 4 0 0
BITMAP
D0
D0
B0
90
ENDCHAR
STARTCHAR 039E
ENCODING 926
SWIDTH 432 0
DWIDTH 3 0
BBX 3 4 0 0
BITMAP
60
00
40
E0
ENDCHAR
STARTCHAR 039F
ENCODING 927
SWIDTH 576 0
DWIDTH 4 0
BBX 4 5 0 0
BITMAP
20
D0
90
90
60
ENDCHAR
STARTCHAR 03A0
ENCODING 928
SWIDTH 432 0
DWIDTH 3 0
BBX 3 4 0 0
BITMAP
E0
A0
A0
A0
ENDCHAR
STARTCHAR 03A1
ENCODING 929
SWIDTH 432 0
DWIDTH 3 0
BBX 3 4 0 0
BITMAP
E0
A0
C0
80
ENDCHAR
STARTCHAR 03A3
ENCODING 931
SWIDTH 432 0
DWIDTH 3 0
BBX 3 4 0 0
BITMAP
E0
40
40
E0
ENDCHAR
STARTCHAR 03A4
ENCODING 932
SWIDTH 432 0
DWIDTH 3 0
BBX 2 4 1 0
BITMAP
C0
80
80
80
ENDCHAR
STARTCHAR 03A5
ENCODING 933
SWIDTH 576 0
DWIDTH 4 0
BBX 3 4 1 0
BITMAP
E0
40
80
80
ENDCHAR
STARTCHAR 03A6
ENCODING 934
SWIDTH 576 0
DWIDTH 4 0
BBX 4 4 0 0
BITMAP
60
D0
E0
60
ENDCHAR
STARTCHAR 03A7
ENCODING 935
SWIDTH 576 0
DWIDTH 4 0
BBX 4 4 0 0
BITMAP
70
20
60
90
ENDCHAR
STARTCHAR 03A8
ENCODING 936
SWIDTH 576 0
DWIDTH 4 0
BBX 4 4 0 0
BITMAP
D0
60
40
40
ENDCHAR
STARTCHAR 03A9
ENCODING 937
SWIDTH 576 0
DWIDTH 4 0
BBX 4 5 0 0
BITMAP
20
D0
90
90
D0
ENDCHAR
STARTCHAR 03AA
ENCODING 938
SWIDTH 288 0
DWIDTH 2 0
BBX 2 6 0 0
BITMAP
C0
00
80
80
80
C0
ENDCHAR
STARTCHAR 03AB
ENCODING 939
SWIDTH 576 0
DWIDTH 4 0
BBX 3 6 1 0
BITMAP
C0
00
E0
40
80
80
ENDCHAR
STARTCHAR 03AC
ENCODING 940
SWIDTH 576 0
DWIDTH 4 0
BBX 4 3 0 1
BITMAP
E0
A0
F0
ENDCHAR
STARTCHAR 03AD
ENCODING 941
SWIDTH 288 0
DWIDTH 2 0
BBX 2 4 0 0
BITMAP
40
C0
40
C0
ENDCHAR
STARTCHAR 03AE
ENCODING 942
SWIDTH 432 0
DWIDTH 3 0
BBX 3 4 0 -1
BITMAP
E0
A0
A0
20
ENDCHAR
STARTCHAR 03AF
ENCODING 943
SWIDTH 144 0
DWIDTH 1 0
BBX 1 3 0 1
BITMAP
80
80
80
ENDCHAR
STARTCHAR 03B0
ENCODING 944
SWIDTH 432 0
DWIDTH 3 0
BBX 3 3 0 2
BITMAP
A0
A0
E0
ENDCHAR
STARTCHAR 03B1
ENCODING 945
SWIDTH 576 0
DWIDTH 4 0
BBX 4 3 0 0
BITMAP
E0
A0
F0
ENDCHAR
STARTCHAR 03B2
ENCODING 946
SWIDTH 432 0
DWIDTH 3 0
BBX 3 6 0 -2
BITMAP
40
A0
C0
A0
A0
C0
ENDCHAR
STARTCHAR 03B3
ENCODING 947
SWIDTH 432 0
DWIDTH 3 0
BBX 3 4 0 -1
BITMAP
A0
60
40
40
ENDCHAR
STARTCHAR 03B4
ENCODING 948
SWIDTH 432 0
DWIDTH 3 0
BBX 3 4 0 1
BITMAP
40
A0
A0
E0
ENDCHAR
STARTCHAR 03B5
ENCODING 949
SWIDTH 288 0
DWIDTH 2 0
BBX 2 3 0 0
BITMAP
C0
40
C0
ENDCHAR
STARTCHAR 03B6
ENCODING 950
SWIDTH 288 0
DWIDTH 2 0
BBX 3 5 0 -1
BITMAP
C0
80
80
40
20
ENDCHAR
STARTCHAR 03B7
ENCODING 951
SWIDTH 432 0
DWIDTH 3 0
BBX 3 4 0 -2
BITMAP
E0
A0
A0
20
ENDCHAR
STARTCHAR 03B8
ENCODING 952
SWIDTH 432 0
DWIDTH 3 0
BBX 3 5 0 0
BITMAP
40
A0
A0
E0
E0
ENDCHAR
STARTCHAR 03B9
ENCODING 953
SWIDTH 144 0
DWIDTH 1 0
BBX 1 3 0 0
BITMAP
80
80
80
ENDCHAR
STARTCHAR 03BA
ENCODING 954
SWIDTH 432 0
DWIDTH 3 0
BBX 2 3 0 0
BITMAP
C0
C0
C0
ENDCHAR
STARTCHAR 03BB
ENCODING 955
SWIDTH 432 0
DWIDTH 3 0
BBX 3 4 0 1
BITMAP
40
40
A0
A0
ENDCHAR
STARTCHAR 03BC
ENCODING 956
SWIDTH 432 0
DWIDTH 3 0
BBX 3 4 0 -2
BITMAP
A0
A0
A0
C0
ENDCHAR
STARTCHAR 03BD
ENCODING 957
SWIDTH 432 0
DWIDTH 3 0
BBX 3 3 0 0
BITMAP
A0
A0
40
ENDCHAR
STARTCHAR 03BE
ENCODING 958
SWIDTH 288 0
DWIDTH 2 0
BBX 3 5 0 -1
BITMAP
C0
40
80
40
20
ENDCHAR
STARTCHAR 03BF
ENCODING 959
SWIDTH 432 0
DWIDTH 3 0
BBX 3 3 0 0
BITMAP
E0
A0
E0
ENDCHAR
STARTCHAR 03C0
ENCODING 960
SWIDTH 432 0
DWIDTH 3 0
BBX 3 3 0 0
BITMAP
E0
A0
A0
ENDCHAR
STARTCHAR 03C1
ENCODING 961
SWIDTH 432 0
DWIDTH 3 0
BBX 3 4 0 -2
BITMAP
E0
A0
A0
C0
ENDCHAR
STARTCHAR 03C2
ENCODING 962
SWIDTH 432 0
DWIDTH 3 0
BBX 3 4 0 -1
BITMAP
C0
80
40
20
ENDCHAR
STARTCHAR 03C3
ENCODING 963
SWIDTH 432 0
DWIDTH 3 0
BBX 3 3 0 0
BITMAP
E0
A0
E0
ENDCHAR
STARTCHAR 03C4
ENCODING 964
SWIDTH 288 0
DWIDTH 2 0
BBX 1 3 1 0
BITMAP
80
80
80
ENDCHAR
STARTCHAR 03C5
ENCODING 965
SWIDTH 432 0
DWIDTH 3 0
BBX 3 3 0 0
BITMAP
A0
A0
E0
ENDCHAR
STARTCHAR 03C6
ENCODING 966
SWIDTH 576 0
DWIDTH 4 0
BBX 4 4 0 -2
BITMAP
F0
D0
60
40
ENDCHAR
STARTCHAR 03C7
ENCODING 967
SWIDTH 288 0
DWIDTH 2 0
BBX 2 4 0 -1
BITMAP
C0
40
40
C0
ENDCHAR
STARTCHAR 03C8
ENCODING 968
SWIDTH 432 0
DWIDTH 3 0
BBX 3 4 0 -2
BITMAP
E0
E0
60
40
ENDCHAR
STARTCHAR 03C9
ENCODING 969
SWIDTH 576 0
DWIDTH 4 0
BBX 4 3 0 0
BITMAP
90
90
F0
ENDCHAR
STARTCHAR 03CA
ENCODING 970
SWIDTH 144 0
DWIDTH 1 0
BBX 1 3 0 1
BITMAP
80
80
80
ENDCHAR
STARTCHAR 03CB
ENCODING 971
SWIDTH 432 0
DWIDTH 3 0
BBX 3 3 0 1
BITMAP
A0
A0
E0
ENDCHAR
STARTCHAR 03CC
ENCODING 972
SWIDTH 432 0
DWIDTH 3 0
BBX 3 3 0 1
BITMAP
E0
A0
E0
ENDCHAR
STARTCHAR 03CD
ENCODING 973
SWIDTH 432 0
DWIDTH 3 0
BBX 3 3 0 1
BITMAP
A0
A0
E0
ENDCHAR
STARTCHAR 03CE
ENCODING 974
SWIDTH 576 0
DWIDTH 4 0
BBX 4 3 0 1
BITMAP
90
90
F0
ENDCHAR
STARTCHAR 03CF
ENCODING 975
SWIDTH 432 0
DWIDTH 3 0
BBX 3 5 0 -1
BITMAP
E0
C0
C0
A0
20
ENDCHAR
STARTCHAR 03D0
ENCODING 976
SWIDTH 432 0
DWIDTH 3 0
BBX 3 5 0 0
BITMAP
40
A0
C0
A0
E0
ENDCHAR
STARTCHAR 03D1
ENCODING 977
SWIDTH 576 0
DWIDTH 4 0
BBX 4 5 0 0
BITMAP
20
60
B0
50
60
ENDCHAR
STARTCHAR 03D2
ENCODING 978
SWIDTH 432 0
DWIDTH 3 0
BBX 4 5 0 0
BITMAP
90
60
40
40
40
ENDCHAR
STARTCHAR 03D3
ENCODING 979
SWIDTH 720 0
DWIDTH 5 0
BBX 5 4 0 1
BITMAP
B8
10
10
10
ENDCHAR
STARTCHAR 03D4
ENCODING 980
SWIDTH 432 0
DWIDTH 3 0
BBX 4 6 0 0
BITMAP
60
90
60
40
40
40
ENDCHAR
STARTCHAR 03D5
ENCODING 981
SWIDTH 432 0
DWIDTH 3 0
BBX 3 5 0 -2
BITMAP
40
60
E0
60
40
ENDCHAR
STARTCHAR 03D6
ENCODING 982
SWIDTH 576 0
DWIDTH 4 0
BBX 4 3 0 0
BITMAP
F0
90
F0
ENDCHAR
STARTCHAR 03D7
ENCODING 983
SWIDTH 576 0
DWIDTH 4 0
BBX 3 4 1 -1
BITMAP
E0
C0
C0
20
ENDCHAR
STARTCHAR 03D8
ENCODING 984
SWIDTH 576 0
DWIDTH 4 0
BBX 4 6 0 -1
BITMAP
20
D0
90
90
60
40
ENDCHAR
STARTCHAR 03D9
ENCODING 985
SWIDTH 432 0
DWIDTH 3 0
BBX 3 4 0 -2
BITMAP
E0
A0
A0
40
ENDCHAR
STARTCHAR 03DA
ENCODING 986
SWIDTH 576 0
DWIDTH 4 0
BBX 4 6 0 -1
BITMAP
20
D0
80
80
60
70
ENDCHAR
STARTCHAR 03DB
ENCODING 987
SWIDTH 432 0
DWIDTH 3 0
BBX 3 4 0 -1
BITMAP
E0
80
40
20
ENDCHAR
STARTCHAR 03DC
ENCODING 988
SWIDTH 432 0
DWIDTH 3 0
BBX 3 4 0 0
BITMAP
E0
C0
80
80
ENDCHAR
STARTCHAR 03DD
ENCODING 989
SWIDTH 288 0
DWIDTH 2 0
BBX 2 4 0 -2
BITMAP
C0
C0
80
80
ENDCHAR
STARTCHAR 03DE
ENCODING 990
SWIDTH 432 0
DWIDTH 3 0
BBX 3 5 0 0
BITMAP
80
40
80
40
60
ENDCHAR
STARTCHAR 03DF
ENCODING 991
SWIDTH 288 0
DWIDTH 2 0
BBX 2 4 0 0
BITMAP
80
80
40
40
ENDCHAR
STARTCHAR 03E0
ENCODING 992
SWIDTH 576 0
DWIDTH 4 0
BBX 4 4 0 1
BITMAP
E0
50
70
20
ENDCHAR
STARTCHAR 03E1
ENCODING 993
SWIDTH 288 0
DWIDTH 2 0
BBX 1 4 1 -1
BITMAP
80
80
80
80
ENDCHAR
STARTCHAR 03E2
ENCODING 994
SWIDTH 720 0
DWIDTH 5 0
BBX 5 5 0 -1
BITMAP
A8
A8
A8
B8
78
ENDCHAR
STARTCHAR 03E3
ENCODING 995
SWIDTH 576 0
DWIDTH 4 0
BBX 4 4 0 -1
BITMAP
D0
D0
B0
F0
ENDCHAR
STARTCHAR 03E4
ENCODING 996
SWIDTH 432 0
DWIDTH 3 0
BBX 3 5 0 0
BITMAP
40
A0
A0
60
20
ENDCHAR
STARTCHAR 03E5
ENCODING 997
SWIDTH 432 0
DWIDTH 3 0
BBX 3 4 0 -2
BITMAP
A0
A0
A0
60
ENDCHAR
STARTCHAR 03E6
ENCODING 998
SWIDTH 432 0
DWIDTH 3 0
BBX 3 4 0 0
BITMAP
80
E0
A0
20
ENDCHAR
STARTCHAR 03E7
ENCODING 999
SWIDTH 576 0
DWIDTH 4 0
BBX 3 5 1 0
BITMAP
40
C0
60
A0
C0
ENDCHAR
STARTCHAR 03E8
ENCODING 1000
SWIDTH 432 0
DWIDTH 3 0
BBX 3 5 0 0
BITMAP
40
20
40
80
E0
ENDCHAR
STARTCHAR 03E9
ENCODING 1001
SWIDTH 288 0
DWIDTH 2 0
BBX 2 3 0 0
BITMAP
C0
80
C0
ENDCHAR
STARTCHAR 03EA
ENCODING 1002
SWIDTH 720 0
DWIDTH 5 0
BBX 5 4 0 0
BITMAP
70
20
50
F8
ENDCHAR
STARTCHAR 03EB
ENCODING 1003
SWIDTH 432 0
DWIDTH 3 0
BBX 3 3 0 0
BITMAP
40
60
E0
ENDCHAR
STARTCHAR 03EC
ENCODING 1004
SWIDTH 432 0
DWIDTH 3 0
BBX 3 4 0 1
BITMAP
E0
E0
A0
E0
ENDCHAR
STARTCHAR 03ED
ENCODING 1005
SWIDTH 432 0
DWIDTH 3 0
BBX 3 4 0 0
BITMAP
40
A0
A0
E0
ENDCHAR
STARTCHAR 03EE
ENCODING 1006
SWIDTH 432 0
DWIDTH 3 0
BBX 3 4 0 0
BITMAP
E0
40
40
40
ENDCHAR
STARTCHAR 03EF
ENCODING 1007
SWIDTH 288 0
DWIDTH 2 0
BBX 1 4 1 0
BITMAP
80
80
80
80
ENDCHAR
STARTCHAR 03F0
ENCODING 1008
SWIDTH 576 0
DWIDTH 4 0
BBX 3 3 1 0
BITMAP
E0
C0
E0
ENDCHAR
STARTCHAR 03F1
ENCODING 1009
SWIDTH 432 0
DWIDTH 3 0
BBX 3 4 0 -1
BITMAP
E0
A0
A0
C0
ENDCHAR
STARTCHAR 03F2
ENCODING 1010
SWIDTH 432 0
DWIDTH 3 0
BBX 3 3 0 0
BITMAP
E0
80
E0
ENDCHAR
STARTCHAR 03F3
ENCODING 1011
SWIDTH 144 0
DWIDTH 1 0
BBX 1 4 0 0
BITMAP
80
80
80
80
ENDCHAR
STARTCHAR 03F4
ENCODING 1012
SWIDTH 576 0
DWIDTH 4 0
BBX 4 5 0 0
BITMAP
20
D0
90
F0
60
ENDCHAR
STARTCHAR 03F5
ENCODING 1013
SWIDTH 432 0
DWIDTH 3 0
BBX 3 3 0 0
BITMAP
E0
C0
E0
ENDCHAR
STARTCHAR 03F6
ENCODING 1014
SWIDTH 432 0
DWIDTH 3 0
BBX 3 3 0 0
BITMAP
E0
60
E0
ENDCHAR
STARTCHAR 03F7
ENCODING 1015
SWIDTH 432 0
DWIDTH 3 0
BBX 3 4 0 0
BITMAP
80
E0
E0
80
ENDCHAR
STARTCHAR 03F8
ENCODING 1016
SWIDTH 432 0
DWIDTH 3 0
BBX 3 5 0 -2
BITMAP
80
E0
A0
A0
C0
ENDCHAR
STARTCHAR 03F9
ENCODING 1017
SWIDTH 576 0
DWIDTH 4 0
BBX 4 5 0 0
BITMAP
20
D0
80
80
60
ENDCHAR
STARTCHAR 03FA
ENCODING 1018
SWIDTH 576 0
DWIDTH 4 0
BBX 4 4 0 0
BITMAP
F0
B0
90
90
ENDCHAR
STARTCHAR 03FB
ENCODING 1019
SWIDTH 432 0
DWIDTH 3 0
BBX 3 4 0 -2
BITMAP
A0
A0
E0
80
ENDCHAR
STARTCHAR 03FC
ENCODING 1020
SWIDTH 432 0
DWIDTH 3 0
BBX 3 4 0 -2
BITMAP
E0
A0
A0
C0
ENDCHAR
STARTCHAR 03FD
ENCODING 1021
SWIDTH 576 0
DWIDTH 4 0
BBX 4 4 0 1
BITMAP
E0
10
10
60
ENDCHAR
STARTCHAR 03FE
ENCODING 1022
SWIDTH 576 0
DWIDTH 4 0
BBX 4 5 0 0
BITMAP
20
D0
80
80
60
ENDCHAR
STARTCHAR 03FF
ENCODING 1023
SWIDTH 576 0
DWIDTH 4 0
BBX 4 4 0 1
BITMAP
E0
10
10
60
ENDCHAR
STARTCHAR 0400
ENCODING 1024
SWIDTH 432 0
DWIDTH 3 0
BBX 3 6 0 0
BITMAP
40
00
E0
80
C0
E0
ENDCHAR
STARTCHAR 0401
ENCODING 1025
SWIDTH 432 0
DWIDTH 3 0
BBX 3 6 0 0
BITMAP
60
00
E0
80
C0
E0
ENDCHAR
STARTCHAR 0402
ENCODING 1026
SWIDTH 576 0
DWIDTH 4 0
BBX 3 4 1 0
BITMAP
C0
E0
A0
A0
ENDCHAR
STARTCHAR 0403
ENCODING 1027
SWIDTH 432 0
DWIDTH 3 0
BBX 3 4 0 2
BITMAP
E0
80
80
80
ENDCHAR
STARTCHAR 0404
ENCODING 1028
SWIDTH 576 0
DWIDTH 4 0
BBX 4 5 0 0
BITMAP
20
D0
80
C0
60
ENDCHAR
STARTCHAR 0405
ENCODING 1029
SWIDTH 432 0
DWIDTH 3 0
BBX 3 5 0 0
BITMAP
40
A0
40
20
E0
ENDCHAR
STARTCHAR 0406
ENCODING 1030
SWIDTH 288 0
DWIDTH 2 0
BBX 2 4 0 0
BITMAP
80
80
80
C0
ENDCHAR
STARTCHAR 0407
ENCODING 1031
SWIDTH 288 0
DWIDTH 2 0
BBX 2 6 0 0
BITMAP
C0
00
80
80
80
C0
ENDCHAR
STARTCHAR 0408
ENCODING 1032
SWIDTH 288 0
DWIDTH 2 0
BBX 2 4 0 0
BITMAP
40
40
40
C0
ENDCHAR
STARTCHAR 0409
ENCODING 1033
SWIDTH 864 0
DWIDTH 6 0
BBX 6 4 0 0
BITMAP
E0
98
A4
98
ENDCHAR
STARTCHAR 040A
ENCODING 1034
SWIDTH 720 0
DWIDTH 5 0
BBX 6 4 0 0
BITMAP
A0
98
E4
98
ENDCHAR
STARTCHAR 040B
ENCODING 1035
SWIDTH 576 0
DWIDTH 4 0
BBX 3 4 1 0
BITMAP
C0
E0
A0
A0
ENDCHAR
STARTCHAR 040C
ENCODING 1036
SWIDTH 432 0
DWIDTH 3 0
BBX 3 4 0 2
BITMAP
E0
C0
C0
A0
ENDCHAR
STARTCHAR 040D
ENCODING 1037
SWIDTH 432 0
DWIDTH 3 0
BBX 3 6 0 0
BITMAP
40
00
A0
E0
A0
A0
ENDCHAR
STARTCHAR 040E
ENCODING 1038
SWIDTH 432 0
DWIDTH 3 0
BBX 3 6 0 0
BITMAP
40
00
60
60
40
C0
ENDCHAR
STARTCHAR 040F
ENCODING 1039
SWIDTH 432 0
DWIDTH 3 0
BBX 3 5 0 -1
BITMAP
A0
A0
A0
E0
40
ENDCHAR
STARTCHAR 0410
ENCODING 1040
SWIDTH 576 0
DWIDTH 4 0
BBX 4 4 0 0
BITMAP
20
60
90
90
ENDCHAR
STARTCHAR 0411
ENCODING 1041
SWIDTH 432 0
DWIDTH 3 0
BBX 3 4 0 0
BITMAP
C0
C0
A0
E0
ENDCHAR
STARTCHAR 0412
ENCODING 1042
SWIDTH 432 0
DWIDTH 3 0
BBX 3 4 0 0
BITMAP
E0
E0
A0
E0
ENDCHAR
STARTCHAR 0413
ENCODING 1043
SWIDTH 432 0
DWIDTH 3 0
BBX 3 4 0 0
BITMAP
E0
80
80
80
ENDCHAR
STARTCHAR 0414
ENCODING 1044
SWIDTH 576 0
DWIDTH 4 0
BBX 4 5 0 -1
BITMAP
70
50
50
F0
80
ENDCHAR
STARTCHAR 0415
ENCODING 1045
SWIDTH 432 0
DWIDTH 3 0
BBX 3 4 0 0
BITMAP
E0
80
C0
E0
ENDCHAR
STARTCHAR 0416
ENCODING 1046
SWIDTH 864 0
DWIDTH 6 0
BBX 6 5 0 0
BITMAP
04
68
68
78
A4
ENDCHAR
STARTCHAR 0417
ENCODING 1047
SWIDTH 432 0
DWIDTH 3 0
BBX 3 5 0 0
BITMAP
40
20
20
20
E0
ENDCHAR
STARTCHAR 0418
ENCODING 1048
SWIDTH 432 0
DWIDTH 3 0
BBX 3 4 0 0
BITMAP
A0
E0
A0
A0
ENDCHAR
STARTCHAR 0419
ENCODING 1049
SWIDTH 432 0
DWIDTH 3 0
BBX 3 6 0 0
BITMAP
20
00
A0
E0
A0
A0
ENDCHAR
STARTCHAR 041A
ENCODING 1050
SWIDTH 432 0
DWIDTH 3 0
BBX 3 4 0 1
BITMAP
E0
C0
C0
A0
ENDCHAR
STARTCHAR 041B
ENCODING 1051
SWIDTH 432 0
DWIDTH 3 0
BBX 3 4 0 0
BITMAP
E0
A0
A0
A0
ENDCHAR
STARTCHAR 041C
ENCODING 1052
SWIDTH 576 0
DWIDTH 4 0
BBX 4 4 0 0
BITMAP
90
F0
F0
B0
ENDCHAR
STARTCHAR 041D
ENCODING 1053
SWIDTH 432 0
DWIDTH 3 0
BBX 3 4 0 0
BITMAP
A0
A0
E0
A0
ENDCHAR
STARTCHAR 041E
ENCODING 1054
SWIDTH 576 0
DWIDTH 4 0
BBX 4 5 0 0
BITMAP
20
D0
90
90
60
ENDCHAR
STARTCHAR 041F
ENCODING 1055
SWIDTH 432 0
DWIDTH 3 0
BBX 3 4 0 0
BITMAP
E0
A0
A0
A0
ENDCHAR
STARTCHAR 0420
ENCODING 1056
SWIDTH 432 0
DWIDTH 3 0
BBX 3 4 0 0
BITMAP
E0
A0
C0
80
ENDCHAR
STARTCHAR 0421
ENCODING 1057
SWIDTH 576 0
DWIDTH 4 0
BBX 4 5 0 0
BITMAP
20
D0
80
80
60
ENDCHAR
STARTCHAR 0422
ENCODING 1058
SWIDTH 432 0
DWIDTH 3 0
BBX 2 4 1 0
BITMAP
C0
80
80
80
ENDCHAR
STARTCHAR 0423
ENCODING 1059
SWIDTH 432 0
DWIDTH 3 0
BBX 3 4 0 0
BITMAP
60
60
40
C0
ENDCHAR
STARTCHAR 0424
ENCODING 1060
SWIDTH 576 0
DWIDTH 4 0
BBX 4 4 0 0
BITMAP
40
F0
B0
40
ENDCHAR
STARTCHAR 0425
ENCODING 1061
SWIDTH 576 0
DWIDTH 4 0
BBX 4 4 0 0
BITMAP
70
20
60
90
ENDCHAR
STARTCHAR 0426
ENCODING 1062
SWIDTH 576 0
DWIDTH 4 0
BBX 4 5 0 -1
BITMAP
A0
A0
A0
F0
10
ENDCHAR
STARTCHAR 0427
ENCODING 1063
SWIDTH 432 0
DWIDTH 3 0
BBX 3 4 0 0
BITMAP
A0
A0
60
20
ENDCHAR
STARTCHAR 0428
ENCODING 1064
SWIDTH 720 0
DWIDTH 5 0
BBX 5 4 0 0
BITMAP
A8
A8
A8
F8
ENDCHAR
STARTCHAR 0429
ENCODING 1065
SWIDTH 720 0
DWIDTH 5 0
BBX 5 4 0 -1
BITMAP
A8
A8
A8
F8
ENDCHAR
STARTCHAR 042A
ENCODING 1066
SWIDTH 576 0
DWIDTH 4 0
BBX 3 4 1 0
BITMAP
80
C0
A0
E0
ENDCHAR
STARTCHAR 042B
ENCODING 1067
SWIDTH 576 0
DWIDTH 4 0
BBX 4 4 0 0
BITMAP
90
D0
B0
F0
ENDCHAR
STARTCHAR 042C
ENCODING 1068
SWIDTH 432 0
DWIDTH 3 0
BBX 3 4 0 0
BITMAP
80
C0
A0
E0
ENDCHAR
STARTCHAR 042D
ENCODING 1069
SWIDTH 576 0
DWIDTH 4 0
BBX 4 4 0 1
BITMAP
E0
10
30
60
ENDCHAR
STARTCHAR 042E
ENCODING 1070
SWIDTH 720 0
DWIDTH 5 0
BBX 5 5 0 0
BITMAP
10
E8
C8
C8
B0
ENDCHAR
STARTCHAR 042F
ENCODING 1071
SWIDTH 432 0
DWIDTH 3 0
BBX 3 4 0 0
BITMAP
E0
60
60
A0
ENDCHAR
STARTCHAR 0430
ENCODING 1072
SWIDTH 288 0
DWIDTH 2 0
BBX 2 3 0 0
BITMAP
40
40
C0
ENDCHAR
STARTCHAR 0431
ENCODING 1073
SWIDTH 432 0
DWIDTH 3 0
BBX 3 4 0 0
BITMAP
40
A0
A0
E0
ENDCHAR
STARTCHAR 0432
ENCODING 1074
SWIDTH 288 0
DWIDTH 2 0
BBX 2 3 0 0
BITMAP
C0
C0
C0
ENDCHAR
STARTCHAR 0433
ENCODING 1075
SWIDTH 288 0
DWIDTH 2 0
BBX 2 3 0 0
BITMAP
C0
80
80
ENDCHAR
STARTCHAR 0434
ENCODING 1076
SWIDTH 576 0
DWIDTH 4 0
BBX 4 4 0 -1
BITMAP
60
60
F0
90
ENDCHAR
STARTCHAR 0435
ENCODING 1077
SWIDTH 432 0
DWIDTH 3 0
BBX 3 3 0 0
BITMAP
E0
E0
E0
ENDCHAR
STARTCHAR 0436
ENCODING 1078
SWIDTH 576 0
DWIDTH 4 0
BBX 4 3 0 0
BITMAP
70
70
B0
ENDCHAR
STARTCHAR 0437
ENCODING 1079
SWIDTH 288 0
DWIDTH 2 0
BBX 2 3 0 0
BITMAP
40
40
C0
ENDCHAR
STARTCHAR 0438
ENCODING 1080
SWIDTH 432 0
DWIDTH 3 0
BBX 3 3 0 0
BITMAP
A0
E0
A0
ENDCHAR
STARTCHAR 0439
ENCODING 1081
SWIDTH 432 0
DWIDTH 3 0
BBX 3 3 0 1
BITMAP
A0
E0
A0
ENDCHAR
STARTCHAR 043A
ENCODING 1082
SWIDTH 432 0
DWIDTH 3 0
BBX 3 3 0 0
BITMAP
C0
C0
A0
ENDCHAR
STARTCHAR 043B
ENCODING 1083
SWIDTH 432 0
DWIDTH 3 0
BBX 3 3 0 0
BITMAP
E0
A0
A0
ENDCHAR
STARTCHAR 043C
ENCODING 1084
SWIDTH 432 0
DWIDTH 3 0
BBX 3 3 0 0
BITMAP
A0
A0
E0
ENDCHAR
STARTCHAR 043D
ENCODING 1085
SWIDTH 432 0
DWIDTH 3 0
BBX 3 3 0 0
BITMAP
A0
E0
A0
ENDCHAR
STARTCHAR 043E
ENCODING 1086
SWIDTH 432 0
DWIDTH 3 0
BBX 3 3 0 0
BITMAP
E0
A0
E0
ENDCHAR
STARTCHAR 043F
ENCODING 1087
SWIDTH 432 0
DWIDTH 3 0
BBX 3 3 0 0
BITMAP
E0
A0
A0
ENDCHAR
STARTCHAR 0440
ENCODING 1088
SWIDTH 432 0
DWIDTH 3 0
BBX 3 4 0 -2
BITMAP
E0
A0
A0
C0
ENDCHAR
STARTCHAR 0441
ENCODING 1089
SWIDTH 432 0
DWIDTH 3 0
BBX 3 3 0 0
BITMAP
E0
80
E0
ENDCHAR
STARTCHAR 0442
ENCODING 1090
SWIDTH 288 0
DWIDTH 2 0
BBX 1 3 1 0
BITMAP
80
80
80
ENDCHAR
STARTCHAR 0443
ENCODING 1091
SWIDTH 432 0
DWIDTH 3 0
BBX 3 4 0 -1
BITMAP
A0
A0
40
40
ENDCHAR
STARTCHAR 0444
ENCODING 1092
SWIDTH 576 0
DWIDTH 4 0
BBX 4 5 0 -2
BITMAP
40
B0
D0
B0
40
ENDCHAR
STARTCHAR 0445
ENCODING 1093
SWIDTH 432 0
DWIDTH 3 0
BBX 3 3 0 0
BITMAP
A0
40
A0
ENDCHAR
STARTCHAR 0446
ENCODING 1094
SWIDTH 432 0
DWIDTH 3 0
BBX 3 3 0 -1
BITMAP
A0
A0
E0
ENDCHAR
STARTCHAR 0447
ENCODING 1095
SWIDTH 288 0
DWIDTH 2 0
BBX 3 3 0 0
BITMAP
A0
60
20
ENDCHAR
STARTCHAR 0448
ENCODING 1096
SWIDTH 432 0
DWIDTH 3 0
BBX 4 3 0 0
BITMAP
D0
D0
F0
ENDCHAR
STARTCHAR 0449
ENCODING 1097
SWIDTH 576 0
DWIDTH 4 0
BBX 4 3 0 -1
BITMAP
D0
D0
F0
ENDCHAR
STARTCHAR 044A
ENCODING 1098
SWIDTH 432 0
DWIDTH 3 0
BBX 2 3 1 0
BITMAP
80
C0
C0
ENDCHAR
STARTCHAR 044B
ENCODING 1099
SWIDTH 432 0
DWIDTH 3 0
BBX 3 3 0 0
BITMAP
A0
E0
E0
ENDCHAR
STARTCHAR 044C
ENCODING 1100
SWIDTH 288 0
DWIDTH 2 0
BBX 2 3 0 0
BITMAP
80
C0
C0
ENDCHAR
STARTCHAR 044D
ENCODING 1101
SWIDTH 432 0
DWIDTH 3 0
BBX 3 3 0 0
BITMAP
E0
60
E0
ENDCHAR
STARTCHAR 044E
ENCODING 1102
SWIDTH 576 0
DWIDTH 4 0
BBX 4 3 0 0
BITMAP
F0
D0
F0
ENDCHAR
STARTCHAR 044F
ENCODING 1103
SWIDTH 288 0
DWIDTH 2 0
BBX 3 3 0 0
BITMAP
E0
60
A0
ENDCHAR
STARTCHAR 0450
ENCODING 1104
SWIDTH 432 0
DWIDTH 3 0
BBX 3 4 0 0
BITMAP
40
E0
E0
E0
ENDCHAR
STARTCHAR 0451
ENCODING 1105
SWIDTH 432 0
DWIDTH 3 0
BBX 3 3 0 1
BITMAP
E0
E0
E0
ENDCHAR
STARTCHAR 0452
ENCODING 1106
SWIDTH 576 0
DWIDTH 4 0
BBX 4 5 0 -1
BITMAP
C0
60
90
90
10
ENDCHAR
STARTCHAR 0453
ENCODING 1107
SWIDTH 288 0
DWIDTH 2 0
BBX 2 4 0 0
BITMAP
40
C0
80
80
ENDCHAR
STARTCHAR 0454
ENCODING 1108
SWIDTH 432 0
DWIDTH 3 0
BBX 3 3 0 0
BITMAP
E0
C0
E0
ENDCHAR
STARTCHAR 0455
ENCODING 1109
SWIDTH 288 0
DWIDTH 2 0
BBX 2 3 0 0
BITMAP
C0
40
C0
ENDCHAR
STARTCHAR 0456
ENCODING 1110
SWIDTH 144 0
DWIDTH 1 0
BBX 1 3 0 1
BITMAP
80
80
80
ENDCHAR
STARTCHAR 0457
ENCODING 1111
SWIDTH 144 0
DWIDTH 1 0
BBX 1 3 0 1
BITMAP
80
80
80
ENDCHAR
STARTCHAR 0458
ENCODING 1112
SWIDTH 144 0
DWIDTH 1 0
BBX 1 4 0 0
BITMAP
80
80
80
80
ENDCHAR
STARTCHAR 0459
ENCODING 1113
SWIDTH 576 0
DWIDTH 4 0
BBX 4 3 0 0
BITMAP
E0
90
90
ENDCHAR
STARTCHAR 045A
ENCODING 1114
SWIDTH 576 0
DWIDTH 4 0
BBX 4 3 0 0
BITMAP
A0
F0
B0
ENDCHAR
STARTCHAR 045B
ENCODING 1115
SWIDTH 432 0
DWIDTH 3 0
BBX 4 4 0 0
BITMAP
C0
60
90
90
ENDCHAR
STARTCHAR 045C
ENCODING 1116
SWIDTH 432 0
DWIDTH 3 0
BBX 3 3 0 1
BITMAP
C0
C0
A0
ENDCHAR
STARTCHAR 045D
ENCODING 1117
SWIDTH 432 0
DWIDTH 3 0
BBX 3 3 0 1
BITMAP
A0
E0
A0
ENDCHAR
STARTCHAR 045E
ENCODING 1118
SWIDTH 432 0
DWIDTH 3 0
BBX 3 4 0 0
BITMAP
A0
A0
40
40
ENDCHAR
STARTCHAR 045F
ENCODING 1119
SWIDTH 432 0
DWIDTH 3 0
BBX 3 4 0 -1
BITMAP
A0
A0
E0
40
ENDCHAR
STARTCHAR 0460
ENCODING 1120
SWIDTH 864 0
DWIDTH 6 0
BBX 6 4 0 0
BITMAP
A4
A4
94
68
ENDCHAR
STARTCHAR 0461
ENCODING 1121
SWIDTH 720 0
DWIDTH 5 0
BBX 5 3 0 0
BITMAP
A8
A8
50
ENDCHAR
STARTCHAR 0462
ENCODING 1122
SWIDTH 576 0
DWIDTH 4 0
BBX 4 4 0 0
BITMAP
E0
70
50
70
ENDCHAR
STARTCHAR 0463
ENCODING 1123
SWIDTH 432 0
DWIDTH 3 0
BBX 2 4 1 0
BITMAP
80
80
C0
C0
ENDCHAR
STARTCHAR 0464
ENCODING 1124
SWIDTH 720 0
DWIDTH 5 0
BBX 5 5 0 0
BITMAP
10
E8
C0
E0
B0
ENDCHAR
STARTCHAR 0465
ENCODING 1125
SWIDTH 576 0
DWIDTH 4 0
BBX 4 3 0 0
BITMAP
F0
E0
F0
ENDCHAR
STARTCHAR 0466
ENCODING 1126
SWIDTH 576 0
DWIDTH 4 0
BBX 4 4 0 0
BITMAP
20
60
B0
B0
ENDCHAR
STARTCHAR 0467
ENCODING 1127
SWIDTH 432 0
DWIDTH 3 0
BBX 3 3 0 0
BITMAP
40
A0
60
ENDCHAR
STARTCHAR 0468
ENCODING 1128
SWIDTH 720 0
DWIDTH 5 0
BBX 5 4 0 0
BITMAP
90
B0
E8
E8
ENDCHAR
STARTCHAR 0469
ENCODING 1129
SWIDTH 576 0
DWIDTH 4 0
BBX 4 3 0 0
BITMAP
A0
E0
F0
ENDCHAR
STARTCHAR 046A
ENCODING 1130
SWIDTH 576 0
DWIDTH 4 0
BBX 4 4 0 0
BITMAP
E0
60
D0
D0
ENDCHAR
STARTCHAR 046B
ENCODING 1131
SWIDTH 432 0
DWIDTH 3 0
BBX 3 3 0 0
BITMAP
E0
60
E0
ENDCHAR
STARTCHAR 046C
ENCODING 1132
SWIDTH 720 0
DWIDTH 5 0
BBX 5 4 0 0
BITMAP
F0
B0
E8
E8
ENDCHAR
STARTCHAR 046D
ENCODING 1133
SWIDTH 576 0
DWIDTH 4 0
BBX 4 3 0 0
BITMAP
F0
F0
F0
ENDCHAR
STARTCHAR 046E
ENCODING 1134
SWIDTH 432 0
DWIDTH 3 0
BBX 3 6 0 -1
BITMAP
40
20
20
20
20
E0
ENDCHAR
STARTCHAR 046F
ENCODING 1135
SWIDTH 288 0
DWIDTH 2 0
BBX 2 5 0 -1
BITMAP
40
40
40
40
C0
ENDCHAR
STARTCHAR 0470
ENCODING 1136
SWIDTH 576 0
DWIDTH 4 0
BBX 4 4 0 1
BITMAP
B0
70
20
20
ENDCHAR
STARTCHAR 0471
ENCODING 1137
SWIDTH 576 0
DWIDTH 4 0
BBX 4 6 0 -2
BITMAP
20
B0
B0
70
20
20
ENDCHAR
STARTCHAR 0472
ENCODING 1138
SWIDTH 576 0
DWIDTH 4 0
BBX 4 5 0 0
BITMAP
20
D0
90
F0
60
ENDCHAR
STARTCHAR 0473
ENCODING 1139
SWIDTH 432 0
DWIDTH 3 0
BBX 3 3 0 0
BITMAP
E0
E0
E0
ENDCHAR
STARTCHAR 0474
ENCODING 1140
SWIDTH 720 0
DWIDTH 5 0
BBX 5 5 0 0
BITMAP
08
90
60
60
20
ENDCHAR
STARTCHAR 0475
ENCODING 1141
SWIDTH 576 0
DWIDTH 4 0
BBX 4 3 0 0
BITMAP
B0
A0
40
ENDCHAR
STARTCHAR 0476
ENCODING 1142
SWIDTH 720 0
DWIDTH 5 0
BBX 5 5 0 1
BITMAP
08
90
60
60
20
ENDCHAR
STARTCHAR 0477
ENCODING 1143
SWIDTH 576 0
DWIDTH 4 0
BBX 4 4 0 0
BITMAP
20
B0
A0
40
ENDCHAR
STARTCHAR 0478
ENCODING 1144
SWIDTH 1008 0
DWIDTH 7 0
BBX 7 6 0 -1
BITMAP
20
D0
9A
96
64
04
ENDCHAR
STARTCHAR 0479
ENCODING 1145
SWIDTH 720 0
DWIDTH 5 0
BBX 5 4 0 -1
BITMAP
E8
E8
D0
10
ENDCHAR
STARTCHAR 047A
ENCODING 1146
SWIDTH 720 0
DWIDTH 5 0
BBX 5 5 0 0
BITMAP
20
D8
88
88
78
ENDCHAR
STARTCHAR 047B
ENCODING 1147
SWIDTH 576 0
DWIDTH 4 0
BBX 4 3 0 0
BITMAP
E0
90
60
ENDCHAR
STARTCHAR 047C
ENCODING 1148
SWIDTH 1008 0
DWIDTH 7 0
BBX 7 6 0 0
BITMAP
10
1C
C2
82
92
6E
ENDCHAR
STARTCHAR 047D
ENCODING 1149
SWIDTH 720 0
DWIDTH 5 0
BBX 5 5 0 0
BITMAP
30
20
A8
88
F8
ENDCHAR
STARTCHAR 047E
ENCODING 1150
SWIDTH 864 0
DWIDTH 6 0
BBX 6 6 0 0
BITMAP
78
00
84
A4
94
68
ENDCHAR
STARTCHAR 047F
ENCODING 1151
SWIDTH 720 0
DWIDTH 5 0
BBX 5 4 0 0
BITMAP
70
88
A8
50
ENDCHAR
STARTCHAR 0480
ENCODING 1152
SWIDTH 576 0
DWIDTH 4 0
BBX 4 6 0 -1
BITMAP
20
D0
80
80
40
40
ENDCHAR
STARTCHAR 0481
ENCODING 1153
SWIDTH 432 0
DWIDTH 3 0
BBX 3 4 0 -2
BITMAP
E0
80
80
40
ENDCHAR
STARTCHAR 0482
ENCODING 1154
SWIDTH 576 0
DWIDTH 4 0
BBX 4 4 0 -1
BITMAP
20
70
C0
60
ENDCHAR
STARTCHAR 0483
ENCODING 1155
SWIDTH 0 0
DWIDTH 0 0
BBX 2 1 -1 4
BITMAP
C0
ENDCHAR
STARTCHAR 0484
ENCODING 1156
SWIDTH 0 0
DWIDTH 0 0
BBX 1 1 0 3
BITMAP
80
ENDCHAR
STARTCHAR 0485
ENCODING 1157
SWIDTH 0 0
DWIDTH 0 0
BBX 0 0 -1 3
BITMAP
ENDCHAR
STARTCHAR 0486
ENCODING 1158
SWIDTH 0 0
DWIDTH 0 0
BBX 0 0 0 3
BITMAP
ENDCHAR
STARTCHAR 0487
ENCODING 1159
SWIDTH 0 0
DWIDTH 0 0
BBX 2 2 -1 3
BITMAP
80
40
ENDCHAR
STARTCHAR 0488
ENCODING 1160
SWIDTH 864 0
DWIDTH 6 0
BBX 1 1 1 3
BITMAP
80
ENDCHAR
STARTCHAR 0489
ENCODING 1161
SWIDTH 1008 0
DWIDTH 7 0
BBX 6 6 1 -1
BITMAP
20
04
00
00
80
60
ENDCHAR
STARTCHAR 048A
ENCODING 1162
SWIDTH 432 0
DWIDTH 3 0
BBX 3 6 0 -1
BITMAP
20
00
A0
E0
A0
A0
ENDCHAR
STARTCHAR 048B
ENCODING 1163
SWIDTH 432 0
DWIDTH 3 0
BBX 3 4 0 0
BITMAP
A0
E0
A0
20
ENDCHAR
STARTCHAR 048C
ENCODING 1164
SWIDTH 576 0
DWIDTH 4 0
BBX 4 4 0 0
BITMAP
C0
60
90
60
ENDCHAR
STARTCHAR 048D
ENCODING 1165
SWIDTH 432 0
DWIDTH 3 0
BBX 3 3 0 1
BITMAP
80
60
60
ENDCHAR
STARTCHAR 048E
ENCODING 1166
SWIDTH 432 0
DWIDTH 3 0
BBX 3 4 0 0
BITMAP
E0
A0
C0
80
ENDCHAR
STARTCHAR 048F
ENCODING 1167
SWIDTH 432 0
DWIDTH 3 0
BBX 3 4 0 -2
BITMAP
E0
A0
A0
C0
ENDCHAR
STARTCHAR 0490
ENCODING 1168
SWIDTH 432 0
DWIDTH 3 0
BBX 3 5 0 0
BITMAP
20
C0
80
80
80
ENDCHAR
STARTCHAR 0491
ENCODING 1169
SWIDTH 288 0
DWIDTH 2 0
BBX 2 3 0 1
BITMAP
C0
80
80
ENDCHAR
STARTCHAR 0492
ENCODING 1170
SWIDTH 576 0
DWIDTH 4 0
BBX 3 4 0 0
BITMAP
E0
80
C0
80
ENDCHAR
STARTCHAR 0493
ENCODING 1171
SWIDTH 432 0
DWIDTH 3 0
BBX 2 3 0 0
BITMAP
C0
C0
80
ENDCHAR
STARTCHAR 0494
ENCODING 1172
SWIDTH 432 0
DWIDTH 3 0
BBX 3 5 0 -1
BITMAP
E0
E0
A0
A0
20
ENDCHAR
STARTCHAR 0495
ENCODING 1173
SWIDTH 288 0
DWIDTH 2 0
BBX 2 4 0 -1
BITMAP
C0
C0
C0
40
ENDCHAR
STARTCHAR 0496
ENCODING 1174
SWIDTH 864 0
DWIDTH 6 0
BBX 6 6 0 -1
BITMAP
04
68
68
78
A4
04
ENDCHAR
STARTCHAR 0497
ENCODING 1175
SWIDTH 576 0
DWIDTH 4 0
BBX 5 4 0 -1
BITMAP
70
70
A8
08
ENDCHAR
STARTCHAR 0498
ENCODING 1176
SWIDTH 432 0
DWIDTH 3 0
BBX 3 6 0 -1
BITMAP
40
20
20
20
A0
40
ENDCHAR
STARTCHAR 0499
ENCODING 1177
SWIDTH 288 0
DWIDTH 2 0
BBX 2 4 0 -1
BITMAP
40
40
C0
40
ENDCHAR
STARTCHAR 049A
ENCODING 1178
SWIDTH 432 0
DWIDTH 3 0
BBX 3 4 0 0
BITMAP
E0
C0
C0
A0
ENDCHAR
STARTCHAR 049B
ENCODING 1179
SWIDTH 432 0
DWIDTH 3 0
BBX 3 4 0 -1
BITMAP
C0
C0
A0
20
ENDCHAR
STARTCHAR 049C
ENCODING 1180
SWIDTH 432 0
DWIDTH 3 0
BBX 3 4 0 1
BITMAP
E0
C0
C0
A0
ENDCHAR
STARTCHAR 049D
ENCODING 1181
SWIDTH 432 0
DWIDTH 3 0
BBX 3 3 0 0
BITMAP
C0
C0
A0
ENDCHAR
STARTCHAR 049E
ENCODING 1182
SWIDTH 432 0
DWIDTH 3 0
BBX 3 4 0 1
BITMAP
E0
C0
C0
A0
ENDCHAR
STARTCHAR 049F
ENCODING 1183
SWIDTH 432 0
DWIDTH 3 0
BBX 3 4 0 0
BITMAP
C0
C0
C0
A0
ENDCHAR
STARTCHAR 04A0
ENCODING 1184
SWIDTH 576 0
DWIDTH 4 0
BBX 3 4 1 1
BITMAP
E0
C0
C0
A0
ENDCHAR
STARTCHAR 04A1
ENCODING 1185
SWIDTH 576 0
DWIDTH 4 0
BBX 3 3 1 0
BITMAP
C0
C0
A0
ENDCHAR
STARTCHAR 04A2
ENCODING 1186
SWIDTH 576 0
DWIDTH 4 0
BBX 4 5 0 -1
BITMAP
A0
A0
E0
90
10
ENDCHAR
STARTCHAR 04A3
ENCODING 1187
SWIDTH 432 0
DWIDTH 3 0
BBX 3 3 0 -1
BITMAP
A0
E0
A0
ENDCHAR
STARTCHAR 04A4
ENCODING 1188
SWIDTH 720 0
DWIDTH 5 0
BBX 5 4 0 0
BITMAP
B8
A0
E0
A0
ENDCHAR
STARTCHAR 04A5
ENCODING 1189
SWIDTH 576 0
DWIDTH 4 0
BBX 4 3 0 0
BITMAP
B0
E0
A0
ENDCHAR
STARTCHAR 04A6
ENCODING 1190
SWIDTH 720 0
DWIDTH 5 0
BBX 5 5 0 -1
BITMAP
E0
B8
A8
A8
38
ENDCHAR
STARTCHAR 04A7
ENCODING 1191
SWIDTH 576 0
DWIDTH 4 0
BBX 4 4 0 -1
BITMAP
E0
B0
B0
30
ENDCHAR
STARTCHAR 04A8
ENCODING 1192
SWIDTH 720 0
DWIDTH 5 0
BBX 5 4 0 1
BITMAP
F0
B0
B0
78
ENDCHAR
STARTCHAR 04A9
ENCODING 1193
SWIDTH 576 0
DWIDTH 4 0
BBX 4 3 0 0
BITMAP
E0
E0
F0
ENDCHAR
STARTCHAR 04AA
ENCODING 1194
SWIDTH 576 0
DWIDTH 4 0
BBX 4 5 0 -1
BITMAP
20
D0
80
80
60
ENDCHAR
STARTCHAR 04AB
ENCODING 1195
SWIDTH 432 0
DWIDTH 3 0
BBX 3 4 0 -1
BITMAP
E0
80
A0
40
ENDCHAR
STARTCHAR 04AC
ENCODING 1196
SWIDTH 432 0
DWIDTH 3 0
BBX 2 5 1 -1
BITMAP
C0
80
80
C0
40
ENDCHAR
STARTCHAR 04AD
ENCODING 1197
SWIDTH 288 0
DWIDTH 2 0
BBX 1 3 1 -1
BITMAP
80
80
80
ENDCHAR
STARTCHAR 04AE
ENCODING 1198
SWIDTH 576 0
DWIDTH 4 0
BBX 3 4 1 0
BITMAP
E0
40
80
80
ENDCHAR
STARTCHAR 04AF
ENCODING 1199
SWIDTH 432 0
DWIDTH 3 0
BBX 3 4 0 -2
BITMAP
A0
A0
40
40
ENDCHAR
STARTCHAR 04B0
ENCODING 1200
SWIDTH 576 0
DWIDTH 4 0
BBX 3 4 1 0
BITMAP
E0
40
C0
80
ENDCHAR
STARTCHAR 04B1
ENCODING 1201
SWIDTH 432 0
DWIDTH 3 0
BBX 3 4 0 -2
BITMAP
A0
A0
40
60
ENDCHAR
STARTCHAR 04B2
ENCODING 1202
SWIDTH 576 0
DWIDTH 4 0
BBX 4 4 0 -1
BITMAP
70
20
60
90
ENDCHAR
STARTCHAR 04B3
ENCODING 1203
SWIDTH 432 0
DWIDTH 3 0
BBX 3 3 0 -1
BITMAP
A0
40
A0
ENDCHAR
STARTCHAR 04B4
ENCODING 1204
SWIDTH 720 0
DWIDTH 5 0
BBX 4 5 1 -1
BITMAP
E0
A0
A0
F0
10
ENDCHAR
STARTCHAR 04B5
ENCODING 1205
SWIDTH 576 0
DWIDTH 4 0
BBX 3 4 1 -1
BITMAP
C0
C0
E0
20
ENDCHAR
STARTCHAR 04B6
ENCODING 1206
SWIDTH 576 0
DWIDTH 4 0
BBX 4 5 0 -1
BITMAP
A0
60
20
10
10
ENDCHAR
STARTCHAR 04B7
ENCODING 1207
SWIDTH 432 0
DWIDTH 3 0
BBX 3 3 0 -1
BITMAP
A0
60
20
ENDCHAR
STARTCHAR 04B8
ENCODING 1208
SWIDTH 432 0
DWIDTH 3 0
BBX 3 4 0 0
BITMAP
A0
A0
60
20
ENDCHAR
STARTCHAR 04B9
ENCODING 1209
SWIDTH 288 0
DWIDTH 2 0
BBX 3 3 0 0
BITMAP
A0
60
20
ENDCHAR
STARTCHAR 04BA
ENCODING 1210
SWIDTH 432 0
DWIDTH 3 0
BBX 3 4 0 0
BITMAP
80
E0
A0
A0
ENDCHAR
STARTCHAR 04BB
ENCODING 1211
SWIDTH 432 0
DWIDTH 3 0
BBX 3 4 0 0
BITMAP
80
E0
A0
A0
ENDCHAR
STARTCHAR 04BC
ENCODING 1212
SWIDTH 720 0
DWIDTH 5 0
BBX 5 5 0 0
BITMAP
10
28
C8
70
38
ENDCHAR
STARTCHAR 04BD
ENCODING 1213
SWIDTH 576 0
DWIDTH 4 0
BBX 4 3 0 0
BITMAP
F0
70
30
ENDCHAR
STARTCHAR 04BE
ENCODING 1214
SWIDTH 720 0
DWIDTH 5 0
BBX 5 6 0 -1
BITMAP
10
28
C8
70
28
10
ENDCHAR
STARTCHAR 04BF
ENCODING 1215
SWIDTH 576 0
DWIDTH 4 0
BBX 4 3 0 -1
BITMAP
F0
70
30
ENDCHAR
STARTCHAR 04C0
ENCODING 1216
SWIDTH 288 0
DWIDTH 2 0
BBX 2 4 0 0
BITMAP
80
80
80
C0
ENDCHAR
STARTCHAR 04C1
ENCODING 1217
SWIDTH 864 0
DWIDTH 6 0
BBX 6 6 0 0
BITMAP
20
04
68
68
78
A4
ENDCHAR
STARTCHAR 04C2
ENCODING 1218
SWIDTH 576 0
DWIDTH 4 0
BBX 4 3 0 1
BITMAP
70
70
B0
ENDCHAR
STARTCHAR 04C3
ENCODING 1219
SWIDTH 432 0
DWIDTH 3 0
BBX 3 5 0 0
BITMAP
E0
E0
A0
A0
E0
ENDCHAR
STARTCHAR 04C4
ENCODING 1220
SWIDTH 288 0
DWIDTH 2 0
BBX 2 4 0 -1
BITMAP
C0
C0
C0
C0
ENDCHAR
STARTCHAR 04C5
ENCODING 1221
SWIDTH 432 0
DWIDTH 3 0
BBX 3 4 0 -1
BITMAP
E0
A0
A0
A0
ENDCHAR
STARTCHAR 04C6
ENCODING 1222
SWIDTH 432 0
DWIDTH 3 0
BBX 3 3 0 -1
BITMAP
E0
A0
A0
ENDCHAR
STARTCHAR 04C7
ENCODING 1223
SWIDTH 432 0
DWIDTH 3 0
BBX 3 5 0 -1
BITMAP
A0
A0
E0
A0
20
ENDCHAR
STARTCHAR 04C8
ENCODING 1224
SWIDTH 432 0
DWIDTH 3 0
BBX 3 4 0 -1
BITMAP
A0
E0
A0
20
ENDCHAR
STARTCHAR 04C9
ENCODING 1225
SWIDTH 432 0
DWIDTH 3 0
BBX 3 4 0 -1
BITMAP
A0
A0
E0
A0
ENDCHAR
STARTCHAR 04CA
ENCODING 1226
SWIDTH 432 0
DWIDTH 3 0
BBX 3 4 0 -1
BITMAP
A0
E0
A0
20
ENDCHAR
STARTCHAR 04CB
ENCODING 1227
SWIDTH 576 0
DWIDTH 4 0
BBX 3 5 0 -1
BITMAP
A0
60
20
20
20
ENDCHAR
STARTCHAR 04CC
ENCODING 1228
SWIDTH 288 0
DWIDTH 2 0
BBX 3 3 0 -1
BITMAP
A0
60
20
ENDCHAR
STARTCHAR 04CD
ENCODING 1229
SWIDTH 576 0
DWIDTH 4 0
BBX 4 4 0 -1
BITMAP
90
F0
F0
B0
ENDCHAR
STARTCHAR 04CE
ENCODING 1230
SWIDTH 432 0
DWIDTH 3 0
BBX 3 3 0 -1
BITMAP
A0
A0
E0
ENDCHAR
STARTCHAR 04CF
ENCODING 1231
SWIDTH 144 0
DWIDTH 1 0
BBX 1 4 0 0
BITMAP
80
80
80
80
ENDCHAR
STARTCHAR 04D0
ENCODING 1232
SWIDTH 576 0
DWIDTH 4 0
BBX 4 6 0 0
BITMAP
40
00
20
60
90
90
ENDCHAR
STARTCHAR 04D1
ENCODING 1233
SWIDTH 288 0
DWIDTH 2 0
BBX 2 3 0 1
BITMAP
40
40
C0
ENDCHAR
STARTCHAR 04D2
ENCODING 1234
SWIDTH 576 0
DWIDTH 4 0
BBX 4 6 0 0
BITMAP
60
00
20
60
90
90
ENDCHAR
STARTCHAR 04D3
ENCODING 1235
SWIDTH 288 0
DWIDTH 2 0
BBX 2 3 0 1
BITMAP
40
40
C0
ENDCHAR
STARTCHAR 04D4
ENCODING 1236
SWIDTH 720 0
DWIDTH 5 0
BBX 5 4 0 0
BITMAP
70
60
B0
98
ENDCHAR
STARTCHAR 04D5
ENCODING 1237
SWIDTH 720 0
DWIDTH 5 0
BBX 5 3 0 0
BITMAP
70
78
F0
ENDCHAR
STARTCHAR 04D6
ENCODING 1238
SWIDTH 432 0
DWIDTH 3 0
BBX 3 6 0 0
BITMAP
20
00
E0
80
C0
E0
ENDCHAR
STARTCHAR 04D7
ENCODING 1239
SWIDTH 432 0
DWIDTH 3 0
BBX 3 3 0 1
BITMAP
E0
E0
E0
ENDCHAR
STARTCHAR 04D8
ENCODING 1240
SWIDTH 576 0
DWIDTH 4 0
BBX 4 5 0 0
BITMAP
20
50
10
F0
60
ENDCHAR
STARTCHAR 04D9
ENCODING 1241
SWIDTH 432 0
DWIDTH 3 0
BBX 3 3 0 0
BITMAP
60
E0
E0
ENDCHAR
STARTCHAR 04DA
ENCODING 1242
SWIDTH 576 0
DWIDTH 4 0
BBX 4 6 0 0
BITMAP
60
20
50
10
F0
60
ENDCHAR
STARTCHAR 04DB
ENCODING 1243
SWIDTH 432 0
DWIDTH 3 0
BBX 3 3 0 1
BITMAP
60
E0
E0
ENDCHAR
STARTCHAR 04DC
ENCODING 1244
SWIDTH 864 0
DWIDTH 6 0
BBX 6 6 0 0
BITMAP
30
04
68
68
78
A4
ENDCHAR
STARTCHAR 04DD
ENCODING 1245
SWIDTH 576 0
DWIDTH 4 0
BBX 4 3 0 1
BITMAP
70
70
B0
ENDCHAR
STARTCHAR 04DE
ENCODING 1246
SWIDTH 432 0
DWIDTH 3 0
BBX 3 6 0 0
BITMAP
20
40
A0
60
20
E0
ENDCHAR
STARTCHAR 04DF
ENCODING 1247
SWIDTH 288 0
DWIDTH 2 0
BBX 2 3 0 1
BITMAP
40
40
C0
ENDCHAR
STARTCHAR 04E0
ENCODING 1248
SWIDTH 432 0
DWIDTH 3 0
BBX 3 4 0 0
BITMAP
60
20
20
E0
ENDCHAR
STARTCHAR 04E1
ENCODING 1249
SWIDTH 432 0
DWIDTH 3 0
BBX 2 4 1 -1
BITMAP
C0
80
40
C0
ENDCHAR
STARTCHAR 04E2
ENCODING 1250
SWIDTH 432 0
DWIDTH 3 0
BBX 3 5 0 0
BITMAP
40
A0
E0
A0
A0
ENDCHAR
STARTCHAR 04E3
ENCODING 1251
SWIDTH 432 0
DWIDTH 3 0
BBX 3 4 0 0
BITMAP
40
A0
E0
A0
ENDCHAR
STARTCHAR 04E4
ENCODING 1252
SWIDTH 432 0
DWIDTH 3 0
BBX 3 6 0 0
BITMAP
60
00
A0
E0
A0
A0
ENDCHAR
STARTCHAR 04E5
ENCODING 1253
SWIDTH 432 0
DWIDTH 3 0
BBX 3 3 0 1
BITMAP
A0
E0
A0
ENDCHAR
STARTCHAR 04E6
ENCODING 1254
SWIDTH 576 0
DWIDTH 4 0
BBX 4 6 0 0
BITMAP
60
20
D0
90
90
60
ENDCHAR
STARTCHAR 04E7
ENCODING 1255
SWIDTH 432 0
DWIDTH 3 0
BBX 3 3 0 1
BITMAP
E0
A0
E0
ENDCHAR
STARTCHAR 04E8
ENCODING 1256
SWIDTH 576 0
DWIDTH 4 0
BBX 4 5 0 0
BITMAP
20
D0
90
F0
60
ENDCHAR
STARTCHAR 04E9
ENCODING 1257
SWIDTH 432 0
DWIDTH 3 0
BBX 3 3 0 0
BITMAP
E0
E0
E0
ENDCHAR
STARTCHAR 04EA
ENCODING 1258
SWIDTH 576 0
DWIDTH 4 0
BBX 4 6 0 0
BITMAP
60
20
D0
90
F0
60
ENDCHAR
STARTCHAR 04EB
ENCODING 1259
SWIDTH 432 0
DWIDTH 3 0
BBX 3 3 0 1
BITMAP
E0
E0
E0
ENDCHAR
STARTCHAR 04EC
ENCODING 1260
SWIDTH 576 0
DWIDTH 4 0
BBX 4 6 0 0
BITMAP
60
00
E0
10
30
60
ENDCHAR
STARTCHAR 04ED
ENCODING 1261
SWIDTH 432 0
DWIDTH 3 0
BBX 3 3 0 1
BITMAP
E0
60
E0
ENDCHAR
STARTCHAR 04EE
ENCODING 1262
SWIDTH 432 0
DWIDTH 3 0
BBX 3 5 0 0
BITMAP
20
60
60
40
C0
ENDCHAR
STARTCHAR 04EF
ENCODING 1263
SWIDTH 432 0
DWIDTH 3 0
BBX 3 5 0 -1
BITMAP
40
A0
A0
40
40
ENDCHAR
STARTCHAR 04F0
ENCODING 1264
SWIDTH 432 0
DWIDTH 3 0
BBX 3 6 0 0
BITMAP
60
00
60
60
40
C0
ENDCHAR
STARTCHAR 04F1
ENCODING 1265
SWIDTH 432 0
DWIDTH 3 0
BBX 3 4 0 0
BITMAP
A0
A0
40
40
ENDCHAR
STARTCHAR 04F2
ENCODING 1266
SWIDTH 432 0
DWIDTH 3 0
BBX 3 4 0 2
BITMAP
60
60
40
C0
ENDCHAR
STARTCHAR 04F3
ENCODING 1267
SWIDTH 432 0
DWIDTH 3 0
BBX 3 4 0 0
BITMAP
A0
A0
40
40
ENDCHAR
STARTCHAR 04F4
ENCODING 1268
SWIDTH 432 0
DWIDTH 3 0
BBX 3 6 0 0
BITMAP
60
00
A0
A0
60
20
ENDCHAR
STARTCHAR 04F5
ENCODING 1269
SWIDTH 288 0
DWIDTH 2 0
BBX 3 3 0 1
BITMAP
A0
60
20
ENDCHAR
STARTCHAR 04F6
ENCODING 1270
SWIDTH 432 0
DWIDTH 3 0
BBX 3 4 0 -1
BITMAP
E0
80
80
80
ENDCHAR
STARTCHAR 04F7
ENCODING 1271
SWIDTH 288 0
DWIDTH 2 0
BBX 2 3 0 -1
BITMAP
C0
80
80
ENDCHAR
STARTCHAR 04F8
ENCODING 1272
SWIDTH 576 0
DWIDTH 4 0
BBX 4 6 0 0
BITMAP
60
00
90
D0
B0
F0
ENDCHAR
STARTCHAR 04F9
ENCODING 1273
SWIDTH 432 0
DWIDTH 3 0
BBX 3 3 0 1
BITMAP
A0
E0
E0
ENDCHAR
STARTCHAR 04FA
ENCODING 1274
SWIDTH 576 0
DWIDTH 4 0
BBX 3 5 0 -1
BITMAP
E0
80
C0
40
40
ENDCHAR
STARTCHAR 04FB
ENCODING 1275
SWIDTH 432 0
DWIDTH 3 0
BBX 2 4 0 -1
BITMAP
C0
C0
40
40
ENDCHAR
STARTCHAR 04FC
ENCODING 1276
SWIDTH 576 0
DWIDTH 4 0
BBX 4 5 0 -1
BITMAP
70
20
60
90
10
ENDCHAR
STARTCHAR 04FD
ENCODING 1277
SWIDTH 432 0
DWIDTH 3 0
BBX 3 4 0 -1
BITMAP
A0
40
A0
20
ENDCHAR
STARTCHAR 04FE
ENCODING 1278
SWIDTH 576 0
DWIDTH 4 0
BBX 4 4 0 0
BITMAP
70
20
60
90
ENDCHAR
STARTCHAR 04FF
ENCODING 1279
SWIDTH 432 0
DWIDTH 3 0
BBX 3 3 0 0
BITMAP
A0
E0
A0
ENDCHAR
STARTCHAR 0500
ENCODING 1280
SWIDTH 432 0
DWIDTH 3 0
BBX 3 4 0 0
BITMAP
20
E0
A0
60
ENDCHAR
STARTCHAR 0501
ENCODING 1281
SWIDTH 432 0
DWIDTH 3 0
BBX 3 4 0 0
BITMAP
20
E0
A0
E0
ENDCHAR
STARTCHAR 0502
ENCODING 1282
SWIDTH 720 0
DWIDTH 5 0
BBX 5 4 0 0
BITMAP
20
E0
A8
70
ENDCHAR
STARTCHAR 0503
ENCODING 1283
SWIDTH 720 0
DWIDTH 5 0
BBX 4 4 0 0
BITMAP
20
E0
B0
F0
ENDCHAR
STARTCHAR 0504
ENCODING 1284
SWIDTH 720 0
DWIDTH 5 0
BBX 5 5 0 0
BITMAP
40
A0
60
28
30
ENDCHAR
STARTCHAR 0505
ENCODING 1285
SWIDTH 576 0
DWIDTH 4 0
BBX 4 3 0 0
BITMAP
C0
50
60
ENDCHAR
STARTCHAR 0506
ENCODING 1286
SWIDTH 576 0
DWIDTH 4 0
BBX 4 6 0 -1
BITMAP
40
A0
60
20
10
10
ENDCHAR
STARTCHAR 0507
ENCODING 1287
SWIDTH 432 0
DWIDTH 3 0
BBX 3 4 0 -1
BITMAP
C0
40
20
20
ENDCHAR
STARTCHAR 0508
ENCODING 1288
SWIDTH 720 0
DWIDTH 5 0
BBX 5 4 0 0
BITMAP
E0
A0
A8
98
ENDCHAR
STARTCHAR 0509
ENCODING 1289
SWIDTH 720 0
DWIDTH 5 0
BBX 4 3 0 0
BITMAP
E0
B0
B0
ENDCHAR
STARTCHAR 050A
ENCODING 1290
SWIDTH 720 0
DWIDTH 5 0
BBX 5 4 0 0
BITMAP
A0
A0
E8
B0
ENDCHAR
STARTCHAR 050B
ENCODING 1291
SWIDTH 576 0
DWIDTH 4 0
BBX 4 3 0 0
BITMAP
A0
F0
B0
ENDCHAR
STARTCHAR 050C
ENCODING 1292
SWIDTH 576 0
DWIDTH 4 0
BBX 4 5 0 0
BITMAP
20
D0
80
90
60
ENDCHAR
STARTCHAR 050D
ENCODING 1293
SWIDTH 432 0
DWIDTH 3 0
BBX 3 3 0 0
BITMAP
E0
A0
E0
ENDCHAR
STARTCHAR 050E
ENCODING 1294
SWIDTH 576 0
DWIDTH 4 0
BBX 2 4 1 0
BITMAP
C0
80
C0
C0
ENDCHAR
STARTCHAR 050F
ENCODING 1295
SWIDTH 432 0
DWIDTH 3 0
BBX 2 3 1 0
BITMAP
80
C0
C0
ENDCHAR
STARTCHAR 0510
ENCODING 1296
SWIDTH 432 0
DWIDTH 3 0
BBX 3 5 0 0
BITMAP
40
A0
40
80
E0
ENDCHAR
STARTCHAR 0511
ENCODING 1297
SWIDTH 288 0
DWIDTH 2 0
BBX 2 3 0 0
BITMAP
C0
40
C0
ENDCHAR
STARTCHAR 0512
ENCODING 1298
SWIDTH 432 0
DWIDTH 3 0
BBX 3 5 0 -1
BITMAP
E0
A0
A0
A0
20
ENDCHAR
STARTCHAR 0513
ENCODING 1299
SWIDTH 432 0
DWIDTH 3 0
BBX 3 4 0 -1
BITMAP
E0
A0
A0
20
ENDCHAR
STARTCHAR 0514
ENCODING 1300
SWIDTH 864 0
DWIDTH 6 0
BBX 5 4 0 0
BITMAP
E8
90
98
A8
ENDCHAR
STARTCHAR 0515
ENCODING 1301
SWIDTH 576 0
DWIDTH 4 0
BBX 4 3 0 0
BITMAP
F0
90
B0
ENDCHAR
STARTCHAR 0516
ENCODING 1302
SWIDTH 576 0
DWIDTH 4 0
BBX 4 4 0 0
BITMAP
F0
A0
E0
90
ENDCHAR
STARTCHAR 0517
ENCODING 1303
SWIDTH 576 0
DWIDTH 4 0
BBX 4 4 0 -2
BITMAP
F0
A0
B0
C0
ENDCHAR
STARTCHAR 0518
ENCODING 1304
SWIDTH 864 0
DWIDTH 6 0
BBX 6 4 0 0
BITMAP
F8
60
78
9C
ENDCHAR
STARTCHAR 0519
ENCODING 1305
SWIDTH 720 0
DWIDTH 5 0
BBX 5 3 0 0
BITMAP
F8
78
B0
ENDCHAR
STARTCHAR 051A
ENCODING 1306
SWIDTH 576 0
DWIDTH 4 0
BBX 4 5 0 0
BITMAP
20
D0
90
B0
70
ENDCHAR
STARTCHAR 051B
ENCODING 1307
SWIDTH 432 0
DWIDTH 3 0
BBX 3 4 0 -2
BITMAP
E0
A0
A0
60
ENDCHAR
STARTCHAR 051C
ENCODING 1308
SWIDTH 864 0
DWIDTH 6 0
BBX 5 4 0 0
BITMAP
B8
B8
48
48
ENDCHAR
STARTCHAR 051D
ENCODING 1309
SWIDTH 576 0
DWIDTH 4 0
BBX 4 3 0 0
BITMAP
B0
B0
50
ENDCHAR
STARTCHAR 051E
ENCODING 1310
SWIDTH 432 0
DWIDTH 3 0
BBX 3 4 0 1
BITMAP
A0
C0
C0
A0
ENDCHAR
STARTCHAR 051F
ENCODING 1311
SWIDTH 432 0
DWIDTH 3 0
BBX 3 3 0 0
BITMAP
C0
C0
A0
ENDCHAR
STARTCHAR 0520
ENCODING 1312
SWIDTH 720 0
DWIDTH 5 0
BBX 5 5 0 -1
BITMAP
E0
B8
A8
A8
38
ENDCHAR
STARTCHAR 0521
ENCODING 1313
SWIDTH 576 0
DWIDTH 4 0
BBX 5 4 0 -1
BITMAP
E0
90
A8
30
ENDCHAR
STARTCHAR 0522
ENCODING 1314
SWIDTH 720 0
DWIDTH 5 0
BBX 5 5 0 -1
BITMAP
A0
B8
E8
A8
38
ENDCHAR
STARTCHAR 0523
ENCODING 1315
SWIDTH 576 0
DWIDTH 4 0
BBX 4 4 0 -1
BITMAP
A0
F0
B0
30
ENDCHAR
STARTCHAR 0524
ENCODING 1316
SWIDTH 576 0
DWIDTH 4 0
BBX 4 5 0 -1
BITMAP
E0
A0
A0
90
10
ENDCHAR
STARTCHAR 0525
ENCODING 1317
SWIDTH 432 0
DWIDTH 3 0
BBX 3 3 0 -1
BITMAP
E0
A0
A0
ENDCHAR
STARTCHAR 0526
ENCODING 1318
SWIDTH 576 0
DWIDTH 4 0
BBX 4 5 0 -1
BITMAP
80
E0
A0
90
10
ENDCHAR
STARTCHAR 0527
ENCODING 1319
SWIDTH 432 0
DWIDTH 3 0
BBX 4 5 0 -1
BITMAP
80
E0
A0
90
10
ENDCHAR
STARTCHAR 0528
ENCODING 1320
SWIDTH 432 0
DWIDTH 3 0
BBX 3 5 0 -1
BITMAP
A0
A0
E0
A0
80
ENDCHAR
STARTCHAR 0529
ENCODING 1321
SWIDTH 432 0
DWIDTH 3 0
BBX 3 4 0 -1
BITMAP
A0
E0
A0
80
ENDCHAR
STARTCHAR 052A
ENCODING 1322
SWIDTH 1152 0
DWIDTH 8 0
BBX 7 5 0 0
BITMAP
7A
5C
5A
FA
80
ENDCHAR
STARTCHAR 052B
ENCODING 1323
SWIDTH 864 0
DWIDTH 6 0
BBX 6 4 0 -1
BITMAP
6C
5C
FC
90
ENDCHAR
STARTCHAR 052C
ENCODING 1324
SWIDTH 576 0
DWIDTH 4 0
BBX 4 5 0 -1
BITMAP
90
70
50
F0
80
ENDCHAR
STARTCHAR 052D
ENCODING 1325
SWIDTH 576 0
DWIDTH 4 0
BBX 4 4 0 -1
BITMAP
60
60
F0
90
ENDCHAR
STARTCHAR 052E
ENCODING 1326
SWIDTH 576 0
DWIDTH 4 0
BBX 4 5 0 -1
BITMAP
E0
A0
A0
90
10
ENDCHAR
STARTCHAR 052F
ENCODING 1327
SWIDTH 432 0
DWIDTH 3 0
BBX 4 4 0 -1
BITMAP
E0
A0
90
10
ENDCHAR
STARTCHAR 0531
ENCODING 1329
SWIDTH 720 0
DWIDTH 5 0
BBX 5 4 0 0
BITMAP
90
90
98
68
ENDCHAR
STARTCHAR 0532
ENCODING 1330
SWIDTH 432 0
DWIDTH 3 0
BBX 3 4 0 0
BITMAP
E0
80
C0
80
ENDCHAR
STARTCHAR 0533
ENCODING 1331
SWIDTH 576 0
DWIDTH 4 0
BBX 4 4 0 0
BITMAP
E0
70
20
20
ENDCHAR
STARTCHAR 0534
ENCODING 1332
SWIDTH 576 0
DWIDTH 4 0
BBX 4 4 0 0
BITMAP
E0
30
20
20
ENDCHAR
STARTCHAR 0535
ENCODING 1333
SWIDTH 576 0
DWIDTH 4 0
BBX 4 4 0 0
BITMAP
80
E0
90
60
ENDCHAR
STARTCHAR 0536
ENCODING 1334
SWIDTH 576 0
DWIDTH 4 0
BBX 4 4 0 1
BITMAP
E0
60
20
F0
ENDCHAR
STARTCHAR 0537
ENCODING 1335
SWIDTH 432 0
DWIDTH 3 0
BBX 3 4 0 0
BITMAP
80
E0
80
E0
ENDCHAR
STARTCHAR 0538
ENCODING 1336
SWIDTH 432 0
DWIDTH 3 0
BBX 3 4 0 0
BITMAP
E0
80
80
E0
ENDCHAR
STARTCHAR 0539
ENCODING 1337
SWIDTH 432 0
DWIDTH 3 0
BBX 3 4 0 0
BITMAP
E0
E0
80
80
ENDCHAR
STARTCHAR 053A
ENCODING 1338
SWIDTH 432 0
DWIDTH 3 0
BBX 4 4 0 0
BITMAP
20
70
A0
60
ENDCHAR
STARTCHAR 053B
ENCODING 1339
SWIDTH 432 0
DWIDTH 3 0
BBX 3 4 0 0
BITMAP
80
C0
A0
80
ENDCHAR
STARTCHAR 053C
ENCODING 1340
SWIDTH 432 0
DWIDTH 3 0
BBX 3 4 0 0
BITMAP
80
80
80
E0
ENDCHAR
STARTCHAR 053D
ENCODING 1341
SWIDTH 576 0
DWIDTH 4 0
BBX 4 4 0 0
BITMAP
80
D0
B0
80
ENDCHAR
STARTCHAR 053E
ENCODING 1342
SWIDTH 720 0
DWIDTH 5 0
BBX 4 4 1 0
BITMAP
F0
90
90
E0
ENDCHAR
STARTCHAR 053F
ENCODING 1343
SWIDTH 432 0
DWIDTH 3 0
BBX 3 4 0 0
BITMAP
80
A0
60
20
ENDCHAR
STARTCHAR 0540
ENCODING 1344
SWIDTH 432 0
DWIDTH 3 0
BBX 2 4 1 0
BITMAP
80
40
80
C0
ENDCHAR
STARTCHAR 0541
ENCODING 1345
SWIDTH 432 0
DWIDTH 3 0
BBX 3 5 0 0
BITMAP
40
A0
A0
60
E0
ENDCHAR
STARTCHAR 0542
ENCODING 1346
SWIDTH 576 0
DWIDTH 4 0
BBX 4 4 0 0
BITMAP
E0
20
20
30
ENDCHAR
STARTCHAR 0543
ENCODING 1347
SWIDTH 432 0
DWIDTH 3 0
BBX 3 5 0 0
BITMAP
20
C0
C0
A0
E0
ENDCHAR
STARTCHAR 0544
ENCODING 1348
SWIDTH 720 0
DWIDTH 5 0
BBX 5 4 0 0
BITMAP
98
90
90
60
ENDCHAR
STARTCHAR 0545
ENCODING 1349
SWIDTH 576 0
DWIDTH 4 0
BBX 3 4 1 1
BITMAP
E0
C0
20
C0
ENDCHAR
STARTCHAR 0546
ENCODING 1350
SWIDTH 720 0
DWIDTH 5 0
BBX 4 4 1 0
BITMAP
80
80
90
60
ENDCHAR
STARTCHAR 0547
ENCODING 1351
SWIDTH 576 0
DWIDTH 4 0
BBX 4 5 0 0
BITMAP
40
60
80
80
70
ENDCHAR
STARTCHAR 0548
ENCODING 1352
SWIDTH 576 0
DWIDTH 4 0
BBX 4 4 0 1
BITMAP
F0
90
90
90
ENDCHAR
STARTCHAR 0549
ENCODING 1353
SWIDTH 576 0
DWIDTH 4 0
BBX 4 4 0 1
BITMAP
E0
60
20
70
ENDCHAR
STARTCHAR 054A
ENCODING 1354
SWIDTH 576 0
DWIDTH 4 0
BBX 4 4 0 1
BITMAP
F0
50
10
10
ENDCHAR
STARTCHAR 054B
ENCODING 1355
SWIDTH 576 0
DWIDTH 4 0
BBX 4 4 0 1
BITMAP
E0
60
20
F0
ENDCHAR
STARTCHAR 054C
ENCODING 1356
SWIDTH 720 0
DWIDTH 5 0
BBX 5 4 0 1
BITMAP
F0
98
98
90
ENDCHAR
STARTCHAR 054D
ENCODING 1357
SWIDTH 576 0
DWIDTH 4 0
BBX 4 4 0 0
BITMAP
90
90
90
60
ENDCHAR
STARTCHAR 054E
ENCODING 1358
SWIDTH 720 0
DWIDTH 5 0
BBX 5 4 0 0
BITMAP
20
A0
60
18
ENDCHAR
STARTCHAR 054F
ENCODING 1359
SWIDTH 432 0
DWIDTH 3 0
BBX 3 5 0 0
BITMAP
40
A0
40
20
E0
ENDCHAR
STARTCHAR 0550
ENCODING 1360
SWIDTH 432 0
DWIDTH 3 0
BBX 3 5 0 0
BITMAP
40
A0
80
80
80
ENDCHAR
STARTCHAR 0551
ENCODING 1361
SWIDTH 576 0
DWIDTH 4 0
BBX 4 4 0 1
BITMAP
F0
E0
10
60
ENDCHAR
STARTCHAR 0552
ENCODING 1362
SWIDTH 432 0
DWIDTH 3 0
BBX 3 4 0 0
BITMAP
80
E0
80
80
ENDCHAR
STARTCHAR 0553
ENCODING 1363
SWIDTH 576 0
DWIDTH 4 0
BBX 4 4 0 0
BITMAP
60
D0
E0
40
ENDCHAR
STARTCHAR 0554
ENCODING 1364
SWIDTH 432 0
DWIDTH 3 0
BBX 4 5 0 0
BITMAP
20
D0
60
80
E0
ENDCHAR
STARTCHAR 0555
ENCODING 1365
SWIDTH 576 0
DWIDTH 4 0
BBX 4 5 0 0
BITMAP
20
D0
90
90
60
ENDCHAR
STARTCHAR 0556
ENCODING 1366
SWIDTH 576 0
DWIDTH 4 0
BBX 4 4 0 0
BITMAP
C0
70
D0
70
ENDCHAR
STARTCHAR 0559
ENCODING 1369
SWIDTH 144 0
DWIDTH 1 0
BBX 1 1 0 4
BITMAP
80
ENDCHAR
STARTCHAR 055A
ENCODING 1370
SWIDTH 144 0
DWIDTH 1 0
BBX 0 0 0 3
BITMAP
ENDCHAR
STARTCHAR 055B
ENCODING 1371
SWIDTH 144 0
DWIDTH 1 0
BBX 1 1 0 3
BITMAP
80
ENDCHAR
STARTCHAR 055C
ENCODING 1372
SWIDTH 432 0
DWIDTH 3 0
BBX 1 1 1 3
BITMAP
80
ENDCHAR
STARTCHAR 055D
ENCODING 1373
SWIDTH 144 0
DWIDTH 1 0
BBX 1 1 1 3
BITMAP
80
ENDCHAR
STARTCHAR 055E
ENCODING 1374
SWIDTH 432 0
DWIDTH 3 0
BBX 3 2 0 3
BITMAP
40
A0
ENDCHAR
STARTCHAR 055F
ENCODING 1375
SWIDTH 288 0
DWIDTH 2 0
BBX 1 1 1 3
BITMAP
80
ENDCHAR
STARTCHAR 0560
ENCODING 1376
SWIDTH 576 0
DWIDTH 4 0
BBX 4 3 0 0
BITMAP
F0
D0
D0
ENDCHAR
STARTCHAR 0561
ENCODING 1377
SWIDTH 576 0
DWIDTH 4 0
BBX 4 3 0 0
BITMAP
D0
D0
70
ENDCHAR
STARTCHAR 0562
ENCODING 1378
SWIDTH 432 0
DWIDTH 3 0
BBX 3 4 0 -2
BITMAP
E0
80
E0
80
ENDCHAR
STARTCHAR 0563
ENCODING 1379
SWIDTH 576 0
DWIDTH 4 0
BBX 4 4 0 -2
BITMAP
E0
A0
B0
60
ENDCHAR
STARTCHAR 0564
ENCODING 1380
SWIDTH 576 0
DWIDTH 4 0
BBX 4 4 0 -2
BITMAP
E0
A0
90
20
ENDCHAR
STARTCHAR 0565
ENCODING 1381
SWIDTH 432 0
DWIDTH 3 0
BBX 3 4 0 0
BITMAP
E0
80
A0
E0
ENDCHAR
STARTCHAR 0566
ENCODING 1382
SWIDTH 432 0
DWIDTH 3 0
BBX 4 4 0 -1
BITMAP
E0
A0
A0
70
ENDCHAR
STARTCHAR 0567
ENCODING 1383
SWIDTH 288 0
DWIDTH 2 0
BBX 2 4 0 0
BITMAP
80
C0
80
C0
ENDCHAR
STARTCHAR 0568
ENCODING 1384
SWIDTH 432 0
DWIDTH 3 0
BBX 3 4 0 -1
BITMAP
E0
A0
A0
E0
ENDCHAR
STARTCHAR 0569
ENCODING 1385
SWIDTH 432 0
DWIDTH 3 0
BBX 3 4 0 -2
BITMAP
E0
A0
A0
80
ENDCHAR
STARTCHAR 056A
ENCODING 1386
SWIDTH 432 0
DWIDTH 3 0
BBX 3 4 0 0
BITMAP
20
E0
A0
E0
ENDCHAR
STARTCHAR 056B
ENCODING 1387
SWIDTH 432 0
DWIDTH 3 0
BBX 3 5 0 -2
BITMAP
80
E0
A0
A0
80
ENDCHAR
STARTCHAR 056C
ENCODING 1388
SWIDTH 288 0
DWIDTH 2 0
BBX 2 4 0 -1
BITMAP
80
80
80
C0
ENDCHAR
STARTCHAR 056D
ENCODING 1389
SWIDTH 432 0
DWIDTH 3 0
BBX 4 5 0 -2
BITMAP
80
D0
D0
D0
A0
ENDCHAR
STARTCHAR 056E
ENCODING 1390
SWIDTH 432 0
DWIDTH 3 0
BBX 3 4 0 1
BITMAP
40
A0
A0
E0
ENDCHAR
STARTCHAR 056F
ENCODING 1391
SWIDTH 432 0
DWIDTH 3 0
BBX 3 5 0 -2
BITMAP
80
A0
A0
A0
60
ENDCHAR
STARTCHAR 0570
ENCODING 1392
SWIDTH 432 0
DWIDTH 3 0
BBX 3 4 0 0
BITMAP
80
E0
A0
A0
ENDCHAR
STARTCHAR 0571
ENCODING 1393
SWIDTH 432 0
DWIDTH 3 0
BBX 3 4 0 1
BITMAP
40
40
A0
E0
ENDCHAR
STARTCHAR 0572
ENCODING 1394
SWIDTH 432 0
DWIDTH 3 0
BBX 4 4 0 -1
BITMAP
E0
A0
A0
30
ENDCHAR
STARTCHAR 0573
ENCODING 1395
SWIDTH 576 0
DWIDTH 4 0
BBX 4 5 0 0
BITMAP
20
50
A0
E0
70
ENDCHAR
STARTCHAR 0574
ENCODING 1396
SWIDTH 432 0
DWIDTH 3 0
BBX 3 5 0 0
BITMAP
20
40
A0
A0
E0
ENDCHAR
STARTCHAR 0575
ENCODING 1397
SWIDTH 144 0
DWIDTH 1 0
BBX 1 4 0 -1
BITMAP
80
80
80
80
ENDCHAR
STARTCHAR 0576
ENCODING 1398
SWIDTH 576 0
DWIDTH 4 0
BBX 3 4 1 0
BITMAP
80
A0
A0
E0
ENDCHAR
STARTCHAR 0577
ENCODING 1399
SWIDTH 432 0
DWIDTH 3 0
BBX 3 4 0 -1
BITMAP
E0
20
40
C0
ENDCHAR
STARTCHAR 0578
ENCODING 1400
SWIDTH 432 0
DWIDTH 3 0
BBX 3 3 0 0
BITMAP
E0
A0
A0
ENDCHAR
STARTCHAR 0579
ENCODING 1401
SWIDTH 432 0
DWIDTH 3 0
BBX 2 4 0 -1
BITMAP
40
40
40
C0
ENDCHAR
STARTCHAR 057A
ENCODING 1402
SWIDTH 576 0
DWIDTH 4 0
BBX 4 4 0 -2
BITMAP
D0
D0
70
10
ENDCHAR
STARTCHAR 057B
ENCODING 1403
SWIDTH 432 0
DWIDTH 3 0
BBX 3 4 0 -1
BITMAP
E0
A0
40
C0
ENDCHAR
STARTCHAR 057C
ENCODING 1404
SWIDTH 432 0
DWIDTH 3 0
BBX 3 3 0 0
BITMAP
E0
A0
A0
ENDCHAR
STARTCHAR 057D
ENCODING 1405
SWIDTH 432 0
DWIDTH 3 0
BBX 3 3 0 0
BITMAP
A0
A0
E0
ENDCHAR
STARTCHAR 057E
ENCODING 1406
SWIDTH 432 0
DWIDTH 3 0
BBX 4 5 0 -1
BITMAP
20
A0
A0
A0
70
ENDCHAR
STARTCHAR 057F
ENCODING 1407
SWIDTH 720 0
DWIDTH 5 0
BBX 5 3 0 0
BITMAP
98
A8
E8
ENDCHAR
STARTCHAR 0580
ENCODING 1408
SWIDTH 432 0
DWIDTH 3 0
BBX 3 4 0 -2
BITMAP
E0
A0
A0
80
ENDCHAR
STARTCHAR 0581
ENCODING 1409
SWIDTH 432 0
DWIDTH 3 0
BBX 3 4 0 -1
BITMAP
E0
A0
A0
60
ENDCHAR
STARTCHAR 0582
ENCODING 1410
SWIDTH 288 0
DWIDTH 2 0
BBX 2 3 0 0
BITMAP
80
80
C0
ENDCHAR
STARTCHAR 0583
ENCODING 1411
SWIDTH 720 0
DWIDTH 5 0
BBX 5 5 0 -2
BITMAP
20
98
A8
A8
60
ENDCHAR
STARTCHAR 0584
ENCODING 1412
SWIDTH 432 0
DWIDTH 3 0
BBX 3 4 0 -2
BITMAP
E0
A0
C0
E0
ENDCHAR
STARTCHAR 0585
ENCODING 1413
SWIDTH 432 0
DWIDTH 3 0
BBX 3 3 0 0
BITMAP
E0
A0
E0
ENDCHAR
STARTCHAR 0586
ENCODING 1414
SWIDTH 432 0
DWIDTH 3 0
BBX 3 5 0 -2
BITMAP
40
60
E0
60
40
ENDCHAR
STARTCHAR 0587
ENCODING 1415
SWIDTH 576 0
DWIDTH 4 0
BBX 4 4 0 0
BITMAP
80
A0
A0
F0
ENDCHAR
STARTCHAR 0588
ENCODING 1416
SWIDTH 288 0
DWIDTH 2 0
BBX 2 4 0 -1
BITMAP
40
C0
40
C0
ENDCHAR
STARTCHAR 0589
ENCODING 1417
SWIDTH 144 0
DWIDTH 1 0
BBX 1 1 0 2
BITMAP
80
ENDCHAR
STARTCHAR 058A
ENCODING 1418
SWIDTH 288 0
DWIDTH 2 0
BBX 2 1 0 1
BITMAP
C0
ENDCHAR
STARTCHAR 058D
ENCODING 1421
SWIDTH 720 0
DWIDTH 5 0
BBX 5 5 0 0
BITMAP
20
78
B8
E8
F0
ENDCHAR
STARTCHAR 058E
ENCODING 1422
SWIDTH 720 0
DWIDTH 5 0
BBX 5 5 0 0
BITMAP
20
F8
F8
F8
F0
ENDCHAR
STARTCHAR 058F
ENCODING 1423
SWIDTH 576 0
DWIDTH 4 0
BBX 3 4 0 0
BITMAP
E0
20
60
20
ENDCHAR
STARTCHAR 0591
ENCODING 1425
SWIDTH 0 0
DWIDTH 0 0
BBX 2 1 -1 -1
BITMAP
C0
ENDCHAR
STARTCHAR 0592
ENCODING 1426
SWIDTH 0 0
DWIDTH 0 0
BBX 0 0 -1 4
BITMAP
ENDCHAR
STARTCHAR 0593
ENCODING 1427
SWIDTH 0 0
DWIDTH 0 0
BBX 2 2 -1 3
BITMAP
40
80
ENDCHAR
STARTCHAR 0594
ENCODING 1428
SWIDTH 0 0
DWIDTH 0 0
BBX 0 0 0 3
BITMAP
ENDCHAR
STARTCHAR 0595
ENCODING 1429
SWIDTH 0 0
DWIDTH 0 0
BBX 2 2 -1 3
BITMAP
80
C0
ENDCHAR
STARTCHAR 0596
ENCODING 1430
SWIDTH 0 0
DWIDTH 0 0
BBX 2 2 -1 -2
BITMAP
80
40
ENDCHAR
STARTCHAR 0597
ENCODING 1431
SWIDTH 0 0
DWIDTH 0 0
BBX 0 0 -1 3
BITMAP
ENDCHAR
STARTCHAR 0598
ENCODING 1432
SWIDTH 0 0
DWIDTH 0 0
BBX 2 2 -1 3
BITMAP
C0
C0
ENDCHAR
STARTCHAR 0599
ENCODING 1433
SWIDTH 0 0
DWIDTH 0 0
BBX 0 0 -1 3
BITMAP
ENDCHAR
STARTCHAR 059A
ENCODING 1434
SWIDTH 0 0
DWIDTH 0 0
BBX 1 1 0 -2
BITMAP
80
ENDCHAR
STARTCHAR 059B
ENCODING 1435
SWIDTH 0 0
DWIDTH 0 0
BBX 2 1 -1 -2
BITMAP
C0
ENDCHAR
STARTCHAR 059C
ENCODING 1436
SWIDTH 0 0
DWIDTH 0 0
BBX 2 2 -1 3
BITMAP
40
80
ENDCHAR
STARTCHAR 059D
ENCODING 1437
SWIDTH 0 0
DWIDTH 0 0
BBX 1 1 1 3
BITMAP
80
ENDCHAR
STARTCHAR 059E
ENCODING 1438
SWIDTH 0 0
DWIDTH 0 0
BBX 0 0 -1 3
BITMAP
ENDCHAR
STARTCHAR 059F
ENCODING 1439
SWIDTH 0 0
DWIDTH 0 0
BBX 4 1 -2 3
BITMAP
F0
ENDCHAR
STARTCHAR 05A0
ENCODING 1440
SWIDTH 0 0
DWIDTH 0 0
BBX 2 1 0 3
BITMAP
C0
ENDCHAR
STARTCHAR 05A1
ENCODING 1441
SWIDTH 0 0
DWIDTH 0 0
BBX 2 2 -1 3
BITMAP
C0
80
ENDCHAR
STARTCHAR 05A2
ENCODING 1442
SWIDTH 0 0
DWIDTH 0 0
BBX 0 0 -1 -2
BITMAP
ENDCHAR
STARTCHAR 05A3
ENCODING 1443
SWIDTH 0 0
DWIDTH 0 0
BBX 2 2 -1 -2
BITMAP
40
C0
ENDCHAR
STARTCHAR 05A4
ENCODING 1444
SWIDTH 0 0
DWIDTH 0 0
BBX 1 1 0 -2
BITMAP
80
ENDCHAR
STARTCHAR 05A5
ENCODING 1445
SWIDTH 0 0
DWIDTH 0 0
BBX 2 2 -1 -2
BITMAP
40
80
ENDCHAR
STARTCHAR 05A6
ENCODING 1446
SWIDTH 0 0
DWIDTH 0 0
BBX 0 0 -1 -2
BITMAP
ENDCHAR
STARTCHAR 05A7
ENCODING 1447
SWIDTH 0 0
DWIDTH 0 0
BBX 1 1 0 -1
BITMAP
80
ENDCHAR
STARTCHAR 05A8
ENCODING 1448
SWIDTH 0 0
DWIDTH 0 0
BBX 2 2 -1 3
BITMAP
80
40
ENDCHAR
STARTCHAR 05A9
ENCODING 1449
SWIDTH 0 0
DWIDTH 0 0
BBX 2 1 -2 3
BITMAP
C0
ENDCHAR
STARTCHAR 05AA
ENCODING 1450
SWIDTH 0 0
DWIDTH 0 0
BBX 0 0 -1 -1
BITMAP
ENDCHAR
STARTCHAR 05AB
ENCODING 1451
SWIDTH 0 0
DWIDTH 0 0
BBX 1 1 0 4
BITMAP
80
ENDCHAR
STARTCHAR 05AC
ENCODING 1452
SWIDTH 0 0
DWIDTH 0 0
BBX 2 2 -1 3
BITMAP
40
C0
ENDCHAR
STARTCHAR 05AD
ENCODING 1453
SWIDTH 0 0
DWIDTH 0 0
BBX 0 0 1 -2
BITMAP
ENDCHAR
STARTCHAR 05AE
ENCODING 1454
SWIDTH 0 0
DWIDTH 0 0
BBX 1 1 -1 4
BITMAP
80
ENDCHAR
STARTCHAR 05AF
ENCODING 1455
SWIDTH 0 0
DWIDTH 0 0
BBX 0 0 -1 3
BITMAP
ENDCHAR
STARTCHAR 05B0
ENCODING 1456
SWIDTH 0 0
DWIDTH 0 0
BBX 0 0 0 -2
BITMAP
ENDCHAR
STARTCHAR 05B1
ENCODING 1457
SWIDTH 0 0
DWIDTH 0 0
BBX 2 1 -2 -2
BITMAP
C0
ENDCHAR
STARTCHAR 05B2
ENCODING 1458
SWIDTH 0 0
DWIDTH 0 0
BBX 0 0 -1 -2
BITMAP
ENDCHAR
STARTCHAR 05B3
ENCODING 1459
SWIDTH 0 0
DWIDTH 0 0
BBX 1 1 -1 -1
BITMAP
80
ENDCHAR
STARTCHAR 05B4
ENCODING 1460
SWIDTH 0 0
DWIDTH 0 0
BBX 0 0 0 -1
BITMAP
ENDCHAR
STARTCHAR 05B5
ENCODING 1461
SWIDTH 0 0
DWIDTH 0 0
BBX 2 1 -1 -1
BITMAP
C0
ENDCHAR
STARTCHAR 05B6
ENCODING 1462
SWIDTH 0 0
DWIDTH 0 0
BBX 2 1 -1 -2
BITMAP
C0
ENDCHAR
STARTCHAR 05B7
ENCODING 1463
SWIDTH 0 0
DWIDTH 0 0
BBX 0 0 -1 -1
BITMAP
ENDCHAR
STARTCHAR 05B8
ENCODING 1464
SWIDTH 0 0
DWIDTH 0 0
BBX 0 0 -1 -2
BITMAP
ENDCHAR
STARTCHAR 05B9
ENCODING 1465
SWIDTH 0 0
DWIDTH 0 0
BBX 0 0 0 3
BITMAP
ENDCHAR
STARTCHAR 05BA
ENCODING 1466
SWIDTH 0 0
DWIDTH 0 0
BBX 0 0 0 3
BITMAP
ENDCHAR
STARTCHAR 05BB
ENCODING 1467
SWIDTH 0 0
DWIDTH 0 0
BBX 0 0 -1 -2
BITMAP
ENDCHAR
STARTCHAR 05BC
ENCODING 1468
SWIDTH 0 0
DWIDTH 0 0
BBX 0 0 -1 1
BITMAP
ENDCHAR
STARTCHAR 05BD
ENCODING 1469
SWIDTH 0 0
DWIDTH 0 0
BBX 0 0 0 -2
BITMAP
ENDCHAR
STARTCHAR 05BE
ENCODING 1470
SWIDTH 288 0
DWIDTH 2 0
BBX 1 1 1 2
BITMAP
80
ENDCHAR
STARTCHAR 05BF
ENCODING 1471
SWIDTH 0 0
DWIDTH 0 0
BBX 0 0 -1 3
BITMAP
ENDCHAR
STARTCHAR 05C0
ENCODING 1472
SWIDTH 144 0
DWIDTH 1 0
BBX 1 4 0 0
BITMAP
80
80
80
80
ENDCHAR
STARTCHAR 05C1
ENCODING 1473
SWIDTH 0 0
DWIDTH 0 0
BBX 0 0 0 3
BITMAP
ENDCHAR
STARTCHAR 05C2
ENCODING 1474
SWIDTH 0 0
DWIDTH 0 0
BBX 0 0 -1 3
BITMAP
ENDCHAR
STARTCHAR 05C3
ENCODING 1475
SWIDTH 144 0
DWIDTH 1 0
BBX 1 1 0 2
BITMAP
80
ENDCHAR
STARTCHAR 05C4
ENCODING 1476
SWIDTH 0 0
DWIDTH 0 0
BBX 0 0 0 3
BITMAP
ENDCHAR
STARTCHAR 05C5
ENCODING 1477
SWIDTH 0 0
DWIDTH 0 0
BBX 0 0 0 -1
BITMAP
ENDCHAR
STARTCHAR 05C6
ENCODING 1478
SWIDTH 288 0
DWIDTH 2 0
BBX 2 3 0 0
BITMAP
80
80
C0
ENDCHAR
STARTCHAR 05C7
ENCODING 1479
SWIDTH 0 0
DWIDTH 0 0
BBX 0 0 -1 -2
BITMAP
ENDCHAR
STARTCHAR 05D0
ENCODING 1488
SWIDTH 432 0
DWIDTH 3 0
BBX 3 3 0 0
BITMAP
A0
60
A0
ENDCHAR
STARTCHAR 05D1
ENCODING 1489
SWIDTH 432 0
DWIDTH 3 0
BBX 3 3 0 0
BITMAP
40
20
E0
ENDCHAR
STARTCHAR 05D2
ENCODING 1490
SWIDTH 288 0
DWIDTH 2 0
BBX 2 3 0 0
BITMAP
40
40
C0
ENDCHAR
STARTCHAR 05D3
ENCODING 1491
SWIDTH 432 0
DWIDTH 3 0
BBX 2 3 1 0
BITMAP
C0
40
40
ENDCHAR
STARTCHAR 05D4
ENCODING 1492
SWIDTH 432 0
DWIDTH 3 0
BBX 3 3 0 0
BITMAP
60
A0
A0
ENDCHAR
STARTCHAR 05D5
ENCODING 1493
SWIDTH 144 0
DWIDTH 1 0
BBX 1 3 0 0
BITMAP
80
80
80
ENDCHAR
STARTCHAR 05D6
ENCODING 1494
SWIDTH 288 0
DWIDTH 2 0
BBX 1 3 1 0
BITMAP
80
80
80
ENDCHAR
STARTCHAR 05D7
ENCODING 1495
SWIDTH 432 0
DWIDTH 3 0
BBX 3 3 0 0
BITMAP
E0
A0
A0
ENDCHAR
STARTCHAR 05D8
ENCODING 1496
SWIDTH 432 0
DWIDTH 3 0
BBX 3 3 0 0
BITMAP
A0
A0
E0
ENDCHAR
STARTCHAR 05D9
ENCODING 1497
SWIDTH 144 0
DWIDTH 1 0
BBX 1 1 0 2
BITMAP
80
ENDCHAR
STARTCHAR 05DA
ENCODING 1498
SWIDTH 432 0
DWIDTH 3 0
BBX 2 4 1 -2
BITMAP
80
40
40
40
ENDCHAR
STARTCHAR 05DB
ENCODING 1499
SWIDTH 432 0
DWIDTH 3 0
BBX 3 3 0 0
BITMAP
40
20
C0
ENDCHAR
STARTCHAR 05DC
ENCODING 1500
SWIDTH 432 0
DWIDTH 3 0
BBX 3 4 0 0
BITMAP
80
60
40
40
ENDCHAR
STARTCHAR 05DD
ENCODING 1501
SWIDTH 432 0
DWIDTH 3 0
BBX 3 3 0 0
BITMAP
E0
A0
E0
ENDCHAR
STARTCHAR 05DE
ENCODING 1502
SWIDTH 576 0
DWIDTH 4 0
BBX 4 3 0 0
BITMAP
60
90
B0
ENDCHAR
STARTCHAR 05DF
ENCODING 1503
SWIDTH 144 0
DWIDTH 1 0
BBX 1 4 0 -2
BITMAP
80
80
80
80
ENDCHAR
STARTCHAR 05E0
ENCODING 1504
SWIDTH 288 0
DWIDTH 2 0
BBX 2 3 0 0
BITMAP
40
40
C0
ENDCHAR
STARTCHAR 05E1
ENCODING 1505
SWIDTH 432 0
DWIDTH 3 0
BBX 3 3 0 0
BITMAP
E0
A0
E0
ENDCHAR
STARTCHAR 05E2
ENCODING 1506
SWIDTH 432 0
DWIDTH 3 0
BBX 3 3 0 0
BITMAP
A0
A0
C0
ENDCHAR
STARTCHAR 05E3
ENCODING 1507
SWIDTH 432 0
DWIDTH 3 0
BBX 3 4 0 -2
BITMAP
E0
60
20
20
ENDCHAR
STARTCHAR 05E4
ENCODING 1508
SWIDTH 432 0
DWIDTH 3 0
BBX 3 3 0 0
BITMAP
E0
60
60
ENDCHAR
STARTCHAR 05E5
ENCODING 1509
SWIDTH 432 0
DWIDTH 3 0
BBX 2 4 1 -2
BITMAP
C0
C0
80
80
ENDCHAR
STARTCHAR 05E6
ENCODING 1510
SWIDTH 432 0
DWIDTH 3 0
BBX 3 3 0 0
BITMAP
A0
60
E0
ENDCHAR
STARTCHAR 05E7
ENCODING 1511
SWIDTH 432 0
DWIDTH 3 0
BBX 3 4 0 -2
BITMAP
60
C0
C0
80
ENDCHAR
STARTCHAR 05E8
ENCODING 1512
SWIDTH 432 0
DWIDTH 3 0
BBX 2 3 1 0
BITMAP
80
40
40
ENDCHAR
STARTCHAR 05E9
ENCODING 1513
SWIDTH 576 0
DWIDTH 4 0
BBX 4 3 0 0
BITMAP
D0
D0
60
ENDCHAR
STARTCHAR 05EA
ENCODING 1514
SWIDTH 432 0
DWIDTH 3 0
BBX 3 3 0 0
BITMAP
E0
A0
A0
ENDCHAR
STARTCHAR 05EF
ENCODING 1519
SWIDTH 288 0
DWIDTH 2 0
BBX 2 2 0 2
BITMAP
40
C0
ENDCHAR
STARTCHAR 05F0
ENCODING 1520
SWIDTH 288 0
DWIDTH 2 0
BBX 2 3 0 0
BITMAP
C0
C0
C0
ENDCHAR
STARTCHAR 05F1
ENCODING 1521
SWIDTH 288 0
DWIDTH 2 0
BBX 2 3 0 0
BITMAP
C0
40
40
ENDCHAR
STARTCHAR 05F2
ENCODING 1522
SWIDTH 288 0
DWIDTH 2 0
BBX 2 1 0 2
BITMAP
C0
ENDCHAR
STARTCHAR 05F3
ENCODING 1523
SWIDTH 144 0
DWIDTH 1 0
BBX 1 2 0 1
BITMAP
80
80
ENDCHAR
STARTCHAR 05F4
ENCODING 1524
SWIDTH 288 0
DWIDTH 2 0
BBX 2 2 0 1
BITMAP
80
C0
ENDCHAR
STARTCHAR 0606
ENCODING 1542
SWIDTH 576 0
DWIDTH 4 0
BBX 4 5 0 0
BITMAP
10
80
40
60
20
ENDCHAR
STARTCHAR 0607
ENCODING 1543
SWIDTH 576 0
DWIDTH 4 0
BBX 3 5 0 0
BITMAP
20
A0
40
60
20
ENDCHAR
STARTCHAR 0608
ENCODING 1544
SWIDTH 864 0
DWIDTH 6 0
BBX 7 4 0 -1
BITMAP
1A
DA
5C
78
ENDCHAR
STARTCHAR 0609
ENCODING 1545
SWIDTH 720 0
DWIDTH 5 0
BBX 5 4 0 1
BITMAP
30
20
40
98
ENDCHAR
STARTCHAR 060A
ENCODING 1546
SWIDTH 864 0
DWIDTH 6 0
BBX 5 4 0 1
BITMAP
30
20
40
98
ENDCHAR
STARTCHAR 060B
ENCODING 1547
SWIDTH 432 0
DWIDTH 3 0
BBX 3 3 0 -1
BITMAP
60
A0
E0
ENDCHAR
STARTCHAR 060C
ENCODING 1548
SWIDTH 144 0
DWIDTH 1 0
BBX 1 1 0 1
BITMAP
80
ENDCHAR
STARTCHAR 060D
ENCODING 1549
SWIDTH 144 0
DWIDTH 1 0
BBX 1 2 0 0
BITMAP
80
80
ENDCHAR
STARTCHAR 060E
ENCODING 1550
SWIDTH 864 0
DWIDTH 6 0
BBX 6 2 0 0
BITMAP
E0
FC
ENDCHAR
STARTCHAR 060F
ENCODING 1551
SWIDTH 432 0
DWIDTH 3 0
BBX 3 4 0 -1
BITMAP
60
40
40
E0
ENDCHAR
STARTCHAR 0615
ENCODING 1557
SWIDTH 0 0
DWIDTH 0 0
BBX 2 2 -1 4
BITMAP
C0
C0
ENDCHAR
STARTCHAR 0617
ENCODING 1559
SWIDTH 0 0
DWIDTH 0 0
BBX 1 1 0 4
BITMAP
80
ENDCHAR
STARTCHAR 0618
ENCODING 1560
SWIDTH 0 0
DWIDTH 0 0
BBX 0 0 0 3
BITMAP
ENDCHAR
STARTCHAR 0619
ENCODING 1561
SWIDTH 0 0
DWIDTH 0 0
BBX 0 0 -1 4
BITMAP
ENDCHAR
STARTCHAR 061A
ENCODING 1562
SWIDTH 0 0
DWIDTH 0 0
BBX 0 0 0 -1
BITMAP
ENDCHAR
STARTCHAR 061B
ENCODING 1563
SWIDTH 144 0
DWIDTH 1 0
BBX 1 3 0 1
BITMAP
80
00
80
ENDCHAR
STARTCHAR 061E
ENCODING 1566
SWIDTH 432 0
DWIDTH 3 0
BBX 1 1 0 2
BITMAP
80
ENDCHAR
STARTCHAR 061F
ENCODING 1567
SWIDTH 432 0
DWIDTH 3 0
BBX 3 5 0 0
BITMAP
40
A0
80
40
40
ENDCHAR
STARTCHAR 0620
ENCODING 1568
SWIDTH 720 0
DWIDTH 5 0
BBX 5 6 0 -3
BITMAP
38
28
A8
A0
40
40
ENDCHAR
STARTCHAR 0621
ENCODING 1569
SWIDTH 432 0
DWIDTH 3 0
BBX 3 3 0 0
BITMAP
60
80
E0
ENDCHAR
STARTCHAR 0622
ENCODING 1570
SWIDTH 144 0
DWIDTH 1 0
BBX 2 6 0 0
BITMAP
C0
00
80
80
80
80
ENDCHAR
STARTCHAR 0623
ENCODING 1571
SWIDTH 144 0
DWIDTH 1 0
BBX 1 6 0 0
BITMAP
80
00
80
80
80
80
ENDCHAR
STARTCHAR 0624
ENCODING 1572
SWIDTH 432 0
DWIDTH 3 0
BBX 3 6 0 -1
BITMAP
40
40
A0
A0
60
60
ENDCHAR
STARTCHAR 0625
ENCODING 1573
SWIDTH 144 0
DWIDTH 1 0
BBX 1 5 0 -1
BITMAP
80
80
80
80
80
ENDCHAR
STARTCHAR 0626
ENCODING 1574
SWIDTH 720 0
DWIDTH 5 0
BBX 5 4 0 -1
BITMAP
B8
28
A8
E0
ENDCHAR
STARTCHAR 0627
ENCODING 1575
SWIDTH 144 0
DWIDTH 1 0
BBX 1 4 0 0
BITMAP
80
80
80
80
ENDCHAR
STARTCHAR 0628
ENCODING 1576
SWIDTH 720 0
DWIDTH 5 0
BBX 5 3 0 -1
BITMAP
08
88
78
ENDCHAR
STARTCHAR 0629
ENCODING 1577
SWIDTH 432 0
DWIDTH 3 0
BBX 3 3 0 1
BITMAP
E0
A0
E0
ENDCHAR
STARTCHAR 062A
ENCODING 1578
SWIDTH 720 0
DWIDTH 5 0
BBX 5 3 0 1
BITMAP
08
88
78
ENDCHAR
STARTCHAR 062B
ENCODING 1579
SWIDTH 720 0
DWIDTH 5 0
BBX 5 3 0 2
BITMAP
08
88
78
ENDCHAR
STARTCHAR 062C
ENCODING 1580
SWIDTH 576 0
DWIDTH 4 0
BBX 3 4 0 -2
BITMAP
60
80
80
60
ENDCHAR
STARTCHAR 062D
ENCODING 1581
SWIDTH 576 0
DWIDTH 4 0
BBX 3 4 0 -2
BITMAP
60
80
80
60
ENDCHAR
STARTCHAR 062E
ENCODING 1582
SWIDTH 576 0
DWIDTH 4 0
BBX 3 4 0 0
BITMAP
60
80
80
60
ENDCHAR
STARTCHAR 062F
ENCODING 1583
SWIDTH 432 0
DWIDTH 3 0
BBX 3 3 0 0
BITMAP
20
20
E0
ENDCHAR
STARTCHAR 0630
ENCODING 1584
SWIDTH 432 0
DWIDTH 3 0
BBX 3 3 0 1
BITMAP
20
20
E0
ENDCHAR
STARTCHAR 0631
ENCODING 1585
SWIDTH 288 0
DWIDTH 2 0
BBX 1 4 1 -1
BITMAP
80
80
80
80
ENDCHAR
STARTCHAR 0632
ENCODING 1586
SWIDTH 288 0
DWIDTH 2 0
BBX 1 4 1 0
BITMAP
80
80
80
80
ENDCHAR
STARTCHAR 0633
ENCODING 1587
SWIDTH 864 0
DWIDTH 6 0
BBX 7 4 0 -1
BITMAP
02
9A
9E
F0
ENDCHAR
STARTCHAR 0634
ENCODING 1588
SWIDTH 864 0
DWIDTH 6 0
BBX 7 4 0 1
BITMAP
02
9A
9E
F0
ENDCHAR
STARTCHAR 0635
ENCODING 1589
SWIDTH 1152 0
DWIDTH 8 0
BBX 8 4 0 -1
BITMAP
2F
31
9F
E0
ENDCHAR
STARTCHAR 0636
ENCODING 1590
SWIDTH 1152 0
DWIDTH 8 0
BBX 8 4 0 0
BITMAP
2F
31
9F
E0
ENDCHAR
STARTCHAR 0637
ENCODING 1591
SWIDTH 720 0
DWIDTH 5 0
BBX 6 4 0 0
BITMAP
40
78
44
FC
ENDCHAR
STARTCHAR 0638
ENCODING 1592
SWIDTH 720 0
DWIDTH 5 0
BBX 6 4 0 0
BITMAP
40
78
44
FC
ENDCHAR
STARTCHAR 0639
ENCODING 1593
SWIDTH 432 0
DWIDTH 3 0
BBX 3 4 0 -1
BITMAP
C0
80
C0
E0
ENDCHAR
STARTCHAR 063A
ENCODING 1594
SWIDTH 432 0
DWIDTH 3 0
BBX 3 4 0 0
BITMAP
C0
80
C0
E0
ENDCHAR
STARTCHAR 063B
ENCODING 1595
SWIDTH 720 0
DWIDTH 5 0
BBX 5 6 0 0
BITMAP
30
00
10
20
90
78
ENDCHAR
STARTCHAR 063C
ENCODING 1596
SWIDTH 720 0
DWIDTH 5 0
BBX 5 5 0 -1
BITMAP
10
20
90
78
30
ENDCHAR
STARTCHAR 063D
ENCODING 1597
SWIDTH 720 0
DWIDTH 5 0
BBX 5 5 0 0
BITMAP
10
28
28
A8
E0
ENDCHAR
STARTCHAR 063E
ENCODING 1598
SWIDTH 720 0
DWIDTH 5 0
BBX 5 4 0 0
BITMAP
38
28
A8
E0
ENDCHAR
STARTCHAR 063F
ENCODING 1599
SWIDTH 720 0
DWIDTH 5 0
BBX 5 4 0 1
BITMAP
38
28
A8
E0
ENDCHAR
STARTCHAR 0640
ENCODING 1600
SWIDTH 288 0
DWIDTH 2 0
BBX 2 1 0 0
BITMAP
C0
ENDCHAR
STARTCHAR 0641
ENCODING 1601
SWIDTH 864 0
DWIDTH 6 0
BBX 6 3 0 1
BITMAP
0C
94
7C
ENDCHAR
STARTCHAR 0642
ENCODING 1602
SWIDTH 576 0
DWIDTH 4 0
BBX 5 4 0 0
BITMAP
38
A8
B8
F0
ENDCHAR
STARTCHAR 0643
ENCODING 1603
SWIDTH 720 0
DWIDTH 5 0
BBX 5 4 0 0
BITMAP
08
28
88
78
ENDCHAR
STARTCHAR 0644
ENCODING 1604
SWIDTH 432 0
DWIDTH 3 0
BBX 3 5 0 -1
BITMAP
20
20
20
A0
E0
ENDCHAR
STARTCHAR 0645
ENCODING 1605
SWIDTH 432 0
DWIDTH 3 0
BBX 4 4 0 -2
BITMAP
E0
90
60
80
ENDCHAR
STARTCHAR 0646
ENCODING 1606
SWIDTH 720 0
DWIDTH 5 0
BBX 5 4 0 0
BITMAP
08
88
88
70
ENDCHAR
STARTCHAR 0647
ENCODING 1607
SWIDTH 432 0
DWIDTH 3 0
BBX 3 3 0 0
BITMAP
E0
A0
E0
ENDCHAR
STARTCHAR 0648
ENCODING 1608
SWIDTH 432 0
DWIDTH 3 0
BBX 3 4 0 -1
BITMAP
E0
A0
60
60
ENDCHAR
STARTCHAR 0649
ENCODING 1609
SWIDTH 720 0
DWIDTH 5 0
BBX 5 4 0 -1
BITMAP
38
28
A8
E0
ENDCHAR
STARTCHAR 064A
ENCODING 1610
SWIDTH 720 0
DWIDTH 5 0
BBX 5 5 0 -3
BITMAP
38
28
A8
A0
40
ENDCHAR
STARTCHAR 064B
ENCODING 1611
SWIDTH 0 0
DWIDTH 0 0
BBX 2 2 -1 3
BITMAP
40
80
ENDCHAR
STARTCHAR 064C
ENCODING 1612
SWIDTH 0 0
DWIDTH 0 0
BBX 2 2 -1 3
BITMAP
C0
40
ENDCHAR
STARTCHAR 064D
ENCODING 1613
SWIDTH 0 0
DWIDTH 0 0
BBX 2 2 -1 -2
BITMAP
40
80
ENDCHAR
STARTCHAR 064E
ENCODING 1614
SWIDTH 0 0
DWIDTH 0 0
BBX 0 0 -1 3
BITMAP
ENDCHAR
STARTCHAR 064F
ENCODING 1615
SWIDTH 0 0
DWIDTH 0 0
BBX 1 2 0 3
BITMAP
80
80
ENDCHAR
STARTCHAR 0650
ENCODING 1616
SWIDTH 0 0
DWIDTH 0 0
BBX 1 1 0 -1
BITMAP
80
ENDCHAR
STARTCHAR 0651
ENCODING 1617
SWIDTH 0 0
DWIDTH 0 0
BBX 2 1 -1 3
BITMAP
C0
ENDCHAR
STARTCHAR 0652
ENCODING 1618
SWIDTH 0 0
DWIDTH 0 0
BBX 0 0 -1 3
BITMAP
ENDCHAR
STARTCHAR 0653
ENCODING 1619
SWIDTH 0 0
DWIDTH 0 0
BBX 1 1 0 3
BITMAP
80
ENDCHAR
STARTCHAR 0654
ENCODING 1620
SWIDTH 0 0
DWIDTH 0 0
BBX 2 1 -1 4
BITMAP
C0
ENDCHAR
STARTCHAR 0655
ENCODING 1621
SWIDTH 0 0
DWIDTH 0 0
BBX 0 0 -1 -1
BITMAP
ENDCHAR
STARTCHAR 0656
ENCODING 1622
SWIDTH 0 0
DWIDTH 0 0
BBX 1 1 0 -2
BITMAP
80
ENDCHAR
STARTCHAR 0657
ENCODING 1623
SWIDTH 0 0
DWIDTH 0 0
BBX 2 2 -1 3
BITMAP
40
80
ENDCHAR
STARTCHAR 0658
ENCODING 1624
SWIDTH 0 0
DWIDTH 0 0
BBX 0 0 -1 3
BITMAP
ENDCHAR
STARTCHAR 0659
ENCODING 1625
SWIDTH 0 0
DWIDTH 0 0
BBX 0 0 -1 3
BITMAP
ENDCHAR
STARTCHAR 065A
ENCODING 1626
SWIDTH 0 0
DWIDTH 0 0
BBX 0 0 -1 3
BITMAP
ENDCHAR
STARTCHAR 065B
ENCODING 1627
SWIDTH 0 0
DWIDTH 0 0
BBX 0 0 -1 3
BITMAP
ENDCHAR
STARTCHAR 065C
ENCODING 1628
SWIDTH 0 0
DWIDTH 0 0
BBX 0 0 0 -1
BITMAP
ENDCHAR
STARTCHAR 065D
ENCODING 1629
SWIDTH 0 0
DWIDTH 0 0
BBX 1 2 -1 3
BITMAP
80
80
ENDCHAR
STARTCHAR 065E
ENCODING 1630
SWIDTH 0 0
DWIDTH 0 0
BBX 1 2 0 3
BITMAP
80
80
ENDCHAR
STARTCHAR 065F
ENCODING 1631
SWIDTH 0 0
DWIDTH 0 0
BBX 1 1 0 -1
BITMAP
80
ENDCHAR
STARTCHAR 0660
ENCODING 1632
SWIDTH 288 0
DWIDTH 2 0
BBX 1 1 1 1
BITMAP
80
ENDCHAR
STARTCHAR 0661
ENCODING 1633
SWIDTH 144 0
DWIDTH 1 0
BBX 1 5 0 0
BITMAP
80
80
80
80
80
ENDCHAR
STARTCHAR 0662
ENCODING 1634
SWIDTH 288 0
DWIDTH 2 0
BBX 2 4 0 0
BITMAP
C0
80
80
80
ENDCHAR
STARTCHAR 0663
ENCODING 1635
SWIDTH 432 0
DWIDTH 3 0
BBX 3 4 0 0
BITMAP
E0
80
80
80
ENDCHAR
STARTCHAR 0664
ENCODING 1636
SWIDTH 432 0
DWIDTH 3 0
BBX 3 5 0 0
BITMAP
60
80
60
80
C0
ENDCHAR
STARTCHAR 0665
ENCODING 1637
SWIDTH 432 0
DWIDTH 3 0
BBX 3 4 0 1
BITMAP
E0
A0
A0
E0
ENDCHAR
STARTCHAR 0666
ENCODING 1638
SWIDTH 288 0
DWIDTH 2 0
BBX 1 4 1 0
BITMAP
80
80
80
80
ENDCHAR
STARTCHAR 0667
ENCODING 1639
SWIDTH 576 0
DWIDTH 4 0
BBX 4 4 0 0
BITMAP
90
60
60
20
ENDCHAR
STARTCHAR 0668
ENCODING 1640
SWIDTH 576 0
DWIDTH 4 0
BBX 4 4 0 0
BITMAP
20
60
90
90
ENDCHAR
STARTCHAR 0669
ENCODING 1641
SWIDTH 432 0
DWIDTH 3 0
BBX 3 5 0 0
BITMAP
40
A0
60
20
20
ENDCHAR
STARTCHAR 066A
ENCODING 1642
SWIDTH 576 0
DWIDTH 4 0
BBX 4 4 0 1
BITMAP
30
20
40
90
ENDCHAR
STARTCHAR 066B
ENCODING 1643
SWIDTH 144 0
DWIDTH 1 0
BBX 1 2 0 -1
BITMAP
80
80
ENDCHAR
STARTCHAR 066C
ENCODING 1644
SWIDTH 144 0
DWIDTH 1 0
BBX 1 1 0 0
BITMAP
80
ENDCHAR
STARTCHAR 066D
ENCODING 1645
SWIDTH 432 0
DWIDTH 3 0
BBX 3 2 0 2
BITMAP
40
E0
ENDCHAR
STARTCHAR 066E
ENCODING 1646
SWIDTH 720 0
DWIDTH 5 0
BBX 5 3 0 0
BITMAP
08
88
78
ENDCHAR
STARTCHAR 066F
ENCODING 1647
SWIDTH 576 0
DWIDTH 4 0
BBX 5 4 0 -1
BITMAP
38
A8
B8
F0
ENDCHAR
STARTCHAR 0670
ENCODING 1648
SWIDTH 0 0
DWIDTH 0 0
BBX 1 1 0 4
BITMAP
80
ENDCHAR
STARTCHAR 0671
ENCODING 1649
SWIDTH 144 0
DWIDTH 1 0
BBX 2 6 0 0
BITMAP
C0
00
80
80
80
80
ENDCHAR
STARTCHAR 0672
ENCODING 1650
SWIDTH 144 0
DWIDTH 1 0
BBX 1 5 0 1
BITMAP
80
80
80
80
80
ENDCHAR
STARTCHAR 0673
ENCODING 1651
SWIDTH 144 0
DWIDTH 1 0
BBX 2 5 0 -1
BITMAP
80
80
80
80
C0
ENDCHAR
STARTCHAR 0674
ENCODING 1652
SWIDTH 144 0
DWIDTH 1 0
BBX 2 1 0 4
BITMAP
C0
ENDCHAR
STARTCHAR 0675
ENCODING 1653
SWIDTH 288 0
DWIDTH 2 0
BBX 2 4 0 1
BITMAP
C0
80
80
80
ENDCHAR
STARTCHAR 0676
ENCODING 1654
SWIDTH 576 0
DWIDTH 4 0
BBX 4 6 0 -1
BITMAP
10
10
E0
A0
60
60
ENDCHAR
STARTCHAR 0677
ENCODING 1655
SWIDTH 576 0
DWIDTH 4 0
BBX 4 6 0 -1
BITMAP
50
50
A0
A0
60
60
ENDCHAR
STARTCHAR 0678
ENCODING 1656
SWIDTH 864 0
DWIDTH 6 0
BBX 6 5 0 0
BITMAP
04
38
28
A8
E0
ENDCHAR
STARTCHAR 0679
ENCODING 1657
SWIDTH 720 0
DWIDTH 5 0
BBX 5 4 0 1
BITMAP
30
08
88
78
ENDCHAR
STARTCHAR 067A
ENCODING 1658
SWIDTH 720 0
DWIDTH 5 0
BBX 5 3 0 2
BITMAP
08
88
78
ENDCHAR
STARTCHAR 067B
ENCODING 1659
SWIDTH 720 0
DWIDTH 5 0
BBX 5 3 0 -2
BITMAP
08
88
78
ENDCHAR
STARTCHAR 067C
ENCODING 1660
SWIDTH 720 0
DWIDTH 5 0
BBX 5 4 0 0
BITMAP
08
88
78
20
ENDCHAR
STARTCHAR 067D
ENCODING 1661
SWIDTH 720 0
DWIDTH 5 0
BBX 5 3 0 2
BITMAP
08
88
78
ENDCHAR
STARTCHAR 067E
ENCODING 1662
SWIDTH 720 0
DWIDTH 5 0
BBX 5 5 0 -2
BITMAP
08
88
78
00
20
ENDCHAR
STARTCHAR 067F
ENCODING 1663
SWIDTH 720 0
DWIDTH 5 0
BBX 5 3 0 2
BITMAP
08
88
78
ENDCHAR
STARTCHAR 0680
ENCODING 1664
SWIDTH 720 0
DWIDTH 5 0
BBX 5 3 0 -2
BITMAP
08
88
78
ENDCHAR
STARTCHAR 0681
ENCODING 1665
SWIDTH 576 0
DWIDTH 4 0
BBX 3 7 0 -2
BITMAP
20
20
00
60
80
80
60
ENDCHAR
STARTCHAR 0682
ENCODING 1666
SWIDTH 576 0
DWIDTH 4 0
BBX 3 4 0 1
BITMAP
60
80
80
60
ENDCHAR
STARTCHAR 0683
ENCODING 1667
SWIDTH 576 0
DWIDTH 4 0
BBX 3 4 0 -2
BITMAP
60
80
E0
60
ENDCHAR
STARTCHAR 0684
ENCODING 1668
SWIDTH 576 0
DWIDTH 4 0
BBX 3 4 0 -2
BITMAP
60
80
80
60
ENDCHAR
STARTCHAR 0685
ENCODING 1669
SWIDTH 576 0
DWIDTH 4 0
BBX 3 4 0 1
BITMAP
60
80
80
60
ENDCHAR
STARTCHAR 0686
ENCODING 1670
SWIDTH 576 0
DWIDTH 4 0
BBX 3 4 0 -2
BITMAP
60
80
80
60
ENDCHAR
STARTCHAR 0687
ENCODING 1671
SWIDTH 576 0
DWIDTH 4 0
BBX 3 4 0 -2
BITMAP
60
A0
E0
60
ENDCHAR
STARTCHAR 0688
ENCODING 1672
SWIDTH 432 0
DWIDTH 3 0
BBX 3 4 0 1
BITMAP
60
20
20
E0
ENDCHAR
STARTCHAR 0689
ENCODING 1673
SWIDTH 432 0
DWIDTH 3 0
BBX 3 4 0 -1
BITMAP
20
20
E0
40
ENDCHAR
STARTCHAR 068A
ENCODING 1674
SWIDTH 432 0
DWIDTH 3 0
BBX 3 3 0 -1
BITMAP
20
20
E0
ENDCHAR
STARTCHAR 068B
ENCODING 1675
SWIDTH 432 0
DWIDTH 3 0
BBX 3 4 0 0
BITMAP
60
20
20
E0
ENDCHAR
STARTCHAR 068C
ENCODING 1676
SWIDTH 432 0
DWIDTH 3 0
BBX 3 3 0 1
BITMAP
20
20
E0
ENDCHAR
STARTCHAR 068D
ENCODING 1677
SWIDTH 432 0
DWIDTH 3 0
BBX 3 3 0 -1
BITMAP
20
20
E0
ENDCHAR
STARTCHAR 068E
ENCODING 1678
SWIDTH 432 0
DWIDTH 3 0
BBX 3 3 0 2
BITMAP
20
20
E0
ENDCHAR
STARTCHAR 068F
ENCODING 1679
SWIDTH 432 0
DWIDTH 3 0
BBX 3 3 0 2
BITMAP
20
20
E0
ENDCHAR
STARTCHAR 0690
ENCODING 1680
SWIDTH 432 0
DWIDTH 3 0
BBX 3 3 0 2
BITMAP
20
20
E0
ENDCHAR
STARTCHAR 0691
ENCODING 1681
SWIDTH 288 0
DWIDTH 2 0
BBX 2 5 1 0
BITMAP
C0
80
80
80
80
ENDCHAR
STARTCHAR 0692
ENCODING 1682
SWIDTH 288 0
DWIDTH 2 0
BBX 2 6 1 -1
BITMAP
40
00
80
80
80
80
ENDCHAR
STARTCHAR 0693
ENCODING 1683
SWIDTH 288 0
DWIDTH 2 0
BBX 1 5 1 -2
BITMAP
80
80
80
80
80
ENDCHAR
STARTCHAR 0694
ENCODING 1684
SWIDTH 288 0
DWIDTH 2 0
BBX 1 6 1 -3
BITMAP
80
80
80
80
00
80
ENDCHAR
STARTCHAR 0695
ENCODING 1685
SWIDTH 288 0
DWIDTH 2 0
BBX 1 4 1 -3
BITMAP
80
80
80
80
ENDCHAR
STARTCHAR 0696
ENCODING 1686
SWIDTH 288 0
DWIDTH 2 0
BBX 1 6 1 -3
BITMAP
80
80
80
80
00
80
ENDCHAR
STARTCHAR 0697
ENCODING 1687
SWIDTH 288 0
DWIDTH 2 0
BBX 1 4 1 0
BITMAP
80
80
80
80
ENDCHAR
STARTCHAR 0698
ENCODING 1688
SWIDTH 288 0
DWIDTH 2 0
BBX 1 4 1 1
BITMAP
80
80
80
80
ENDCHAR
STARTCHAR 0699
ENCODING 1689
SWIDTH 288 0
DWIDTH 2 0
BBX 1 4 1 1
BITMAP
80
80
80
80
ENDCHAR
STARTCHAR 069A
ENCODING 1690
SWIDTH 864 0
DWIDTH 6 0
BBX 7 4 0 0
BITMAP
02
9A
9E
F0
ENDCHAR
STARTCHAR 069B
ENCODING 1691
SWIDTH 864 0
DWIDTH 6 0
BBX 7 5 0 -2
BITMAP
02
9A
9E
9C
60
ENDCHAR
STARTCHAR 069C
ENCODING 1692
SWIDTH 864 0
DWIDTH 6 0
BBX 7 5 0 0
BITMAP
02
9A
9E
9C
60
ENDCHAR
STARTCHAR 069D
ENCODING 1693
SWIDTH 1152 0
DWIDTH 8 0
BBX 8 4 0 -1
BITMAP
2F
31
9F
E0
ENDCHAR
STARTCHAR 069E
ENCODING 1694
SWIDTH 1152 0
DWIDTH 8 0
BBX 8 4 0 1
BITMAP
2F
31
9F
E0
ENDCHAR
STARTCHAR 069F
ENCODING 1695
SWIDTH 720 0
DWIDTH 5 0
BBX 6 4 0 1
BITMAP
40
78
44
FC
ENDCHAR
STARTCHAR 06A0
ENCODING 1696
SWIDTH 432 0
DWIDTH 3 0
BBX 3 4 0 1
BITMAP
C0
80
C0
E0
ENDCHAR
STARTCHAR 06A1
ENCODING 1697
SWIDTH 864 0
DWIDTH 6 0
BBX 6 3 0 0
BITMAP
0C
94
7C
ENDCHAR
STARTCHAR 06A2
ENCODING 1698
SWIDTH 864 0
DWIDTH 6 0
BBX 6 3 0 -1
BITMAP
0C
94
7C
ENDCHAR
STARTCHAR 06A3
ENCODING 1699
SWIDTH 864 0
DWIDTH 6 0
BBX 6 3 0 0
BITMAP
0C
94
7C
ENDCHAR
STARTCHAR 06A4
ENCODING 1700
SWIDTH 864 0
DWIDTH 6 0
BBX 6 3 0 2
BITMAP
0C
94
7C
ENDCHAR
STARTCHAR 06A5
ENCODING 1701
SWIDTH 864 0
DWIDTH 6 0
BBX 6 4 0 -2
BITMAP
0C
94
7C
08
ENDCHAR
STARTCHAR 06A6
ENCODING 1702
SWIDTH 864 0
DWIDTH 6 0
BBX 6 3 0 2
BITMAP
0C
94
7C
ENDCHAR
STARTCHAR 06A7
ENCODING 1703
SWIDTH 576 0
DWIDTH 4 0
BBX 5 4 0 0
BITMAP
38
A8
B8
F0
ENDCHAR
STARTCHAR 06A8
ENCODING 1704
SWIDTH 576 0
DWIDTH 4 0
BBX 5 4 0 1
BITMAP
38
A8
B8
F0
ENDCHAR
STARTCHAR 06A9
ENCODING 1705
SWIDTH 720 0
DWIDTH 5 0
BBX 5 4 0 1
BITMAP
10
20
90
78
ENDCHAR
STARTCHAR 06AA
ENCODING 1706
SWIDTH 864 0
DWIDTH 6 0
BBX 6 3 0 0
BITMAP
20
7C
FC
ENDCHAR
STARTCHAR 06AB
ENCODING 1707
SWIDTH 720 0
DWIDTH 5 0
BBX 5 4 0 1
BITMAP
18
20
90
78
ENDCHAR
STARTCHAR 06AC
ENCODING 1708
SWIDTH 720 0
DWIDTH 5 0
BBX 5 6 0 0
BITMAP
20
00
08
28
88
78
ENDCHAR
STARTCHAR 06AD
ENCODING 1709
SWIDTH 720 0
DWIDTH 5 0
BBX 5 6 0 0
BITMAP
20
10
08
28
88
78
ENDCHAR
STARTCHAR 06AE
ENCODING 1710
SWIDTH 720 0
DWIDTH 5 0
BBX 5 6 0 -2
BITMAP
08
28
88
78
00
20
ENDCHAR
STARTCHAR 06AF
ENCODING 1711
SWIDTH 720 0
DWIDTH 5 0
BBX 5 5 0 0
BITMAP
10
30
20
90
78
ENDCHAR
STARTCHAR 06B0
ENCODING 1712
SWIDTH 720 0
DWIDTH 5 0
BBX 5 5 0 0
BITMAP
10
38
20
90
78
ENDCHAR
STARTCHAR 06B1
ENCODING 1713
SWIDTH 720 0
DWIDTH 5 0
BBX 5 6 0 0
BITMAP
40
10
30
20
90
78
ENDCHAR
STARTCHAR 06B2
ENCODING 1714
SWIDTH 720 0
DWIDTH 5 0
BBX 5 6 0 -1
BITMAP
10
30
20
90
78
30
ENDCHAR
STARTCHAR 06B3
ENCODING 1715
SWIDTH 720 0
DWIDTH 5 0
BBX 5 5 0 -2
BITMAP
10
30
20
90
78
ENDCHAR
STARTCHAR 06B4
ENCODING 1716
SWIDTH 720 0
DWIDTH 5 0
BBX 5 5 0 1
BITMAP
30
10
18
90
78
ENDCHAR
STARTCHAR 06B5
ENCODING 1717
SWIDTH 432 0
DWIDTH 3 0
BBX 4 7 0 -1
BITMAP
10
00
20
20
20
A0
E0
ENDCHAR
STARTCHAR 06B6
ENCODING 1718
SWIDTH 432 0
DWIDTH 3 0
BBX 3 7 0 -1
BITMAP
20
00
20
20
20
A0
E0
ENDCHAR
STARTCHAR 06B7
ENCODING 1719
SWIDTH 432 0
DWIDTH 3 0
BBX 4 7 0 -1
BITMAP
20
30
20
20
20
A0
E0
ENDCHAR
STARTCHAR 06B8
ENCODING 1720
SWIDTH 432 0
DWIDTH 3 0
BBX 3 7 0 -3
BITMAP
20
20
20
A0
60
20
40
ENDCHAR
STARTCHAR 06B9
ENCODING 1721
SWIDTH 720 0
DWIDTH 5 0
BBX 5 6 0 -2
BITMAP
08
88
88
50
20
20
ENDCHAR
STARTCHAR 06BA
ENCODING 1722
SWIDTH 720 0
DWIDTH 5 0
BBX 5 4 0 -1
BITMAP
08
88
88
70
ENDCHAR
STARTCHAR 06BB
ENCODING 1723
SWIDTH 720 0
DWIDTH 5 0
BBX 5 5 0 0
BITMAP
30
08
88
88
70
ENDCHAR
STARTCHAR 06BC
ENCODING 1724
SWIDTH 720 0
DWIDTH 5 0
BBX 5 5 0 -1
BITMAP
08
88
88
50
60
ENDCHAR
STARTCHAR 06BD
ENCODING 1725
SWIDTH 720 0
DWIDTH 5 0
BBX 5 4 0 1
BITMAP
08
88
88
70
ENDCHAR
STARTCHAR 06BE
ENCODING 1726
SWIDTH 432 0
DWIDTH 3 0
BBX 3 3 0 0
BITMAP
60
60
E0
ENDCHAR
STARTCHAR 06BF
ENCODING 1727
SWIDTH 576 0
DWIDTH 4 0
BBX 3 4 0 0
BITMAP
60
80
80
60
ENDCHAR
STARTCHAR 06C0
ENCODING 1728
SWIDTH 432 0
DWIDTH 3 0
BBX 3 5 0 0
BITMAP
40
40
A0
A0
E0
ENDCHAR
STARTCHAR 06C1
ENCODING 1729
SWIDTH 432 0
DWIDTH 3 0
BBX 3 3 0 0
BITMAP
E0
A0
E0
ENDCHAR
STARTCHAR 06C2
ENCODING 1730
SWIDTH 432 0
DWIDTH 3 0
BBX 3 5 0 0
BITMAP
40
40
A0
A0
E0
ENDCHAR
STARTCHAR 06C3
ENCODING 1731
SWIDTH 432 0
DWIDTH 3 0
BBX 3 3 0 1
BITMAP
E0
A0
E0
ENDCHAR
STARTCHAR 06C4
ENCODING 1732
SWIDTH 432 0
DWIDTH 3 0
BBX 3 4 0 -1
BITMAP
E0
A0
60
E0
ENDCHAR
STARTCHAR 06C5
ENCODING 1733
SWIDTH 432 0
DWIDTH 3 0
BBX 3 5 0 -2
BITMAP
E0
A0
60
60
E0
ENDCHAR
STARTCHAR 06C6
ENCODING 1734
SWIDTH 432 0
DWIDTH 3 0
BBX 3 6 0 -1
BITMAP
20
00
E0
A0
60
60
ENDCHAR
STARTCHAR 06C7
ENCODING 1735
SWIDTH 432 0
DWIDTH 3 0
BBX 3 6 0 -1
BITMAP
40
40
A0
A0
60
60
ENDCHAR
STARTCHAR 06C8
ENCODING 1736
SWIDTH 432 0
DWIDTH 3 0
BBX 3 4 0 1
BITMAP
E0
A0
60
60
ENDCHAR
STARTCHAR 06C9
ENCODING 1737
SWIDTH 432 0
DWIDTH 3 0
BBX 3 5 0 0
BITMAP
20
E0
A0
60
60
ENDCHAR
STARTCHAR 06CA
ENCODING 1738
SWIDTH 432 0
DWIDTH 3 0
BBX 3 4 0 0
BITMAP
E0
A0
60
60
ENDCHAR
STARTCHAR 06CB
ENCODING 1739
SWIDTH 432 0
DWIDTH 3 0
BBX 3 4 0 1
BITMAP
E0
A0
60
60
ENDCHAR
STARTCHAR 06CC
ENCODING 1740
SWIDTH 720 0
DWIDTH 5 0
BBX 5 4 0 -1
BITMAP
38
28
A8
E0
ENDCHAR
STARTCHAR 06CD
ENCODING 1741
SWIDTH 864 0
DWIDTH 6 0
BBX 6 4 0 -1
BITMAP
18
14
D4
70
ENDCHAR
STARTCHAR 06CE
ENCODING 1742
SWIDTH 720 0
DWIDTH 5 0
BBX 5 6 0 -1
BITMAP
10
00
38
28
A8
E0
ENDCHAR
STARTCHAR 06CF
ENCODING 1743
SWIDTH 432 0
DWIDTH 3 0
BBX 3 4 0 0
BITMAP
E0
A0
60
60
ENDCHAR
STARTCHAR 06D0
ENCODING 1744
SWIDTH 720 0
DWIDTH 5 0
BBX 5 6 0 -3
BITMAP
38
28
A8
A0
50
10
ENDCHAR
STARTCHAR 06D1
ENCODING 1745
SWIDTH 720 0
DWIDTH 5 0
BBX 5 6 0 -3
BITMAP
38
28
A8
A0
58
10
ENDCHAR
STARTCHAR 06D2
ENCODING 1746
SWIDTH 720 0
DWIDTH 5 0
BBX 5 3 0 0
BITMAP
60
80
F8
ENDCHAR
STARTCHAR 06D3
ENCODING 1747
SWIDTH 720 0
DWIDTH 5 0
BBX 5 4 0 1
BITMAP
60
40
80
F8
ENDCHAR
STARTCHAR 06D4
ENCODING 1748
SWIDTH 144 0
DWIDTH 1 0
BBX 1 1 0 0
BITMAP
80
ENDCHAR
STARTCHAR 06D5
ENCODING 1749
SWIDTH 432 0
DWIDTH 3 0
BBX 3 3 0 0
BITMAP
E0
A0
E0
ENDCHAR
STARTCHAR 06D8
ENCODING 1752
SWIDTH 0 0
DWIDTH 0 0
BBX 2 1 -1 3
BITMAP
C0
ENDCHAR
STARTCHAR 06D9
ENCODING 1753
SWIDTH 0 0
DWIDTH 0 0
BBX 2 3 -1 3
BITMAP
C0
40
C0
ENDCHAR
STARTCHAR 06DA
ENCODING 1754
SWIDTH 0 0
DWIDTH 0 0
BBX 2 3 -1 3
BITMAP
C0
80
40
ENDCHAR
STARTCHAR 06DB
ENCODING 1755
SWIDTH 0 0
DWIDTH 0 0
BBX 2 1 -1 3
BITMAP
C0
ENDCHAR
STARTCHAR 06DC
ENCODING 1756
SWIDTH 0 0
DWIDTH 0 0
BBX 4 3 -2 3
BITMAP
10
90
40
ENDCHAR
STARTCHAR 06DF
ENCODING 1759
SWIDTH 0 0
DWIDTH 0 0
BBX 2 1 -1 3
BITMAP
C0
ENDCHAR
STARTCHAR 06E0
ENCODING 1760
SWIDTH 0 0
DWIDTH 0 0
BBX 2 1 -1 3
BITMAP
C0
ENDCHAR
STARTCHAR 06E1
ENCODING 1761
SWIDTH 0 0
DWIDTH 0 0
BBX 2 1 -1 4
BITMAP
C0
ENDCHAR
STARTCHAR 06E2
ENCODING 1762
SWIDTH 0 0
DWIDTH 0 0
BBX 2 2 -1 3
BITMAP
C0
80
ENDCHAR
STARTCHAR 06E3
ENCODING 1763
SWIDTH 0 0
DWIDTH 0 0
BBX 4 3 -2 -3
BITMAP
10
90
60
ENDCHAR
STARTCHAR 06E4
ENCODING 1764
SWIDTH 0 0
DWIDTH 0 0
BBX 1 1 -1 3
BITMAP
80
ENDCHAR
STARTCHAR 06E5
ENCODING 1765
SWIDTH 288 0
DWIDTH 2 0
BBX 2 3 0 -1
BITMAP
40
40
C0
ENDCHAR
STARTCHAR 06E6
ENCODING 1766
SWIDTH 432 0
DWIDTH 3 0
BBX 2 2 0 0
BITMAP
40
C0
ENDCHAR
STARTCHAR 06E7
ENCODING 1767
SWIDTH 0 0
DWIDTH 0 0
BBX 2 2 -1 3
BITMAP
80
C0
ENDCHAR
STARTCHAR 06E8
ENCODING 1768
SWIDTH 0 0
DWIDTH 0 0
BBX 2 2 -1 4
BITMAP
40
C0
ENDCHAR
STARTCHAR 06EA
ENCODING 1770
SWIDTH 0 0
DWIDTH 0 0
BBX 0 0 -1 -2
BITMAP
ENDCHAR
STARTCHAR 06EB
ENCODING 1771
SWIDTH 0 0
DWIDTH 0 0
BBX 0 0 -1 3
BITMAP
ENDCHAR
STARTCHAR 06EC
ENCODING 1772
SWIDTH 0 0
DWIDTH 0 0
BBX 0 0 -1 3
BITMAP
ENDCHAR
STARTCHAR 06ED
ENCODING 1773
SWIDTH 0 0
DWIDTH 0 0
BBX 2 2 -1 -3
BITMAP
C0
C0
ENDCHAR
STARTCHAR 06EE
ENCODING 1774
SWIDTH 432 0
DWIDTH 3 0
BBX 3 4 0 1
BITMAP
20
20
20
E0
ENDCHAR
STARTCHAR 06EF
ENCODING 1775
SWIDTH 288 0
DWIDTH 2 0
BBX 2 5 1 0
BITMAP
40
80
80
80
80
ENDCHAR
STARTCHAR 06F0
ENCODING 1776
SWIDTH 288 0
DWIDTH 2 0
BBX 1 1 1 1
BITMAP
80
ENDCHAR
STARTCHAR 06F1
ENCODING 1777
SWIDTH 144 0
DWIDTH 1 0
BBX 1 5 0 0
BITMAP
80
80
80
80
80
ENDCHAR
STARTCHAR 06F2
ENCODING 1778
SWIDTH 288 0
DWIDTH 2 0
BBX 2 4 0 0
BITMAP
C0
80
80
80
ENDCHAR
STARTCHAR 06F3
ENCODING 1779
SWIDTH 432 0
DWIDTH 3 0
BBX 3 4 0 0
BITMAP
E0
80
80
80
ENDCHAR
STARTCHAR 06F4
ENCODING 1780
SWIDTH 432 0
DWIDTH 3 0
BBX 3 5 0 0
BITMAP
40
80
E0
80
80
ENDCHAR
STARTCHAR 06F5
ENCODING 1781
SWIDTH 432 0
DWIDTH 3 0
BBX 3 4 0 1
BITMAP
E0
A0
A0
60
ENDCHAR
STARTCHAR 06F6
ENCODING 1782
SWIDTH 432 0
DWIDTH 3 0
BBX 3 4 0 0
BITMAP
E0
40
40
80
ENDCHAR
STARTCHAR 06F7
ENCODING 1783
SWIDTH 576 0
DWIDTH 4 0
BBX 4 4 0 0
BITMAP
90
60
60
20
ENDCHAR
STARTCHAR 06F8
ENCODING 1784
SWIDTH 576 0
DWIDTH 4 0
BBX 4 4 0 0
BITMAP
20
60
90
90
ENDCHAR
STARTCHAR 06F9
ENCODING 1785
SWIDTH 432 0
DWIDTH 3 0
BBX 3 5 0 0
BITMAP
40
A0
60
20
20
ENDCHAR
STARTCHAR 06FA
ENCODING 1786
SWIDTH 864 0
DWIDTH 6 0
BBX 7 4 0 1
BITMAP
02
9A
9E
F0
ENDCHAR
STARTCHAR 06FB
ENCODING 1787
SWIDTH 1152 0
DWIDTH 8 0
BBX 8 4 0 0
BITMAP
2F
31
9F
E4
ENDCHAR
STARTCHAR 06FC
ENCODING 1788
SWIDTH 432 0
DWIDTH 3 0
BBX 3 4 0 0
BITMAP
C0
80
C0
E0
ENDCHAR
STARTCHAR 06FD
ENCODING 1789
SWIDTH 432 0
DWIDTH 3 0
BBX 3 5 0 -2
BITMAP
60
80
E0
40
40
ENDCHAR
STARTCHAR 06FE
ENCODING 1790
SWIDTH 432 0
DWIDTH 3 0
BBX 4 5 0 -2
BITMAP
E0
90
60
C0
40
ENDCHAR
STARTCHAR 06FF
ENCODING 1791
SWIDTH 432 0
DWIDTH 3 0
BBX 3 4 0 1
BITMAP
20
60
60
E0
ENDCHAR
STARTCHAR 0750
ENCODING 1872
SWIDTH 720 0
DWIDTH 5 0
BBX 5 4 0 -1
BITMAP
08
88
78
40
ENDCHAR
STARTCHAR 0751
ENCODING 1873
SWIDTH 720 0
DWIDTH 5 0
BBX 5 3 0 1
BITMAP
08
88
78
ENDCHAR
STARTCHAR 0752
ENCODING 1874
SWIDTH 720 0
DWIDTH 5 0
BBX 5 5 0 -2
BITMAP
08
88
78
00
10
ENDCHAR
STARTCHAR 0753
ENCODING 1875
SWIDTH 720 0
DWIDTH 5 0
BBX 5 5 0 -1
BITMAP
08
88
78
00
10
ENDCHAR
STARTCHAR 0754
ENCODING 1876
SWIDTH 720 0
DWIDTH 5 0
BBX 5 3 0 0
BITMAP
08
88
78
ENDCHAR
STARTCHAR 0755
ENCODING 1877
SWIDTH 720 0
DWIDTH 5 0
BBX 5 5 0 -2
BITMAP
08
88
78
00
10
ENDCHAR
STARTCHAR 0756
ENCODING 1878
SWIDTH 720 0
DWIDTH 5 0
BBX 5 5 0 0
BITMAP
10
00
08
88
78
ENDCHAR
STARTCHAR 0757
ENCODING 1879
SWIDTH 576 0
DWIDTH 4 0
BBX 3 4 0 0
BITMAP
60
80
80
60
ENDCHAR
STARTCHAR 0758
ENCODING 1880
SWIDTH 576 0
DWIDTH 4 0
BBX 3 4 0 -2
BITMAP
60
A0
E0
60
ENDCHAR
STARTCHAR 0759
ENCODING 1881
SWIDTH 432 0
DWIDTH 3 0
BBX 3 4 0 -1
BITMAP
60
20
20
E0
ENDCHAR
STARTCHAR 075A
ENCODING 1882
SWIDTH 432 0
DWIDTH 3 0
BBX 3 5 0 -2
BITMAP
20
20
E0
40
20
ENDCHAR
STARTCHAR 075B
ENCODING 1883
SWIDTH 288 0
DWIDTH 2 0
BBX 2 4 1 -1
BITMAP
80
C0
80
80
ENDCHAR
STARTCHAR 075C
ENCODING 1884
SWIDTH 864 0
DWIDTH 6 0
BBX 7 4 0 1
BITMAP
02
9A
9E
F0
ENDCHAR
STARTCHAR 075D
ENCODING 1885
SWIDTH 432 0
DWIDTH 3 0
BBX 3 4 0 0
BITMAP
C0
80
C0
E0
ENDCHAR
STARTCHAR 075E
ENCODING 1886
SWIDTH 432 0
DWIDTH 3 0
BBX 3 4 0 1
BITMAP
C0
80
C0
E0
ENDCHAR
STARTCHAR 075F
ENCODING 1887
SWIDTH 432 0
DWIDTH 3 0
BBX 3 4 0 1
BITMAP
C0
80
C0
E0
ENDCHAR
STARTCHAR 0760
ENCODING 1888
SWIDTH 864 0
DWIDTH 6 0
BBX 6 4 0 -1
BITMAP
0C
94
7C
08
ENDCHAR
STARTCHAR 0761
ENCODING 1889
SWIDTH 864 0
DWIDTH 6 0
BBX 6 5 0 -2
BITMAP
0C
94
7C
00
0C
ENDCHAR
STARTCHAR 0762
ENCODING 1890
SWIDTH 720 0
DWIDTH 5 0
BBX 5 4 0 2
BITMAP
10
20
90
78
ENDCHAR
STARTCHAR 0763
ENCODING 1891
SWIDTH 720 0
DWIDTH 5 0
BBX 5 5 0 1
BITMAP
30
10
20
90
78
ENDCHAR
STARTCHAR 0764
ENCODING 1892
SWIDTH 720 0
DWIDTH 5 0
BBX 5 6 0 -1
BITMAP
10
20
90
78
00
30
ENDCHAR
STARTCHAR 0765
ENCODING 1893
SWIDTH 432 0
DWIDTH 3 0
BBX 4 4 0 -1
BITMAP
E0
90
60
80
ENDCHAR
STARTCHAR 0766
ENCODING 1894
SWIDTH 432 0
DWIDTH 3 0
BBX 4 4 0 -2
BITMAP
E0
90
60
80
ENDCHAR
STARTCHAR 0767
ENCODING 1895
SWIDTH 720 0
DWIDTH 5 0
BBX 5 5 0 -2
BITMAP
08
88
88
50
20
ENDCHAR
STARTCHAR 0768
ENCODING 1896
SWIDTH 720 0
DWIDTH 5 0
BBX 5 6 0 0
BITMAP
70
20
08
88
88
70
ENDCHAR
STARTCHAR 0769
ENCODING 1897
SWIDTH 720 0
DWIDTH 5 0
BBX 5 7 0 -1
BITMAP
10
00
00
08
88
88
70
ENDCHAR
STARTCHAR 076A
ENCODING 1898
SWIDTH 432 0
DWIDTH 3 0
BBX 3 5 0 -1
BITMAP
20
20
20
A0
E0
ENDCHAR
STARTCHAR 076B
ENCODING 1899
SWIDTH 288 0
DWIDTH 2 0
BBX 1 4 1 1
BITMAP
80
80
80
80
ENDCHAR
STARTCHAR 076C
ENCODING 1900
SWIDTH 288 0
DWIDTH 2 0
BBX 1 6 1 -1
BITMAP
80
80
80
80
80
80
ENDCHAR
STARTCHAR 076D
ENCODING 1901
SWIDTH 864 0
DWIDTH 6 0
BBX 7 4 0 1
BITMAP
02
9A
9E
F0
ENDCHAR
STARTCHAR 076E
ENCODING 1902
SWIDTH 576 0
DWIDTH 4 0
BBX 3 4 0 -2
BITMAP
60
C0
E0
60
ENDCHAR
STARTCHAR 076F
ENCODING 1903
SWIDTH 576 0
DWIDTH 4 0
BBX 3 4 0 -2
BITMAP
60
E0
C0
60
ENDCHAR
STARTCHAR 0770
ENCODING 1904
SWIDTH 864 0
DWIDTH 6 0
BBX 7 6 0 0
BITMAP
0C
0C
02
9A
9E
F0
ENDCHAR
STARTCHAR 0771
ENCODING 1905
SWIDTH 288 0
DWIDTH 2 0
BBX 3 6 0 0
BITMAP
E0
20
40
40
40
40
ENDCHAR
STARTCHAR 0772
ENCODING 1906
SWIDTH 576 0
DWIDTH 4 0
BBX 3 7 0 -2
BITMAP
60
60
00
60
80
80
60
ENDCHAR
STARTCHAR 0773
ENCODING 1907
SWIDTH 144 0
DWIDTH 1 0
BBX 2 6 0 0
BITMAP
80
80
C0
40
40
40
ENDCHAR
STARTCHAR 0774
ENCODING 1908
SWIDTH 288 0
DWIDTH 2 0
BBX 2 6 0 0
BITMAP
80
80
C0
40
40
40
ENDCHAR
STARTCHAR 0775
ENCODING 1909
SWIDTH 720 0
DWIDTH 5 0
BBX 5 4 0 0
BITMAP
38
28
A8
E0
ENDCHAR
STARTCHAR 0776
ENCODING 1910
SWIDTH 720 0
DWIDTH 5 0
BBX 5 5 0 -1
BITMAP
40
38
28
A8
E0
ENDCHAR
STARTCHAR 0777
ENCODING 1911
SWIDTH 720 0
DWIDTH 5 0
BBX 5 5 0 -3
BITMAP
38
28
A8
B8
60
ENDCHAR
STARTCHAR 0778
ENCODING 1912
SWIDTH 432 0
DWIDTH 3 0
BBX 3 6 0 -1
BITMAP
80
80
E0
A0
60
60
ENDCHAR
STARTCHAR 0779
ENCODING 1913
SWIDTH 432 0
DWIDTH 3 0
BBX 3 6 0 -1
BITMAP
C0
80
E0
A0
60
60
ENDCHAR
STARTCHAR 077A
ENCODING 1914
SWIDTH 720 0
DWIDTH 5 0
BBX 5 3 0 2
BITMAP
60
80
F8
ENDCHAR
STARTCHAR 077B
ENCODING 1915
SWIDTH 720 0
DWIDTH 5 0
BBX 5 5 0 0
BITMAP
40
00
60
80
F8
ENDCHAR
STARTCHAR 077C
ENCODING 1916
SWIDTH 576 0
DWIDTH 4 0
BBX 3 4 0 -2
BITMAP
60
A0
80
60
ENDCHAR
STARTCHAR 077D
ENCODING 1917
SWIDTH 864 0
DWIDTH 6 0
BBX 7 6 0 -1
BITMAP
10
00
02
9A
9E
F0
ENDCHAR
STARTCHAR 077E
ENCODING 1918
SWIDTH 864 0
DWIDTH 6 0
BBX 7 4 0 1
BITMAP
02
9A
9E
F0
ENDCHAR
STARTCHAR 077F
ENCODING 1919
SWIDTH 720 0
DWIDTH 5 0
BBX 5 6 0 0
BITMAP
10
00
08
28
88
78
ENDCHAR
STARTCHAR 0870
ENCODING 2160
SWIDTH 144 0
DWIDTH 1 0
BBX 1 5 0 0
BITMAP
80
80
80
80
80
ENDCHAR
STARTCHAR 0871
ENCODING 2161
SWIDTH 288 0
DWIDTH 2 0
BBX 1 5 0 0
BITMAP
80
80
80
80
80
ENDCHAR
STARTCHAR 0872
ENCODING 2162
SWIDTH 288 0
DWIDTH 2 0
BBX 2 4 0 0
BITMAP
80
C0
80
80
ENDCHAR
STARTCHAR 0873
ENCODING 2163
SWIDTH 288 0
DWIDTH 2 0
BBX 1 4 1 0
BITMAP
80
80
80
80
ENDCHAR
STARTCHAR 0874
ENCODING 2164
SWIDTH 144 0
DWIDTH 1 0
BBX 1 4 0 0
BITMAP
80
80
80
80
ENDCHAR
STARTCHAR 0875
ENCODING 2165
SWIDTH 288 0
DWIDTH 2 0
BBX 1 4 0 0
BITMAP
80
80
80
80
ENDCHAR
STARTCHAR 0876
ENCODING 2166
SWIDTH 144 0
DWIDTH 1 0
BBX 1 5 0 0
BITMAP
80
80
80
80
80
ENDCHAR
STARTCHAR 0877
ENCODING 2167
SWIDTH 288 0
DWIDTH 2 0
BBX 2 4 0 0
BITMAP
80
C0
80
80
ENDCHAR
STARTCHAR 0878
ENCODING 2168
SWIDTH 288 0
DWIDTH 2 0
BBX 2 4 0 0
BITMAP
40
C0
40
40
ENDCHAR
STARTCHAR 0879
ENCODING 2169
SWIDTH 144 0
DWIDTH 1 0
BBX 1 5 0 -1
BITMAP
80
80
80
80
80
ENDCHAR
STARTCHAR 087A
ENCODING 2170
SWIDTH 144 0
DWIDTH 1 0
BBX 1 6 0 0
BITMAP
80
00
80
80
80
80
ENDCHAR
STARTCHAR 087B
ENCODING 2171
SWIDTH 288 0
DWIDTH 2 0
BBX 1 6 0 0
BITMAP
80
80
80
80
80
80
ENDCHAR
STARTCHAR 087C
ENCODING 2172
SWIDTH 288 0
DWIDTH 2 0
BBX 2 6 0 0
BITMAP
80
00
80
C0
80
80
ENDCHAR
STARTCHAR 087D
ENCODING 2173
SWIDTH 288 0
DWIDTH 2 0
BBX 1 6 0 0
BITMAP
80
00
80
80
80
80
ENDCHAR
STARTCHAR 087E
ENCODING 2174
SWIDTH 432 0
DWIDTH 3 0
BBX 2 5 0 0
BITMAP
40
40
C0
40
40
ENDCHAR
STARTCHAR 087F
ENCODING 2175
SWIDTH 432 0
DWIDTH 3 0
BBX 3 4 0 0
BITMAP
40
E0
40
40
ENDCHAR
STARTCHAR 0880
ENCODING 2176
SWIDTH 432 0
DWIDTH 3 0
BBX 2 4 0 0
BITMAP
40
C0
40
40
ENDCHAR
STARTCHAR 0881
ENCODING 2177
SWIDTH 288 0
DWIDTH 2 0
BBX 2 4 0 0
BITMAP
80
C0
80
80
ENDCHAR
STARTCHAR 0882
ENCODING 2178
SWIDTH 288 0
DWIDTH 2 0
BBX 2 4 0 0
BITMAP
40
C0
40
40
ENDCHAR
STARTCHAR 0883
ENCODING 2179
SWIDTH 432 0
DWIDTH 3 0
BBX 3 3 0 -1
BITMAP
E0
E0
60
ENDCHAR
STARTCHAR 0884
ENCODING 2180
SWIDTH 432 0
DWIDTH 3 0
BBX 3 4 0 -1
BITMAP
E0
A0
E0
60
ENDCHAR
STARTCHAR 0885
ENCODING 2181
SWIDTH 288 0
DWIDTH 2 0
BBX 2 1 0 -1
BITMAP
C0
ENDCHAR
STARTCHAR 0886
ENCODING 2182
SWIDTH 720 0
DWIDTH 5 0
BBX 5 5 0 -2
BITMAP
38
28
20
A0
40
ENDCHAR
STARTCHAR 0887
ENCODING 2183
SWIDTH 144 0
DWIDTH 1 0
BBX 1 1 0 0
BITMAP
80
ENDCHAR
STARTCHAR 0888
ENCODING 2184
SWIDTH 144 0
DWIDTH 1 0
BBX 1 1 0 2
BITMAP
80
ENDCHAR
STARTCHAR 0889
ENCODING 2185
SWIDTH 720 0
DWIDTH 5 0
BBX 5 5 0 0
BITMAP
10
08
88
88
70
ENDCHAR
STARTCHAR 088A
ENCODING 2186
SWIDTH 576 0
DWIDTH 4 0
BBX 3 4 0 -2
BITMAP
60
80
C0
60
ENDCHAR
STARTCHAR 088B
ENCODING 2187
SWIDTH 720 0
DWIDTH 5 0
BBX 6 5 0 -1
BITMAP
40
78
44
FC
10
ENDCHAR
STARTCHAR 088C
ENCODING 2188
SWIDTH 720 0
DWIDTH 5 0
BBX 6 6 0 -2
BITMAP
40
78
44
FC
00
10
ENDCHAR
STARTCHAR 088D
ENCODING 2189
SWIDTH 720 0
DWIDTH 5 0
BBX 5 4 0 -1
BITMAP
10
20
90
78
ENDCHAR
STARTCHAR 088E
ENCODING 2190
SWIDTH 144 0
DWIDTH 1 0
BBX 1 2 0 -2
BITMAP
80
80
ENDCHAR
STARTCHAR 08A0
ENCODING 2208
SWIDTH 720 0
DWIDTH 5 0
BBX 5 4 0 -2
BITMAP
08
88
78
10
ENDCHAR
STARTCHAR 08A1
ENCODING 2209
SWIDTH 720 0
DWIDTH 5 0
BBX 5 4 0 0
BITMAP
20
08
88
78
ENDCHAR
STARTCHAR 08A2
ENCODING 2210
SWIDTH 576 0
DWIDTH 4 0
BBX 3 4 0 0
BITMAP
60
80
80
60
ENDCHAR
STARTCHAR 08A3
ENCODING 2211
SWIDTH 720 0
DWIDTH 5 0
BBX 6 4 0 0
BITMAP
40
78
44
FC
ENDCHAR
STARTCHAR 08A4
ENCODING 2212
SWIDTH 864 0
DWIDTH 6 0
BBX 6 3 0 1
BITMAP
0C
94
7C
ENDCHAR
STARTCHAR 08A5
ENCODING 2213
SWIDTH 576 0
DWIDTH 4 0
BBX 5 5 0 -1
BITMAP
38
A8
B8
90
60
ENDCHAR
STARTCHAR 08A6
ENCODING 2214
SWIDTH 432 0
DWIDTH 3 0
BBX 4 5 0 -1
BITMAP
20
30
30
A0
E0
ENDCHAR
STARTCHAR 08A7
ENCODING 2215
SWIDTH 432 0
DWIDTH 3 0
BBX 4 4 0 0
BITMAP
E0
90
60
80
ENDCHAR
STARTCHAR 08A8
ENCODING 2216
SWIDTH 720 0
DWIDTH 5 0
BBX 5 5 0 -3
BITMAP
B8
28
A8
A0
40
ENDCHAR
STARTCHAR 08A9
ENCODING 2217
SWIDTH 720 0
DWIDTH 5 0
BBX 5 5 0 -2
BITMAP
38
28
A8
A0
40
ENDCHAR
STARTCHAR 08AA
ENCODING 2218
SWIDTH 432 0
DWIDTH 3 0
BBX 3 4 0 -1
BITMAP
40
40
40
E0
ENDCHAR
STARTCHAR 08AB
ENCODING 2219
SWIDTH 432 0
DWIDTH 3 0
BBX 3 4 0 -1
BITMAP
E0
A0
60
60
ENDCHAR
STARTCHAR 08AC
ENCODING 2220
SWIDTH 432 0
DWIDTH 3 0
BBX 4 4 0 -2
BITMAP
60
A0
70
C0
ENDCHAR
STARTCHAR 08AD
ENCODING 2221
SWIDTH 144 0
DWIDTH 1 0
BBX 1 3 0 -3
BITMAP
80
80
80
ENDCHAR
STARTCHAR 08AE
ENCODING 2222
SWIDTH 432 0
DWIDTH 3 0
BBX 3 5 0 -2
BITMAP
20
20
E0
00
40
ENDCHAR
STARTCHAR 08AF
ENCODING 2223
SWIDTH 1152 0
DWIDTH 8 0
BBX 8 5 0 -2
BITMAP
2F
31
9F
A0
44
ENDCHAR
STARTCHAR 08B0
ENCODING 2224
SWIDTH 720 0
DWIDTH 5 0
BBX 5 4 0 1
BITMAP
10
28
90
78
ENDCHAR
STARTCHAR 08B1
ENCODING 2225
SWIDTH 432 0
DWIDTH 3 0
BBX 3 4 0 -2
BITMAP
E0
A0
60
20
ENDCHAR
STARTCHAR 08B2
ENCODING 2226
SWIDTH 288 0
DWIDTH 2 0
BBX 1 7 1 -1
BITMAP
80
00
00
80
80
80
80
ENDCHAR
STARTCHAR 08B3
ENCODING 2227
SWIDTH 432 0
DWIDTH 3 0
BBX 3 5 0 -2
BITMAP
C0
80
C0
80
60
ENDCHAR
STARTCHAR 08B4
ENCODING 2228
SWIDTH 720 0
DWIDTH 5 0
BBX 5 4 0 -1
BITMAP
08
28
88
78
ENDCHAR
STARTCHAR 08B5
ENCODING 2229
SWIDTH 576 0
DWIDTH 4 0
BBX 5 5 0 -2
BITMAP
38
A8
B8
90
60
ENDCHAR
STARTCHAR 08B6
ENCODING 2230
SWIDTH 720 0
DWIDTH 5 0
BBX 5 5 0 -1
BITMAP
70
20
08
88
78
ENDCHAR
STARTCHAR 08B7
ENCODING 2231
SWIDTH 720 0
DWIDTH 5 0
BBX 5 7 0 -2
BITMAP
70
20
08
88
78
00
20
ENDCHAR
STARTCHAR 08B8
ENCODING 2232
SWIDTH 720 0
DWIDTH 5 0
BBX 5 6 0 0
BITMAP
20
10
30
08
88
78
ENDCHAR
STARTCHAR 08B9
ENCODING 2233
SWIDTH 432 0
DWIDTH 3 0
BBX 3 7 0 -1
BITMAP
60
A0
40
40
40
40
40
ENDCHAR
STARTCHAR 08BA
ENCODING 2234
SWIDTH 720 0
DWIDTH 5 0
BBX 5 7 0 -2
BITMAP
10
20
38
28
A8
A0
40
ENDCHAR
STARTCHAR 08BB
ENCODING 2235
SWIDTH 864 0
DWIDTH 6 0
BBX 6 3 0 0
BITMAP
0C
94
7C
ENDCHAR
STARTCHAR 08BC
ENCODING 2236
SWIDTH 576 0
DWIDTH 4 0
BBX 5 4 0 -1
BITMAP
38
A8
B8
F0
ENDCHAR
STARTCHAR 08BD
ENCODING 2237
SWIDTH 720 0
DWIDTH 5 0
BBX 5 4 0 -1
BITMAP
08
88
88
70
ENDCHAR
STARTCHAR 08BE
ENCODING 2238
SWIDTH 720 0
DWIDTH 5 0
BBX 5 7 0 -2
BITMAP
10
00
08
88
78
00
20
ENDCHAR
STARTCHAR 08BF
ENCODING 2239
SWIDTH 720 0
DWIDTH 5 0
BBX 5 6 0 0
BITMAP
10
00
00
08
88
78
ENDCHAR
STARTCHAR 08C0
ENCODING 2240
SWIDTH 720 0
DWIDTH 5 0
BBX 5 6 0 0
BITMAP
10
00
30
08
88
78
ENDCHAR
STARTCHAR 08C1
ENCODING 2241
SWIDTH 576 0
DWIDTH 4 0
BBX 3 7 0 -2
BITMAP
40
00
00
60
80
80
60
ENDCHAR
STARTCHAR 08C2
ENCODING 2242
SWIDTH 720 0
DWIDTH 5 0
BBX 5 6 0 0
BITMAP
20
00
10
20
90
78
ENDCHAR
STARTCHAR 08C3
ENCODING 2243
SWIDTH 432 0
DWIDTH 3 0
BBX 3 7 0 -1
BITMAP
40
20
40
80
80
C0
E0
ENDCHAR
STARTCHAR 08C4
ENCODING 2244
SWIDTH 576 0
DWIDTH 4 0
BBX 5 4 0 1
BITMAP
38
A8
B8
F0
ENDCHAR
STARTCHAR 08C5
ENCODING 2245
SWIDTH 576 0
DWIDTH 4 0
BBX 3 4 0 1
BITMAP
60
80
80
60
ENDCHAR
STARTCHAR 08C6
ENCODING 2246
SWIDTH 576 0
DWIDTH 4 0
BBX 3 4 0 -2
BITMAP
60
80
80
60
ENDCHAR
STARTCHAR 08C7
ENCODING 2247
SWIDTH 432 0
DWIDTH 3 0
BBX 4 6 0 0
BITMAP
70
00
20
20
A0
E0
ENDCHAR
STARTCHAR 08C8
ENCODING 2248
SWIDTH 720 0
DWIDTH 5 0
BBX 5 6 0 0
BITMAP
30
30
30
20
90
78
ENDCHAR
STARTCHAR 08D5
ENCODING 2261
SWIDTH 0 0
DWIDTH 0 0
BBX 4 3 -2 3
BITMAP
70
50
A0
ENDCHAR
STARTCHAR 08D6
ENCODING 2262
SWIDTH 0 0
DWIDTH 0 0
BBX 2 2 -1 3
BITMAP
C0
80
ENDCHAR
STARTCHAR 08D7
ENCODING 2263
SWIDTH 0 0
DWIDTH 0 0
BBX 2 2 -1 4
BITMAP
C0
C0
ENDCHAR
STARTCHAR 08F3
ENCODING 2291
SWIDTH 0 0
DWIDTH 0 0
BBX 1 2 0 3
BITMAP
80
80
ENDCHAR
STARTCHAR 0E3F
ENCODING 3647
SWIDTH 432 0
DWIDTH 3 0
BBX 3 6 0 -1
BITMAP
40
E0
E0
E0
E0
40
ENDCHAR
STARTCHAR 0F1A
ENCODING 3866
SWIDTH 432 0
DWIDTH 3 0
BBX 2 2 1 1
BITMAP
C0
C0
ENDCHAR
STARTCHAR 0F1B
ENCODING 3867
SWIDTH 720 0
DWIDTH 5 0
BBX 5 2 0 1
BITMAP
F8
58
ENDCHAR
STARTCHAR 0F1C
ENCODING 3868
SWIDTH 720 0
DWIDTH 5 0
BBX 5 4 0 0
BITMAP
70
30
F8
D8
ENDCHAR
STARTCHAR 0F1D
ENCODING 3869
SWIDTH 432 0
DWIDTH 3 0
BBX 2 2 1 2
BITMAP
C0
C0
ENDCHAR
STARTCHAR 0F1E
ENCODING 3870
SWIDTH 720 0
DWIDTH 5 0
BBX 5 3 0 1
BITMAP
20
58
B8
ENDCHAR
STARTCHAR 0F1F
ENCODING 3871
SWIDTH 720 0
DWIDTH 5 0
BBX 5 2 0 2
BITMAP
F8
58
ENDCHAR
STARTCHAR 0FC0
ENCODING 4032
SWIDTH 720 0
DWIDTH 5 0
BBX 5 3 0 1
BITMAP
70
88
F8
ENDCHAR
STARTCHAR 0FC1
ENCODING 4033
SWIDTH 432 0
DWIDTH 3 0
BBX 3 2 0 1
BITMAP
E0
60
ENDCHAR
STARTCHAR 0FC2
ENCODING 4034
SWIDTH 576 0
DWIDTH 4 0
BBX 4 4 0 1
BITMAP
30
D0
E0
C0
ENDCHAR
STARTCHAR 0FC3
ENCODING 4035
SWIDTH 720 0
DWIDTH 5 0
BBX 5 5 0 0
BITMAP
20
F8
D8
B8
70
ENDCHAR
STARTCHAR 0FC4
ENCODING 4036
SWIDTH 432 0
DWIDTH 3 0
BBX 3 4 0 0
BITMAP
40
40
60
E0
ENDCHAR
STARTCHAR 0FC5
ENCODING 4037
SWIDTH 288 0
DWIDTH 2 0
BBX 2 4 0 0
BITMAP
40
C0
40
40
ENDCHAR
STARTCHAR 0FC7
ENCODING 4039
SWIDTH 720 0
DWIDTH 5 0
BBX 5 4 0 0
BITMAP
20
B0
68
20
ENDCHAR
STARTCHAR 0FC8
ENCODING 4040
SWIDTH 288 0
DWIDTH 2 0
BBX 2 4 0 0
BITMAP
40
80
C0
80
ENDCHAR
STARTCHAR 0FC9
ENCODING 4041
SWIDTH 576 0
DWIDTH 4 0
BBX 4 4 0 1
BITMAP
E0
F0
90
E0
ENDCHAR
STARTCHAR 0FCA
ENCODING 4042
SWIDTH 720 0
DWIDTH 5 0
BBX 5 5 0 0
BITMAP
20
D8
F8
A8
F0
ENDCHAR
STARTCHAR 0FCB
ENCODING 4043
SWIDTH 720 0
DWIDTH 5 0
BBX 5 5 0 0
BITMAP
20
F8
F8
F8
F0
ENDCHAR
STARTCHAR 0FCC
ENCODING 4044
SWIDTH 720 0
DWIDTH 5 0
BBX 5 5 0 0
BITMAP
20
D8
F8
E8
F0
ENDCHAR
STARTCHAR 0FCE
ENCODING 4046
SWIDTH 720 0
DWIDTH 5 0
BBX 5 3 0 1
BITMAP
20
58
B8
ENDCHAR
STARTCHAR 0FCF
ENCODING 4047
SWIDTH 720 0
DWIDTH 5 0
BBX 5 4 0 1
BITMAP
30
10
58
B8
ENDCHAR
STARTCHAR 0FD5
ENCODING 4053
SWIDTH 720 0
DWIDTH 5 0
BBX 5 4 0 1
BITMAP
B0
A0
78
68
ENDCHAR
STARTCHAR 0FD6
ENCODING 4054
SWIDTH 720 0
DWIDTH 5 0
BBX 5 4 0 1
BITMAP
68
28
F0
B0
ENDCHAR
STARTCHAR 0FD7
ENCODING 4055
SWIDTH 720 0
DWIDTH 5 0
BBX 5 4 0 1
BITMAP
F0
A0
78
68
ENDCHAR
STARTCHAR 0FD8
ENCODING 4056
SWIDTH 720 0
DWIDTH 5 0
BBX 5 4 0 1
BITMAP
78
28
F0
B0
ENDCHAR
STARTCHAR 10A0
ENCODING 4256
SWIDTH 576 0
DWIDTH 4 0
BBX 3 4 0 0
BITMAP
E0
80
80
60
ENDCHAR
STARTCHAR 10A1
ENCODING 4257
SWIDTH 576 0
DWIDTH 4 0
BBX 4 4 0 0
BITMAP
A0
60
20
30
ENDCHAR
STARTCHAR 10A2
ENCODING 4258
SWIDTH 576 0
DWIDTH 4 0
BBX 4 4 0 0
BITMAP
E0
20
20
10
ENDCHAR
STARTCHAR 10A3
ENCODING 4259
SWIDTH 432 0
DWIDTH 3 0
BBX 3 4 0 0
BITMAP
60
A0
A0
E0
ENDCHAR
STARTCHAR 10A4
ENCODING 4260
SWIDTH 432 0
DWIDTH 3 0
BBX 3 4 0 0
BITMAP
E0
20
20
20
ENDCHAR
STARTCHAR 10A5
ENCODING 4261
SWIDTH 576 0
DWIDTH 4 0
BBX 5 4 0 0
BITMAP
E0
38
20
20
ENDCHAR
STARTCHAR 10A6
ENCODING 4262
SWIDTH 576 0
DWIDTH 4 0
BBX 3 4 1 0
BITMAP
80
E0
A0
E0
ENDCHAR
STARTCHAR 10A7
ENCODING 4263
SWIDTH 720 0
DWIDTH 5 0
BBX 5 4 0 0
BITMAP
F0
98
90
70
ENDCHAR
STARTCHAR 10A8
ENCODING 4264
SWIDTH 432 0
DWIDTH 3 0
BBX 2 4 1 0
BITMAP
C0
40
40
40
ENDCHAR
STARTCHAR 10A9
ENCODING 4265
SWIDTH 432 0
DWIDTH 3 0
BBX 3 4 0 0
BITMAP
E0
A0
A0
60
ENDCHAR
STARTCHAR 10AA
ENCODING 4266
SWIDTH 720 0
DWIDTH 5 0
BBX 5 4 0 0
BITMAP
E0
B8
28
30
ENDCHAR
STARTCHAR 10AB
ENCODING 4267
SWIDTH 720 0
DWIDTH 5 0
BBX 5 4 0 0
BITMAP
60
F8
A0
60
ENDCHAR
STARTCHAR 10AC
ENCODING 4268
SWIDTH 432 0
DWIDTH 3 0
BBX 3 4 0 0
BITMAP
E0
80
E0
A0
ENDCHAR
STARTCHAR 10AD
ENCODING 4269
SWIDTH 864 0
DWIDTH 6 0
BBX 6 5 0 0
BITMAP
20
D0
90
94
7C
ENDCHAR
STARTCHAR 10AE
ENCODING 4270
SWIDTH 720 0
DWIDTH 5 0
BBX 4 4 1 0
BITMAP
90
90
90
60
ENDCHAR
STARTCHAR 10AF
ENCODING 4271
SWIDTH 576 0
DWIDTH 4 0
BBX 4 5 0 -1
BITMAP
50
90
90
50
30
ENDCHAR
STARTCHAR 10B0
ENCODING 4272
SWIDTH 576 0
DWIDTH 4 0
BBX 5 4 0 0
BITMAP
20
30
A8
E0
ENDCHAR
STARTCHAR 10B1
ENCODING 4273
SWIDTH 432 0
DWIDTH 3 0
BBX 3 4 0 0
BITMAP
80
80
A0
E0
ENDCHAR
STARTCHAR 10B2
ENCODING 4274
SWIDTH 432 0
DWIDTH 3 0
BBX 3 4 0 0
BITMAP
E0
A0
C0
E0
ENDCHAR
STARTCHAR 10B3
ENCODING 4275
SWIDTH 720 0
DWIDTH 5 0
BBX 5 5 0 0
BITMAP
20
D0
90
98
68
ENDCHAR
STARTCHAR 10B4
ENCODING 4276
SWIDTH 576 0
DWIDTH 4 0
BBX 4 4 0 0
BITMAP
F0
D0
60
40
ENDCHAR
STARTCHAR 10B5
ENCODING 4277
SWIDTH 432 0
DWIDTH 3 0
BBX 3 4 0 0
BITMAP
40
C0
60
40
ENDCHAR
STARTCHAR 10B6
ENCODING 4278
SWIDTH 576 0
DWIDTH 4 0
BBX 4 4 0 1
BITMAP
F0
90
90
90
ENDCHAR
STARTCHAR 10B7
ENCODING 4279
SWIDTH 432 0
DWIDTH 3 0
BBX 3 4 0 0
BITMAP
A0
60
20
20
ENDCHAR
STARTCHAR 10B8
ENCODING 4280
SWIDTH 432 0
DWIDTH 3 0
BBX 3 4 0 0
BITMAP
A0
60
A0
60
ENDCHAR
STARTCHAR 10B9
ENCODING 4281
SWIDTH 432 0
DWIDTH 3 0
BBX 3 4 0 0
BITMAP
80
80
E0
A0
ENDCHAR
STARTCHAR 10BA
ENCODING 4282
SWIDTH 576 0
DWIDTH 4 0
BBX 4 5 0 0
BITMAP
20
D0
80
90
70
ENDCHAR
STARTCHAR 10BB
ENCODING 4283
SWIDTH 720 0
DWIDTH 5 0
BBX 5 4 0 0
BITMAP
20
F8
A0
60
ENDCHAR
STARTCHAR 10BC
ENCODING 4284
SWIDTH 432 0
DWIDTH 3 0
BBX 3 4 0 0
BITMAP
E0
E0
E0
A0
ENDCHAR
STARTCHAR 10BD
ENCODING 4285
SWIDTH 432 0
DWIDTH 3 0
BBX 3 5 0 0
BITMAP
40
A0
40
20
E0
ENDCHAR
STARTCHAR 10BE
ENCODING 4286
SWIDTH 432 0
DWIDTH 3 0
BBX 3 4 0 0
BITMAP
A0
A0
C0
E0
ENDCHAR
STARTCHAR 10BF
ENCODING 4287
SWIDTH 576 0
DWIDTH 4 0
BBX 4 5 0 -1
BITMAP
70
20
60
50
80
ENDCHAR
STARTCHAR 10C0
ENCODING 4288
SWIDTH 576 0
DWIDTH 4 0
BBX 4 4 0 0
BITMAP
C0
40
40
30
ENDCHAR
STARTCHAR 10C1
ENCODING 4289
SWIDTH 432 0
DWIDTH 3 0
BBX 3 4 0 0
BITMAP
80
C0
A0
80
ENDCHAR
STARTCHAR 10C2
ENCODING 4290
SWIDTH 576 0
DWIDTH 4 0
BBX 4 4 0 1
BITMAP
E0
10
10
60
ENDCHAR
STARTCHAR 10C3
ENCODING 4291
SWIDTH 432 0
DWIDTH 3 0
BBX 4 4 0 0
BITMAP
D0
50
30
10
ENDCHAR
STARTCHAR 10C4
ENCODING 4292
SWIDTH 432 0
DWIDTH 3 0
BBX 3 4 0 0
BITMAP
A0
A0
40
40
ENDCHAR
STARTCHAR 10C5
ENCODING 4293
SWIDTH 576 0
DWIDTH 4 0
BBX 4 4 0 1
BITMAP
30
20
F0
E0
ENDCHAR
STARTCHAR 10C7
ENCODING 4295
SWIDTH 432 0
DWIDTH 3 0
BBX 3 5 0 0
BITMAP
40
20
40
80
E0
ENDCHAR
STARTCHAR 10CD
ENCODING 4301
SWIDTH 432 0
DWIDTH 3 0
BBX 3 4 0 0
BITMAP
60
40
40
E0
ENDCHAR
STARTCHAR 10D0
ENCODING 4304
SWIDTH 432 0
DWIDTH 3 0
BBX 3 3 0 0
BITMAP
40
20
E0
ENDCHAR
STARTCHAR 10D1
ENCODING 4305
SWIDTH 432 0
DWIDTH 3 0
BBX 3 5 0 0
BITMAP
80
40
A0
A0
E0
ENDCHAR
STARTCHAR 10D2
ENCODING 4306
SWIDTH 432 0
DWIDTH 3 0
BBX 3 4 0 -1
BITMAP
C0
60
A0
E0
ENDCHAR
STARTCHAR 10D3
ENCODING 4307
SWIDTH 720 0
DWIDTH 5 0
BBX 5 5 0 -2
BITMAP
F8
A8
98
70
08
ENDCHAR
STARTCHAR 10D4
ENCODING 4308
SWIDTH 432 0
DWIDTH 3 0
BBX 3 4 0 -1
BITMAP
E0
20
A0
E0
ENDCHAR
STARTCHAR 10D5
ENCODING 4309
SWIDTH 432 0
DWIDTH 3 0
BBX 3 4 0 -1
BITMAP
E0
20
A0
E0
ENDCHAR
STARTCHAR 10D6
ENCODING 4310
SWIDTH 576 0
DWIDTH 4 0
BBX 4 4 0 1
BITMAP
E0
50
50
30
ENDCHAR
STARTCHAR 10D7
ENCODING 4311
SWIDTH 720 0
DWIDTH 5 0
BBX 5 3 0 0
BITMAP
F8
A8
E8
ENDCHAR
STARTCHAR 10D8
ENCODING 4312
SWIDTH 432 0
DWIDTH 3 0
BBX 3 3 0 0
BITMAP
E0
A0
A0
ENDCHAR
STARTCHAR 10D9
ENCODING 4313
SWIDTH 432 0
DWIDTH 3 0
BBX 3 4 0 -1
BITMAP
20
20
A0
E0
ENDCHAR
STARTCHAR 10DA
ENCODING 4314
SWIDTH 864 0
DWIDTH 6 0
BBX 6 5 0 -2
BITMAP
FC
A4
84
70
08
ENDCHAR
STARTCHAR 10DB
ENCODING 4315
SWIDTH 432 0
DWIDTH 3 0
BBX 3 5 0 0
BITMAP
40
20
E0
A0
E0
ENDCHAR
STARTCHAR 10DC
ENCODING 4316
SWIDTH 432 0
DWIDTH 3 0
BBX 3 4 0 0
BITMAP
C0
E0
A0
E0
ENDCHAR
STARTCHAR 10DD
ENCODING 4317
SWIDTH 720 0
DWIDTH 5 0
BBX 5 3 0 0
BITMAP
F8
88
88
ENDCHAR
STARTCHAR 10DE
ENCODING 4318
SWIDTH 432 0
DWIDTH 3 0
BBX 3 5 0 0
BITMAP
80
60
20
A0
E0
ENDCHAR
STARTCHAR 10DF
ENCODING 4319
SWIDTH 432 0
DWIDTH 3 0
BBX 3 4 0 -1
BITMAP
60
60
A0
E0
ENDCHAR
STARTCHAR 10E0
ENCODING 4320
SWIDTH 720 0
DWIDTH 5 0
BBX 5 4 0 0
BITMAP
40
B8
88
88
ENDCHAR
STARTCHAR 10E1
ENCODING 4321
SWIDTH 432 0
DWIDTH 3 0
BBX 3 4 0 0
BITMAP
80
A0
A0
E0
ENDCHAR
STARTCHAR 10E2
ENCODING 4322
SWIDTH 576 0
DWIDTH 4 0
BBX 4 4 0 0
BITMAP
60
70
90
70
ENDCHAR
STARTCHAR 10E3
ENCODING 4323
SWIDTH 720 0
DWIDTH 5 0
BBX 5 4 0 -1
BITMAP
F8
48
28
38
ENDCHAR
STARTCHAR 10E4
ENCODING 4324
SWIDTH 576 0
DWIDTH 4 0
BBX 4 4 0 -1
BITMAP
E0
60
50
70
ENDCHAR
STARTCHAR 10E5
ENCODING 4325
SWIDTH 432 0
DWIDTH 3 0
BBX 3 5 0 -1
BITMAP
20
E0
20
A0
E0
ENDCHAR
STARTCHAR 10E6
ENCODING 4326
SWIDTH 720 0
DWIDTH 5 0
BBX 5 5 0 -2
BITMAP
F8
88
88
70
08
ENDCHAR
STARTCHAR 10E7
ENCODING 4327
SWIDTH 432 0
DWIDTH 3 0
BBX 3 4 0 -1
BITMAP
A0
60
A0
E0
ENDCHAR
STARTCHAR 10E8
ENCODING 4328
SWIDTH 432 0
DWIDTH 3 0
BBX 4 5 0 0
BITMAP
60
90
70
90
60
ENDCHAR
STARTCHAR 10E9
ENCODING 4329
SWIDTH 432 0
DWIDTH 3 0
BBX 3 5 0 0
BITMAP
40
C0
80
E0
A0
ENDCHAR
STARTCHAR 10EA
ENCODING 4330
SWIDTH 432 0
DWIDTH 3 0
BBX 4 4 0 1
BITMAP
A0
A0
90
60
ENDCHAR
STARTCHAR 10EB
ENCODING 4331
SWIDTH 432 0
DWIDTH 3 0
BBX 3 4 0 1
BITMAP
20
E0
A0
E0
ENDCHAR
STARTCHAR 10EC
ENCODING 4332
SWIDTH 432 0
DWIDTH 3 0
BBX 3 6 0 -1
BITMAP
60
80
60
A0
60
40
ENDCHAR
STARTCHAR 10ED
ENCODING 4333
SWIDTH 576 0
DWIDTH 4 0
BBX 4 6 0 -1
BITMAP
40
20
70
60
A0
E0
ENDCHAR
STARTCHAR 10EE
ENCODING 4334
SWIDTH 432 0
DWIDTH 3 0
BBX 3 4 0 0
BITMAP
C0
A0
A0
E0
ENDCHAR
STARTCHAR 10EF
ENCODING 4335
SWIDTH 720 0
DWIDTH 5 0
BBX 5 4 0 -1
BITMAP
C8
28
30
D8
ENDCHAR
STARTCHAR 10F0
ENCODING 4336
SWIDTH 432 0
DWIDTH 3 0
BBX 3 5 0 0
BITMAP
80
60
20
A0
E0
ENDCHAR
STARTCHAR 10F1
ENCODING 4337
SWIDTH 720 0
DWIDTH 5 0
BBX 5 5 0 0
BITMAP
60
B8
D0
90
70
ENDCHAR
STARTCHAR 10F2
ENCODING 4338
SWIDTH 432 0
DWIDTH 3 0
BBX 4 3 0 0
BITMAP
E0
A0
F0
ENDCHAR
STARTCHAR 10F3
ENCODING 4339
SWIDTH 432 0
DWIDTH 3 0
BBX 2 4 1 -1
BITMAP
C0
80
40
C0
ENDCHAR
STARTCHAR 10F4
ENCODING 4340
SWIDTH 432 0
DWIDTH 3 0
BBX 3 5 0 0
BITMAP
80
60
40
20
60
ENDCHAR
STARTCHAR 10F5
ENCODING 4341
SWIDTH 432 0
DWIDTH 3 0
BBX 3 5 0 0
BITMAP
40
A0
60
E0
E0
ENDCHAR
STARTCHAR 10F6
ENCODING 4342
SWIDTH 576 0
DWIDTH 4 0
BBX 4 5 0 0
BITMAP
60
B0
D0
B0
40
ENDCHAR
STARTCHAR 10F7
ENCODING 4343
SWIDTH 432 0
DWIDTH 3 0
BBX 3 4 0 -1
BITMAP
E0
20
C0
E0
ENDCHAR
STARTCHAR 10F8
ENCODING 4344
SWIDTH 432 0
DWIDTH 3 0
BBX 3 4 0 -1
BITMAP
A0
C0
A0
E0
ENDCHAR
STARTCHAR 10F9
ENCODING 4345
SWIDTH 432 0
DWIDTH 3 0
BBX 3 4 0 -1
BITMAP
E0
A0
A0
60
ENDCHAR
STARTCHAR 10FA
ENCODING 4346
SWIDTH 576 0
DWIDTH 4 0
BBX 4 4 0 -1
BITMAP
70
80
80
70
ENDCHAR
STARTCHAR 10FB
ENCODING 4347
SWIDTH 288 0
DWIDTH 2 0
BBX 1 1 0 2
BITMAP
80
ENDCHAR
STARTCHAR 10FC
ENCODING 4348
SWIDTH 288 0
DWIDTH 2 0
BBX 2 2 0 3
BITMAP
C0
C0
ENDCHAR
STARTCHAR 10FD
ENCODING 4349
SWIDTH 432 0
DWIDTH 3 0
BBX 3 5 0 0
BITMAP
40
A0
40
20
E0
ENDCHAR
STARTCHAR 10FE
ENCODING 4350
SWIDTH 432 0
DWIDTH 3 0
BBX 4 3 0 0
BITMAP
F0
A0
60
ENDCHAR
STARTCHAR 10FF
ENCODING 4351
SWIDTH 432 0
DWIDTH 3 0
BBX 3 3 0 0
BITMAP
E0
A0
E0
ENDCHAR
STARTCHAR 13A0
ENCODING 5024
SWIDTH 576 0
DWIDTH 4 0
BBX 4 4 0 0
BITMAP
F0
90
90
E0
ENDCHAR
STARTCHAR 13A1
ENCODING 5025
SWIDTH 432 0
DWIDTH 3 0
BBX 3 4 0 0
BITMAP
E0
E0
C0
A0
ENDCHAR
STARTCHAR 13A2
ENCODING 5026
SWIDTH 432 0
DWIDTH 3 0
BBX 2 4 1 0
BITMAP
C0
80
80
80
ENDCHAR
STARTCHAR 13A3
ENCODING 5027
SWIDTH 576 0
DWIDTH 4 0
BBX 4 4 0 0
BITMAP
20
50
50
D0
ENDCHAR
STARTCHAR 13A4
ENCODING 5028
SWIDTH 720 0
DWIDTH 5 0
BBX 5 5 0 0
BITMAP
20
D8
88
90
60
ENDCHAR
STARTCHAR 13A5
ENCODING 5029
SWIDTH 288 0
DWIDTH 2 0
BBX 2 3 0 1
BITMAP
80
80
C0
ENDCHAR
STARTCHAR 13A6
ENCODING 5030
SWIDTH 432 0
DWIDTH 3 0
BBX 3 4 0 1
BITMAP
E0
60
20
60
ENDCHAR
STARTCHAR 13A7
ENCODING 5031
SWIDTH 576 0
DWIDTH 4 0
BBX 4 5 0 0
BITMAP
40
30
D0
D0
60
ENDCHAR
STARTCHAR 13A8
ENCODING 5032
SWIDTH 432 0
DWIDTH 3 0
BBX 4 4 0 0
BITMAP
80
D0
A0
C0
ENDCHAR
STARTCHAR 13A9
ENCODING 5033
SWIDTH 432 0
DWIDTH 3 0
BBX 3 4 0 0
BITMAP
60
60
40
C0
ENDCHAR
STARTCHAR 13AA
ENCODING 5034
SWIDTH 576 0
DWIDTH 4 0
BBX 4 4 0 0
BITMAP
20
60
90
90
ENDCHAR
STARTCHAR 13AB
ENCODING 5035
SWIDTH 288 0
DWIDTH 2 0
BBX 2 4 0 0
BITMAP
40
40
40
C0
ENDCHAR
STARTCHAR 13AC
ENCODING 5036
SWIDTH 432 0
DWIDTH 3 0
BBX 3 4 0 0
BITMAP
E0
80
C0
E0
ENDCHAR
STARTCHAR 13AD
ENCODING 5037
SWIDTH 720 0
DWIDTH 5 0
BBX 5 4 0 0
BITMAP
60
F8
30
10
ENDCHAR
STARTCHAR 13AE
ENCODING 5038
SWIDTH 432 0
DWIDTH 3 0
BBX 3 5 0 0
BITMAP
40
20
A0
40
C0
ENDCHAR
STARTCHAR 13AF
ENCODING 5039
SWIDTH 576 0
DWIDTH 4 0
BBX 3 4 1 1
BITMAP
E0
A0
E0
A0
ENDCHAR
STARTCHAR 13B0
ENCODING 5040
SWIDTH 432 0
DWIDTH 3 0
BBX 2 4 0 0
BITMAP
80
80
C0
80
ENDCHAR
STARTCHAR 13B1
ENCODING 5041
SWIDTH 432 0
DWIDTH 3 0
BBX 3 4 0 0
BITMAP
E0
80
80
80
ENDCHAR
STARTCHAR 13B2
ENCODING 5042
SWIDTH 720 0
DWIDTH 5 0
BBX 5 5 0 0
BITMAP
20
60
50
E8
F0
ENDCHAR
STARTCHAR 13B3
ENCODING 5043
SWIDTH 864 0
DWIDTH 6 0
BBX 5 4 0 0
BITMAP
B8
B8
48
48
ENDCHAR
STARTCHAR 13B4
ENCODING 5044
SWIDTH 432 0
DWIDTH 3 0
BBX 3 5 0 0
BITMAP
20
40
A0
A0
E0
ENDCHAR
STARTCHAR 13B5
ENCODING 5045
SWIDTH 432 0
DWIDTH 3 0
BBX 3 5 0 0
BITMAP
40
A0
A0
80
80
ENDCHAR
STARTCHAR 13B6
ENCODING 5046
SWIDTH 576 0
DWIDTH 4 0
BBX 4 5 0 0
BITMAP
20
D0
C0
B0
60
ENDCHAR
STARTCHAR 13B7
ENCODING 5047
SWIDTH 576 0
DWIDTH 4 0
BBX 4 4 0 0
BITMAP
90
F0
F0
B0
ENDCHAR
STARTCHAR 13B8
ENCODING 5048
SWIDTH 432 0
DWIDTH 3 0
BBX 3 5 0 0
BITMAP
40
20
A0
E0
20
ENDCHAR
STARTCHAR 13B9
ENCODING 5049
SWIDTH 720 0
DWIDTH 5 0
BBX 5 4 0 0
BITMAP
28
50
C0
C0
ENDCHAR
STARTCHAR 13BA
ENCODING 5050
SWIDTH 720 0
DWIDTH 5 0
BBX 5 5 0 0
BITMAP
20
D8
98
98
68
ENDCHAR
STARTCHAR 13BB
ENCODING 5051
SWIDTH 432 0
DWIDTH 3 0
BBX 3 4 0 0
BITMAP
A0
A0
E0
A0
ENDCHAR
STARTCHAR 13BC
ENCODING 5052
SWIDTH 432 0
DWIDTH 3 0
BBX 3 4 0 0
BITMAP
40
A0
20
E0
ENDCHAR
STARTCHAR 13BD
ENCODING 5053
SWIDTH 576 0
DWIDTH 4 0
BBX 4 4 0 0
BITMAP
50
60
E0
E0
ENDCHAR
STARTCHAR 13BE
ENCODING 5054
SWIDTH 576 0
DWIDTH 4 0
BBX 4 5 0 0
BITMAP
20
D0
90
F0
60
ENDCHAR
STARTCHAR 13BF
ENCODING 5055
SWIDTH 576 0
DWIDTH 4 0
BBX 4 5 0 -1
BITMAP
E0
80
90
70
30
ENDCHAR
STARTCHAR 13C0
ENCODING 5056
SWIDTH 576 0
DWIDTH 4 0
BBX 4 5 0 0
BITMAP
20
D0
80
90
60
ENDCHAR
STARTCHAR 13C1
ENCODING 5057
SWIDTH 720 0
DWIDTH 5 0
BBX 5 5 0 0
BITMAP
10
28
28
28
C8
ENDCHAR
STARTCHAR 13C2
ENCODING 5058
SWIDTH 432 0
DWIDTH 3 0
BBX 3 4 0 0
BITMAP
80
E0
A0
A0
ENDCHAR
STARTCHAR 13C3
ENCODING 5059
SWIDTH 432 0
DWIDTH 3 0
BBX 3 4 0 0
BITMAP
60
40
40
E0
ENDCHAR
STARTCHAR 13C4
ENCODING 5060
SWIDTH 432 0
DWIDTH 3 0
BBX 4 5 0 0
BITMAP
20
D0
D0
70
10
ENDCHAR
STARTCHAR 13C5
ENCODING 5061
SWIDTH 864 0
DWIDTH 6 0
BBX 6 5 0 0
BITMAP
20
D0
9C
94
60
ENDCHAR
STARTCHAR 13C6
ENCODING 5062
SWIDTH 432 0
DWIDTH 3 0
BBX 3 4 0 0
BITMAP
60
40
40
E0
ENDCHAR
STARTCHAR 13C7
ENCODING 5063
SWIDTH 720 0
DWIDTH 5 0
BBX 6 4 0 1
BITMAP
08
B4
A4
F8
ENDCHAR
STARTCHAR 13C8
ENCODING 5064
SWIDTH 432 0
DWIDTH 3 0
BBX 3 4 0 1
BITMAP
E0
A0
A0
C0
ENDCHAR
STARTCHAR 13C9
ENCODING 5065
SWIDTH 1008 0
DWIDTH 7 0
BBX 7 4 0 1
BITMAP
DE
30
30
10
ENDCHAR
STARTCHAR 13CA
ENCODING 5066
SWIDTH 864 0
DWIDTH 6 0
BBX 6 4 0 1
BITMAP
38
84
A4
F8
ENDCHAR
STARTCHAR 13CB
ENCODING 5067
SWIDTH 432 0
DWIDTH 3 0
BBX 3 5 0 0
BITMAP
40
A0
40
80
E0
ENDCHAR
STARTCHAR 13CC
ENCODING 5068
SWIDTH 576 0
DWIDTH 4 0
BBX 4 4 0 0
BITMAP
90
90
F0
60
ENDCHAR
STARTCHAR 13CD
ENCODING 5069
SWIDTH 864 0
DWIDTH 6 0
BBX 6 4 0 1
BITMAP
1C
04
64
D8
ENDCHAR
STARTCHAR 13CE
ENCODING 5070
SWIDTH 432 0
DWIDTH 3 0
BBX 4 4 0 0
BITMAP
20
E0
F0
20
ENDCHAR
STARTCHAR 13CF
ENCODING 5071
SWIDTH 432 0
DWIDTH 3 0
BBX 3 4 0 0
BITMAP
80
C0
A0
E0
ENDCHAR
STARTCHAR 13D0
ENCODING 5072
SWIDTH 576 0
DWIDTH 4 0
BBX 4 4 0 0
BITMAP
40
B0
40
60
ENDCHAR
STARTCHAR 13D1
ENCODING 5073
SWIDTH 576 0
DWIDTH 4 0
BBX 3 4 0 1
BITMAP
E0
40
A0
E0
ENDCHAR
STARTCHAR 13D2
ENCODING 5074
SWIDTH 432 0
DWIDTH 3 0
BBX 3 4 0 0
BITMAP
E0
A0
A0
A0
ENDCHAR
STARTCHAR 13D3
ENCODING 5075
SWIDTH 288 0
DWIDTH 2 0
BBX 2 4 0 0
BITMAP
80
80
80
C0
ENDCHAR
STARTCHAR 13D4
ENCODING 5076
SWIDTH 864 0
DWIDTH 6 0
BBX 5 4 0 0
BITMAP
B8
68
58
30
ENDCHAR
STARTCHAR 13D5
ENCODING 5077
SWIDTH 432 0
DWIDTH 3 0
BBX 2 4 1 1
BITMAP
C0
80
40
C0
ENDCHAR
STARTCHAR 13D6
ENCODING 5078
SWIDTH 576 0
DWIDTH 4 0
BBX 3 4 1 0
BITMAP
80
80
A0
60
ENDCHAR
STARTCHAR 13D7
ENCODING 5079
SWIDTH 288 0
DWIDTH 2 0
BBX 2 4 0 0
BITMAP
40
40
40
C0
ENDCHAR
STARTCHAR 13D8
ENCODING 5080
SWIDTH 288 0
DWIDTH 2 0
BBX 2 4 0 0
BITMAP
40
40
40
C0
ENDCHAR
STARTCHAR 13D9
ENCODING 5081
SWIDTH 576 0
DWIDTH 4 0
BBX 4 4 0 0
BITMAP
90
60
60
20
ENDCHAR
STARTCHAR 13DA
ENCODING 5082
SWIDTH 432 0
DWIDTH 3 0
BBX 3 5 0 0
BITMAP
40
A0
40
20
E0
ENDCHAR
STARTCHAR 13DB
ENCODING 5083
SWIDTH 576 0
DWIDTH 4 0
BBX 4 5 0 0
BITMAP
30
D0
A0
A0
C0
ENDCHAR
STARTCHAR 13DC
ENCODING 5084
SWIDTH 576 0
DWIDTH 4 0
BBX 5 5 0 0
BITMAP
20
60
20
50
F8
ENDCHAR
STARTCHAR 13DD
ENCODING 5085
SWIDTH 432 0
DWIDTH 3 0
BBX 3 5 0 0
BITMAP
40
A0
80
80
E0
ENDCHAR
STARTCHAR 13DE
ENCODING 5086
SWIDTH 432 0
DWIDTH 3 0
BBX 3 4 0 0
BITMAP
80
80
80
E0
ENDCHAR
STARTCHAR 13DF
ENCODING 5087
SWIDTH 576 0
DWIDTH 4 0
BBX 4 5 0 0
BITMAP
20
D0
80
80
60
ENDCHAR
STARTCHAR 13E0
ENCODING 5088
SWIDTH 720 0
DWIDTH 5 0
BBX 5 4 0 0
BITMAP
50
D0
78
30
ENDCHAR
STARTCHAR 13E1
ENCODING 5089
SWIDTH 720 0
DWIDTH 5 0
BBX 5 5 0 0
BITMAP
20
F8
F0
30
30
ENDCHAR
STARTCHAR 13E2
ENCODING 5090
SWIDTH 432 0
DWIDTH 3 0
BBX 3 4 0 0
BITMAP
E0
A0
C0
80
ENDCHAR
STARTCHAR 13E3
ENCODING 5091
SWIDTH 576 0
DWIDTH 4 0
BBX 4 5 0 0
BITMAP
20
D0
80
80
60
ENDCHAR
STARTCHAR 13E4
ENCODING 5092
SWIDTH 432 0
DWIDTH 3 0
BBX 2 4 1 0
BITMAP
C0
C0
80
80
ENDCHAR
STARTCHAR 13E5
ENCODING 5093
SWIDTH 576 0
DWIDTH 4 0
BBX 4 4 0 0
BITMAP
80
F0
C0
C0
ENDCHAR
STARTCHAR 13E6
ENCODING 5094
SWIDTH 432 0
DWIDTH 3 0
BBX 3 4 0 0
BITMAP
E0
C0
C0
A0
ENDCHAR
STARTCHAR 13E7
ENCODING 5095
SWIDTH 432 0
DWIDTH 3 0
BBX 3 4 0 0
BITMAP
20
E0
A0
E0
ENDCHAR
STARTCHAR 13E8
ENCODING 5096
SWIDTH 720 0
DWIDTH 5 0
BBX 5 5 0 0
BITMAP
20
D8
80
80
78
ENDCHAR
STARTCHAR 13E9
ENCODING 5097
SWIDTH 576 0
DWIDTH 4 0
BBX 4 5 0 0
BITMAP
20
D0
80
90
70
ENDCHAR
STARTCHAR 13EA
ENCODING 5098
SWIDTH 864 0
DWIDTH 6 0
BBX 6 5 0 0
BITMAP
28
74
5C
E4
F8
ENDCHAR
STARTCHAR 13EB
ENCODING 5099
SWIDTH 576 0
DWIDTH 4 0
BBX 4 5 0 0
BITMAP
20
D0
D0
B0
60
ENDCHAR
STARTCHAR 13EC
ENCODING 5100
SWIDTH 720 0
DWIDTH 5 0
BBX 5 5 0 0
BITMAP
40
A8
C8
88
70
ENDCHAR
STARTCHAR 13ED
ENCODING 5101
SWIDTH 432 0
DWIDTH 3 0
BBX 4 5 0 0
BITMAP
20
60
50
E0
E0
ENDCHAR
STARTCHAR 13EE
ENCODING 5102
SWIDTH 432 0
DWIDTH 3 0
BBX 3 4 0 1
BITMAP
C0
C0
A0
E0
ENDCHAR
STARTCHAR 13EF
ENCODING 5103
SWIDTH 864 0
DWIDTH 6 0
BBX 6 4 0 1
BITMAP
38
84
B4
F8
ENDCHAR
STARTCHAR 13F0
ENCODING 5104
SWIDTH 432 0
DWIDTH 3 0
BBX 3 5 0 0
BITMAP
E0
A0
A0
A0
40
ENDCHAR
STARTCHAR 13F1
ENCODING 5105
SWIDTH 576 0
DWIDTH 4 0
BBX 3 4 1 0
BITMAP
80
E0
E0
E0
ENDCHAR
STARTCHAR 13F2
ENCODING 5106
SWIDTH 432 0
DWIDTH 3 0
BBX 3 5 0 0
BITMAP
40
A0
80
E0
A0
ENDCHAR
STARTCHAR 13F3
ENCODING 5107
SWIDTH 720 0
DWIDTH 5 0
BBX 5 5 0 0
BITMAP
20
D8
80
90
60
ENDCHAR
STARTCHAR 13F4
ENCODING 5108
SWIDTH 432 0
DWIDTH 3 0
BBX 3 4 0 0
BITMAP
E0
E0
A0
E0
ENDCHAR
STARTCHAR 13F5
ENCODING 5109
SWIDTH 576 0
DWIDTH 4 0
BBX 4 4 0 1
BITMAP
C0
90
90
60
ENDCHAR
STARTCHAR 13F8
ENCODING 5112
SWIDTH 432 0
DWIDTH 3 0
BBX 3 4 0 -1
BITMAP
E0
A0
A0
C0
ENDCHAR
STARTCHAR 13F9
ENCODING 5113
SWIDTH 432 0
DWIDTH 3 0
BBX 3 3 0 0
BITMAP
20
60
A0
ENDCHAR
STARTCHAR 13FA
ENCODING 5114
SWIDTH 288 0
DWIDTH 2 0
BBX 3 3 0 0
BITMAP
80
C0
A0
ENDCHAR
STARTCHAR 13FB
ENCODING 5115
SWIDTH 576 0
DWIDTH 4 0
BBX 4 3 0 0
BITMAP
F0
A0
E0
ENDCHAR
STARTCHAR 13FC
ENCODING 5116
SWIDTH 288 0
DWIDTH 2 0
BBX 2 3 0 0
BITMAP
C0
C0
C0
ENDCHAR
STARTCHAR 13FD
ENCODING 5117
SWIDTH 432 0
DWIDTH 3 0
BBX 3 3 0 0
BITMAP
80
A0
E0
ENDCHAR
STARTCHAR 1400
ENCODING 5120
SWIDTH 288 0
DWIDTH 2 0
BBX 2 2 0 1
BITMAP
C0
C0
ENDCHAR
STARTCHAR 1401
ENCODING 5121
SWIDTH 576 0
DWIDTH 4 0
BBX 4 4 0 0
BITMAP
F0
60
60
20
ENDCHAR
STARTCHAR 1402
ENCODING 5122
SWIDTH 576 0
DWIDTH 4 0
BBX 4 6 0 0
BITMAP
20
00
20
60
90
70
ENDCHAR
STARTCHAR 1403
ENCODING 5123
SWIDTH 576 0
DWIDTH 4 0
BBX 4 4 0 0
BITMAP
20
60
90
70
ENDCHAR
STARTCHAR 1404
ENCODING 5124
SWIDTH 576 0
DWIDTH 4 0
BBX 4 6 0 0
BITMAP
20
00
20
60
90
70
ENDCHAR
STARTCHAR 1405
ENCODING 5125
SWIDTH 720 0
DWIDTH 5 0
BBX 4 4 0 0
BITMAP
E0
90
A0
C0
ENDCHAR
STARTCHAR 1406
ENCODING 5126
SWIDTH 720 0
DWIDTH 5 0
BBX 4 6 0 0
BITMAP
20
00
E0
90
A0
C0
ENDCHAR
STARTCHAR 1407
ENCODING 5127
SWIDTH 720 0
DWIDTH 5 0
BBX 4 6 0 0
BITMAP
40
00
E0
90
A0
C0
ENDCHAR
STARTCHAR 1408
ENCODING 5128
SWIDTH 720 0
DWIDTH 5 0
BBX 4 4 0 0
BITMAP
E0
D0
E0
C0
ENDCHAR
STARTCHAR 1409
ENCODING 5129
SWIDTH 720 0
DWIDTH 5 0
BBX 4 4 0 0
BITMAP
E0
D0
A0
C0
ENDCHAR
STARTCHAR 140A
ENCODING 5130
SWIDTH 720 0
DWIDTH 5 0
BBX 4 4 1 0
BITMAP
30
D0
50
30
ENDCHAR
STARTCHAR 140B
ENCODING 5131
SWIDTH 720 0
DWIDTH 5 0
BBX 4 6 1 0
BITMAP
40
00
30
D0
50
30
ENDCHAR
STARTCHAR 140C
ENCODING 5132
SWIDTH 576 0
DWIDTH 4 0
BBX 4 4 0 0
BITMAP
70
D0
60
20
ENDCHAR
STARTCHAR 140D
ENCODING 5133
SWIDTH 576 0
DWIDTH 4 0
BBX 4 4 0 0
BITMAP
F0
60
60
20
ENDCHAR
STARTCHAR 140E
ENCODING 5134
SWIDTH 576 0
DWIDTH 4 0
BBX 4 4 0 0
BITMAP
60
D0
50
70
ENDCHAR
STARTCHAR 140F
ENCODING 5135
SWIDTH 576 0
DWIDTH 4 0
BBX 4 4 0 0
BITMAP
20
60
90
70
ENDCHAR
STARTCHAR 1410
ENCODING 5136
SWIDTH 576 0
DWIDTH 4 0
BBX 4 6 0 0
BITMAP
20
00
60
D0
50
70
ENDCHAR
STARTCHAR 1411
ENCODING 5137
SWIDTH 576 0
DWIDTH 4 0
BBX 4 6 0 0
BITMAP
20
00
20
60
90
70
ENDCHAR
STARTCHAR 1412
ENCODING 5138
SWIDTH 864 0
DWIDTH 6 0
BBX 5 4 0 0
BITMAP
70
C8
50
60
ENDCHAR
STARTCHAR 1413
ENCODING 5139
SWIDTH 864 0
DWIDTH 6 0
BBX 6 4 0 0
BITMAP
E0
94
A0
C0
ENDCHAR
STARTCHAR 1414
ENCODING 5140
SWIDTH 864 0
DWIDTH 6 0
BBX 5 6 0 0
BITMAP
10
00
70
C8
50
60
ENDCHAR
STARTCHAR 1415
ENCODING 5141
SWIDTH 864 0
DWIDTH 6 0
BBX 6 6 0 0
BITMAP
20
00
E0
94
A0
C0
ENDCHAR
STARTCHAR 1416
ENCODING 5142
SWIDTH 720 0
DWIDTH 5 0
BBX 4 4 0 2
BITMAP
E0
90
A0
C0
ENDCHAR
STARTCHAR 1417
ENCODING 5143
SWIDTH 864 0
DWIDTH 6 0
BBX 6 4 0 0
BITMAP
0C
B4
14
0C
ENDCHAR
STARTCHAR 1418
ENCODING 5144
SWIDTH 864 0
DWIDTH 6 0
BBX 5 4 1 0
BITMAP
30
D8
50
30
ENDCHAR
STARTCHAR 1419
ENCODING 5145
SWIDTH 864 0
DWIDTH 6 0
BBX 6 6 0 0
BITMAP
10
00
0C
B4
14
0C
ENDCHAR
STARTCHAR 141A
ENCODING 5146
SWIDTH 864 0
DWIDTH 6 0
BBX 5 6 1 0
BITMAP
40
00
30
D8
50
30
ENDCHAR
STARTCHAR 141B
ENCODING 5147
SWIDTH 720 0
DWIDTH 5 0
BBX 4 4 1 2
BITMAP
30
D0
50
30
ENDCHAR
STARTCHAR 141C
ENCODING 5148
SWIDTH 432 0
DWIDTH 3 0
BBX 4 3 0 1
BITMAP
D0
D0
60
ENDCHAR
STARTCHAR 141D
ENCODING 5149
SWIDTH 576 0
DWIDTH 4 0
BBX 4 4 0 1
BITMAP
10
30
C0
40
ENDCHAR
STARTCHAR 141E
ENCODING 5150
SWIDTH 432 0
DWIDTH 3 0
BBX 3 3 0 1
BITMAP
40
A0
E0
ENDCHAR
STARTCHAR 141F
ENCODING 5151
SWIDTH 288 0
DWIDTH 2 0
BBX 2 3 0 1
BITMAP
40
80
80
ENDCHAR
STARTCHAR 1420
ENCODING 5152
SWIDTH 288 0
DWIDTH 2 0
BBX 2 3 0 1
BITMAP
80
40
40
ENDCHAR
STARTCHAR 1421
ENCODING 5153
SWIDTH 432 0
DWIDTH 3 0
BBX 3 3 0 1
BITMAP
A0
A0
40
ENDCHAR
STARTCHAR 1422
ENCODING 5154
SWIDTH 432 0
DWIDTH 3 0
BBX 3 4 0 1
BITMAP
40
A0
A0
80
ENDCHAR
STARTCHAR 1423
ENCODING 5155
SWIDTH 432 0
DWIDTH 3 0
BBX 3 3 0 1
BITMAP
60
20
C0
ENDCHAR
STARTCHAR 1424
ENCODING 5156
SWIDTH 288 0
DWIDTH 2 0
BBX 2 2 0 1
BITMAP
C0
40
ENDCHAR
STARTCHAR 1425
ENCODING 5157
SWIDTH 432 0
DWIDTH 3 0
BBX 3 3 0 1
BITMAP
60
C0
80
ENDCHAR
STARTCHAR 1426
ENCODING 5158
SWIDTH 288 0
DWIDTH 2 0
BBX 2 3 0 1
BITMAP
C0
C0
C0
ENDCHAR
STARTCHAR 1427
ENCODING 5159
SWIDTH 144 0
DWIDTH 1 0
BBX 1 1 0 2
BITMAP
80
ENDCHAR
STARTCHAR 1428
ENCODING 5160
SWIDTH 432 0
DWIDTH 3 0
BBX 2 1 1 2
BITMAP
C0
ENDCHAR
STARTCHAR 1429
ENCODING 5161
SWIDTH 432 0
DWIDTH 3 0
BBX 2 2 1 1
BITMAP
80
C0
ENDCHAR
STARTCHAR 142A
ENCODING 5162
SWIDTH 432 0
DWIDTH 3 0
BBX 2 2 1 1
BITMAP
C0
80
ENDCHAR
STARTCHAR 142B
ENCODING 5163
SWIDTH 864 0
DWIDTH 6 0
BBX 6 4 0 0
BITMAP
F8
64
64
20
ENDCHAR
STARTCHAR 142C
ENCODING 5164
SWIDTH 720 0
DWIDTH 5 0
BBX 5 4 0 0
BITMAP
30
70
98
70
ENDCHAR
STARTCHAR 142D
ENCODING 5165
SWIDTH 864 0
DWIDTH 6 0
BBX 6 4 0 0
BITMAP
E8
98
A4
C0
ENDCHAR
STARTCHAR 142E
ENCODING 5166
SWIDTH 1008 0
DWIDTH 7 0
BBX 6 4 1 0
BITMAP
38
D8
54
30
ENDCHAR
STARTCHAR 142F
ENCODING 5167
SWIDTH 576 0
DWIDTH 4 0
BBX 4 4 0 0
BITMAP
90
60
60
20
ENDCHAR
STARTCHAR 1430
ENCODING 5168
SWIDTH 576 0
DWIDTH 4 0
BBX 4 6 0 0
BITMAP
20
00
20
60
90
90
ENDCHAR
STARTCHAR 1431
ENCODING 5169
SWIDTH 576 0
DWIDTH 4 0
BBX 4 4 0 0
BITMAP
20
60
90
90
ENDCHAR
STARTCHAR 1432
ENCODING 5170
SWIDTH 576 0
DWIDTH 4 0
BBX 4 6 0 0
BITMAP
20
00
20
60
90
90
ENDCHAR
STARTCHAR 1433
ENCODING 5171
SWIDTH 576 0
DWIDTH 4 0
BBX 4 4 0 1
BITMAP
40
30
20
C0
ENDCHAR
STARTCHAR 1434
ENCODING 5172
SWIDTH 576 0
DWIDTH 4 0
BBX 4 6 0 0
BITMAP
20
00
40
30
20
C0
ENDCHAR
STARTCHAR 1435
ENCODING 5173
SWIDTH 576 0
DWIDTH 4 0
BBX 4 6 0 0
BITMAP
40
00
40
30
20
C0
ENDCHAR
STARTCHAR 1436
ENCODING 5174
SWIDTH 576 0
DWIDTH 4 0
BBX 4 4 0 1
BITMAP
40
70
60
80
ENDCHAR
STARTCHAR 1437
ENCODING 5175
SWIDTH 576 0
DWIDTH 4 0
BBX 4 4 0 1
BITMAP
40
70
20
C0
ENDCHAR
STARTCHAR 1438
ENCODING 5176
SWIDTH 576 0
DWIDTH 4 0
BBX 3 4 1 1
BITMAP
20
C0
40
20
ENDCHAR
STARTCHAR 1439
ENCODING 5177
SWIDTH 576 0
DWIDTH 4 0
BBX 3 6 1 0
BITMAP
40
00
20
C0
40
20
ENDCHAR
STARTCHAR 143A
ENCODING 5178
SWIDTH 576 0
DWIDTH 4 0
BBX 4 4 0 0
BITMAP
50
D0
60
20
ENDCHAR
STARTCHAR 143B
ENCODING 5179
SWIDTH 576 0
DWIDTH 4 0
BBX 4 4 0 0
BITMAP
90
60
60
20
ENDCHAR
STARTCHAR 143C
ENCODING 5180
SWIDTH 576 0
DWIDTH 4 0
BBX 4 4 0 0
BITMAP
60
D0
50
90
ENDCHAR
STARTCHAR 143D
ENCODING 5181
SWIDTH 576 0
DWIDTH 4 0
BBX 4 4 0 0
BITMAP
20
60
90
90
ENDCHAR
STARTCHAR 143E
ENCODING 5182
SWIDTH 576 0
DWIDTH 4 0
BBX 4 6 0 0
BITMAP
20
00
60
D0
50
90
ENDCHAR
STARTCHAR 143F
ENCODING 5183
SWIDTH 576 0
DWIDTH 4 0
BBX 4 6 0 0
BITMAP
20
00
20
60
90
90
ENDCHAR
STARTCHAR 1440
ENCODING 5184
SWIDTH 720 0
DWIDTH 5 0
BBX 5 4 0 1
BITMAP
20
98
10
60
ENDCHAR
STARTCHAR 1441
ENCODING 5185
SWIDTH 720 0
DWIDTH 5 0
BBX 4 4 0 1
BITMAP
40
30
20
C0
ENDCHAR
STARTCHAR 1442
ENCODING 5186
SWIDTH 720 0
DWIDTH 5 0
BBX 5 6 0 0
BITMAP
10
00
20
98
10
60
ENDCHAR
STARTCHAR 1443
ENCODING 5187
SWIDTH 720 0
DWIDTH 5 0
BBX 4 6 0 0
BITMAP
20
00
40
30
20
C0
ENDCHAR
STARTCHAR 1444
ENCODING 5188
SWIDTH 720 0
DWIDTH 5 0
BBX 5 4 0 1
BITMAP
08
B0
10
08
ENDCHAR
STARTCHAR 1445
ENCODING 5189
SWIDTH 720 0
DWIDTH 5 0
BBX 3 4 1 1
BITMAP
20
C0
40
20
ENDCHAR
STARTCHAR 1446
ENCODING 5190
SWIDTH 720 0
DWIDTH 5 0
BBX 5 6 0 0
BITMAP
10
00
08
B0
10
08
ENDCHAR
STARTCHAR 1447
ENCODING 5191
SWIDTH 720 0
DWIDTH 5 0
BBX 3 6 1 0
BITMAP
40
00
20
C0
40
20
ENDCHAR
STARTCHAR 1448
ENCODING 5192
SWIDTH 576 0
DWIDTH 4 0
BBX 3 6 1 0
BITMAP
80
00
20
C0
40
20
ENDCHAR
STARTCHAR 1449
ENCODING 5193
SWIDTH 432 0
DWIDTH 3 0
BBX 2 3 1 2
BITMAP
C0
80
40
ENDCHAR
STARTCHAR 144A
ENCODING 5194
SWIDTH 144 0
DWIDTH 1 0
BBX 1 3 0 1
BITMAP
80
80
80
ENDCHAR
STARTCHAR 144B
ENCODING 5195
SWIDTH 288 0
DWIDTH 2 0
BBX 2 3 0 1
BITMAP
80
C0
C0
ENDCHAR
STARTCHAR 144C
ENCODING 5196
SWIDTH 576 0
DWIDTH 4 0
BBX 4 4 0 0
BITMAP
90
90
90
60
ENDCHAR
STARTCHAR 144D
ENCODING 5197
SWIDTH 576 0
DWIDTH 4 0
BBX 4 6 0 0
BITMAP
60
00
F0
90
90
90
ENDCHAR
STARTCHAR 144E
ENCODING 5198
SWIDTH 576 0
DWIDTH 4 0
BBX 4 4 0 1
BITMAP
F0
90
90
90
ENDCHAR
STARTCHAR 144F
ENCODING 5199
SWIDTH 576 0
DWIDTH 4 0
BBX 4 4 0 2
BITMAP
F0
90
90
90
ENDCHAR
STARTCHAR 1450
ENCODING 5200
SWIDTH 576 0
DWIDTH 4 0
BBX 4 4 0 0
BITMAP
60
10
10
E0
ENDCHAR
STARTCHAR 1451
ENCODING 5201
SWIDTH 576 0
DWIDTH 4 0
BBX 4 4 0 2
BITMAP
60
10
10
E0
ENDCHAR
STARTCHAR 1452
ENCODING 5202
SWIDTH 576 0
DWIDTH 4 0
BBX 4 6 0 0
BITMAP
60
00
60
10
10
E0
ENDCHAR
STARTCHAR 1453
ENCODING 5203
SWIDTH 576 0
DWIDTH 4 0
BBX 4 4 0 0
BITMAP
60
90
10
E0
ENDCHAR
STARTCHAR 1454
ENCODING 5204
SWIDTH 576 0
DWIDTH 4 0
BBX 4 4 0 0
BITMAP
60
50
10
E0
ENDCHAR
STARTCHAR 1455
ENCODING 5205
SWIDTH 576 0
DWIDTH 4 0
BBX 4 4 0 0
BITMAP
E0
80
80
70
ENDCHAR
STARTCHAR 1456
ENCODING 5206
SWIDTH 576 0
DWIDTH 4 0
BBX 4 6 0 0
BITMAP
20
00
E0
80
80
70
ENDCHAR
STARTCHAR 1457
ENCODING 5207
SWIDTH 720 0
DWIDTH 5 0
BBX 5 4 0 0
BITMAP
48
C8
48
30
ENDCHAR
STARTCHAR 1458
ENCODING 5208
SWIDTH 720 0
DWIDTH 5 0
BBX 5 4 0 0
BITMAP
90
98
90
60
ENDCHAR
STARTCHAR 1459
ENCODING 5209
SWIDTH 720 0
DWIDTH 5 0
BBX 5 4 0 1
BITMAP
78
C8
48
48
ENDCHAR
STARTCHAR 145A
ENCODING 5210
SWIDTH 720 0
DWIDTH 5 0
BBX 5 4 0 1
BITMAP
F0
98
90
90
ENDCHAR
STARTCHAR 145B
ENCODING 5211
SWIDTH 720 0
DWIDTH 5 0
BBX 5 4 0 2
BITMAP
78
C8
48
48
ENDCHAR
STARTCHAR 145C
ENCODING 5212
SWIDTH 720 0
DWIDTH 5 0
BBX 5 4 0 2
BITMAP
F0
98
90
90
ENDCHAR
STARTCHAR 145D
ENCODING 5213
SWIDTH 720 0
DWIDTH 5 0
BBX 5 4 0 0
BITMAP
30
88
08
70
ENDCHAR
STARTCHAR 145E
ENCODING 5214
SWIDTH 720 0
DWIDTH 5 0
BBX 5 4 0 0
BITMAP
60
18
10
E0
ENDCHAR
STARTCHAR 145F
ENCODING 5215
SWIDTH 720 0
DWIDTH 5 0
BBX 5 4 0 2
BITMAP
30
88
08
70
ENDCHAR
STARTCHAR 1460
ENCODING 5216
SWIDTH 720 0
DWIDTH 5 0
BBX 5 4 0 2
BITMAP
60
18
10
E0
ENDCHAR
STARTCHAR 1461
ENCODING 5217
SWIDTH 720 0
DWIDTH 5 0
BBX 5 4 0 0
BITMAP
70
C0
40
38
ENDCHAR
STARTCHAR 1462
ENCODING 5218
SWIDTH 720 0
DWIDTH 5 0
BBX 5 4 0 0
BITMAP
E0
88
80
70
ENDCHAR
STARTCHAR 1463
ENCODING 5219
SWIDTH 720 0
DWIDTH 5 0
BBX 5 6 0 0
BITMAP
10
00
70
C0
40
38
ENDCHAR
STARTCHAR 1464
ENCODING 5220
SWIDTH 720 0
DWIDTH 5 0
BBX 5 6 0 0
BITMAP
20
00
E0
88
80
70
ENDCHAR
STARTCHAR 1465
ENCODING 5221
SWIDTH 720 0
DWIDTH 5 0
BBX 5 4 0 0
BITMAP
70
40
C0
38
ENDCHAR
STARTCHAR 1466
ENCODING 5222
SWIDTH 432 0
DWIDTH 3 0
BBX 3 3 0 1
BITMAP
C0
80
60
ENDCHAR
STARTCHAR 1467
ENCODING 5223
SWIDTH 720 0
DWIDTH 5 0
BBX 5 4 0 0
BITMAP
98
98
98
60
ENDCHAR
STARTCHAR 1468
ENCODING 5224
SWIDTH 720 0
DWIDTH 5 0
BBX 5 4 0 1
BITMAP
F8
98
98
90
ENDCHAR
STARTCHAR 1469
ENCODING 5225
SWIDTH 720 0
DWIDTH 5 0
BBX 5 4 0 0
BITMAP
68
18
18
E0
ENDCHAR
STARTCHAR 146A
ENCODING 5226
SWIDTH 720 0
DWIDTH 5 0
BBX 5 4 0 0
BITMAP
E8
88
88
70
ENDCHAR
STARTCHAR 146B
ENCODING 5227
SWIDTH 432 0
DWIDTH 3 0
BBX 3 5 0 0
BITMAP
40
A0
60
20
20
ENDCHAR
STARTCHAR 146C
ENCODING 5228
SWIDTH 432 0
DWIDTH 3 0
BBX 3 6 0 0
BITMAP
40
40
A0
A0
C0
80
ENDCHAR
STARTCHAR 146D
ENCODING 5229
SWIDTH 432 0
DWIDTH 3 0
BBX 3 5 0 0
BITMAP
40
A0
A0
C0
80
ENDCHAR
STARTCHAR 146E
ENCODING 5230
SWIDTH 432 0
DWIDTH 3 0
BBX 3 6 0 0
BITMAP
40
40
A0
A0
C0
80
ENDCHAR
STARTCHAR 146F
ENCODING 5231
SWIDTH 432 0
DWIDTH 3 0
BBX 3 4 0 0
BITMAP
20
20
E0
E0
ENDCHAR
STARTCHAR 1470
ENCODING 5232
SWIDTH 432 0
DWIDTH 3 0
BBX 3 6 0 0
BITMAP
20
00
20
20
E0
E0
ENDCHAR
STARTCHAR 1471
ENCODING 5233
SWIDTH 432 0
DWIDTH 3 0
BBX 3 6 0 0
BITMAP
60
00
20
20
E0
E0
ENDCHAR
STARTCHAR 1472
ENCODING 5234
SWIDTH 432 0
DWIDTH 3 0
BBX 3 4 0 0
BITMAP
80
80
E0
E0
ENDCHAR
STARTCHAR 1473
ENCODING 5235
SWIDTH 432 0
DWIDTH 3 0
BBX 3 6 0 0
BITMAP
80
00
80
80
E0
E0
ENDCHAR
STARTCHAR 1474
ENCODING 5236
SWIDTH 576 0
DWIDTH 4 0
BBX 4 5 0 0
BITMAP
20
50
D0
30
10
ENDCHAR
STARTCHAR 1475
ENCODING 5237
SWIDTH 576 0
DWIDTH 4 0
BBX 4 5 0 0
BITMAP
40
A0
70
20
20
ENDCHAR
STARTCHAR 1476
ENCODING 5238
SWIDTH 576 0
DWIDTH 4 0
BBX 4 5 0 0
BITMAP
20
50
D0
60
40
ENDCHAR
STARTCHAR 1477
ENCODING 5239
SWIDTH 576 0
DWIDTH 4 0
BBX 4 5 0 0
BITMAP
40
A0
B0
C0
80
ENDCHAR
STARTCHAR 1478
ENCODING 5240
SWIDTH 576 0
DWIDTH 4 0
BBX 4 6 0 0
BITMAP
20
20
50
D0
60
40
ENDCHAR
STARTCHAR 1479
ENCODING 5241
SWIDTH 576 0
DWIDTH 4 0
BBX 4 6 0 0
BITMAP
40
40
A0
B0
C0
80
ENDCHAR
STARTCHAR 147A
ENCODING 5242
SWIDTH 576 0
DWIDTH 4 0
BBX 4 4 0 0
BITMAP
10
90
70
70
ENDCHAR
STARTCHAR 147B
ENCODING 5243
SWIDTH 576 0
DWIDTH 4 0
BBX 4 4 0 0
BITMAP
20
30
E0
E0
ENDCHAR
STARTCHAR 147C
ENCODING 5244
SWIDTH 576 0
DWIDTH 4 0
BBX 4 6 0 0
BITMAP
10
00
10
90
70
70
ENDCHAR
STARTCHAR 147D
ENCODING 5245
SWIDTH 576 0
DWIDTH 4 0
BBX 4 6 0 0
BITMAP
20
00
20
30
E0
E0
ENDCHAR
STARTCHAR 147E
ENCODING 5246
SWIDTH 576 0
DWIDTH 4 0
BBX 4 4 0 0
BITMAP
40
C0
70
70
ENDCHAR
STARTCHAR 147F
ENCODING 5247
SWIDTH 576 0
DWIDTH 4 0
BBX 4 4 0 0
BITMAP
80
90
E0
E0
ENDCHAR
STARTCHAR 1480
ENCODING 5248
SWIDTH 576 0
DWIDTH 4 0
BBX 4 6 0 0
BITMAP
40
00
40
C0
70
70
ENDCHAR
STARTCHAR 1481
ENCODING 5249
SWIDTH 576 0
DWIDTH 4 0
BBX 4 6 0 0
BITMAP
80
00
80
90
E0
E0
ENDCHAR
STARTCHAR 1482
ENCODING 5250
SWIDTH 576 0
DWIDTH 4 0
BBX 4 4 0 0
BITMAP
40
40
F0
70
ENDCHAR
STARTCHAR 1483
ENCODING 5251
SWIDTH 288 0
DWIDTH 2 0
BBX 2 3 0 1
BITMAP
80
C0
40
ENDCHAR
STARTCHAR 1484
ENCODING 5252
SWIDTH 288 0
DWIDTH 2 0
BBX 2 3 0 1
BITMAP
40
C0
40
ENDCHAR
STARTCHAR 1485
ENCODING 5253
SWIDTH 576 0
DWIDTH 4 0
BBX 4 5 0 0
BITMAP
40
B0
70
30
20
ENDCHAR
STARTCHAR 1486
ENCODING 5254
SWIDTH 576 0
DWIDTH 4 0
BBX 4 5 0 0
BITMAP
40
B0
B0
D0
80
ENDCHAR
STARTCHAR 1487
ENCODING 5255
SWIDTH 576 0
DWIDTH 4 0
BBX 4 4 0 0
BITMAP
30
30
F0
E0
ENDCHAR
STARTCHAR 1488
ENCODING 5256
SWIDTH 576 0
DWIDTH 4 0
BBX 4 4 0 0
BITMAP
90
90
F0
E0
ENDCHAR
STARTCHAR 1489
ENCODING 5257
SWIDTH 432 0
DWIDTH 3 0
BBX 3 5 0 0
BITMAP
40
A0
20
20
20
ENDCHAR
STARTCHAR 148A
ENCODING 5258
SWIDTH 432 0
DWIDTH 3 0
BBX 3 6 0 0
BITMAP
40
40
A0
80
80
80
ENDCHAR
STARTCHAR 148B
ENCODING 5259
SWIDTH 432 0
DWIDTH 3 0
BBX 3 5 0 0
BITMAP
40
A0
80
80
80
ENDCHAR
STARTCHAR 148C
ENCODING 5260
SWIDTH 432 0
DWIDTH 3 0
BBX 3 6 0 0
BITMAP
40
40
A0
80
80
80
ENDCHAR
STARTCHAR 148D
ENCODING 5261
SWIDTH 432 0
DWIDTH 3 0
BBX 3 4 0 0
BITMAP
20
20
20
E0
ENDCHAR
STARTCHAR 148E
ENCODING 5262
SWIDTH 432 0
DWIDTH 3 0
BBX 3 6 0 0
BITMAP
20
00
20
20
20
E0
ENDCHAR
STARTCHAR 148F
ENCODING 5263
SWIDTH 432 0
DWIDTH 3 0
BBX 3 6 0 0
BITMAP
60
00
20
20
20
E0
ENDCHAR
STARTCHAR 1490
ENCODING 5264
SWIDTH 432 0
DWIDTH 3 0
BBX 3 4 0 0
BITMAP
80
80
80
E0
ENDCHAR
STARTCHAR 1491
ENCODING 5265
SWIDTH 432 0
DWIDTH 3 0
BBX 3 6 0 0
BITMAP
80
00
80
80
80
E0
ENDCHAR
STARTCHAR 1492
ENCODING 5266
SWIDTH 576 0
DWIDTH 4 0
BBX 4 5 0 0
BITMAP
20
50
90
10
10
ENDCHAR
STARTCHAR 1493
ENCODING 5267
SWIDTH 576 0
DWIDTH 4 0
BBX 4 5 0 0
BITMAP
40
A0
30
20
20
ENDCHAR
STARTCHAR 1494
ENCODING 5268
SWIDTH 576 0
DWIDTH 4 0
BBX 4 5 0 0
BITMAP
20
50
C0
40
40
ENDCHAR
STARTCHAR 1495
ENCODING 5269
SWIDTH 576 0
DWIDTH 4 0
BBX 4 5 0 0
BITMAP
40
A0
90
80
80
ENDCHAR
STARTCHAR 1496
ENCODING 5270
SWIDTH 576 0
DWIDTH 4 0
BBX 4 6 0 0
BITMAP
20
20
50
C0
40
40
ENDCHAR
STARTCHAR 1497
ENCODING 5271
SWIDTH 576 0
DWIDTH 4 0
BBX 4 6 0 0
BITMAP
40
40
A0
90
80
80
ENDCHAR
STARTCHAR 1498
ENCODING 5272
SWIDTH 576 0
DWIDTH 4 0
BBX 4 4 0 0
BITMAP
10
90
10
70
ENDCHAR
STARTCHAR 1499
ENCODING 5273
SWIDTH 576 0
DWIDTH 4 0
BBX 4 4 0 0
BITMAP
20
30
20
E0
ENDCHAR
STARTCHAR 149A
ENCODING 5274
SWIDTH 576 0
DWIDTH 4 0
BBX 4 6 0 0
BITMAP
10
00
10
90
10
70
ENDCHAR
STARTCHAR 149B
ENCODING 5275
SWIDTH 576 0
DWIDTH 4 0
BBX 4 6 0 0
BITMAP
20
00
20
30
20
E0
ENDCHAR
STARTCHAR 149C
ENCODING 5276
SWIDTH 576 0
DWIDTH 4 0
BBX 4 4 0 0
BITMAP
40
C0
40
70
ENDCHAR
STARTCHAR 149D
ENCODING 5277
SWIDTH 576 0
DWIDTH 4 0
BBX 4 4 0 0
BITMAP
80
90
80
E0
ENDCHAR
STARTCHAR 149E
ENCODING 5278
SWIDTH 576 0
DWIDTH 4 0
BBX 4 6 0 0
BITMAP
40
00
40
C0
40
70
ENDCHAR
STARTCHAR 149F
ENCODING 5279
SWIDTH 576 0
DWIDTH 4 0
BBX 4 6 0 0
BITMAP
80
00
80
90
80
E0
ENDCHAR
STARTCHAR 14A0
ENCODING 5280
SWIDTH 576 0
DWIDTH 4 0
BBX 4 4 0 0
BITMAP
40
40
C0
70
ENDCHAR
STARTCHAR 14A1
ENCODING 5281
SWIDTH 288 0
DWIDTH 2 0
BBX 2 3 0 1
BITMAP
80
80
40
ENDCHAR
STARTCHAR 14A2
ENCODING 5282
SWIDTH 288 0
DWIDTH 2 0
BBX 1 3 1 1
BITMAP
80
80
80
ENDCHAR
STARTCHAR 14A3
ENCODING 5283
SWIDTH 432 0
DWIDTH 3 0
BBX 2 4 1 0
BITMAP
C0
40
40
40
ENDCHAR
STARTCHAR 14A4
ENCODING 5284
SWIDTH 432 0
DWIDTH 3 0
BBX 3 6 0 0
BITMAP
40
00
E0
80
80
80
ENDCHAR
STARTCHAR 14A5
ENCODING 5285
SWIDTH 432 0
DWIDTH 3 0
BBX 3 4 0 0
BITMAP
E0
80
80
80
ENDCHAR
STARTCHAR 14A6
ENCODING 5286
SWIDTH 432 0
DWIDTH 3 0
BBX 3 6 0 0
BITMAP
40
00
E0
80
80
80
ENDCHAR
STARTCHAR 14A7
ENCODING 5287
SWIDTH 432 0
DWIDTH 3 0
BBX 3 4 0 0
BITMAP
20
20
20
E0
ENDCHAR
STARTCHAR 14A8
ENCODING 5288
SWIDTH 432 0
DWIDTH 3 0
BBX 3 4 0 2
BITMAP
20
20
20
E0
ENDCHAR
STARTCHAR 14A9
ENCODING 5289
SWIDTH 432 0
DWIDTH 3 0
BBX 3 6 0 0
BITMAP
40
00
20
20
20
E0
ENDCHAR
STARTCHAR 14AA
ENCODING 5290
SWIDTH 432 0
DWIDTH 3 0
BBX 3 4 0 0
BITMAP
80
80
80
E0
ENDCHAR
STARTCHAR 14AB
ENCODING 5291
SWIDTH 432 0
DWIDTH 3 0
BBX 3 6 0 0
BITMAP
80
00
80
80
80
E0
ENDCHAR
STARTCHAR 14AC
ENCODING 5292
SWIDTH 576 0
DWIDTH 4 0
BBX 4 4 0 0
BITMAP
30
90
10
10
ENDCHAR
STARTCHAR 14AD
ENCODING 5293
SWIDTH 576 0
DWIDTH 4 0
BBX 2 4 1 0
BITMAP
C0
40
40
40
ENDCHAR
STARTCHAR 14AE
ENCODING 5294
SWIDTH 576 0
DWIDTH 4 0
BBX 4 4 0 0
BITMAP
70
C0
40
40
ENDCHAR
STARTCHAR 14AF
ENCODING 5295
SWIDTH 576 0
DWIDTH 4 0
BBX 3 4 0 0
BITMAP
E0
80
80
80
ENDCHAR
STARTCHAR 14B0
ENCODING 5296
SWIDTH 576 0
DWIDTH 4 0
BBX 4 6 0 0
BITMAP
20
00
70
C0
40
40
ENDCHAR
STARTCHAR 14B1
ENCODING 5297
SWIDTH 576 0
DWIDTH 4 0
BBX 3 6 0 0
BITMAP
40
00
E0
80
80
80
ENDCHAR
STARTCHAR 14B2
ENCODING 5298
SWIDTH 576 0
DWIDTH 4 0
BBX 4 4 0 0
BITMAP
10
90
10
70
ENDCHAR
STARTCHAR 14B3
ENCODING 5299
SWIDTH 576 0
DWIDTH 4 0
BBX 3 4 0 0
BITMAP
20
20
20
E0
ENDCHAR
STARTCHAR 14B4
ENCODING 5300
SWIDTH 576 0
DWIDTH 4 0
BBX 4 4 0 0
BITMAP
10
90
10
70
ENDCHAR
STARTCHAR 14B5
ENCODING 5301
SWIDTH 576 0
DWIDTH 4 0
BBX 3 4 0 2
BITMAP
20
20
20
E0
ENDCHAR
STARTCHAR 14B6
ENCODING 5302
SWIDTH 576 0
DWIDTH 4 0
BBX 4 4 0 0
BITMAP
40
C0
40
70
ENDCHAR
STARTCHAR 14B7
ENCODING 5303
SWIDTH 576 0
DWIDTH 4 0
BBX 3 4 0 0
BITMAP
80
80
80
E0
ENDCHAR
STARTCHAR 14B8
ENCODING 5304
SWIDTH 576 0
DWIDTH 4 0
BBX 4 6 0 0
BITMAP
40
00
40
C0
40
70
ENDCHAR
STARTCHAR 14B9
ENCODING 5305
SWIDTH 576 0
DWIDTH 4 0
BBX 3 6 0 0
BITMAP
80
00
80
80
80
E0
ENDCHAR
STARTCHAR 14BA
ENCODING 5306
SWIDTH 576 0
DWIDTH 4 0
BBX 4 4 0 0
BITMAP
40
40
C0
70
ENDCHAR
STARTCHAR 14BB
ENCODING 5307
SWIDTH 288 0
DWIDTH 2 0
BBX 2 3 0 1
BITMAP
80
80
C0
ENDCHAR
STARTCHAR 14BC
ENCODING 5308
SWIDTH 288 0
DWIDTH 2 0
BBX 2 3 0 1
BITMAP
80
80
40
ENDCHAR
STARTCHAR 14BD
ENCODING 5309
SWIDTH 288 0
DWIDTH 2 0
BBX 2 3 0 1
BITMAP
40
40
C0
ENDCHAR
STARTCHAR 14BE
ENCODING 5310
SWIDTH 288 0
DWIDTH 2 0
BBX 2 3 0 2
BITMAP
40
40
C0
ENDCHAR
STARTCHAR 14BF
ENCODING 5311
SWIDTH 432 0
DWIDTH 3 0
BBX 3 5 0 0
BITMAP
40
A0
20
40
E0
ENDCHAR
STARTCHAR 14C0
ENCODING 5312
SWIDTH 576 0
DWIDTH 4 0
BBX 3 3 1 0
BITMAP
E0
A0
E0
ENDCHAR
ENDFONT
